<svg width="38" height="38" viewBox="0 0 38 38" fill="none" xmlns="http://www.w3.org/2000/svg">
<path fill-rule="evenodd" clip-rule="evenodd" d="M5.48499 1.07031H32.4332C34.906 1.07031 36.9182 3.08253 36.9182 5.5553V23.8417C36.9182 26.3144 34.906 28.327 32.4328 28.3266H23.6899L26.1539 35.7178H29.5454C29.8962 35.7178 30.1812 36.002 30.1812 36.3532C30.1812 36.7036 29.8962 36.9885 29.5454 36.9885H8.37201C8.02121 36.9885 7.73666 36.7036 7.73666 36.3532C7.73666 36.002 8.02121 35.7178 8.37201 35.7178H11.7639L14.2279 28.3266H5.48499C3.01222 28.3266 1 26.314 1 23.8413V5.5553C1 3.08253 3.01222 1.07031 5.48499 1.07031ZM32.4328 27.0559C34.206 27.0559 35.6475 25.6136 35.6475 23.8417V5.5553C35.6475 3.78214 34.2056 2.34022 32.4328 2.34022H5.48499C3.71262 2.34022 2.27031 3.78254 2.27031 5.5553V23.8417C2.27031 25.614 3.71262 27.0559 5.48499 27.0559H32.4328ZM24.815 35.7178H13.1032L15.5672 28.3266H22.3506L24.815 35.7178Z" fill="#62CACA" stroke="#62CACA" stroke-width="0.5"/>
</svg>
