<svg width="742" height="278" viewBox="0 0 742 278" fill="none" xmlns="http://www.w3.org/2000/svg">
<path fill-rule="evenodd" clip-rule="evenodd" d="M370.851 183.48C272.493 183.48 178.157 188.465 108.624 197.283C39.0968 206.1 0 218.017 0 230.503C0 242.996 39.0968 254.913 108.624 263.73C178.157 272.548 272.493 277.526 370.851 277.526C469.209 277.526 563.545 272.548 633.078 263.73C702.605 254.913 741.702 242.996 741.702 230.503C741.702 218.017 702.605 206.1 633.078 197.283C563.545 188.465 469.209 183.48 370.851 183.48Z" fill="#F2E7DD"/>
<path fill-rule="evenodd" clip-rule="evenodd" d="M378.846 181.636C377.617 181.636 376.378 182.135 375.373 182.916C373.955 184.031 372.923 185.655 372.107 187.365C368.966 193.81 368.395 201.339 367.903 208.647C364.838 204.316 361.219 200.392 356.906 197.634C355.087 196.463 352.858 195.552 350.796 195.552C349.4 195.552 348.081 195.97 347.018 197.008C344.6 199.376 344.846 203.555 345.617 207.006C346.741 212.081 348.603 216.954 351.083 221.419C349.946 220.976 348.777 220.787 347.596 220.787C344.729 220.787 341.795 221.894 339.101 223.129C337.114 224.059 334.912 225.361 334.496 227.68C334.084 229.956 341.185 233.268 343.557 233.268C343.668 233.268 343.771 233.26 343.86 233.246H427.461C429.849 231.215 432.313 228.609 432.313 225.294C432.313 221.674 429.325 218.916 426.291 217.461C422.602 215.699 418.64 215.122 414.606 215.122C410.86 215.122 407.05 215.619 403.342 216.125C406.593 213.654 409.519 210.66 411.983 207.26C413.307 205.416 414.523 203.402 414.94 201.085C415.34 198.785 414.755 196.145 413.045 194.741C412.058 193.944 410.815 193.631 409.569 193.631C409.2 193.631 408.833 193.659 408.471 193.709C406.283 194.013 404.22 195.079 402.264 196.213C396.919 199.343 391.961 203.267 387.555 207.819C388.079 199.833 387.894 191.137 383.489 184.743C382.657 183.524 381.64 182.392 380.331 181.9C379.849 181.718 379.348 181.636 378.846 181.636Z" fill="#439D8A"/>
<path fill-rule="evenodd" clip-rule="evenodd" d="M171.188 172.416C170.222 172.416 169.248 172.808 168.457 173.422C167.342 174.298 166.531 175.574 165.889 176.917C163.419 181.982 162.97 187.897 162.583 193.639C160.173 190.236 157.327 187.153 153.936 184.986C152.506 184.066 150.753 183.35 149.132 183.35C148.034 183.35 146.997 183.678 146.161 184.495C144.259 186.355 144.453 189.638 145.059 192.35C145.943 196.338 147.408 200.166 149.358 203.675C148.463 203.326 147.544 203.178 146.615 203.178C144.361 203.178 142.054 204.048 139.935 205.018C138.373 205.749 136.642 206.772 136.314 208.594C135.991 210.382 141.574 212.984 143.44 212.984C143.527 212.984 143.607 212.978 143.678 212.967H209.415C211.293 211.371 213.23 209.324 213.23 206.719C213.23 203.875 210.881 201.708 208.495 200.564C205.594 199.18 202.479 198.727 199.307 198.727C196.361 198.727 193.366 199.117 190.45 199.515C193.006 197.573 195.307 195.221 197.244 192.55C198.286 191.1 199.242 189.518 199.57 187.698C199.884 185.89 199.424 183.816 198.079 182.713C197.303 182.086 196.326 181.841 195.346 181.841C195.056 181.841 194.768 181.863 194.483 181.902C192.763 182.141 191.14 182.978 189.602 183.869C185.399 186.329 181.5 189.412 178.036 192.988C178.448 186.714 178.302 179.882 174.839 174.858C174.185 173.9 173.385 173.01 172.356 172.624C171.977 172.481 171.583 172.416 171.188 172.416Z" fill="#439D8A"/>
<path fill-rule="evenodd" clip-rule="evenodd" d="M644.755 175.182C643.526 175.182 642.286 175.68 641.281 176.462C639.863 177.577 638.831 179.201 638.015 180.911C634.874 187.356 634.304 194.885 633.811 202.193C630.746 197.862 627.127 193.938 622.814 191.18C620.995 190.009 618.766 189.098 616.704 189.098C615.309 189.098 613.989 189.516 612.926 190.554C610.508 192.922 610.754 197.1 611.525 200.552C612.649 205.627 614.512 210.499 616.992 214.965C615.854 214.522 614.685 214.333 613.504 214.333C610.637 214.333 607.704 215.44 605.009 216.675C603.022 217.605 600.82 218.907 600.404 221.226C599.993 223.502 607.093 226.814 609.465 226.814C609.577 226.814 609.679 226.806 609.768 226.792H693.369C695.757 224.761 698.221 222.155 698.221 218.84C698.221 215.22 695.233 212.462 692.199 211.007C688.51 209.245 684.548 208.668 680.514 208.668C676.768 208.668 672.959 209.165 669.25 209.671C672.501 207.2 675.427 204.206 677.891 200.806C679.216 198.962 680.432 196.948 680.848 194.631C681.248 192.33 680.663 189.69 678.953 188.287C677.966 187.489 676.723 187.177 675.477 187.177C675.109 187.177 674.741 187.205 674.379 187.255C672.192 187.559 670.128 188.625 668.172 189.759C662.827 192.889 657.869 196.813 653.463 201.365C653.987 193.379 653.802 184.683 649.397 178.289C648.565 177.07 647.549 175.938 646.24 175.446C645.757 175.264 645.256 175.182 644.755 175.182Z" fill="#439D8A"/>
<path fill-rule="evenodd" clip-rule="evenodd" d="M481.696 167.806C480.467 167.806 479.228 168.304 478.223 169.086C476.805 170.201 475.773 171.825 474.956 173.535C471.816 179.98 471.245 187.509 470.752 194.817C467.688 190.486 464.068 186.562 459.755 183.804C457.937 182.633 455.708 181.722 453.646 181.722C452.25 181.722 450.93 182.14 449.867 183.178C447.45 185.546 447.695 189.724 448.466 193.176C449.59 198.251 451.453 203.124 453.933 207.589C452.796 207.146 451.626 206.957 450.445 206.957C447.579 206.957 444.645 208.064 441.95 209.299C439.963 210.229 437.762 211.531 437.345 213.85C436.934 216.126 444.034 219.438 446.407 219.438C446.518 219.438 446.62 219.43 446.71 219.416H530.31C532.698 217.385 535.163 214.779 535.163 211.464C535.163 207.844 532.174 205.086 529.141 203.631C525.452 201.869 521.489 201.292 517.456 201.292C513.71 201.292 509.9 201.789 506.191 202.295C509.442 199.824 512.368 196.83 514.832 193.43C516.157 191.586 517.373 189.572 517.79 187.255C518.189 184.954 517.605 182.314 515.895 180.911C514.908 180.113 513.664 179.801 512.419 179.801C512.05 179.801 511.683 179.829 511.32 179.879C509.133 180.183 507.07 181.249 505.114 182.383C499.769 185.513 494.81 189.437 490.404 193.989C490.928 186.003 490.743 177.307 486.339 170.913C485.507 169.694 484.49 168.562 483.181 168.07C482.698 167.888 482.198 167.806 481.696 167.806Z" fill="#439D8A"/>
<path fill-rule="evenodd" clip-rule="evenodd" d="M379.606 103.266C378.629 103.266 377.521 104.163 377.707 105.527C379.211 116.672 378.838 126.942 375.853 137.842C373.405 146.783 370.76 155.573 369.4 164.829C366.974 181.068 367.621 197.471 370.76 213.547C370.936 214.444 371.562 214.829 372.209 214.829C373.208 214.829 374.283 213.943 374.031 212.591C370.19 192.936 370.343 172.687 375.063 153.242C377.17 144.545 380.418 136.163 381.626 127.257C382.646 119.68 382.01 112.102 380.945 104.56C380.835 103.662 380.243 103.266 379.606 103.266Z" fill="#59D098"/>
<path fill-rule="evenodd" clip-rule="evenodd" d="M370.664 46.1006C364.121 54.5842 360.94 68.1923 362.53 80.7693C358.576 76.4103 354.182 72.9106 349.529 70.5046C349.798 90.034 361.617 107.501 374.898 109.157C376.552 110.907 378.561 111.563 380.657 111.563C382.935 111.563 385.32 110.782 387.479 109.782C390.466 108.423 393.464 106.72 395.796 103.705C399.75 98.7052 401.415 90.7683 401.372 83.1284C401.297 75.5354 399.782 68.1298 398.235 60.8805C397.451 60.4899 396.688 60.318 395.936 60.318C390.886 60.318 386.555 68.3173 383.816 75.3323C382.741 63.4115 377.756 52.3188 370.664 46.1006Z" fill="#FFD173"/>
<path fill-rule="evenodd" clip-rule="evenodd" d="M408.959 130.652C404.132 128.928 398.901 128.592 393.975 129.799C386.224 131.689 379.283 137.48 375.449 145.109C376.618 145.697 377.814 146.212 379.028 146.646C384.725 148.681 390.904 149.009 396.729 147.522C404.123 145.631 410.799 140.931 415.376 134.422L415.586 134.106C413.526 132.642 411.288 131.484 408.959 130.652Z" fill="#75D9C3"/>
<path fill-rule="evenodd" clip-rule="evenodd" d="M330.295 129.081C330.722 133.91 331.612 138.716 332.961 143.285C334.629 148.675 336.995 153.978 340.936 157.699C343.662 160.376 347.057 162.032 350.534 163.377C356.623 165.789 363.618 167.221 369.596 164.431C369.543 164.276 369.485 164.016 369.436 163.866C366.861 154.45 361.695 145.9 354.753 139.725C347.807 133.546 339.176 129.743 330.295 129.081Z" fill="#75D9C3"/>
<path fill-rule="evenodd" clip-rule="evenodd" d="M342.094 199.154C341.808 199.154 341.523 199.206 341.247 199.322C340.406 199.67 339.843 200.522 339.414 201.385C336.989 206.155 337.065 211.924 337.199 217.399C333.98 213.093 329.894 209.597 325.311 207.26C324.535 206.859 323.712 206.496 322.88 206.496C322.729 206.496 322.579 206.508 322.428 206.533C320.412 206.881 319.42 209.46 319.258 211.703C318.885 216.809 320.833 221.747 322.743 226.421C320.343 225.994 317.922 225.567 315.497 225.567C315.115 225.567 314.732 225.577 314.35 225.6C311.542 225.768 308.697 226.652 306.53 228.632C305.833 229.274 305.174 230.137 305.213 231.137C305.27 232.611 306.721 233.474 308 233.907C310.111 234.601 312.307 234.959 314.512 234.959V235.128H385.292L385.416 235.159C386.323 230.716 383.077 226.242 379.19 224.663C377.284 223.879 375.278 223.611 373.242 223.611C371.099 223.611 368.923 223.908 366.797 224.21C369.9 220.294 370.74 214.704 370.197 209.545C369.987 207.576 369.471 205.417 367.953 204.365C367.328 203.934 366.65 203.752 365.95 203.752C364.297 203.752 362.529 204.765 361.107 205.859C357.727 208.449 354.662 211.524 352.007 214.998C350.957 209.449 348.914 203.818 344.827 200.396C344.034 199.732 343.053 199.154 342.094 199.154Z" fill="#5AD199"/>
<path fill-rule="evenodd" clip-rule="evenodd" d="M379.938 220.36C379.119 220.36 378.293 220.694 377.623 221.217C376.678 221.963 375.99 223.05 375.446 224.194C373.353 228.506 372.972 233.544 372.644 238.434C370.601 235.536 368.189 232.91 365.314 231.065C364.102 230.281 362.616 229.672 361.242 229.672C360.311 229.672 359.432 229.951 358.723 230.646C357.112 232.23 357.275 235.026 357.789 237.336C358.539 240.732 359.78 243.992 361.433 246.98C360.675 246.683 359.896 246.557 359.109 246.557C357.198 246.557 355.242 247.297 353.446 248.123C352.122 248.746 350.654 249.617 350.377 251.169C350.102 252.692 354.835 254.908 356.417 254.908C356.491 254.908 356.559 254.902 356.618 254.893H412.342C413.934 253.534 415.576 251.79 415.576 249.572C415.576 247.15 413.585 245.305 411.563 244.331C409.104 243.152 406.462 242.766 403.774 242.766C401.277 242.766 398.738 243.099 396.266 243.437C398.432 241.784 400.383 239.781 402.025 237.506C402.908 236.272 403.719 234.925 403.996 233.374C404.263 231.835 403.873 230.068 402.733 229.129C402.075 228.596 401.247 228.386 400.416 228.386C400.171 228.386 399.926 228.405 399.684 228.439C398.226 228.642 396.851 229.355 395.547 230.114C391.985 232.208 388.68 234.834 385.743 237.879C386.092 232.536 385.969 226.718 383.033 222.44C382.479 221.624 381.801 220.866 380.928 220.537C380.607 220.416 380.273 220.36 379.938 220.36Z" fill="#75D9C3"/>
<path fill-rule="evenodd" clip-rule="evenodd" d="M67.2041 200.999C66.3849 200.999 65.5589 201.333 64.8889 201.856C63.9439 202.602 63.2558 203.689 62.7118 204.832C60.6183 209.145 60.238 214.183 59.9095 219.072C57.8669 216.175 55.4544 213.549 52.5797 211.703C51.3674 210.92 49.8817 210.31 48.5073 210.31C47.577 210.31 46.6975 210.59 45.9887 211.285C44.3772 212.869 44.5411 215.665 45.0549 217.974C45.8042 221.37 47.0458 224.63 48.6987 227.618C47.9408 227.322 47.1614 227.195 46.3742 227.195C44.4634 227.195 42.5079 227.936 40.7119 228.762C39.3874 229.385 37.92 230.256 37.6423 231.807C37.3681 233.33 42.1009 235.547 43.6822 235.547C43.7564 235.547 43.8245 235.541 43.884 235.531H99.6077C101.199 234.173 102.842 232.429 102.842 230.211C102.842 227.789 100.85 225.943 98.8282 224.97C96.3691 223.791 93.7281 223.405 91.0397 223.405C88.5426 223.405 86.0034 223.738 83.5313 224.076C85.6981 222.423 87.6485 220.42 89.291 218.144C90.1739 216.91 90.9844 215.563 91.2621 214.013C91.5285 212.473 91.1388 210.707 89.9989 209.768C89.3411 209.234 88.5124 209.025 87.6821 209.025C87.4364 209.025 87.1915 209.044 86.95 209.077C85.4921 209.281 84.1168 209.994 82.8131 210.753C79.2503 212.847 75.9453 215.473 73.0086 218.518C73.3578 213.175 73.2345 207.357 70.2986 203.078C69.7442 202.263 69.0665 201.505 68.1938 201.176C67.8723 201.054 67.5386 200.999 67.2041 200.999Z" fill="#75D9C3"/>
<path fill-rule="evenodd" clip-rule="evenodd" d="M305.385 115.948C304.759 113.694 305.873 111.291 307.873 110.579L327.878 103.464C328.838 103.123 329.878 103.225 330.77 103.749C331.661 104.272 332.331 105.174 332.631 106.257C333.257 108.51 332.143 110.914 330.143 111.625L310.138 118.74C308.139 119.451 306.01 118.201 305.385 115.948Z" fill="#FFF2CC"/>
<path fill-rule="evenodd" clip-rule="evenodd" d="M421.55 104.428C422.044 102.321 424.074 101.024 426.086 101.53L446.179 106.59C447.145 106.833 447.977 107.468 448.493 108.356C449.008 109.243 449.165 110.31 448.928 111.322C448.434 113.429 446.404 114.726 444.392 114.219L424.299 109.16C422.287 108.654 421.057 106.535 421.55 104.428Z" fill="#FFF2CC"/>
<path fill-rule="evenodd" clip-rule="evenodd" d="M414.638 50.8864C413.435 49.0457 413.765 46.4367 415.376 45.0588L431.51 31.2571C432.283 30.5954 433.254 30.312 434.21 30.4692C435.165 30.6264 436.026 31.2112 436.604 32.0951C437.807 33.9358 437.476 36.5448 435.865 37.9227L419.732 51.7244C418.121 53.1023 415.841 52.7271 414.638 50.8864Z" fill="#FFF2CC"/>
<path fill-rule="evenodd" clip-rule="evenodd" d="M307.943 47.0769C308.643 44.8582 310.773 43.7102 312.7 44.5127L332.032 52.5627C332.958 52.9481 333.712 53.7409 334.128 54.7667C334.545 55.7926 334.59 56.9675 334.254 58.0329C333.553 60.2516 331.423 61.3996 329.496 60.5972L310.164 52.5471C308.237 51.7447 307.243 49.2956 307.943 47.0769Z" fill="#FFF2CC"/>
<path fill-rule="evenodd" clip-rule="evenodd" d="M365.281 0.0691044C367.406 -0.347923 369.442 1.1655 369.829 3.44943L373.714 26.3888C373.9 27.4855 373.672 28.617 373.082 29.5341C372.492 30.4513 371.587 31.079 370.567 31.2792C368.442 31.6963 366.406 30.1829 366.019 27.8989L362.134 4.95957C361.747 2.67565 363.156 0.486062 365.281 0.0691044Z" fill="#FFF2CC"/>
<path fill-rule="evenodd" clip-rule="evenodd" d="M202.753 192.7C202.497 192.7 202.242 192.746 201.994 192.851C201.242 193.162 200.739 193.926 200.354 194.7C198.184 198.975 198.252 204.145 198.372 209.053C195.492 205.193 191.835 202.06 187.733 199.965C187.039 199.606 186.302 199.281 185.558 199.281C185.423 199.281 185.288 199.291 185.153 199.314C183.35 199.625 182.461 201.937 182.316 203.947C181.983 208.524 183.726 212.949 185.435 217.139C183.287 216.756 181.121 216.373 178.951 216.373C178.609 216.373 178.267 216.383 177.924 216.403C175.412 216.554 172.866 217.346 170.927 219.121C170.303 219.696 169.713 220.47 169.748 221.366C169.799 222.687 171.097 223.461 172.242 223.848C174.131 224.47 176.096 224.791 178.069 224.791V224.943H241.41L241.521 224.971C242.333 220.989 239.428 216.979 235.95 215.563C234.244 214.86 232.449 214.62 230.627 214.62C228.709 214.62 226.762 214.886 224.86 215.157C227.636 211.647 228.388 206.637 227.902 202.013C227.714 200.248 227.252 198.314 225.894 197.371C225.335 196.984 224.727 196.821 224.102 196.821C222.622 196.821 221.04 197.729 219.767 198.71C216.742 201.031 213.999 203.787 211.624 206.901C210.684 201.928 208.856 196.88 205.199 193.813C204.488 193.218 203.611 192.7 202.753 192.7Z" fill="#5AD199"/>
<path fill-rule="evenodd" clip-rule="evenodd" d="M139.204 200.077C138.948 200.077 138.693 200.123 138.446 200.228C137.694 200.539 137.19 201.303 136.805 202.077C134.635 206.352 134.703 211.522 134.823 216.43C131.943 212.57 128.286 209.437 124.184 207.342C123.491 206.983 122.753 206.658 122.009 206.658C121.874 206.658 121.739 206.668 121.605 206.691C119.801 207.002 118.913 209.314 118.768 211.324C118.434 215.901 120.177 220.326 121.887 224.516C119.739 224.133 117.572 223.75 115.403 223.75C115.06 223.75 114.718 223.76 114.376 223.78C111.863 223.931 109.317 224.723 107.378 226.498C106.754 227.073 106.164 227.847 106.199 228.743C106.25 230.064 107.549 230.838 108.693 231.225C110.582 231.847 112.547 232.168 114.521 232.168V232.32H177.861L177.972 232.348C178.784 228.366 175.879 224.356 172.401 222.94C170.695 222.237 168.9 221.997 167.078 221.997C165.16 221.997 163.213 222.263 161.311 222.534C164.087 219.024 164.839 214.014 164.353 209.39C164.165 207.625 163.703 205.691 162.345 204.748C161.786 204.361 161.179 204.198 160.553 204.198C159.073 204.198 157.491 205.106 156.218 206.087C153.193 208.408 150.45 211.164 148.075 214.278C147.135 209.305 145.307 204.257 141.65 201.19C140.94 200.595 140.062 200.077 139.204 200.077Z" fill="#5AD199"/>
<path fill-rule="evenodd" clip-rule="evenodd" d="M512.676 194.544C512.39 194.544 512.105 194.595 511.829 194.712C510.988 195.059 510.425 195.912 509.996 196.775C507.571 201.544 507.647 207.313 507.781 212.788C504.562 208.482 500.476 204.987 495.893 202.65C495.117 202.248 494.294 201.886 493.462 201.886C493.311 201.886 493.161 201.897 493.01 201.923C490.994 202.27 490.002 204.85 489.84 207.092C489.467 212.199 491.415 217.136 493.325 221.81C490.925 221.383 488.504 220.956 486.079 220.956C485.697 220.956 485.314 220.967 484.932 220.99C482.124 221.158 479.279 222.042 477.112 224.022C476.415 224.664 475.756 225.527 475.795 226.527C475.852 228.001 477.303 228.864 478.582 229.296C480.693 229.99 482.889 230.349 485.094 230.349V230.517H555.874L555.998 230.548C556.905 226.106 553.659 221.632 549.772 220.053C547.866 219.268 545.86 219 543.824 219C541.681 219 539.505 219.297 537.379 219.6C540.482 215.683 541.322 210.093 540.779 204.935C540.569 202.965 540.053 200.807 538.535 199.755C537.91 199.323 537.232 199.142 536.532 199.142C534.879 199.142 533.111 200.154 531.689 201.249C528.309 203.839 525.244 206.914 522.589 210.388C521.539 204.839 519.496 199.207 515.409 195.785C514.616 195.121 513.635 194.544 512.676 194.544Z" fill="#5AD199"/>
<path fill-rule="evenodd" clip-rule="evenodd" d="M480.282 206.53C479.463 206.53 478.637 206.864 477.967 207.387C477.022 208.133 476.334 209.22 475.79 210.364C473.696 214.676 473.316 219.714 472.988 224.604C470.945 221.706 468.532 219.08 465.658 217.234C464.445 216.451 462.96 215.842 461.585 215.842C460.655 215.842 459.776 216.121 459.067 216.816C457.455 218.4 457.619 221.196 458.133 223.505C458.882 226.901 460.124 230.162 461.777 233.15C461.019 232.853 460.239 232.727 459.452 232.727C457.542 232.727 455.586 233.467 453.79 234.293C452.466 234.916 450.998 235.787 450.72 237.339C450.446 238.862 455.179 241.078 456.76 241.078C456.835 241.078 456.903 241.072 456.962 241.063H512.686C514.278 239.704 515.92 237.96 515.92 235.742C515.92 233.32 513.928 231.474 511.906 230.501C509.447 229.322 506.806 228.936 504.118 228.936C501.621 228.936 499.081 229.269 496.609 229.607C498.776 227.954 500.727 225.951 502.369 223.676C503.252 222.442 504.063 221.094 504.34 219.544C504.607 218.005 504.217 216.238 503.077 215.299C502.419 214.765 501.591 214.556 500.76 214.556C500.515 214.556 500.27 214.575 500.028 214.609C498.57 214.812 497.195 215.525 495.891 216.284C492.328 218.378 489.023 221.004 486.087 224.049C486.436 218.706 486.313 212.888 483.377 208.61C482.822 207.794 482.145 207.036 481.272 206.707C480.95 206.585 480.617 206.53 480.282 206.53Z" fill="#75D9C3"/>
<path fill-rule="evenodd" clip-rule="evenodd" d="M261.819 218.517C261.533 218.517 261.248 218.568 260.971 218.685C260.131 219.032 259.568 219.885 259.138 220.748C256.713 225.517 256.789 231.286 256.923 236.761C253.705 232.455 249.618 228.959 245.035 226.622C244.26 226.221 243.436 225.858 242.605 225.858C242.454 225.858 242.303 225.87 242.152 225.896C240.137 226.243 239.144 228.822 238.982 231.065C238.609 236.171 240.557 241.109 242.468 245.783C240.067 245.356 237.646 244.929 235.222 244.929C234.84 244.929 234.457 244.939 234.074 244.962C231.267 245.13 228.422 246.015 226.255 247.995C225.558 248.636 224.899 249.499 224.937 250.5C224.994 251.974 226.446 252.837 227.725 253.269C229.835 253.963 232.031 254.321 234.236 254.321V254.49H305.016L305.14 254.521C306.047 250.079 302.801 245.604 298.915 244.025C297.009 243.241 295.002 242.973 292.967 242.973C290.823 242.973 288.648 243.27 286.522 243.572C289.625 239.656 290.465 234.066 289.921 228.907C289.711 226.938 289.196 224.78 287.677 223.727C287.053 223.296 286.374 223.115 285.675 223.115C284.021 223.115 282.254 224.127 280.831 225.222C277.451 227.812 274.386 230.886 271.732 234.36C270.681 228.812 268.639 223.18 264.552 219.758C263.758 219.094 262.777 218.517 261.819 218.517Z" fill="#5AD199"/>
<path fill-rule="evenodd" clip-rule="evenodd" d="M92.9069 204.687C92.6206 204.687 92.3359 204.738 92.0593 204.855C91.2188 205.202 90.6559 206.054 90.226 206.917C87.801 211.687 87.8771 217.456 88.0111 222.931C84.7929 218.625 80.7062 215.129 76.1232 212.792C75.3478 212.391 74.5241 212.028 73.6925 212.028C73.5418 212.028 73.391 212.04 73.2403 212.066C71.225 212.413 70.2322 214.992 70.0702 217.235C69.6973 222.341 71.6451 227.279 73.5554 231.953C71.1552 231.526 68.7342 231.099 66.3099 231.099C65.9274 231.099 65.5448 231.109 65.1624 231.132C62.3548 231.3 59.5095 232.185 57.3426 234.164C56.6457 234.806 55.9865 235.669 56.025 236.669C56.082 238.144 57.5335 239.007 58.8126 239.439C60.9233 240.133 63.119 240.491 65.3243 240.491V240.66H136.104L136.228 240.691C137.135 236.249 133.889 231.774 130.003 230.195C128.097 229.411 126.09 229.143 124.055 229.143C121.911 229.143 119.736 229.44 117.61 229.742C120.712 225.826 121.553 220.236 121.009 215.077C120.799 213.108 120.283 210.95 118.765 209.897C118.141 209.466 117.462 209.285 116.763 209.285C115.109 209.285 113.342 210.297 111.919 211.392C108.539 213.982 105.474 217.056 102.82 220.53C101.769 214.982 99.7266 209.35 95.6399 205.928C94.846 205.264 93.8653 204.687 92.9069 204.687Z" fill="#5AD199"/>
<path fill-rule="evenodd" clip-rule="evenodd" d="M616.366 200.999C616.08 200.999 615.795 201.05 615.518 201.167C614.678 201.515 614.115 202.367 613.685 203.23C611.26 208 611.336 213.768 611.47 219.244C608.252 214.937 604.165 211.442 599.582 209.105C598.807 208.703 597.983 208.341 597.152 208.341C597.001 208.341 596.85 208.352 596.699 208.378C594.684 208.726 593.691 211.305 593.529 213.547C593.156 218.654 595.104 223.591 597.014 228.265C594.614 227.838 592.193 227.411 589.769 227.411C589.386 227.411 589.004 227.422 588.621 227.445C585.814 227.613 582.968 228.497 580.802 230.477C580.105 231.119 579.446 231.982 579.484 232.982C579.541 234.456 580.992 235.319 582.272 235.751C584.382 236.446 586.578 236.804 588.783 236.804V236.973H659.563L659.687 237.003C660.594 232.561 657.348 228.087 653.462 226.508C651.556 225.723 649.549 225.455 647.514 225.455C645.37 225.455 643.195 225.752 641.069 226.055C644.171 222.139 645.012 216.548 644.468 211.39C644.258 209.421 643.742 207.262 642.224 206.21C641.6 205.778 640.921 205.597 640.222 205.597C638.568 205.597 636.801 206.61 635.378 207.704C631.998 210.294 628.933 213.369 626.279 216.843C625.228 211.294 623.186 205.663 619.099 202.241C618.305 201.576 617.324 200.999 616.366 200.999Z" fill="#5AD199"/>
<path fill-rule="evenodd" clip-rule="evenodd" d="M197.464 108.798C196.545 108.798 195.501 109.636 195.677 110.91C197.092 121.318 196.741 130.909 193.931 141.088C191.628 149.438 189.139 157.647 187.858 166.291C185.575 181.457 186.184 196.774 189.139 211.787C189.304 212.626 189.893 212.985 190.502 212.985C191.442 212.985 192.454 212.158 192.217 210.895C188.601 192.54 188.746 173.629 193.188 155.47C195.171 147.348 198.228 139.521 199.365 131.203C200.325 124.127 199.726 117.05 198.724 110.006C198.621 109.168 198.063 108.798 197.464 108.798Z" fill="#59D098"/>
<path fill-rule="evenodd" clip-rule="evenodd" d="M170.832 118.939C169.582 135.989 173.04 153.433 180.67 168.372C182.265 171.518 184.31 174.784 187.457 175.834L189.747 177.026C190.125 172.311 188.861 167.632 187.457 163.153C184.77 154.52 181.508 146.066 177.734 137.922C174.923 131.82 171.738 125.708 170.832 118.939Z" fill="#59D098"/>
<path fill-rule="evenodd" clip-rule="evenodd" d="M220.754 136.458C210.101 138.707 200.533 146.404 195.399 156.817C193.952 159.726 192.86 162.824 191.759 165.921C190.553 169.308 189.349 172.713 188.143 176.104L189.127 175.435C204.609 169.08 216.846 153.998 220.754 136.458Z" fill="#59D098"/>
<path fill-rule="evenodd" clip-rule="evenodd" d="M189.176 68.2295C183.161 74.0844 180.237 83.4759 181.699 92.1558C178.064 89.1475 174.023 86.7322 169.746 85.0717C169.993 98.5498 180.859 110.605 193.068 111.747C194.59 112.955 196.437 113.408 198.363 113.408C200.457 113.408 202.65 112.869 204.636 112.179C207.382 111.241 210.138 110.065 212.282 107.984C215.917 104.534 217.448 99.0565 217.408 93.7839C217.339 88.5436 215.946 83.4328 214.524 78.4297C213.803 78.1601 213.101 78.0415 212.41 78.0415C207.767 78.0415 203.786 83.5621 201.267 88.4035C200.28 80.1765 195.696 72.5209 189.176 68.2295Z" fill="#FFD173"/>
<path fill-rule="evenodd" clip-rule="evenodd" d="M521.905 115.252C520.986 115.252 519.943 116.09 520.118 117.364C521.534 127.772 521.182 137.363 518.373 147.542C516.069 155.893 513.58 164.101 512.299 172.745C510.016 187.911 510.626 203.229 513.58 218.242C513.745 219.08 514.334 219.439 514.943 219.439C515.883 219.439 516.896 218.612 516.658 217.349C513.043 198.994 513.187 180.083 517.629 161.924C519.612 153.802 522.67 145.975 523.806 137.657C524.767 130.581 524.168 123.504 523.166 116.46C523.062 115.622 522.505 115.252 521.905 115.252Z" fill="#59D098"/>
<path fill-rule="evenodd" clip-rule="evenodd" d="M495.276 125.395C494.026 142.445 497.484 159.888 505.114 174.828C506.709 177.973 508.754 181.239 511.9 182.289L514.19 183.481C514.568 178.766 513.304 174.087 511.9 169.608C509.213 160.975 505.952 152.521 502.177 144.377C499.366 138.275 496.181 132.163 495.276 125.395Z" fill="#59D098"/>
<path fill-rule="evenodd" clip-rule="evenodd" d="M545.195 142.913C534.542 145.162 524.974 152.859 519.84 163.272C518.393 166.181 517.301 169.279 516.201 172.377C514.995 175.763 513.79 179.168 512.584 182.56L513.569 181.89C529.05 175.535 541.287 160.453 545.195 142.913Z" fill="#59D098"/>
<path fill-rule="evenodd" clip-rule="evenodd" d="M513.62 74.6836C507.604 80.5385 504.68 89.93 506.142 98.6099C502.507 95.6016 498.467 93.1863 494.189 91.5258C494.436 105.004 505.302 117.059 517.512 118.202C519.033 119.409 520.88 119.862 522.807 119.862C524.901 119.862 527.094 119.323 529.079 118.633C531.825 117.695 534.581 116.52 536.725 114.439C540.36 110.988 541.891 105.511 541.852 100.238C541.783 94.9977 540.39 89.8869 538.967 84.8838C538.246 84.6142 537.545 84.4956 536.853 84.4956C532.211 84.4956 528.23 90.0162 525.711 94.8576C524.723 86.6306 520.139 78.975 513.62 74.6836Z" fill="#D273FF"/>
<path fill-rule="evenodd" clip-rule="evenodd" d="M275.23 132.77C274.31 132.77 273.267 133.608 273.443 134.882C274.858 145.289 274.507 154.881 271.697 165.06C269.394 173.41 266.904 181.619 265.623 190.263C263.341 205.428 263.95 220.746 266.904 235.759C267.069 236.597 267.658 236.957 268.268 236.957C269.208 236.957 270.22 236.129 269.982 234.866C266.367 216.511 266.512 197.601 270.953 179.441C272.937 171.32 275.994 163.492 277.13 155.175C278.091 148.098 277.492 141.022 276.49 133.978C276.387 133.14 275.829 132.77 275.23 132.77Z" fill="#59D098"/>
<path fill-rule="evenodd" clip-rule="evenodd" d="M248.598 142.911C247.348 159.961 250.806 177.405 258.436 192.344C260.031 195.489 262.076 198.756 265.223 199.806L267.512 200.998C267.891 196.282 266.626 191.604 265.223 187.125C262.536 178.492 259.274 170.038 255.5 161.894C252.688 155.792 249.503 149.68 248.598 142.911Z" fill="#59D098"/>
<path fill-rule="evenodd" clip-rule="evenodd" d="M298.52 160.43C287.867 162.679 278.299 170.376 273.164 180.789C271.718 183.698 270.625 186.796 269.525 189.893C268.319 193.28 267.115 196.685 265.908 200.076L266.893 199.407C282.374 193.052 294.611 177.97 298.52 160.43Z" fill="#59D098"/>
<path fill-rule="evenodd" clip-rule="evenodd" d="M266.942 92.2002C260.926 98.0551 258.002 107.447 259.464 116.126C255.829 113.118 251.789 110.703 247.512 109.042C247.759 122.52 258.625 134.575 270.834 135.718C272.355 136.926 274.203 137.379 276.129 137.379C278.223 137.379 280.416 136.84 282.401 136.149C285.148 135.211 287.904 134.036 290.047 131.955C293.682 128.505 295.213 123.027 295.174 117.755C295.105 112.514 293.712 107.403 292.289 102.4C291.568 102.131 290.867 102.012 290.176 102.012C285.533 102.012 281.552 107.533 279.033 112.374C278.045 104.147 273.462 96.4916 266.942 92.2002Z" fill="#FF8C73"/>
<path fill-rule="evenodd" clip-rule="evenodd" d="M82.9054 129.082C81.9861 129.082 80.9428 129.92 81.1184 131.194C82.5336 141.602 82.1824 151.193 79.3728 161.372C77.0694 169.723 74.58 177.931 73.2991 186.575C71.0163 201.741 71.6258 217.059 74.58 232.072C74.7452 232.91 75.334 233.269 75.9435 233.269C76.8834 233.269 77.8957 232.442 77.6581 231.179C74.0429 212.824 74.1875 193.913 78.6291 175.754C80.6123 167.632 83.6698 159.805 84.806 151.487C85.7667 144.411 85.1676 137.334 84.1656 130.29C84.0623 129.452 83.5045 129.082 82.9054 129.082Z" fill="#59D098"/>
<path fill-rule="evenodd" clip-rule="evenodd" d="M56.2736 139.224C55.0235 156.274 58.4817 173.718 66.1116 188.657C67.7066 191.802 69.7517 195.068 72.8985 196.118L75.188 197.31C75.5664 192.595 74.3019 187.916 72.8985 183.437C70.2115 174.804 66.9498 166.35 63.1755 158.206C60.364 152.104 57.1789 145.992 56.2736 139.224Z" fill="#59D098"/>
<path fill-rule="evenodd" clip-rule="evenodd" d="M106.195 156.743C95.5424 158.993 85.9745 166.689 80.8399 177.102C79.3935 180.011 78.3011 183.11 77.2007 186.207C75.9949 189.593 74.7905 192.998 73.584 196.39L74.5686 195.721C90.0501 189.365 102.287 174.283 106.195 156.743Z" fill="#59D098"/>
<path fill-rule="evenodd" clip-rule="evenodd" d="M74.6179 88.5137C68.6021 94.3685 65.6781 103.76 67.1401 112.44C63.5049 109.432 59.4648 107.016 55.1875 105.356C55.4344 118.834 66.3005 130.889 78.5098 132.032C80.0311 133.239 81.8783 133.692 83.8046 133.692C85.8988 133.692 88.0917 133.153 90.0772 132.463C92.8233 131.525 95.5793 130.35 97.7229 128.269C101.358 124.818 102.889 119.341 102.85 114.068C102.781 108.828 101.388 103.717 99.9653 98.7139C99.2442 98.4443 98.5428 98.3257 97.8513 98.3257C93.2086 98.3257 89.2277 103.846 86.7087 108.688C85.7209 100.461 81.1375 92.8051 74.6179 88.5137Z" fill="#73A3FF"/>
<path fill-rule="evenodd" clip-rule="evenodd" d="M647.335 119.861C646.416 119.861 645.373 120.7 645.548 121.973C646.963 132.381 646.612 141.973 643.802 152.152C641.499 160.502 639.01 168.711 637.729 177.355C635.446 192.52 636.055 207.838 639.01 222.851C639.175 223.689 639.764 224.049 640.373 224.049C641.313 224.049 642.325 223.221 642.088 221.958C638.473 203.603 638.617 184.693 643.059 166.533C645.042 158.412 648.099 150.584 649.236 142.266C650.196 135.19 649.597 128.114 648.595 121.07C648.492 120.231 647.934 119.861 647.335 119.861Z" fill="#59D098"/>
<path fill-rule="evenodd" clip-rule="evenodd" d="M620.705 130.004C619.455 147.054 622.913 164.498 630.543 179.437C632.138 182.582 634.183 185.848 637.33 186.899L639.62 188.091C639.998 183.375 638.734 178.697 637.33 174.217C634.643 165.585 631.381 157.131 627.607 148.986C624.796 142.885 621.611 136.772 620.705 130.004Z" fill="#59D098"/>
<path fill-rule="evenodd" clip-rule="evenodd" d="M670.625 147.521C659.972 149.771 650.404 157.468 645.27 167.881C643.823 170.789 642.731 173.888 641.63 176.985C640.425 180.372 639.22 183.777 638.014 187.168L638.998 186.499C654.48 180.144 666.717 165.062 670.625 147.521Z" fill="#59D098"/>
<path fill-rule="evenodd" clip-rule="evenodd" d="M639.048 79.293C633.032 85.1478 630.108 94.5394 631.57 103.219C627.935 100.211 623.894 97.7957 619.617 96.1352C619.864 109.613 630.73 121.668 642.94 122.811C644.461 124.019 646.308 124.471 648.234 124.471C650.328 124.471 652.521 123.932 654.507 123.242C657.253 122.304 660.009 121.129 662.153 119.048C665.788 115.597 667.319 110.12 667.279 104.847C667.21 99.6071 665.817 94.4962 664.395 89.4932C663.674 89.2236 662.973 89.105 662.281 89.105C657.638 89.105 653.657 94.6256 651.138 99.4669C650.151 91.2399 645.567 83.5844 639.048 79.293Z" fill="#FF73E9"/>
</svg>
