<svg width="545" height="434" viewBox="0 0 545 434" fill="none" xmlns="http://www.w3.org/2000/svg">
<path d="M9 319V1H509V319H9Z" fill="#E2F4F4" stroke="#3E4345" stroke-width="2"/>
<path d="M496 40H23V301H496V40Z" fill="white"/>
<circle cx="193.5" cy="148.5" r="17.75" stroke="#E3E5E6" stroke-width="1.5"/>
<path d="M510 0H8V21H510V0Z" fill="white"/>
<path d="M9 20V1H509V20H9Z" stroke="black" stroke-opacity="0.87" stroke-width="2"/>
<path d="M27.4163 10.2915C27.4163 12.0493 25.8985 13.5225 23.965 13.5225C22.0315 13.5225 20.5137 12.0493 20.5137 10.2915C20.5137 8.53375 22.0315 7.06055 23.965 7.06055C25.8985 7.06055 27.4163 8.53375 27.4163 10.2915Z" fill="white" stroke="#3E4345"/>
<path d="M42.4143 10.2915C42.4143 12.0493 40.8965 13.5225 38.963 13.5225C37.0295 13.5225 35.5117 12.0493 35.5117 10.2915C35.5117 8.53375 37.0295 7.06055 38.963 7.06055C40.8965 7.06055 42.4143 8.53375 42.4143 10.2915Z" fill="white" stroke="#3E4345"/>
<path d="M57.4124 10.2915C57.4124 12.0493 55.8946 13.5225 53.9611 13.5225C52.0275 13.5225 50.5098 12.0493 50.5098 10.2915C50.5098 8.53375 52.0275 7.06055 53.9611 7.06055C55.8946 7.06055 57.4124 8.53375 57.4124 10.2915Z" fill="white" stroke="#3E4345"/>
<path d="M523.758 395.065L535.974 392.029L539.152 404.033L525.029 407.67L523.758 395.065Z" fill="white" stroke="#7A7A7A" stroke-width="2"/>
<path d="M464.961 406.585L476.687 409.045V420.622L462.071 423.131L459.61 417.32L464.961 406.585Z" fill="white" stroke="#7A7A7A" stroke-width="2"/>
<path d="M445.613 267.813L509.007 265.123L506.932 282.761L506.923 282.839L506.926 282.918L508.4 319.117L508.401 319.152C508.402 319.185 508.403 319.231 508.405 319.288C508.411 319.402 508.42 319.562 508.44 319.756C508.478 320.143 508.555 320.676 508.71 321.262C509 322.356 509.606 323.795 510.912 324.701C510.914 324.706 510.917 324.711 510.92 324.716C510.988 324.84 511.085 325.032 511.21 325.299C511.458 325.827 511.793 326.592 512.205 327.567C513.028 329.513 514.142 332.258 515.448 335.539C518.06 342.098 521.433 350.775 524.769 359.432C528.106 368.088 531.405 376.721 533.871 383.19C535.103 386.424 536.127 389.117 536.843 391.002C537.201 391.944 537.482 392.685 537.674 393.189L537.743 393.372C537.591 393.52 537.396 393.7 537.158 393.903C536.479 394.483 535.459 395.242 534.109 395.941C531.52 397.282 527.702 398.411 522.708 397.603L520.679 391.216L520.677 391.209L519.726 391.519C520.677 391.209 520.677 391.209 520.677 391.209L520.676 391.209L520.676 391.207L520.674 391.202L520.668 391.182L520.642 391.104C520.62 391.037 520.587 390.938 520.545 390.811C520.461 390.557 520.339 390.193 520.189 389.75C519.887 388.864 519.47 387.659 519.006 386.388C518.542 385.118 518.028 383.773 517.535 382.609C517.054 381.472 516.556 380.421 516.118 379.799C515.975 379.597 515.502 378.771 514.74 377.381C513.996 376.024 513.013 374.197 511.873 372.06C509.593 367.786 506.69 362.283 503.832 356.842C500.974 351.402 498.163 346.028 496.066 342.013C495.017 340.005 494.147 338.338 493.539 337.172L492.835 335.821L492.649 335.465L492.602 335.374L492.59 335.351L492.587 335.345L492.586 335.344C492.586 335.344 492.586 335.343 491.699 335.805L492.586 335.343L492.573 335.319L492.559 335.295L482.234 317.885L480.743 315.371L480.381 318.271L477.431 341.95L477.411 342.109L477.442 342.266L478.423 342.073C477.442 342.266 477.442 342.267 477.442 342.267L477.442 342.268L477.443 342.271L477.446 342.287L477.459 342.351C477.47 342.407 477.486 342.491 477.507 342.602C477.55 342.823 477.612 343.15 477.691 343.571C477.849 344.414 478.073 345.634 478.337 347.142C478.866 350.16 479.555 354.326 480.199 358.926C481.491 368.163 482.577 379.017 481.854 385.842C481.12 392.777 480.017 399.892 479.097 405.279C478.637 407.971 478.223 410.229 477.925 411.813C477.806 412.44 477.706 412.962 477.628 413.363L461.663 410.851C461.436 408.695 460.627 406.628 459.313 404.853L459.303 404.839L459.293 404.825C458.9 404.331 458.565 403.406 458.329 402.131C458.1 400.894 457.987 399.47 457.942 398.102C457.897 396.739 457.919 395.457 457.953 394.515C457.97 394.044 457.99 393.66 458.005 393.394C458.013 393.261 458.02 393.158 458.024 393.089L458.03 393.011L458.031 392.992L458.032 392.988L458.032 392.987L458.034 392.95V392.912V390.823V390.781L458.031 390.74L453.606 337.116L453.604 337.1L453.602 337.084L445.613 267.813ZM510.866 324.623C510.85 324.603 510.848 324.597 510.861 324.616C510.862 324.617 510.864 324.62 510.866 324.623Z" fill="#919699" stroke="#3E4345" stroke-width="2"/>
<path d="M484.187 137.316L466.56 149.48L455.849 131.781L476.834 120.275L484.187 137.316Z" fill="white" stroke="#7A7A7A" stroke-width="2"/>
<path d="M448.183 203.485L449.182 203.432L449.182 203.431L449.182 203.426L449.181 203.406L449.176 203.321C449.173 203.245 449.168 203.132 449.162 202.983C449.151 202.686 449.136 202.246 449.124 201.682C449.1 200.554 449.086 198.931 449.126 196.955C449.206 193.001 449.503 187.651 450.37 182.049C451.238 176.441 452.671 170.626 454.999 165.72C457.329 160.809 460.509 156.905 464.822 154.951L465.754 154.528L465.31 153.606L461.98 146.687L478.941 134.008L485.307 131.003L489.313 139.828L489.503 140.247L489.944 140.375L489.944 140.375L489.945 140.375L489.945 140.375L489.956 140.379C489.967 140.382 489.984 140.387 490.008 140.395C490.056 140.409 490.13 140.433 490.228 140.466C490.424 140.532 490.718 140.635 491.094 140.781C491.846 141.073 492.927 141.534 494.223 142.207C496.815 143.552 500.253 145.738 503.624 149.09C510.339 155.769 516.866 167.157 515.777 186.017C514.673 205.132 512.833 218.322 511.275 226.72C510.495 230.919 509.786 233.92 509.274 235.865C509.018 236.837 508.811 237.545 508.67 238.007C508.599 238.237 508.545 238.407 508.508 238.516C508.49 238.571 508.477 238.611 508.468 238.637L508.459 238.664L508.457 238.67L508.457 238.67L508.457 238.67L508.457 238.671L508.315 239.07L508.505 239.45L509.4 239.003L508.505 239.45L508.506 239.451L508.507 239.454L508.513 239.466L508.539 239.518C508.562 239.564 508.596 239.633 508.64 239.724C508.729 239.905 508.858 240.173 509.021 240.515C509.346 241.199 509.803 242.181 510.329 243.369C511.382 245.747 512.706 248.936 513.799 252.204C514.897 255.488 515.737 258.779 515.869 261.382C515.934 262.685 515.817 263.737 515.524 264.507C515.243 265.245 514.814 265.696 514.209 265.924C512.47 266.581 507.268 267.742 500.307 268.965C493.389 270.18 484.839 271.439 476.476 272.307C468.102 273.176 459.96 273.648 453.84 273.304C450.771 273.132 448.28 272.757 446.54 272.16C444.731 271.539 444.103 270.814 444.009 270.192C443.66 267.882 443.786 262.602 444.203 255.844C444.617 249.135 445.307 241.095 446.044 233.352C446.781 225.61 447.564 218.172 448.163 212.669C448.463 209.917 448.716 207.65 448.895 206.071C448.984 205.281 449.054 204.663 449.103 204.243L449.158 203.764L449.172 203.642L449.175 203.611L449.176 203.603L449.177 203.602C449.177 203.601 449.177 203.601 448.183 203.485ZM448.183 203.485L449.182 203.432L449.186 203.517L449.177 203.601L448.183 203.485Z" fill="#9ED9D9" stroke="#3E4345" stroke-width="2"/>
<path d="M478.898 118.522C478.898 128.301 470.485 136.325 459.984 136.325C449.483 136.325 441.07 128.301 441.07 118.522C441.07 108.743 449.483 100.719 459.984 100.719C470.485 100.719 478.898 108.743 478.898 118.522Z" fill="white" stroke="#7A7A7A" stroke-width="2"/>
<path d="M444.735 271.055C444.558 271.664 444.296 272.526 443.952 273.548C443.258 275.611 442.239 278.303 440.933 280.854C439.617 283.425 438.056 285.761 436.312 287.198C434.612 288.598 432.841 289.081 430.883 288.228C429.853 287.779 429.26 287.202 428.931 286.579C428.596 285.947 428.479 285.167 428.584 284.229C428.799 282.314 429.913 279.995 431.415 277.675C432.899 275.382 434.684 273.204 436.108 271.591C436.817 270.786 437.433 270.127 437.871 269.67C437.981 269.555 438.08 269.452 438.166 269.364L444.735 271.055Z" fill="white" stroke="#7A7A7A" stroke-width="2"/>
<path d="M455.423 412.706L455.427 412.706L455.427 412.706L455.427 412.706L455.427 412.706L456.153 412.804L456.465 412.141L458.41 408.009L461.263 415.551L461.299 415.647L461.354 415.733L462.198 415.197C461.354 415.733 461.354 415.734 461.355 415.734L461.355 415.735L461.357 415.738L461.361 415.744L461.375 415.765C461.386 415.782 461.401 415.806 461.421 415.835C461.461 415.894 461.518 415.976 461.591 416.076C461.737 416.278 461.95 416.555 462.225 416.873C462.77 417.505 463.575 418.315 464.597 418.991C465.62 419.667 466.897 420.232 468.369 420.309C469.822 420.385 471.382 419.982 472.981 418.883L480.101 416.438C480.324 416.943 480.632 417.657 480.978 418.511C481.685 420.255 482.545 422.565 483.176 424.864C483.816 427.193 484.183 429.386 484 430.946C483.909 431.717 483.695 432.221 483.424 432.523C483.181 432.791 482.802 433 482.112 433H463.088C463.004 432.975 462.887 432.939 462.739 432.894C462.421 432.797 461.962 432.66 461.393 432.496C460.254 432.167 458.675 431.728 456.908 431.289C453.406 430.419 449.058 429.518 445.972 429.518C444.755 429.518 443.142 428.964 441.478 427.955C439.833 426.957 438.246 425.579 437.083 424.074C435.908 422.554 435.243 421.006 435.252 419.655C435.261 418.387 435.863 417.12 437.637 416.054C441.507 413.729 445.942 412.881 449.456 412.625C451.205 412.498 452.708 412.52 453.77 412.572C454.301 412.599 454.721 412.633 455.005 412.66C455.147 412.674 455.256 412.686 455.327 412.694C455.363 412.698 455.389 412.701 455.406 412.703L455.423 412.706Z" fill="#5E6366" stroke="#3E4345" stroke-width="2"/>
<path d="M542.337 413.238L542.337 413.238L542.377 413.54L542.577 413.767L542.577 413.768L542.578 413.768L542.578 413.768L542.578 413.769L542.587 413.778C542.596 413.789 542.611 413.807 542.631 413.832C542.672 413.883 542.733 413.96 542.808 414.061C542.957 414.265 543.156 414.558 543.349 414.912C543.746 415.642 544.06 416.526 543.991 417.379C543.927 418.159 543.531 419.063 542.182 419.895C540.783 420.756 538.38 421.518 534.392 421.861C526.306 422.555 521.499 422.189 518.568 421.212C517.123 420.731 516.163 420.11 515.487 419.417C514.81 418.722 514.368 417.905 514.032 416.953C513.4 415.163 513.703 413.328 514.216 411.873C514.47 411.154 514.767 410.552 515 410.132C515.079 409.99 515.15 409.87 515.208 409.774L519.289 408.49L519.428 408.446L519.548 408.365L518.989 407.536C519.548 408.365 519.549 408.365 519.549 408.365L519.549 408.364L519.55 408.364L519.554 408.361L519.567 408.352L519.615 408.319C519.655 408.291 519.713 408.251 519.786 408.2C519.931 408.097 520.136 407.949 520.376 407.768C520.852 407.408 521.483 406.905 522.073 406.348C522.646 405.807 523.251 405.15 523.607 404.478C523.786 404.14 523.942 403.724 523.942 403.27C523.942 402.776 523.755 402.303 523.363 401.934C523.128 401.711 523.012 401.366 523.021 400.911C523.57 401.69 524.289 402.598 525.125 403.388C526.104 404.312 527.358 405.183 528.783 405.352C530.256 405.525 531.68 404.926 532.923 403.436C532.934 403.43 532.945 403.424 532.956 403.418C533.078 403.35 533.258 403.252 533.482 403.137C533.932 402.906 534.552 402.611 535.242 402.348C535.935 402.083 536.67 401.861 537.354 401.762C538.05 401.661 538.6 401.701 538.986 401.861C539.036 401.881 539.195 401.984 539.429 402.323C539.651 402.644 539.881 403.092 540.11 403.651C540.568 404.768 540.971 406.197 541.306 407.634C541.639 409.064 541.898 410.467 542.073 411.515C542.16 412.038 542.226 412.471 542.271 412.772C542.293 412.923 542.31 413.04 542.321 413.12L542.333 413.21L542.336 413.232L542.337 413.237L542.337 413.238L542.337 413.238Z" fill="#5E6366" stroke="#3E4345" stroke-width="2"/>
<path d="M466.796 118.221C466.715 117.612 466.57 117.013 466.363 116.431C465.293 114.311 461.117 114.93 460.373 112.689C460.227 112.25 460.257 111.773 460.115 111.334C459.751 110.213 458.355 109.657 457.115 109.711C455.885 109.871 454.678 110.165 453.519 110.585C450.602 111.367 447.498 111.069 444.482 110.764C443.137 110.721 441.819 110.397 440.623 109.815C439.481 109.152 438.659 107.817 439.074 106.613C439.473 105.459 440.81 104.825 441.412 103.752C442.367 102.048 441.199 99.8479 441.974 98.0646C443.217 95.2038 447.92 95.7782 450.309 93.6638C450.889 93.1505 451.306 92.4944 451.862 91.9579C453.511 90.3663 456.116 90.0582 458.463 90.2777C460.809 90.4973 463.116 91.148 465.473 91.1087C467.71 91.0713 470.054 90.4283 472.114 91.2496C473.326 91.8351 474.39 92.6604 475.233 93.6692L480.518 99.142C481.244 99.7881 481.802 100.583 482.151 101.465C482.469 102.514 482.177 103.64 482.312 104.723C482.622 107.193 485.071 109.059 485.401 111.527C485.468 112.293 485.429 113.063 485.285 113.819L484.545 118.973C484.507 119.475 484.366 119.966 484.128 120.417C483.912 120.764 483.587 121.038 483.344 121.369C482.66 122.304 482.723 123.539 482.383 124.629C482.043 125.719 480.823 126.798 479.756 126.272C479.061 125.93 478.6 123.096 477.755 122.36C476.577 121.335 475.962 121.462 474.509 121.479C471.598 121.514 467.728 121.749 466.796 118.221Z" fill="#3E4345"/>
<path d="M450.92 267.103L450.739 267.189L450.667 267.376L447.891 274.585L434.75 270.014L436.859 260.06L441.994 249.67L442.026 249.605L442.038 249.533L455.314 171.534L455.321 171.492V171.45V171.45V171.45L455.321 171.45L455.321 171.445L455.322 171.421C455.322 171.4 455.323 171.366 455.325 171.321C455.328 171.231 455.335 171.097 455.35 170.924C455.379 170.58 455.437 170.084 455.554 169.49C455.788 168.299 456.256 166.726 457.186 165.178C458.114 163.635 459.502 162.116 461.588 161.022C463.659 159.935 466.447 159.253 470.205 159.41C470.244 159.426 470.298 159.447 470.367 159.475C470.523 159.539 470.752 159.636 471.043 159.766C471.625 160.027 472.451 160.421 473.423 160.953C475.37 162.017 477.889 163.625 480.2 165.807C482.51 167.989 484.597 170.729 485.704 174.056C486.809 177.374 486.951 181.308 485.327 185.908C482.004 195.32 475.916 214.481 470.662 231.28C468.034 239.681 465.614 247.495 463.851 253.208C462.969 256.064 462.252 258.396 461.755 260.013C461.506 260.822 461.313 261.452 461.182 261.88L461.046 262.323L450.92 267.103Z" fill="#9ED9D9" stroke="#3E4345"/>
<path opacity="0.1" d="M486.905 189.904L464.041 263.725L454.453 272.779L459.985 263.377L486.905 189.904Z" fill="black"/>
<path d="M35.9022 203.025L40.0594 230.938L40.0882 231.132L40.1879 231.3L58.3901 262.056L58.4741 262.198L58.5993 262.306C60.7988 264.193 61.0114 267.532 60.4793 270.77C60.2213 272.34 59.8037 273.784 59.4482 274.839C59.3788 275.045 59.3119 275.235 59.2493 275.409L55.8497 273.162L54.9664 268.157L54.915 267.866L54.7132 267.649L53.9816 268.331C54.7132 267.649 54.7131 267.649 54.7129 267.649L54.7122 267.648L54.7093 267.645L54.6979 267.633L54.6525 267.584L54.4751 267.394L53.797 266.667C53.2104 266.038 52.3664 265.133 51.3371 264.03C49.2787 261.825 46.4792 258.828 43.5149 255.662C37.5901 249.333 30.9962 242.314 28.3538 239.592C27.8249 239.047 27.2768 238.123 26.7378 236.83C26.2057 235.553 25.7124 233.991 25.2589 232.237C24.352 228.728 23.6247 224.53 23.0582 220.476C22.4923 216.426 22.0898 212.542 21.8288 209.668C21.6983 208.232 21.6033 207.05 21.5409 206.228C21.5298 206.081 21.5197 205.946 21.5107 205.823L35.9022 203.025Z" fill="white" stroke="#7A7A7A" stroke-width="2"/>
<path d="M11.1622 394.27L19.9266 398.784C19.9509 399.065 19.983 399.444 20.0195 399.896C20.1015 400.909 20.2058 402.287 20.2951 403.749C20.3845 405.212 20.4584 406.75 20.4805 408.086C20.502 409.389 20.4721 410.422 20.3814 411.01C20.3512 411.03 20.2982 411.059 20.2105 411.093C19.917 411.209 19.4396 411.3 18.771 411.34C17.4505 411.419 15.6829 411.287 13.8718 411.063C12.0736 410.84 10.2845 410.533 8.94131 410.281C8.5653 410.21 8.22492 410.144 7.92986 410.085C8.36123 408.997 8.74469 407.689 9.08386 406.316C9.5639 404.374 9.97291 402.226 10.3045 400.234C10.6364 398.239 10.8927 396.389 11.0659 395.038C11.1015 394.76 11.1336 394.503 11.1622 394.27ZM20.4164 410.983C20.4169 410.983 20.4143 410.986 20.407 410.992C20.4122 410.985 20.4158 410.982 20.4164 410.983Z" fill="white" stroke="#7A7A7A" stroke-width="2"/>
<path d="M83.063 400.631L91.3256 401.746C91.3623 402.133 91.4105 402.647 91.4659 403.255C91.5928 404.651 91.757 406.54 91.9062 408.512C92.0555 410.486 92.1892 412.536 92.2559 414.256C92.3212 415.943 92.3161 417.204 92.2306 417.795C92.2003 417.814 92.1474 417.843 92.0601 417.878C91.7666 417.993 91.2892 418.084 90.6206 418.124C89.3001 418.203 87.5325 418.071 85.7214 417.847C83.9232 417.624 82.1341 417.317 80.7909 417.065C80.4149 416.995 80.0745 416.928 79.7795 416.87C80.2108 415.781 80.5943 414.473 80.9335 413.101C81.4135 411.158 81.8225 409.01 82.1541 407.018C82.486 405.023 82.7423 403.173 82.9155 401.822C82.9743 401.363 83.0236 400.962 83.063 400.631ZM92.266 417.767C92.2665 417.767 92.2639 417.77 92.2566 417.776C92.2618 417.77 92.2655 417.767 92.266 417.767Z" fill="white" stroke="#7A7A7A" stroke-width="2"/>
<path d="M79.3146 152.382C79.3146 160.862 72.0166 167.833 62.8917 167.833C53.7667 167.833 46.4688 160.862 46.4688 152.382C46.4688 143.902 53.7667 136.931 62.8917 136.931C72.0166 136.931 79.3146 143.902 79.3146 152.382Z" fill="white" stroke="#7A7A7A" stroke-width="2"/>
<path d="M63.2931 176.97C63.3254 177.204 63.3578 177.408 63.3867 177.575C63.1724 177.809 62.86 178.15 62.4621 178.581C61.6545 179.458 60.4944 180.71 59.0858 182.213C56.268 185.22 52.4578 189.226 48.485 193.232C44.509 197.24 40.3837 201.233 36.9323 204.218C35.2045 205.713 33.6656 206.938 32.4108 207.783C31.7828 208.206 31.2462 208.52 30.8072 208.726C30.3468 208.941 30.0838 208.992 29.9749 208.992C29.7275 208.992 29.429 208.876 29.068 208.409C28.6962 207.928 28.3446 207.175 28.0344 206.165C27.4169 204.155 27.0488 201.418 26.8407 198.611C26.6338 195.819 26.589 193.02 26.5965 190.915C26.6002 189.863 26.6169 188.987 26.6326 188.375C26.6388 188.133 26.6449 187.932 26.65 187.778C26.6777 187.747 26.7076 187.714 26.7397 187.679C26.9547 187.444 27.2674 187.105 27.6565 186.692C28.4351 185.866 29.5166 184.747 30.73 183.573C31.945 182.398 33.2825 181.178 34.5739 180.144C35.8805 179.099 37.08 178.294 38.026 177.897C38.7765 177.582 39.4893 176.942 40.1411 176.204C40.8104 175.445 41.4947 174.49 42.172 173.427C43.5277 171.301 44.9096 168.66 46.1439 166.102C47.3805 163.539 48.48 161.035 49.2698 159.175C49.6338 158.317 49.9324 157.595 50.1489 157.065C50.6513 157.3 51.329 157.623 52.1213 158.013C53.8608 158.87 56.1423 160.045 58.3288 161.328C60.5307 162.621 62.5752 163.988 63.8815 165.221C64.5427 165.846 64.938 166.365 65.1064 166.759C65.2534 167.102 65.1874 167.218 65.1173 167.307C63.4672 169.384 63.104 172.154 63.104 174.261C63.104 175.335 63.1987 176.287 63.2931 176.97Z" fill="white" stroke="#7A7A7A" stroke-width="2"/>
<path d="M21.066 404.766L8.54288 403.383L29.9706 335.126L30.002 335.026L30.012 334.921L34.3231 289.692L34.3267 289.654L34.3274 289.616C34.5648 277.062 36.8197 267.325 39.0068 260.739C40.1005 257.445 41.1773 254.94 41.9766 253.264C42.3762 252.426 42.7065 251.796 42.9347 251.379C43.0488 251.17 43.1374 251.015 43.1964 250.913C43.2259 250.862 43.248 250.825 43.2622 250.801L43.2775 250.776L43.2805 250.771L43.2806 250.771L43.2808 250.77L43.2809 250.77L43.4287 250.53V250.247V245.524L85.1206 230.652L103.443 259.715L103.449 259.723C103.753 260.196 104.005 261.017 104.153 262.215C104.298 263.388 104.331 264.817 104.274 266.424C104.16 269.636 103.693 273.452 103.113 277.132C102.535 280.806 101.85 284.319 101.309 286.914C101.038 288.212 100.804 289.279 100.637 290.02C100.554 290.391 100.488 290.681 100.443 290.878C100.42 290.976 100.403 291.051 100.391 291.101L100.378 291.157L100.374 291.171L100.373 291.175L100.373 291.176C100.373 291.176 100.373 291.176 101.346 291.406L100.373 291.176L100.352 291.265L100.348 291.356L97.4744 348.781L92.6857 406.644L92.6823 406.686V406.727V412.03L78.7959 411.633L73.6024 350.572L73.5991 350.533L73.5928 350.494L65.9287 303.908L63.9977 303.741L51.5606 339.424L30.9853 383.249L30.9588 383.306L30.9395 383.365C29.2003 388.717 27.0639 393.946 24.546 399.015L21.066 404.766Z" fill="#919699" stroke="#3E4345" stroke-width="2"/>
<path d="M20.7456 409.56L20.7523 409.55L20.7547 409.546L20.7731 409.519C20.7895 409.494 20.8139 409.458 20.8453 409.412C20.9081 409.32 20.9983 409.188 21.1066 409.035C21.3156 408.739 21.5848 408.371 21.8516 408.04C22.0653 408.309 22.331 408.577 22.6113 408.831C23.2441 409.406 24.0651 410.015 24.8561 410.561C25.6532 411.11 26.4469 411.615 27.0393 411.981C27.3361 412.164 27.5837 412.313 27.7577 412.417C27.8447 412.469 27.9133 412.509 27.9606 412.537L28.0151 412.569L28.0296 412.578L28.0335 412.58L28.0347 412.581L28.035 412.581C28.0351 412.581 28.0352 412.581 28.5376 411.716L28.0352 412.581L28.3365 412.756L28.6773 412.706L28.6781 412.706L28.6783 412.706L28.6796 412.706L28.6819 412.706C28.6836 412.706 28.6859 412.705 28.6886 412.705C28.695 412.704 28.704 412.703 28.7156 412.702C28.7486 412.698 28.8022 412.693 28.8736 412.688C29.0168 412.679 29.2294 412.671 29.4902 412.68C30.0161 412.699 30.7126 412.786 31.4231 413.05C32.1277 413.311 32.8382 413.742 33.4251 414.452C34.0103 415.16 34.5152 416.197 34.7325 417.736C34.9352 419.171 34.5835 420.263 33.9405 421.126C33.2774 422.015 32.2608 422.716 31.0694 423.239C29.8838 423.759 28.5842 424.078 27.4344 424.238C26.264 424.401 25.338 424.387 24.8911 424.302C23.5326 424.046 21.235 424.179 19.4054 424.346C18.4632 424.432 17.5985 424.532 16.9697 424.611C16.655 424.65 16.3988 424.684 16.2206 424.709C16.1315 424.721 16.062 424.73 16.0143 424.737L15.9596 424.745L15.9452 424.747L15.9413 424.748L15.9402 424.748L15.9399 424.748C15.9398 424.748 15.9397 424.748 16.0835 425.737L15.9397 424.748L15.9187 424.751L15.8988 424.755L15.8986 424.755L15.8983 424.755L15.8981 424.755L15.8979 424.755L15.8913 424.756L15.857 424.762C15.8251 424.768 15.775 424.776 15.7072 424.787C15.5716 424.808 15.3653 424.838 15.092 424.872C14.5453 424.94 13.7307 425.023 12.678 425.078C10.5726 425.188 7.51614 425.189 3.74654 424.744C2.92724 424.648 2.37683 424.41 2.00219 424.119C1.63213 423.832 1.37399 423.449 1.21037 422.956C0.867139 421.922 0.960761 420.468 1.36774 418.793C2.0026 416.181 3.26228 413.509 4.03714 411.865C4.2544 411.405 4.43354 411.025 4.55011 410.749C4.63188 410.556 4.7955 410.401 5.178 410.304C5.58548 410.2 6.13031 410.199 6.7349 410.277C7.32557 410.353 7.90118 410.494 8.33601 410.62C8.55144 410.683 8.72776 410.74 8.84853 410.781C8.90883 410.801 8.95501 410.818 8.98501 410.828L9.01753 410.84L9.02406 410.843L9.02414 410.843L9.02444 410.843L9.02472 410.843L9.02495 410.843L9.07304 410.861L9.12368 410.874C13.5556 412.037 16.3962 411.84 18.1904 411.253C19.0887 410.96 19.7093 410.573 20.1209 410.231C20.3256 410.06 20.4757 409.903 20.581 409.778C20.6336 409.716 20.6749 409.662 20.7061 409.618C20.7218 409.596 20.7349 409.577 20.7456 409.56Z" fill="#5E6366" stroke="#3E4345" stroke-width="2"/>
<path d="M92.5972 416.345L92.6039 416.334L92.6063 416.331L92.6247 416.303C92.641 416.279 92.6655 416.242 92.6969 416.196C92.7597 416.104 92.8499 415.973 92.9582 415.819C93.1672 415.523 93.4364 415.155 93.7032 414.824C93.9169 415.093 94.1825 415.361 94.4629 415.615C95.0957 416.19 95.9167 416.799 96.7077 417.345C97.5047 417.895 98.2985 418.399 98.8909 418.765C99.1877 418.948 99.4353 419.097 99.6093 419.201C99.6963 419.253 99.7649 419.294 99.8122 419.321L99.8667 419.353L99.8812 419.362L99.8851 419.364L99.8862 419.365L99.8866 419.365C99.8867 419.365 99.8868 419.365 100.389 418.5L99.8868 419.365L100.188 419.54L100.529 419.491L100.53 419.491L100.53 419.49L100.531 419.49L100.533 419.49C100.536 419.49 100.54 419.489 100.545 419.489C100.551 419.488 100.558 419.487 100.567 419.486C100.6 419.483 100.654 419.477 100.725 419.473C100.868 419.463 101.081 419.455 101.342 419.464C101.868 419.483 102.564 419.57 103.275 419.834C103.979 420.095 104.69 420.526 105.277 421.236C105.862 421.944 106.367 422.981 106.584 424.52C106.787 425.956 106.435 427.047 105.792 427.91C105.129 428.799 104.112 429.5 102.921 430.023C101.735 430.544 100.436 430.862 99.286 431.022C98.1156 431.185 97.1896 431.171 96.7427 431.087C95.3842 430.83 93.0866 430.963 91.257 431.13C90.3148 431.216 89.45 431.316 88.8213 431.395C88.5066 431.434 88.2503 431.468 88.0722 431.493C87.9831 431.505 87.9135 431.515 87.8659 431.521L87.8112 431.529L87.7968 431.531L87.7929 431.532L87.7918 431.532L87.7915 431.532C87.7914 431.532 87.7913 431.532 87.935 432.522L87.7913 431.532L87.7703 431.535L87.7504 431.539L87.7502 431.539L87.7499 431.539L87.7496 431.539L87.7495 431.539L87.7428 431.54L87.7086 431.546C87.6767 431.552 87.6266 431.56 87.5588 431.571C87.4232 431.592 87.2169 431.622 86.9435 431.656C86.3968 431.724 85.5823 431.807 84.5296 431.862C82.4241 431.973 79.3677 431.973 75.5981 431.528C74.7788 431.432 74.2284 431.194 73.8538 430.903C73.4837 430.617 73.2256 430.233 73.0619 429.74C72.7187 428.706 72.8123 427.252 73.2193 425.578C73.8542 422.966 75.1138 420.293 75.8887 418.65C76.106 418.189 76.2851 417.809 76.4017 417.534C76.4834 417.341 76.6471 417.185 77.0296 417.088C77.437 416.984 77.9819 416.983 78.5865 417.061C79.1771 417.137 79.7527 417.279 80.1876 417.405C80.403 417.467 80.5793 417.524 80.7001 417.565C80.7604 417.585 80.8066 417.602 80.8366 417.613L80.8691 417.624L80.8756 417.627L80.8757 417.627L80.876 417.627L80.8763 417.627L80.8765 417.627L80.9246 417.645L80.9752 417.659C85.4072 418.821 88.2478 418.624 90.042 418.038C90.9403 417.744 91.5609 417.357 91.9725 417.015C92.1772 416.844 92.3273 416.688 92.4326 416.563C92.4852 416.5 92.5265 416.446 92.5577 416.402C92.5734 416.38 92.5865 416.361 92.5972 416.345Z" fill="#5E6366" stroke="#3E4345" stroke-width="2"/>
<path d="M20.0133 211.533C20.0246 211.307 20.0378 211.054 20.0529 210.774C20.12 209.528 20.2244 207.768 20.3735 205.711C20.6722 201.594 21.149 196.309 21.8618 191.598C22.5138 187.288 25.7938 184.232 29.1173 182.208C30.761 181.207 32.3669 180.488 33.5641 180.02C34.0663 179.824 34.4944 179.673 34.8203 179.564C36.3083 181.649 39.2227 184.077 43.1904 184.791C47.6635 185.596 53.2575 184.187 59.4152 178.14C60.8037 176.777 62.1521 176.061 63.4326 175.786C64.7121 175.512 66.0021 175.662 67.3027 176.157C69.9461 177.163 72.548 179.565 74.8802 182.464C77.1933 185.339 79.1517 188.589 80.5365 191.135C81.2273 192.404 81.772 193.492 82.1432 194.261C82.3288 194.645 82.4708 194.95 82.5661 195.157C82.6137 195.26 82.6495 195.34 82.6733 195.392L82.6997 195.451L82.6998 195.452L82.7031 195.46C82.7102 195.479 82.7212 195.507 82.7357 195.545C82.7646 195.621 82.8073 195.735 82.861 195.884C82.9684 196.182 83.1194 196.616 83.2908 197.157C83.6343 198.24 84.057 199.741 84.377 201.417C85.031 204.841 85.1963 208.703 83.7122 211.306C82.7307 213.027 82.5294 215.184 82.6931 217.326C82.8582 219.487 83.4049 221.758 84.0457 223.804C84.6882 225.855 85.436 227.713 86.0218 229.056C86.2817 229.652 86.5106 230.149 86.6853 230.518C78.6822 236.938 70.7995 242.973 63.1029 246.439C55.4629 249.878 48.1489 250.724 41.1334 246.997C41.924 241.664 40.7996 237.568 38.9651 233.601C38.186 231.916 37.2711 230.239 36.3307 228.514C36.1299 228.146 35.9279 227.776 35.7258 227.403C34.57 225.269 33.3924 223.016 32.335 220.465C30.0696 214.998 26.727 212.738 23.842 211.914C22.4234 211.509 21.1544 211.462 20.2373 211.517C20.1602 211.522 20.0855 211.527 20.0133 211.533Z" fill="#9ED9D9" stroke="#3E4345" stroke-width="2"/>
<path d="M78.9569 197.605L83.1141 225.518L83.1429 225.712L83.2426 225.88L101.445 256.636L101.529 256.778L101.654 256.886C103.853 258.774 104.066 262.112 103.534 265.35C103.276 266.92 102.858 268.364 102.503 269.419C102.433 269.625 102.367 269.815 102.304 269.989L98.9044 267.742L98.0211 262.737L97.9697 262.446L97.7679 262.23L97.0363 262.911C97.7679 262.23 97.7678 262.229 97.7676 262.229L97.7669 262.228L97.764 262.225L97.7525 262.213L97.7072 262.164L97.5298 261.974L96.8517 261.247C96.265 260.618 95.4211 259.713 94.3918 258.611C92.3334 256.405 89.5338 253.409 86.5696 250.242C80.6447 243.913 74.0509 236.894 71.4084 234.172C70.8795 233.628 70.3315 232.703 69.7925 231.41C69.2604 230.133 68.7671 228.571 68.3136 226.817C67.4067 223.308 66.6794 219.11 66.1129 215.056C65.547 211.006 65.1445 207.122 64.8835 204.249C64.753 202.812 64.658 201.63 64.5956 200.808C64.5845 200.661 64.5744 200.526 64.5654 200.403L78.9569 197.605Z" fill="white" stroke="#7A7A7A" stroke-width="2"/>
<path d="M78.1143 176.509L78.1144 176.509L78.1904 176.55L78.2761 176.564C78.284 176.565 78.3588 176.583 78.4905 176.742C78.6179 176.897 78.7589 177.136 78.9069 177.471C79.202 178.138 79.4855 179.093 79.7525 180.259C80.2852 182.585 80.7318 185.659 81.0905 188.736C81.4487 191.808 81.7176 194.869 81.897 197.162C81.9866 198.308 82.0538 199.262 82.0986 199.929C82.1137 200.154 82.1263 200.346 82.1363 200.502L63.0142 202.652C63.0071 202.527 62.999 202.382 62.9901 202.218C62.9568 201.603 62.9127 200.718 62.8692 199.638C62.7821 197.479 62.6977 194.543 62.7079 191.436C62.7181 188.328 62.8231 185.057 63.1132 182.224C63.4059 179.366 63.8804 177.036 64.5859 175.751C65.2501 174.541 66.3558 173.949 67.7184 173.758C69.098 173.564 70.7048 173.79 72.2631 174.198C73.8143 174.605 75.2787 175.183 76.3588 175.661C76.8978 175.9 77.3388 176.113 77.6442 176.266C77.7968 176.342 77.9155 176.404 77.9954 176.446C78.0354 176.467 78.0657 176.483 78.0857 176.493L78.1079 176.505L78.1131 176.508L78.1142 176.509L78.1143 176.509Z" fill="#9ED9D9" stroke="#3E4345"/>
<path d="M82.3978 142.857C69.5138 148.937 76.9472 165.539 75.4265 172.505C72.9359 183.915 36.2068 178.117 36.2068 178.117C31.7381 177.358 29.0147 130.413 53.4873 130.828C65.823 131.037 93.4339 137.648 82.3978 142.857Z" fill="#3E4345"/>
<path d="M75.8358 154.581C75.8358 155.245 75.6567 155.824 75.3935 156.222C75.1277 156.623 74.8164 156.791 74.5419 156.791C74.2674 156.791 73.9562 156.623 73.6904 156.222C73.4272 155.824 73.248 155.245 73.248 154.581C73.248 153.917 73.4272 153.339 73.6904 152.941C73.9562 152.539 74.2674 152.371 74.5419 152.371C74.8164 152.371 75.1277 152.539 75.3935 152.941C75.6567 153.339 75.8358 153.917 75.8358 154.581Z" fill="white" stroke="#7A7A7A"/>
<path d="M365.19 232.454L341.895 219.202L348.698 244.067L352.799 235.008L359.638 243.668L361.667 242.24L354.827 233.58L365.19 232.454Z" fill="#919699"/>
<circle cx="193.5" cy="145.5" r="6.5" fill="#C6CACC"/>
<path d="M193.5 150C189.91 150 187 155.373 187 162H200C200 155.373 197.09 150 193.5 150Z" fill="#C6CACC"/>
<path d="M399.954 246.728H360.488V259.601H399.954V246.728Z" fill="#919699"/>
<path d="M227.344 127.435L250.639 114.183L243.836 139.047L239.735 129.988L232.895 138.649L230.867 137.22L237.707 128.56L227.344 127.435Z" fill="#9ED9D9"/>
<path d="M232.046 142.386H192.58V155.259H232.046V142.386Z" fill="#9ED9D9"/>
<rect x="118" y="86" width="148" height="147" stroke="#E3E5E6" stroke-width="2"/>
<rect x="118" y="86" width="148" height="27" stroke="#E3E5E6" stroke-width="2"/>
<rect x="166" y="98" width="52" height="6" rx="3" stroke="#E3E5E6" stroke-width="2"/>
<rect x="141" y="178" width="103" height="10" rx="3" stroke="#E3E5E6" stroke-width="2"/>
<path d="M399.25 112C399.25 122.061 390.874 130.25 380.5 130.25C370.126 130.25 361.75 122.061 361.75 112C361.75 101.939 370.126 93.75 380.5 93.75C390.874 93.75 399.25 101.939 399.25 112Z" stroke="#C6CACC" stroke-width="1.5"/>
<path d="M399.25 192C399.25 202.061 390.874 210.25 380.5 210.25C370.126 210.25 361.75 202.061 361.75 192C361.75 181.939 370.126 173.75 380.5 173.75C390.874 173.75 399.25 181.939 399.25 192Z" stroke="#C6CACC" stroke-width="1.5"/>
<path d="M372 111L381 120L400 92" stroke="#C6CACC" stroke-width="2"/>
<path d="M364 175L398.5 209.5" stroke="#C6CACC" stroke-width="2"/>
<path d="M364 209.5L398.5 175" stroke="#C6CACC" stroke-width="2"/>
<path d="M267 152L363 117M267 174L363 194" stroke="#C6CACC"/>
</svg>
