<svg width="601" height="364" viewBox="0 0 601 364" fill="none" xmlns="http://www.w3.org/2000/svg">
<path opacity="0.4" d="M148.891 238.348C112.614 225.154 71.1362 213.987 37.2431 232.946C32.9475 235.349 28.7148 238.374 26.4004 242.876C20.2871 254.719 30.0041 270.077 25.2683 282.595C20.5324 295.113 2.70854 301.415 4.16766 314.787C4.55131 318.283 6.35005 321.447 8.46954 324.174C21.7463 341.247 46.0859 342.975 66.6582 338.738C87.2306 334.501 107.35 325.717 128.293 326.822C148.419 327.915 166.935 338.076 185.375 346.629C216.463 361.087 252.771 371.46 283.834 356.929C298.067 350.27 309.834 338.93 323.457 331.013C341.815 320.441 362.917 316.366 383.646 319.388C397.482 321.44 410.69 326.604 424.231 330.165C454.985 338.248 487.086 337.983 518.778 337.666C524.677 337.606 530.671 337.533 536.325 335.759C544.696 333.111 551.602 327.014 558.249 321.05C566.985 313.218 576.187 304.613 579.004 292.902C582.331 279 575.444 264.225 565.231 254.778C555.017 245.332 541.96 240.168 529.218 235.19C526.073 233.972 522.715 232.734 519.495 233.654C517.382 234.263 515.602 235.746 514.023 237.342C504.979 246.503 497.337 262.001 485.004 259.511C480.602 258.624 476.998 255.401 473.514 252.422C454.91 236.534 429.885 224.267 407.432 233.045C391.01 239.466 379.419 255.957 362.778 261.775C350.941 265.919 338.08 264.126 325.627 264.933C307.514 266.098 289.885 272.837 271.746 272.427C225.495 271.381 186.96 224.83 140.897 229.265C137.287 229.61 133.35 230.483 131.136 233.489" fill="#9ED9D9"/>
<path d="M90.5641 194.068C90.5641 194.068 52.1301 218.488 123.004 256.103C123.004 256.103 138.621 225.585 121.357 200.701C118.006 195.852 113.083 192.466 107.519 191.182C101.955 189.899 96.1376 190.808 91.1678 193.737L90.5641 194.068Z" fill="#9ED9D9"/>
<path d="M91.0234 193.558C91.0234 193.558 123.929 220.037 123.011 256.082" stroke="#E3E5E6" stroke-miterlimit="10"/>
<path d="M576.822 173.725C584.608 203.693 551.395 289.069 551.395 289.069C551.395 289.069 481.508 233.376 473.715 203.408C471.677 196.223 471.024 188.681 471.794 181.226C472.564 173.772 474.742 166.554 478.2 159.998C481.658 153.441 486.326 147.679 491.93 143.049C497.534 138.418 503.96 135.014 510.832 133.035C517.704 131.056 524.882 130.543 531.945 131.525C539.008 132.508 545.813 134.967 551.96 138.757C558.108 142.547 563.473 147.592 567.741 153.596C572.01 159.6 575.095 166.441 576.816 173.718L576.822 173.725Z" fill="#9ED9D9"/>
<path opacity="0.1" d="M576.822 173.725C584.608 203.693 551.395 289.069 551.395 289.069C551.395 289.069 481.508 233.376 473.715 203.408C471.677 196.223 471.024 188.681 471.794 181.226C472.564 173.772 474.742 166.554 478.2 159.998C481.658 153.441 486.326 147.679 491.93 143.049C497.534 138.418 503.96 135.014 510.832 133.035C517.704 131.056 524.882 130.543 531.945 131.525C539.008 132.508 545.813 134.967 551.96 138.757C558.108 142.547 563.473 147.592 567.741 153.596C572.01 159.6 575.095 166.441 576.816 173.718L576.822 173.725Z" fill="black" fill-opacity="0.87"/>
<path d="M511.451 134.476C511.451 134.476 554.954 203.6 551.703 289.235" stroke="#F5F7FA" stroke-miterlimit="10"/>
<path d="M587.922 228.497C587.922 228.497 548.476 205.91 553.469 289.288C553.469 289.288 586.375 288.05 598.054 259.796C600.338 254.301 600.627 248.115 598.866 242.411C597.105 236.707 593.417 231.881 588.501 228.848L587.922 228.497Z" fill="#9ED9D9"/>
<path d="M588.57 228.644C588.57 228.644 583.476 271.924 553.47 289.288" stroke="#F5F7FA" stroke-miterlimit="10"/>
<path d="M10.413 219.204C10.413 219.204 -28.0398 243.618 42.8407 281.212C42.8407 281.212 58.4571 250.694 41.1929 225.81C37.8426 220.962 32.9193 217.575 27.3555 216.292C21.7918 215.008 15.974 215.917 11.0042 218.846L10.413 219.204Z" fill="#9ED9D9"/>
<path d="M10.8535 218.693C10.8535 218.693 43.7592 245.173 42.8409 281.218" stroke="#E3E5E6" stroke-miterlimit="10"/>
<path d="M490.206 250.986H449.797C450.727 249.017 451.209 246.849 451.206 244.65V50.9796C451.206 47.2031 449.78 43.5812 447.243 40.9108C444.706 38.2404 441.265 36.7402 437.677 36.7402H124.891C121.303 36.7402 117.862 38.2404 115.325 40.9108C112.788 43.5812 111.363 47.2031 111.363 50.9796V244.657C111.36 246.855 111.842 249.024 112.772 250.992H70.9351C70.4636 250.992 69.9967 251.09 69.5613 251.281C69.1258 251.471 68.7305 251.751 68.398 252.102C68.0654 252.454 67.8022 252.872 67.6235 253.331C67.4447 253.79 67.354 254.282 67.3565 254.779V257.817C67.3565 263.404 69.465 268.762 73.218 272.712C76.9711 276.662 82.0614 278.882 87.3691 278.882H473.772C479.079 278.882 484.17 276.662 487.923 272.712C491.676 268.762 493.784 263.404 493.784 257.817V254.779C493.787 254.282 493.697 253.789 493.519 253.329C493.341 252.869 493.078 252.451 492.745 252.098C492.412 251.746 492.017 251.466 491.581 251.275C491.145 251.084 490.678 250.986 490.206 250.986ZM241.218 263.034L237.734 258.896H323.759L319.923 263.04L241.218 263.034Z" fill="url(#paint0_linear)"/>
<path d="M129.822 40.4805H432.715C440.195 40.4805 446.344 46.8777 446.344 54.8783V241.208C446.344 249.208 440.195 255.605 432.715 255.605H129.822C122.343 255.605 116.193 249.208 116.193 241.208V54.8783C116.193 46.8777 122.343 40.4805 129.822 40.4805Z" fill="#E3E5E6" stroke="#5E6366" stroke-width="2"/>
<path d="M123.187 247.509V72.1299H438.652V247.509H123.187Z" fill="white" stroke="#5E6366" stroke-width="2"/>
<path d="M280.923 58.6182C282.469 58.6182 283.722 57.2993 283.722 55.6724C283.722 54.0455 282.469 52.7266 280.923 52.7266C279.377 52.7266 278.124 54.0455 278.124 55.6724C278.124 57.2993 279.377 58.6182 280.923 58.6182Z" fill="white"/>
<path d="M319.029 261.651H319.466L319.763 261.33L330.372 249.874H485.457C486.102 249.874 486.732 250.143 487.205 250.641C487.679 251.14 487.954 251.828 487.954 252.555V255.52C487.954 258.1 487.471 260.652 486.534 263.033C485.598 265.413 484.226 267.573 482.5 269.389C480.774 271.206 478.728 272.644 476.48 273.624C474.232 274.604 471.824 275.108 469.394 275.108H91.7463C86.8409 275.108 82.1255 273.058 78.6404 269.389C75.1537 265.719 73.1865 260.731 73.1865 255.52V252.555C73.1865 251.828 73.4614 251.14 73.9357 250.641C74.4084 250.143 75.0382 249.874 75.6834 249.874H231.814L241.369 261.293L241.669 261.651H242.136H319.029Z" fill="#E3E5E6" stroke="#5E6366" stroke-width="2"/>
<path d="M162.746 82.1719V233.052H399.79" stroke="#E3E5E6" stroke-width="2" stroke-miterlimit="10"/>
<path opacity="0.5" d="M208.193 187.421H183.722V227.167H208.193V187.421Z" fill="#9ED9D9"/>
<path opacity="0.7" d="M250.149 152.091H225.678V227.167H250.149V152.091Z" fill="#9ED9D9"/>
<path opacity="0.5" d="M292.104 173.434H267.633V227.16H292.104V173.434Z" fill="#9ED9D9"/>
<path opacity="0.8" d="M334.061 140.314H309.589V227.167H334.061V140.314Z" fill="#9ED9D9"/>
<path d="M376.017 109.399H351.545V227.16H376.017V109.399Z" fill="#9ED9D9"/>
<path d="M195.608 163.133L238.262 122.653L280.218 160.922L321.476 114.557L363.432 96.1533" stroke="#E3E5E6" stroke-width="2" stroke-miterlimit="10"/>
<path d="M195.608 168.283C198.31 168.283 200.501 165.977 200.501 163.133C200.501 160.288 198.31 157.982 195.608 157.982C192.906 157.982 190.715 160.288 190.715 163.133C190.715 165.977 192.906 168.283 195.608 168.283Z" fill="#9ED9D9"/>
<path d="M279.52 165.338C282.222 165.338 284.413 163.032 284.413 160.187C284.413 157.343 282.222 155.037 279.52 155.037C276.818 155.037 274.627 157.343 274.627 160.187C274.627 163.032 276.818 165.338 279.52 165.338Z" fill="#9ED9D9"/>
<path d="M322.174 119.707C324.877 119.707 327.067 117.401 327.067 114.557C327.067 111.712 324.877 109.406 322.174 109.406C319.472 109.406 317.281 111.712 317.281 114.557C317.281 117.401 319.472 119.707 322.174 119.707Z" fill="#9ED9D9"/>
<path d="M238.262 127.061C240.965 127.061 243.155 124.755 243.155 121.911C243.155 119.067 240.965 116.761 238.262 116.761C235.56 116.761 233.369 119.067 233.369 121.911C233.369 124.755 235.56 127.061 238.262 127.061Z" fill="#9ED9D9"/>
<path d="M363.432 101.303C366.135 101.303 368.325 98.9976 368.325 96.1532C368.325 93.3088 366.135 91.0029 363.432 91.0029C360.73 91.0029 358.539 93.3088 358.539 96.1532C358.539 98.9976 360.73 101.303 363.432 101.303Z" fill="#9ED9D9"/>
<path d="M545.476 255.322C542.897 254.428 539.073 253.395 536.042 253.759C533.155 252.654 526.369 249.787 521.734 245.471C521.867 241.227 521.764 236.979 521.426 232.748C519.054 204.369 524.388 185.661 524.388 185.661C524.388 185.661 528.577 171.388 528.117 159.545C528.388 160.082 528.539 160.399 528.539 160.399C528.904 150.185 532.212 139.613 534.69 133.026C534.784 132.998 534.877 132.962 534.966 132.92L537.734 126.009C537.954 125.606 538.129 125.177 538.256 124.732L538.702 123.639L538.57 123.58C538.614 123.401 538.658 123.209 538.702 123.017C540.47 115.146 541.847 96.4779 541.847 96.4779C546.589 76.8302 535.331 64.7026 535.331 64.7026L516.224 47.3982C516.319 47.6235 516.383 47.8621 516.413 48.1066L516.256 47.9609C515.985 47.1467 515.69 46.1736 515.4 45.0614C516.074 44.5521 516.706 43.9829 517.287 43.3601C519.46 41.2007 520.954 38.3945 521.57 35.317C521.941 32.9103 522.036 30.4656 521.853 28.0351L521.539 19.6875C521.524 18.0538 521.367 16.425 521.067 14.8219C519.627 8.20201 513.18 3.5681 506.709 3.26359C504.649 3.25097 502.591 3.36592 500.545 3.60783C498.872 3.75253 497.191 3.79011 495.514 3.72036C495.323 3.73101 495.133 3.67772 494.973 3.56811C494.827 3.4152 494.744 3.20866 494.74 2.99217C494.707 2.60473 494.749 2.21428 494.864 1.84445C494.978 1.47463 495.163 1.13315 495.407 0.840716C495.66 0.607013 495.955 0.42918 496.275 0.317751L495.815 0.430287C496.042 0.242411 496.297 0.0968662 496.57 0C494.893 0.310457 493.279 0.926509 491.803 1.82046C491.396 2.10178 491.022 2.43287 490.69 2.80682C489.81 3.61903 489.239 4.73783 489.08 5.95788C488.292 5.25762 487.704 4.34097 487.382 3.30993C487.281 2.88833 487.281 2.44728 487.382 2.02568C487.268 2.17131 487.159 2.32136 487.054 2.47582C487.054 2.42948 487.054 2.38315 487.054 2.33681C485.839 3.90932 484.979 5.75186 484.539 7.72538C484.369 7.51167 484.242 7.26467 484.165 6.99873C484.087 6.73279 484.06 6.45324 484.086 6.17634C483.992 6.48747 483.904 6.7986 483.822 7.10973C483.793 6.9034 483.793 6.6938 483.822 6.48746C483.081 8.87404 482.747 11.3795 482.834 13.8885C482.834 16.3908 483.891 20.2899 486.438 21.1703C486.57 21.2167 486.702 21.2498 486.841 21.2829C485.408 23.6251 484.55 26.3049 484.344 29.0819C484.137 31.859 484.589 34.6466 485.658 37.1948C486.727 39.743 488.38 41.9722 490.469 43.6825C492.558 45.3928 495.017 46.5308 497.627 46.9944C497.669 47.2989 497.709 47.6189 497.746 47.9543H497.847C497.916 48.6163 497.973 49.3445 498.01 50.0859C497.368 50.7488 496.664 51.3431 495.91 51.86C493.772 53.1905 491.386 54.0213 488.916 54.2961C485.966 54.5398 483.1 55.4425 480.507 56.9441C477.457 58.7381 474.092 61.3529 473.036 64.5304C471.275 69.8263 461.577 78.0681 455.073 79.0942L452.759 78.9551L452.589 78.9022V78.9485L452.023 78.9154H451.992H451.841V78.9485L451.256 78.9154C451.256 78.9154 451.199 79.2001 451.117 79.7032C447.847 78.5182 440.897 75.2348 431.853 66.5959C421.79 56.9772 408.174 58.8705 402.922 60.0819C402.744 60.1234 402.581 60.2212 402.457 60.3624C402.332 60.5036 402.252 60.6813 402.226 60.8719C402.2 61.0626 402.23 61.257 402.312 61.4293C402.393 61.6016 402.523 61.7435 402.683 61.8362C404.803 63.0609 408.086 64.8416 409.602 65.0402C409.602 65.0402 406.457 68.5024 409.803 70.3361C410.204 70.5404 410.651 70.6243 411.095 70.5788C411.539 70.5333 411.962 70.36 412.319 70.0779C413.941 68.8268 418.451 71.66 424.985 73.1363C424.985 73.1363 443.426 93.221 452.583 96.3058C452.794 96.7444 453.027 97.1709 453.281 97.5835L453.847 97.5371V97.5835H454.086L454.155 98.2455C454.155 98.2455 468.394 97.4577 473.023 92.0162C473.351 91.7073 473.652 91.3683 473.922 91.0033L468.973 156.54H469.017L468.973 157.162H472.614C472.926 165.223 472.596 173.296 471.627 181.298V224.023C471.627 224.023 471.438 227.783 478.86 233.291C486.641 238.993 494.139 245.111 501.325 251.621L502.224 252.442C500.86 265.516 498.004 289.884 495.621 290.791L497.092 291.062C494.577 294.419 487.432 303.64 485.256 303.885C482.589 304.196 480.809 308.565 485.256 309.499C494.134 311.116 503.263 310.169 511.671 306.758C512.509 306.41 513.213 305.776 513.669 304.958C514.125 304.139 514.307 303.184 514.187 302.243L513.325 295.359C513.488 295.454 513.62 295.6 513.702 295.776C514.293 297.649 513.702 293.28 513.702 293.28C516.139 285.037 518.053 276.634 519.432 268.124L528.237 276.135C528.237 276.135 528.413 275.903 528.721 275.473C530.878 280.623 534.727 291.162 533.866 298.88C532.683 309.472 543.929 300.125 542.753 293.889C541.797 288.845 546.073 267.462 547.74 259.466C547.92 258.602 547.787 257.699 547.369 256.933C546.95 256.167 546.275 255.593 545.476 255.322Z" fill="url(#paint1_linear)"/>
<path d="M403.791 63.8761C403.871 64.044 403.998 64.182 404.155 64.2717L403.791 63.8761ZM403.791 63.8761L404.468 63.5532C404.452 63.5185 404.444 63.4764 404.45 63.4338C404.456 63.3914 404.473 63.3568 404.494 63.333C404.515 63.3098 404.537 63.299 404.554 63.2951L404.554 63.2951M403.791 63.8761L404.468 63.5532C404.484 63.5875 404.507 63.6091 404.527 63.6207L404.529 63.6218C405.558 64.2141 406.86 64.9376 408.086 65.5356C409.346 66.1503 410.42 66.5783 411.033 66.6594L412.463 66.8482L411.488 67.9091C411.489 67.9089 411.489 67.909 411.488 67.9092L411.488 67.9093L411.488 67.9095L411.485 67.9128L411.467 67.9337C411.449 67.9534 411.423 67.9847 411.389 68.0262C411.321 68.1094 411.225 68.2326 411.118 68.3862C410.902 68.6985 410.658 69.1129 410.507 69.558C410.355 70.005 410.315 70.427 410.427 70.7966C410.532 71.1443 410.803 71.5494 411.482 71.924M404.554 63.2951L411.474 71.92C411.477 71.9214 411.479 71.9227 411.482 71.924M404.554 63.2951L404.557 63.2945M404.554 63.2951L404.557 63.2945M411.482 71.924C411.747 72.0589 412.039 72.1134 412.327 72.0842C412.618 72.0546 412.9 71.9401 413.14 71.7485L413.151 71.7399L413.151 71.74C413.797 71.2433 414.633 71.2248 415.423 71.3437C416.234 71.4655 417.19 71.7636 418.237 72.1226C418.647 72.2631 419.075 72.4147 419.523 72.5729C421.4 73.237 423.608 74.018 426.144 74.5886L426.373 74.6401L426.531 74.8131L425.979 75.3203M411.482 71.924L425.979 75.3203M425.979 75.3203C426.531 74.8131 426.532 74.8131 426.532 74.8133L426.532 74.8141L426.536 74.8176L426.549 74.8318L426.601 74.8889C426.648 74.9394 426.718 75.0146 426.809 75.1126C426.991 75.3087 427.26 75.5962 427.605 75.9608C428.293 76.69 429.285 77.7272 430.492 78.9578C432.909 81.4201 436.187 84.6517 439.642 87.7375C443.104 90.8294 446.715 93.7488 449.8 95.6067C451.346 96.5379 452.718 97.1759 453.845 97.4512C454.713 97.6632 455.348 97.6408 455.804 97.4571L452.819 82.9446M425.979 75.3203L452.819 82.9446M404.557 63.2945C409.631 62.1199 422.56 60.3547 432.109 69.468M404.557 63.2945L432.109 69.468M432.109 69.468C438.379 75.4538 443.646 78.8465 447.366 80.7463M432.109 69.468L447.366 80.7463M447.366 80.7463C449.226 81.6959 450.698 82.2718 451.714 82.6118M447.366 80.7463L451.714 82.6118M451.714 82.6118C452.181 82.7682 452.551 82.8747 452.819 82.9446M451.714 82.6118L452.819 82.9446" fill="white" stroke="#7A7A7A" stroke-width="1.5"/>
<path d="M511.901 34.0432C511.615 39.1223 512.357 43.7912 513.213 47.2928C513.69 49.2438 514.205 50.8388 514.601 51.9487C514.799 52.5038 514.967 52.938 515.087 53.2352C515.141 53.3677 515.185 53.4731 515.217 53.5498V59.3372L506.576 63.8848L497.254 62.522C498.208 58.9131 498.18 54.7798 497.909 51.5064C497.763 49.7305 497.543 48.1869 497.359 47.0865C497.267 46.536 497.185 46.0956 497.125 45.7916C497.124 45.7871 497.123 45.7826 497.122 45.7781L511.901 34.0432Z" fill="white" stroke="#7A7A7A" stroke-width="1.5"/>
<path d="M525.784 269.892C525.784 269.892 533.331 285.422 532.149 295.776C530.967 306.129 541.985 296.994 540.828 290.903C539.891 285.978 544.067 265.086 545.696 257.314C545.873 256.474 545.746 255.595 545.342 254.848C544.938 254.101 544.284 253.538 543.507 253.269C540.029 252.065 534.206 250.588 531.281 252.846C526.96 256.189 525.784 269.892 525.784 269.892Z" fill="#3E4345"/>
<path d="M497.162 286.945C497.162 286.945 487.325 300.343 484.721 300.648C482.118 300.952 480.382 305.216 484.721 306.129C493.386 307.717 502.298 306.801 510.508 303.481C511.329 303.144 512.019 302.526 512.467 301.727C512.916 300.927 513.096 299.992 512.979 299.072L511.319 286.031L497.162 286.945Z" fill="#3E4345"/>
<path d="M472.163 222.71C472.163 222.708 472.163 222.707 472.163 222.706L472.164 222.697V222.679V181.018C473.507 169.628 473.57 158.112 472.351 146.709L480.949 145.502L492.899 147.55L505.318 172.466C505.27 172.602 505.207 172.783 505.128 173.006C504.938 173.545 504.66 174.327 504.313 175.291C503.618 177.219 502.643 179.879 501.524 182.804C499.281 188.669 496.476 195.553 494.188 199.767L494.187 199.77C493.496 201.056 492.976 202.434 492.639 203.866L492.639 203.869C491.696 207.966 492.112 212.279 493.821 216.095C495.53 219.91 498.432 223.004 502.052 224.855C504.779 226.264 507.783 228.077 510.259 230.189C512.75 232.312 514.624 234.668 515.232 237.143C515.858 239.694 517.483 241.944 519.492 243.868C521.506 245.796 523.95 247.439 526.295 248.77C528.644 250.102 530.915 251.134 532.598 251.832C533.44 252.181 534.136 252.447 534.624 252.627C534.75 252.674 534.863 252.714 534.96 252.749C535.17 254.465 534.828 256.488 534.13 258.628C533.377 260.935 532.235 263.306 531.037 265.452C529.84 267.595 528.597 269.496 527.653 270.862C527.211 271.502 526.835 272.023 526.561 272.396L500.919 249.015L500.917 249.013C493.88 242.647 486.539 236.665 478.92 231.091C475.366 228.47 473.684 226.295 472.887 224.826C472.489 224.092 472.311 223.531 472.23 223.172C472.19 222.992 472.174 222.862 472.167 222.785C472.164 222.747 472.163 222.722 472.163 222.71Z" fill="#5E6366" stroke="#3E4345" stroke-width="1.5"/>
<path opacity="0.05" d="M472.162 222.71C472.162 222.708 472.162 222.707 472.162 222.706L472.163 222.697V222.679V181.018C473.506 169.628 473.569 158.112 472.35 146.709L480.948 145.502L492.898 147.55L505.317 172.466C505.269 172.602 505.206 172.783 505.127 173.006C504.937 173.545 504.659 174.327 504.312 175.291C503.617 177.219 502.642 179.879 501.523 182.804C499.28 188.669 496.475 195.553 494.187 199.767L494.186 199.77C493.495 201.056 492.975 202.434 492.638 203.866L492.638 203.869C491.695 207.966 492.111 212.279 493.82 216.095C495.529 219.91 498.431 223.004 502.051 224.855C504.778 226.264 507.782 228.077 510.258 230.189C512.749 232.312 514.623 234.668 515.231 237.143C515.857 239.694 517.482 241.944 519.491 243.868C521.505 245.796 523.949 247.439 526.294 248.77C528.643 250.102 530.914 251.134 532.597 251.832C533.439 252.181 534.135 252.447 534.623 252.627C534.749 252.674 534.862 252.714 534.959 252.749C535.169 254.465 534.827 256.488 534.129 258.628C533.376 260.935 532.234 263.306 531.036 265.452C529.839 267.595 528.596 269.496 527.652 270.862C527.21 271.502 526.834 272.023 526.56 272.396L500.918 249.015L500.916 249.013C493.879 242.647 486.538 236.665 478.919 231.091C475.365 228.47 473.683 226.295 472.886 224.826C472.488 224.092 472.31 223.531 472.229 223.172C472.189 222.992 472.173 222.862 472.166 222.785C472.163 222.747 472.162 222.722 472.162 222.71Z" fill="black" fill-opacity="0.87" stroke="#3E4345" stroke-width="1.5"/>
<path d="M522.935 185.264L522.215 185.052L522.215 185.052L522.216 185.05L522.219 185.039L522.232 184.996C522.243 184.958 522.259 184.9 522.281 184.824C522.324 184.672 522.386 184.447 522.465 184.155C522.623 183.571 522.845 182.722 523.101 181.666C523.613 179.553 524.26 176.612 524.799 173.305C525.882 166.654 526.504 158.654 524.819 152.891C524.063 150.304 521.464 148.508 517.618 147.341C513.81 146.186 509.008 145.722 504.26 145.627C499.522 145.533 494.885 145.807 491.429 146.105C489.702 146.254 488.272 146.409 487.275 146.527C487.05 146.553 486.848 146.578 486.668 146.6C486.726 146.745 486.789 146.907 486.859 147.085C487.208 147.974 487.705 149.261 488.301 150.852C489.493 154.033 491.079 158.431 492.656 163.298C495.796 172.983 498.946 184.657 498.805 192.262L498.805 192.276L498.808 192.372L498.821 192.749C498.832 193.08 498.849 193.567 498.871 194.187C498.916 195.429 498.982 197.208 499.071 199.36C499.247 203.663 499.509 209.454 499.852 215.405C500.195 221.359 500.62 227.465 501.12 232.402C501.37 234.871 501.638 237.038 501.923 238.743C502.214 240.484 502.508 241.644 502.775 242.175L502.089 242.658C502.079 242.754 502.065 242.898 502.046 243.085C502.475 243.041 502.806 242.775 502.827 242.715C502.833 242.691 502.841 242.656 502.843 242.646L502.846 242.626L502.847 242.619C502.847 242.616 502.847 242.617 502.846 242.627C502.844 242.644 502.841 242.672 502.837 242.713C502.829 242.794 502.816 242.916 502.8 243.077C502.788 243.203 502.773 243.352 502.757 243.523C502.73 243.79 502.699 244.11 502.663 244.477C502.543 245.685 502.37 247.414 502.154 249.493C501.72 253.651 501.112 259.213 500.404 264.815C499.697 270.414 498.889 276.068 498.057 280.405C497.641 282.571 497.215 284.43 496.787 285.797C496.597 286.405 496.399 286.937 496.192 287.364C496.602 287.441 497.101 287.536 497.667 287.646C499.28 287.961 501.44 288.401 503.621 288.898C505.797 289.394 508.01 289.952 509.723 290.505C510.559 290.774 511.299 291.05 511.865 291.326C511.854 291.227 511.843 291.132 511.832 291.043C511.809 290.859 511.789 290.702 511.775 290.591L511.758 290.461L511.753 290.426L511.752 290.418L511.752 290.416L511.752 290.415L511.729 290.249L511.779 290.09L512.495 290.314C511.779 290.09 511.779 290.09 511.779 290.09L511.779 290.089L511.781 290.085L511.786 290.069L511.806 290.003C511.824 289.944 511.851 289.855 511.887 289.738C511.957 289.504 512.061 289.157 512.193 288.704C512.456 287.797 512.829 286.47 513.271 284.79C514.154 281.43 515.308 276.66 516.39 271.027C518.558 259.752 520.431 245.061 519.294 231.307C518.145 217.396 518.871 205.848 519.886 197.772C520.393 193.734 520.973 190.563 521.427 188.398C521.654 187.316 521.849 186.485 521.989 185.923C522.058 185.642 522.114 185.428 522.153 185.283C522.161 185.252 522.168 185.224 522.175 185.199C522.184 185.167 522.191 185.14 522.197 185.118L522.209 185.075L522.212 185.064L522.213 185.061L522.213 185.06C522.213 185.059 522.213 185.059 522.935 185.264ZM522.935 185.264L522.215 185.053L522.213 185.059L522.935 185.264Z" fill="#5E6366" stroke="#3E4345" stroke-width="1.5"/>
<path d="M496.742 54.8036C496.799 54.9539 496.864 55.1135 496.938 55.2806C497.395 56.3115 498.195 57.6339 499.568 58.7965C502.26 61.0779 507.026 62.6414 515.359 60.4674L503.957 151.87C503.714 151.878 503.372 151.888 502.945 151.9C502.03 151.925 500.722 151.956 499.153 151.98C496.016 152.027 491.837 152.046 487.67 151.932C483.498 151.818 479.356 151.571 476.283 151.091C474.742 150.85 473.503 150.555 472.67 150.205C472.252 150.029 471.972 149.853 471.806 149.69C471.655 149.543 471.625 149.435 471.628 149.355L478.534 93.4276L496.742 54.8036Z" fill="white" stroke="#7A7A7A"/>
<path opacity="0.1" d="M497.306 52.7861C495.046 55.1284 492.101 56.6001 488.948 56.9633C486.068 57.1956 483.267 58.0712 480.734 59.5318C477.759 61.286 474.445 63.8347 473.438 66.9394C471.413 73.0297 458.684 83.0787 452.897 80.9471L454.923 99.2179C454.923 99.2179 471.413 98.3044 474.306 91.605L469.394 156.804H473.734C473.734 156.804 476.048 139.142 477.784 135.488C479.52 131.834 482.992 111.736 483.281 106.864C483.57 101.992 487.91 73.9763 491.671 69.1306L497.331 54.6662L497.306 52.7861Z" fill="black" fill-opacity="0.87"/>
<path opacity="0.1" d="M497.306 53.7002C494.721 55.8289 491.629 57.1686 488.369 57.5728C485.49 57.8102 482.692 58.6903 480.162 60.1546C477.187 61.9088 473.872 64.4575 472.866 67.5622C470.841 73.6525 458.111 83.7014 452.325 81.5698L454.35 99.8407C454.35 99.8407 470.841 98.9271 473.734 92.2278L468.816 157.387H473.155C473.155 157.387 475.47 139.725 477.206 136.071C478.942 132.417 482.413 112.319 482.703 107.447C482.992 102.575 487.332 74.5594 491.093 69.7137L497.306 55.5207V53.7002Z" fill="black" fill-opacity="0.87"/>
<path d="M472.499 156.054H469.624L474.475 91.6615L473.039 91.3079C472.414 92.7545 471.016 93.9638 469.129 94.9573C467.254 95.9441 464.988 96.6686 462.777 97.1942C460.571 97.7185 458.449 98.0378 456.876 98.2259C456.099 98.3189 455.458 98.3796 455.009 98.4171L453.182 81.9276C454.635 82.1293 456.284 81.8184 457.939 81.2195C460.062 80.4516 462.321 79.1655 464.439 77.6344C466.559 76.1013 468.562 74.3047 470.17 72.4955C471.767 70.6983 473.018 68.8388 473.571 67.1762L473.571 67.1762L473.573 67.1708C474.022 65.7846 475.005 64.4744 476.282 63.2763C477.553 62.0835 479.074 61.0404 480.533 60.1799C482.97 58.7752 485.662 57.9342 488.429 57.711L488.445 57.7097L488.461 57.7077C491.364 57.3477 494.137 56.2774 496.561 54.5946L496.562 54.8146L490.441 68.7477C489.923 69.4422 489.432 70.4628 488.964 71.6731C488.473 72.9435 487.986 74.4798 487.512 76.1849C486.565 79.596 485.656 83.7262 484.859 87.8449C483.266 96.0691 482.101 104.331 481.953 106.82C481.812 109.203 480.88 115.403 479.758 121.497C479.199 124.536 478.596 127.531 478.025 129.99C477.447 132.48 476.921 134.339 476.528 135.166C476.05 136.172 475.565 138.048 475.106 140.205C474.642 142.391 474.188 144.954 473.789 147.396C473.39 149.838 473.046 152.166 472.801 153.882C472.679 154.74 472.581 155.446 472.515 155.937C472.509 155.978 472.504 156.017 472.499 156.054Z" fill="#919699" stroke="#3E4345" stroke-width="1.5"/>
<path opacity="0.1" d="M512.061 41.3675C511.684 38.4812 512.439 36.6806 512.785 33.2979L496.294 46.392C496.294 46.392 496.69 48.1594 496.992 50.7478C497.824 50.8893 498.665 50.9601 499.508 50.9597C505.231 50.9597 509.351 46.2529 512.061 41.3675Z" fill="black" fill-opacity="0.87"/>
<path d="M514.349 33.6088C514.349 42.3129 507.654 49.3025 499.476 49.3025C491.298 49.3025 484.604 42.3129 484.604 33.6088C484.604 24.9047 491.298 17.915 499.476 17.915C507.654 17.915 514.349 24.9047 514.349 33.6088Z" fill="white" stroke="#7A7A7A" stroke-width="1.5"/>
<path opacity="0.1" d="M482.425 17.4893C482.325 14.7162 482.753 11.95 483.683 9.35348C483.425 9.76201 483.316 10.2552 483.376 10.7419C483.436 11.2287 483.661 11.676 484.01 12.0014C484.514 9.1715 485.894 6.59689 487.935 4.67986C486.822 4.87183 486.249 6.32159 486.526 7.47344C486.902 8.59851 487.571 9.58955 488.457 10.3332C488.363 8.59221 489.457 6.96372 490.841 6.01046C492.282 5.13886 493.857 4.53849 495.495 4.23633C494.933 4.44612 494.453 4.84563 494.13 5.37254C493.807 5.89945 493.659 6.52411 493.708 7.14907C493.713 7.3614 493.797 7.56332 493.941 7.71176C494.098 7.81759 494.283 7.86856 494.469 7.8574C496.099 7.9235 497.731 7.88592 499.356 7.74486C501.355 7.50814 503.364 7.39541 505.375 7.40725C511.664 7.68528 517.985 12.2067 519.394 18.661C519.686 20.2271 519.84 21.8182 519.853 23.4141L520.161 31.5631C520.34 33.9406 520.247 36.332 519.885 38.6861C519.449 40.8594 518.563 42.9046 517.29 44.676C516.017 46.4474 514.388 47.9012 512.52 48.9337C510.249 45.4715 510.048 41.0229 509.262 36.8988C509.138 35.947 508.802 35.0397 508.281 34.2508C508.012 33.8607 507.634 33.5684 507.2 33.4142C506.767 33.26 506.298 33.2516 505.859 33.3902C505.01 33.7477 504.646 35.1114 505.35 35.7204C504.721 36.5016 503.545 35.919 502.834 35.2239C500.85 33.2422 499.483 30.6729 498.916 27.856C498.633 26.4394 498.35 24.6917 497.029 24.2085C496.575 24.077 496.1 24.0433 495.633 24.1092C492.878 24.3078 488.57 25.506 485.903 24.5858C483.457 23.7451 482.425 19.932 482.425 17.4893Z" fill="black" fill-opacity="0.87"/>
<path d="M482.715 17.1846C482.615 14.4115 483.043 11.6453 483.973 9.0488C483.715 9.45733 483.606 9.95051 483.666 10.4372C483.726 10.924 483.951 11.3713 484.3 11.6967C484.804 8.86682 486.184 6.2922 488.225 4.37517C487.112 4.56715 486.539 6.0169 486.816 7.16876C487.192 8.29383 487.861 9.28485 488.747 10.0285C488.653 8.28751 489.747 6.65902 491.131 5.70576C492.572 4.83416 494.147 4.2338 495.785 3.93164C495.223 4.14143 494.743 4.54095 494.42 5.06785C494.097 5.59476 493.949 6.21942 493.998 6.84438C494.003 7.05671 494.087 7.25863 494.231 7.40707C494.388 7.5129 494.573 7.56386 494.759 7.5527C496.389 7.6188 498.021 7.58122 499.646 7.44016C501.645 7.20344 503.654 7.09071 505.665 7.10255C511.954 7.38059 518.275 11.902 519.684 18.3563C519.976 19.9224 520.13 21.5135 520.143 23.1094L520.451 31.2585C520.63 33.6359 520.537 36.0273 520.175 38.3814C519.739 40.5547 518.853 42.5999 517.58 44.3713C516.307 46.1427 514.678 47.5965 512.81 48.629C510.539 45.1668 510.338 40.7182 509.552 36.5941C509.428 35.6423 509.092 34.735 508.571 33.9461C508.302 33.5561 507.924 33.2637 507.49 33.1095C507.057 32.9553 506.588 32.9469 506.149 33.0855C505.3 33.443 504.936 34.8067 505.64 35.4157C505.011 36.1969 503.835 35.6143 503.124 34.9192C501.14 32.9375 499.773 30.3682 499.206 27.5513C498.923 26.1347 498.64 24.387 497.319 23.9038C496.865 23.7724 496.39 23.7386 495.923 23.8045C493.168 24.0031 488.86 25.2013 486.193 24.2811C483.747 23.4338 482.715 19.6273 482.715 17.1846Z" fill="#3E4345"/>
<path opacity="0.1" d="M451.571 80.9541C451.571 80.9541 449.256 92.2079 453.596 99.2249L456.055 99.0131L454.715 81.1395L451.571 80.9541Z" fill="black" fill-opacity="0.87"/>
<path d="M452.601 81.5354C452.605 81.5161 452.608 81.4974 452.611 81.4792L454.878 81.6129L456.148 98.5574L454.492 98.7C452.53 95.348 452.05 91.0301 452.085 87.463C452.103 85.6418 452.254 84.0359 452.402 82.8857C452.475 82.3109 452.548 81.8508 452.601 81.5354Z" fill="#919699" stroke="#3E4345"/>
<path opacity="0.1" d="M514.375 50.2246L533.035 67.1251C533.035 67.1251 544.029 79.0012 539.4 98.1856C539.4 98.1856 537.375 126.201 535.061 127.419C535.061 127.419 526.96 144.472 526.381 160.611C526.381 160.611 515.532 137.62 510.614 151.628C505.696 165.635 494.262 167.615 494.262 167.615L500.627 84.7605C500.627 84.7605 516.689 55.3749 514.375 50.2246Z" fill="black" fill-opacity="0.87"/>
<path d="M539.25 98.0096L539.236 98.0698L539.231 98.1315L539.979 98.1856C539.231 98.1315 539.231 98.1316 539.231 98.1317L539.231 98.1326L539.231 98.1364L539.23 98.1513L539.225 98.2109L539.208 98.4444C539.193 98.6492 539.17 98.95 539.14 99.3334C539.08 100.1 538.992 101.198 538.879 102.518C538.654 105.16 538.329 108.693 537.932 112.263C537.535 115.836 537.067 119.43 536.556 122.201C536.301 123.59 536.038 124.749 535.775 125.589C535.643 126.01 535.518 126.326 535.405 126.543C535.322 126.702 535.27 126.759 535.261 126.771L535.069 126.871L534.962 127.097L535.64 127.419C534.962 127.097 534.962 127.097 534.962 127.097L534.962 127.098L534.96 127.101L534.955 127.111L534.937 127.15C534.921 127.184 534.898 127.234 534.867 127.3C534.807 127.431 534.718 127.625 534.606 127.877C534.381 128.38 534.059 129.116 533.672 130.048C532.898 131.912 531.861 134.565 530.806 137.725C528.935 143.327 526.996 150.555 526.379 157.824C526.188 157.468 525.978 157.085 525.752 156.681C524.595 154.615 522.989 151.985 521.214 149.786C520.327 148.687 519.383 147.678 518.417 146.898C517.459 146.125 516.427 145.535 515.366 145.355C514.265 145.168 513.188 145.433 512.234 146.259C511.311 147.059 510.537 148.35 509.901 150.161C507.493 157.01 503.647 161.198 500.421 163.673C498.806 164.913 497.343 165.724 496.29 166.224C496.067 166.33 495.863 166.422 495.679 166.501L501.941 85.0175C501.969 84.9665 502.004 84.9021 502.045 84.8249C502.163 84.6071 502.335 84.2873 502.553 83.8788C502.989 83.0618 503.609 81.8895 504.345 80.4668C505.818 77.6221 507.759 73.7731 509.628 69.7604C511.495 65.7518 513.299 61.562 514.493 58.0405C515.089 56.2816 515.54 54.667 515.767 53.3131C515.837 52.8988 515.888 52.4937 515.914 52.1059L533.084 67.6563L533.087 67.6603C533.105 67.6803 533.133 67.7116 533.17 67.7542C533.244 67.8394 533.354 67.9694 533.494 68.1432C533.773 68.4909 534.172 69.0133 534.639 69.7015C535.573 71.0784 536.775 73.1157 537.837 75.7423C539.959 80.9902 541.522 88.5947 539.25 98.0096Z" fill="#919699" stroke="#3E4345" stroke-width="1.5"/>
<path d="M524.253 122.05C524.337 122.015 524.437 121.978 524.551 121.942C525.006 121.801 525.707 121.681 526.635 121.816C528.432 122.077 531.205 123.314 534.742 127.488L517.064 161.213L511.759 152.784C511.854 152.586 511.984 152.313 512.145 151.975C512.504 151.221 513.017 150.139 513.63 148.828C514.857 146.207 516.487 142.669 518.099 139.006C519.711 135.345 521.309 131.55 522.469 128.416C523.049 126.85 523.524 125.436 523.837 124.281C523.994 123.703 524.113 123.178 524.183 122.724C524.219 122.493 524.245 122.265 524.253 122.05Z" fill="white" stroke="#3E4345" stroke-width="1.5"/>
<path d="M533.237 133.139L536.935 124.076" stroke="#3E4345"/>
<path d="M518.827 123.162C518.761 123.088 518.703 123.021 518.651 122.961L522.206 118.417L535.29 124.333L531.852 132.756C531.513 132.872 531.094 132.881 530.586 132.77C529.99 132.639 529.311 132.351 528.574 131.934C527.101 131.099 525.479 129.797 523.959 128.415C522.444 127.036 521.05 125.595 520.033 124.497C519.525 123.949 519.112 123.487 518.827 123.162Z" fill="#919699" stroke="#5E6366"/>
<path opacity="0.1" d="M511.533 150.522C511.533 150.522 516.407 161.035 519.005 161.644L515.231 166.212L509.734 155.249L511.533 150.522Z" fill="black" fill-opacity="0.87"/>
<path d="M511.243 150.847C511.243 150.847 516.117 161.359 518.715 161.968L514.941 166.536L509.432 155.553L511.243 150.847Z" fill="#5E6366"/>
<path opacity="0.5" d="M520.451 85.8262C520.451 85.8262 521.029 107.751 518.715 115.973L520.451 85.8262Z" fill="black" fill-opacity="0.87"/>
<path opacity="0.5" d="M473.583 90.0894C473.583 90.0894 477.055 88.8713 477.055 85.8262L473.583 90.0894Z" fill="black" fill-opacity="0.87"/>
<path d="M52.0045 93.7568C52.0045 93.7568 35.5139 129.663 46.3441 172.156C57.1743 214.649 53.7341 265.496 42.9353 278.074" stroke="#E3E5E6" stroke-width="2" stroke-miterlimit="10"/>
<path d="M52.0042 98.5498C54.5155 98.5498 56.5514 96.407 56.5514 93.7637C56.5514 91.1204 54.5155 88.9775 52.0042 88.9775C49.4929 88.9775 47.457 91.1204 47.457 93.7637C47.457 96.407 49.4929 98.5498 52.0042 98.5498Z" fill="#9ED9D9"/>
<path d="M45.1494 116.854C45.1494 116.854 62.2438 120.098 66.7909 113.544" stroke="#E3E5E6" stroke-width="2" stroke-miterlimit="10"/>
<path d="M43.5266 127.28C43.5266 127.28 33.2436 115.305 33.8096 108.122" stroke="#E3E5E6" stroke-width="2" stroke-miterlimit="10"/>
<path d="M42.6523 149.219C42.6523 149.219 52.0045 151.814 60.5391 132.669" stroke="#E3E5E6" stroke-width="2" stroke-miterlimit="10"/>
<path d="M45.1493 165.172C45.1493 165.172 21.8788 149.41 24.7153 139.242" stroke="#E3E5E6" stroke-width="2" stroke-miterlimit="10"/>
<path d="M48.7842 183.211C48.7842 183.211 65.0861 167.986 63.3817 153.005" stroke="#E3E5E6" stroke-width="2" stroke-miterlimit="10"/>
<path d="M50.5578 193.816C50.5578 193.816 29.803 187.713 30.432 178.141" stroke="#E3E5E6" stroke-width="2" stroke-miterlimit="10"/>
<path d="M52.0039 206.453C52.0039 206.453 65.0794 193.703 66.7838 185.932" stroke="#E3E5E6" stroke-width="2" stroke-miterlimit="10"/>
<path d="M52.9161 228.134C52.9161 228.134 39.501 211.65 38.9287 203.276" stroke="#E3E5E6" stroke-width="2" stroke-miterlimit="10"/>
<path d="M52.916 241.777C52.916 241.777 67.9286 224.221 69.0607 215.847" stroke="#E3E5E6" stroke-width="2" stroke-miterlimit="10"/>
<path d="M33.8089 114.106C36.3202 114.106 38.3561 111.964 38.3561 109.32C38.3561 106.677 36.3202 104.534 33.8089 104.534C31.2976 104.534 29.2617 106.677 29.2617 109.32C29.2617 111.964 31.2976 114.106 33.8089 114.106Z" fill="#9ED9D9"/>
<path d="M28.6966 182.927C31.2079 182.927 33.2437 180.784 33.2437 178.141C33.2437 175.497 31.2079 173.354 28.6966 173.354C26.1853 173.354 24.1494 175.497 24.1494 178.141C24.1494 180.784 26.1853 182.927 28.6966 182.927Z" fill="#9ED9D9"/>
<path d="M24.7151 144.028C27.2265 144.028 29.2623 141.886 29.2623 139.242C29.2623 136.599 27.2265 134.456 24.7151 134.456C22.2038 134.456 20.168 136.599 20.168 139.242C20.168 141.886 22.2038 144.028 24.7151 144.028Z" fill="#9ED9D9"/>
<path d="M66.7903 118.297C69.3017 118.297 71.3375 116.154 71.3375 113.511C71.3375 110.867 69.3017 108.725 66.7903 108.725C64.279 108.725 62.2432 110.867 62.2432 113.511C62.2432 116.154 64.279 118.297 66.7903 118.297Z" fill="#9ED9D9"/>
<path d="M66.7903 191.903C69.3017 191.903 71.3375 189.761 71.3375 187.117C71.3375 184.474 69.3017 182.331 66.7903 182.331C64.279 182.331 62.2432 184.474 62.2432 187.117C62.2432 189.761 64.279 191.903 66.7903 191.903Z" fill="#9ED9D9"/>
<path d="M59.4007 137.448C61.912 137.448 63.9478 135.305 63.9478 132.662C63.9478 130.019 61.912 127.876 59.4007 127.876C56.8893 127.876 54.8535 130.019 54.8535 132.662C54.8535 135.305 56.8893 137.448 59.4007 137.448Z" fill="#9ED9D9"/>
<path d="M68.4944 223.625C71.0058 223.625 73.0416 221.482 73.0416 218.839C73.0416 216.196 71.0058 214.053 68.4944 214.053C65.9831 214.053 63.9473 216.196 63.9473 218.839C63.9473 221.482 65.9831 223.625 68.4944 223.625Z" fill="#9ED9D9"/>
<path d="M37.7903 211.055C40.3017 211.055 42.3375 208.912 42.3375 206.269C42.3375 203.625 40.3017 201.482 37.7903 201.482C35.279 201.482 33.2432 203.625 33.2432 206.269C33.2432 208.912 35.279 211.055 37.7903 211.055Z" fill="#9ED9D9"/>
<path d="M63.9476 157.791C66.4589 157.791 68.4947 155.648 68.4947 153.005C68.4947 150.362 66.4589 148.219 63.9476 148.219C61.4362 148.219 59.4004 150.362 59.4004 153.005C59.4004 155.648 61.4362 157.791 63.9476 157.791Z" fill="#9ED9D9"/>
<defs>
<linearGradient id="paint0_linear" x1="280.57" y1="278.855" x2="280.57" y2="36.7336" gradientUnits="userSpaceOnUse">
<stop stop-color="#808080" stop-opacity="0.25"/>
<stop offset="0.54" stop-color="#808080" stop-opacity="0.12"/>
<stop offset="1" stop-color="#808080" stop-opacity="0.1"/>
</linearGradient>
<linearGradient id="paint1_linear" x1="128288" y1="199741" x2="128288" y2="54318.5" gradientUnits="userSpaceOnUse">
<stop stop-color="#808080" stop-opacity="0.25"/>
<stop offset="0.54" stop-color="#808080" stop-opacity="0.12"/>
<stop offset="1" stop-color="#808080" stop-opacity="0.1"/>
</linearGradient>
</defs>
</svg>
