<svg width="691" height="621" viewBox="0 0 691 621" fill="none" xmlns="http://www.w3.org/2000/svg">
<path opacity="0.1" d="M198.508 106.396H146.673C143.684 106.396 141.26 109.118 141.26 112.476V121.594C141.26 124.952 143.684 127.675 146.673 127.675H198.508C201.498 127.675 203.922 124.952 203.922 121.594V112.476C203.922 109.118 201.498 106.396 198.508 106.396Z" fill="#9ED9D9"/>
<path opacity="0.1" d="M264.084 127.675H212.25C209.26 127.675 206.836 130.397 206.836 133.756V142.873C206.836 146.231 209.26 148.954 212.25 148.954H264.084C267.074 148.954 269.498 146.231 269.498 142.873V133.756C269.498 130.397 267.074 127.675 264.084 127.675Z" fill="#9ED9D9"/>
<path opacity="0.1" d="M329.658 148.955H277.824C274.834 148.955 272.41 151.678 272.41 155.036V164.153C272.41 167.512 274.834 170.234 277.824 170.234H329.658C332.648 170.234 335.072 167.512 335.072 164.153V155.036C335.072 151.678 332.648 148.955 329.658 148.955Z" fill="#9ED9D9"/>
<path opacity="0.1" d="M198.508 74.4766H146.673C143.684 74.4766 141.26 77.1991 141.26 80.5575V89.6748C141.26 93.0332 143.684 95.7558 146.673 95.7558H198.508C201.498 95.7558 203.922 93.0332 203.922 89.6748V80.5575C203.922 77.1991 201.498 74.4766 198.508 74.4766Z" fill="#9ED9D9"/>
<path opacity="0.1" d="M264.084 95.7568H212.25C209.26 95.7568 206.836 98.4794 206.836 101.838V110.955C206.836 114.314 209.26 117.036 212.25 117.036H264.084C267.074 117.036 269.498 114.314 269.498 110.955V101.838C269.498 98.4794 267.074 95.7568 264.084 95.7568Z" fill="#9ED9D9"/>
<path opacity="0.1" d="M329.658 117.035H277.824C274.834 117.035 272.41 119.758 272.41 123.116V132.233C272.41 135.592 274.834 138.314 277.824 138.314H329.658C332.648 138.314 335.072 135.592 335.072 132.233V123.116C335.072 119.758 332.648 117.035 329.658 117.035Z" fill="#9ED9D9"/>
<path opacity="0.1" d="M402.522 106.396H350.687C347.697 106.396 345.273 109.118 345.273 112.476V121.594C345.273 124.952 347.697 127.675 350.687 127.675H402.522C405.511 127.675 407.935 124.952 407.935 121.594V112.476C407.935 109.118 405.511 106.396 402.522 106.396Z" fill="#9ED9D9"/>
<path opacity="0.1" d="M468.1 127.675H416.265C413.275 127.675 410.852 130.397 410.852 133.756V142.873C410.852 146.231 413.275 148.954 416.265 148.954H468.1C471.09 148.954 473.513 146.231 473.513 142.873V133.756C473.513 130.397 471.09 127.675 468.1 127.675Z" fill="#9ED9D9"/>
<path opacity="0.1" d="M533.675 148.955H481.84C478.851 148.955 476.427 151.678 476.427 155.036V164.153C476.427 167.512 478.851 170.234 481.84 170.234H533.675C536.665 170.234 539.089 167.512 539.089 164.153V155.036C539.089 151.678 536.665 148.955 533.675 148.955Z" fill="#9ED9D9"/>
<path opacity="0.1" d="M402.522 74.4766H350.687C347.697 74.4766 345.273 77.1991 345.273 80.5575V89.6748C345.273 93.0332 347.697 95.7558 350.687 95.7558H402.522C405.511 95.7558 407.935 93.0332 407.935 89.6748V80.5575C407.935 77.1991 405.511 74.4766 402.522 74.4766Z" fill="#9ED9D9"/>
<path opacity="0.1" d="M468.1 95.7568H416.265C413.275 95.7568 410.852 98.4794 410.852 101.838V110.955C410.852 114.314 413.275 117.036 416.265 117.036H468.1C471.09 117.036 473.513 114.314 473.513 110.955V101.838C473.513 98.4794 471.09 95.7568 468.1 95.7568Z" fill="#9ED9D9"/>
<path opacity="0.1" d="M533.675 117.035H481.84C478.851 117.035 476.427 119.758 476.427 123.116V132.233C476.427 135.592 478.851 138.314 481.84 138.314H533.675C536.665 138.314 539.089 135.592 539.089 132.233V123.116C539.089 119.758 536.665 117.035 533.675 117.035Z" fill="#9ED9D9"/>
<path opacity="0.1" d="M198.508 31.9189H146.673C143.684 31.9189 141.26 34.6415 141.26 37.9999V47.1172C141.26 50.4756 143.684 53.1981 146.673 53.1981H198.508C201.498 53.1981 203.922 50.4756 203.922 47.1172V37.9999C203.922 34.6415 201.498 31.9189 198.508 31.9189Z" fill="#9ED9D9"/>
<path opacity="0.1" d="M264.084 53.1992H212.25C209.26 53.1992 206.836 55.9217 206.836 59.2802V68.3975C206.836 71.7559 209.26 74.4784 212.25 74.4784H264.084C267.074 74.4784 269.498 71.7559 269.498 68.3975V59.2802C269.498 55.9217 267.074 53.1992 264.084 53.1992Z" fill="#9ED9D9"/>
<path opacity="0.1" d="M329.658 74.4766H277.824C274.834 74.4766 272.41 77.1991 272.41 80.5575V89.6748C272.41 93.0332 274.834 95.7558 277.824 95.7558H329.658C332.648 95.7558 335.072 93.0332 335.072 89.6748V80.5575C335.072 77.1991 332.648 74.4766 329.658 74.4766Z" fill="#9ED9D9"/>
<path opacity="0.1" d="M198.508 0H146.673C143.684 0 141.26 2.72253 141.26 6.08094V15.1983C141.26 18.5567 143.684 21.2792 146.673 21.2792H198.508C201.498 21.2792 203.922 18.5567 203.922 15.1983V6.08094C203.922 2.72253 201.498 0 198.508 0Z" fill="#9ED9D9"/>
<path opacity="0.1" d="M264.084 21.2773H212.25C209.26 21.2773 206.836 23.9999 206.836 27.3583V36.4756C206.836 39.834 209.26 42.5565 212.25 42.5565H264.084C267.074 42.5565 269.498 39.834 269.498 36.4756V27.3583C269.498 23.9999 267.074 21.2773 264.084 21.2773Z" fill="#9ED9D9"/>
<path opacity="0.1" d="M329.658 42.5586H277.824C274.834 42.5586 272.41 45.2811 272.41 48.6395V57.7569C272.41 61.1153 274.834 63.8378 277.824 63.8378H329.658C332.648 63.8378 335.072 61.1153 335.072 57.7569V48.6395C335.072 45.2811 332.648 42.5586 329.658 42.5586Z" fill="#9ED9D9"/>
<path opacity="0.1" d="M402.522 31.9189H350.687C347.697 31.9189 345.273 34.6415 345.273 37.9999V47.1172C345.273 50.4756 347.697 53.1981 350.687 53.1981H402.522C405.511 53.1981 407.935 50.4756 407.935 47.1172V37.9999C407.935 34.6415 405.511 31.9189 402.522 31.9189Z" fill="#9ED9D9"/>
<path opacity="0.1" d="M468.1 53.1992H416.265C413.275 53.1992 410.852 55.9217 410.852 59.2802V68.3975C410.852 71.7559 413.275 74.4784 416.265 74.4784H468.1C471.09 74.4784 473.513 71.7559 473.513 68.3975V59.2802C473.513 55.9217 471.09 53.1992 468.1 53.1992Z" fill="#9ED9D9"/>
<path opacity="0.1" d="M533.675 74.4766H481.84C478.851 74.4766 476.427 77.1991 476.427 80.5575V89.6748C476.427 93.0332 478.851 95.7558 481.84 95.7558H533.675C536.665 95.7558 539.089 93.0332 539.089 89.6748V80.5575C539.089 77.1991 536.665 74.4766 533.675 74.4766Z" fill="#9ED9D9"/>
<path opacity="0.1" d="M402.522 0H350.687C347.697 0 345.273 2.72253 345.273 6.08094V15.1983C345.273 18.5567 347.697 21.2792 350.687 21.2792H402.522C405.511 21.2792 407.935 18.5567 407.935 15.1983V6.08094C407.935 2.72253 405.511 0 402.522 0Z" fill="#9ED9D9"/>
<path opacity="0.1" d="M468.1 21.2773H416.265C413.275 21.2773 410.852 23.9999 410.852 27.3583V36.4756C410.852 39.834 413.275 42.5565 416.265 42.5565H468.1C471.09 42.5565 473.513 39.834 473.513 36.4756V27.3583C473.513 23.9999 471.09 21.2773 468.1 21.2773Z" fill="#9ED9D9"/>
<path opacity="0.1" d="M533.675 42.5586H481.84C478.851 42.5586 476.427 45.2811 476.427 48.6395V57.7569C476.427 61.1153 478.851 63.8378 481.84 63.8378H533.675C536.665 63.8378 539.089 61.1153 539.089 57.7569V48.6395C539.089 45.2811 536.665 42.5586 533.675 42.5586Z" fill="#9ED9D9"/>
<path opacity="0.1" d="M198.508 485.329H146.673C143.684 485.329 141.26 488.052 141.26 491.41V500.527C141.26 503.886 143.684 506.608 146.673 506.608H198.508C201.498 506.608 203.922 503.886 203.922 500.527V491.41C203.922 488.052 201.498 485.329 198.508 485.329Z" fill="#9ED9D9"/>
<path opacity="0.1" d="M264.084 506.609H212.25C209.26 506.609 206.836 509.332 206.836 512.69V521.808C206.836 525.166 209.26 527.889 212.25 527.889H264.084C267.074 527.889 269.498 525.166 269.498 521.808V512.69C269.498 509.332 267.074 506.609 264.084 506.609Z" fill="#9ED9D9"/>
<path opacity="0.1" d="M329.658 527.888H277.824C274.834 527.888 272.41 530.61 272.41 533.969V543.086C272.41 546.444 274.834 549.167 277.824 549.167H329.658C332.648 549.167 335.072 546.444 335.072 543.086V533.969C335.072 530.61 332.648 527.888 329.658 527.888Z" fill="#9ED9D9"/>
<path opacity="0.1" d="M198.508 453.411H146.673C143.684 453.411 141.26 456.134 141.26 459.492V468.609C141.26 471.968 143.684 474.69 146.673 474.69H198.508C201.498 474.69 203.922 471.968 203.922 468.609V459.492C203.922 456.134 201.498 453.411 198.508 453.411Z" fill="#9ED9D9"/>
<path opacity="0.1" d="M264.084 474.689H212.25C209.26 474.689 206.836 477.412 206.836 480.77V489.888C206.836 493.246 209.26 495.969 212.25 495.969H264.084C267.074 495.969 269.498 493.246 269.498 489.888V480.77C269.498 477.412 267.074 474.689 264.084 474.689Z" fill="#9ED9D9"/>
<path opacity="0.1" d="M329.658 495.97H277.824C274.834 495.97 272.41 498.692 272.41 502.051V511.168C272.41 514.526 274.834 517.249 277.824 517.249H329.658C332.648 517.249 335.072 514.526 335.072 511.168V502.051C335.072 498.692 332.648 495.97 329.658 495.97Z" fill="#9ED9D9"/>
<path opacity="0.1" d="M402.522 485.329H350.687C347.697 485.329 345.273 488.052 345.273 491.41V500.527C345.273 503.886 347.697 506.608 350.687 506.608H402.522C405.511 506.608 407.935 503.886 407.935 500.527V491.41C407.935 488.052 405.511 485.329 402.522 485.329Z" fill="#9ED9D9"/>
<path opacity="0.1" d="M468.1 506.609H416.265C413.275 506.609 410.852 509.332 410.852 512.69V521.808C410.852 525.166 413.275 527.889 416.265 527.889H468.1C471.09 527.889 473.513 525.166 473.513 521.808V512.69C473.513 509.332 471.09 506.609 468.1 506.609Z" fill="#9ED9D9"/>
<path opacity="0.1" d="M533.675 527.888H481.84C478.851 527.888 476.427 530.61 476.427 533.969V543.086C476.427 546.444 478.851 549.167 481.84 549.167H533.675C536.665 549.167 539.089 546.444 539.089 543.086V533.969C539.089 530.61 536.665 527.888 533.675 527.888Z" fill="#9ED9D9"/>
<path opacity="0.1" d="M402.522 453.411H350.687C347.697 453.411 345.273 456.134 345.273 459.492V468.609C345.273 471.968 347.697 474.69 350.687 474.69H402.522C405.511 474.69 407.935 471.968 407.935 468.609V459.492C407.935 456.134 405.511 453.411 402.522 453.411Z" fill="#9ED9D9"/>
<path opacity="0.1" d="M468.1 474.689H416.265C413.275 474.689 410.852 477.412 410.852 480.77V489.888C410.852 493.246 413.275 495.969 416.265 495.969H468.1C471.09 495.969 473.513 493.246 473.513 489.888V480.77C473.513 477.412 471.09 474.689 468.1 474.689Z" fill="#9ED9D9"/>
<path opacity="0.1" d="M533.675 495.97H481.84C478.851 495.97 476.427 498.692 476.427 502.051V511.168C476.427 514.526 478.851 517.249 481.84 517.249H533.675C536.665 517.249 539.089 514.526 539.089 511.168V502.051C539.089 498.692 536.665 495.97 533.675 495.97Z" fill="#9ED9D9"/>
<path opacity="0.1" d="M198.508 410.851H146.673C143.684 410.851 141.26 413.573 141.26 416.932V426.049C141.26 429.407 143.684 432.13 146.673 432.13H198.508C201.498 432.13 203.922 429.407 203.922 426.049V416.932C203.922 413.573 201.498 410.851 198.508 410.851Z" fill="#9ED9D9"/>
<path opacity="0.1" d="M264.084 432.132H212.25C209.26 432.132 206.836 434.854 206.836 438.213V447.33C206.836 450.689 209.26 453.411 212.25 453.411H264.084C267.074 453.411 269.498 450.689 269.498 447.33V438.213C269.498 434.854 267.074 432.132 264.084 432.132Z" fill="#9ED9D9"/>
<path opacity="0.1" d="M329.658 453.411H277.824C274.834 453.411 272.41 456.134 272.41 459.492V468.609C272.41 471.968 274.834 474.69 277.824 474.69H329.658C332.648 474.69 335.072 471.968 335.072 468.609V459.492C335.072 456.134 332.648 453.411 329.658 453.411Z" fill="#9ED9D9"/>
<path opacity="0.1" d="M198.508 378.935H146.673C143.684 378.935 141.26 381.657 141.26 385.016V394.133C141.26 397.491 143.684 400.214 146.673 400.214H198.508C201.498 400.214 203.922 397.491 203.922 394.133V385.016C203.922 381.657 201.498 378.935 198.508 378.935Z" fill="#9ED9D9"/>
<path opacity="0.1" d="M264.084 400.212H212.25C209.26 400.212 206.836 402.934 206.836 406.293V415.41C206.836 418.769 209.26 421.491 212.25 421.491H264.084C267.074 421.491 269.498 418.769 269.498 415.41V406.293C269.498 402.934 267.074 400.212 264.084 400.212Z" fill="#9ED9D9"/>
<path opacity="0.1" d="M329.658 421.491H277.824C274.834 421.491 272.41 424.214 272.41 427.572V436.689C272.41 440.048 274.834 442.77 277.824 442.77H329.658C332.648 442.77 335.072 440.048 335.072 436.689V427.572C335.072 424.214 332.648 421.491 329.658 421.491Z" fill="#9ED9D9"/>
<path opacity="0.1" d="M402.522 410.851H350.687C347.697 410.851 345.273 413.573 345.273 416.932V426.049C345.273 429.407 347.697 432.13 350.687 432.13H402.522C405.511 432.13 407.935 429.407 407.935 426.049V416.932C407.935 413.573 405.511 410.851 402.522 410.851Z" fill="#9ED9D9"/>
<path opacity="0.1" d="M468.1 432.132H416.265C413.275 432.132 410.852 434.854 410.852 438.213V447.33C410.852 450.689 413.275 453.411 416.265 453.411H468.1C471.09 453.411 473.513 450.689 473.513 447.33V438.213C473.513 434.854 471.09 432.132 468.1 432.132Z" fill="#9ED9D9"/>
<path opacity="0.1" d="M533.675 453.411H481.84C478.851 453.411 476.427 456.134 476.427 459.492V468.609C476.427 471.968 478.851 474.69 481.84 474.69H533.675C536.665 474.69 539.089 471.968 539.089 468.609V459.492C539.089 456.134 536.665 453.411 533.675 453.411Z" fill="#9ED9D9"/>
<path opacity="0.1" d="M402.522 378.935H350.687C347.697 378.935 345.273 381.657 345.273 385.016V394.133C345.273 397.491 347.697 400.214 350.687 400.214H402.522C405.511 400.214 407.935 397.491 407.935 394.133V385.016C407.935 381.657 405.511 378.935 402.522 378.935Z" fill="#9ED9D9"/>
<path opacity="0.1" d="M468.1 400.212H416.265C413.275 400.212 410.852 402.934 410.852 406.293V415.41C410.852 418.769 413.275 421.491 416.265 421.491H468.1C471.09 421.491 473.513 418.769 473.513 415.41V406.293C473.513 402.934 471.09 400.212 468.1 400.212Z" fill="#9ED9D9"/>
<path opacity="0.1" d="M533.675 421.491H481.84C478.851 421.491 476.427 424.214 476.427 427.572V436.689C476.427 440.048 478.851 442.77 481.84 442.77H533.675C536.665 442.77 539.089 440.048 539.089 436.689V427.572C539.089 424.214 536.665 421.491 533.675 421.491Z" fill="#9ED9D9"/>
<path opacity="0.1" d="M351.467 620.369C527.924 620.369 670.97 607.178 670.97 590.906C670.97 574.634 527.924 561.442 351.467 561.442C175.011 561.442 31.9648 574.634 31.9648 590.906C31.9648 607.178 175.011 620.369 351.467 620.369Z" fill="#9ED9D9"/>
<path d="M61.6782 152.883C91.8068 167.549 109.119 197.896 109.119 197.896C109.119 197.896 77.5768 204.444 47.4408 189.786C17.3049 175.128 0 144.772 0 144.772C0 144.772 31.5422 138.216 61.6782 152.883Z" fill="#9ED9D9"/>
<path d="M154.142 96.5764C163.461 79.3894 179.331 71.2051 179.331 71.2051C179.331 71.2051 180.059 90.7983 170.769 107.936C161.479 125.074 145.573 133.25 145.573 133.25C145.573 133.25 144.816 113.665 154.142 96.5764Z" fill="#9ED9D9"/>
<path d="M85.6353 114.965C92.3022 141.695 110.678 159.291 110.678 159.291C110.678 159.291 118.249 133.535 111.582 106.797C104.915 80.0588 86.5315 62.4707 86.5315 62.4707C86.5315 62.4707 78.9611 88.2267 85.6353 114.965Z" fill="#7A7A7A"/>
<path d="M612.526 113.763H91.8647C88.9634 113.763 86.6113 116.405 86.6113 119.664V406.589C86.6113 409.848 88.9634 412.49 91.8647 412.49H612.526C615.428 412.49 617.78 409.848 617.78 406.589V119.664C617.78 116.405 615.428 113.763 612.526 113.763Z" fill="white"/>
<path d="M91.8647 114.763H612.526C614.769 114.763 616.78 116.844 616.78 119.664V406.589C616.78 409.408 614.769 411.49 612.526 411.49H91.8647C89.6217 411.49 87.6113 409.408 87.6113 406.589V119.664C87.6113 116.844 89.6217 114.763 91.8647 114.763Z" stroke="black" stroke-opacity="0.87" stroke-width="2"/>
<path opacity="0.3" d="M86.6113 394.483H617.78V406.588C617.78 408.153 617.226 409.654 616.241 410.761C615.256 411.867 613.919 412.489 612.526 412.489H91.8647C90.4714 412.489 89.1352 411.867 88.15 410.761C87.1648 409.654 86.6113 408.153 86.6113 406.588V394.483Z" fill="black" fill-opacity="0.87"/>
<path d="M175.868 372.386H140.165C139.159 372.386 138.344 373.302 138.344 374.432V392.437C138.344 393.567 139.159 394.483 140.165 394.483H175.868C176.874 394.483 177.69 393.567 177.69 392.437V374.432C177.69 373.302 176.874 372.386 175.868 372.386Z" fill="#7A7A7A"/>
<path d="M275.653 246.203C275.653 258.542 266.102 268.486 254.393 268.486C242.683 268.486 233.133 258.542 233.133 246.203C233.133 233.863 242.683 223.919 254.393 223.919C266.102 223.919 275.653 233.863 275.653 246.203Z" stroke="#E3E5E6" stroke-width="1.5"/>
<circle cx="254.393" cy="242.107" r="7.67785" fill="#C6CACC"/>
<path d="M254.393 247.74C250.152 247.74 246.715 254.615 246.715 263.096H262.071C262.071 254.615 258.633 247.74 254.393 247.74Z" fill="#C6CACC"/>
<rect x="163.771" y="167.864" width="177.15" height="183.292" stroke="#E3E5E6" stroke-width="2"/>
<rect x="163.771" y="167.864" width="177.15" height="33.83" stroke="#E3E5E6" stroke-width="2"/>
<rect x="221.1" y="183.221" width="62.494" height="7.21342" rx="3.60671" stroke="#E3E5E6" stroke-width="2"/>
<rect x="191.41" y="282.522" width="122.893" height="12.332" rx="3" stroke="#E3E5E6" stroke-width="2"/>
<path d="M499.846 200.648C499.846 213.253 489.854 223.443 477.563 223.443C465.271 223.443 455.279 213.253 455.279 200.648C455.279 188.043 465.271 177.853 477.563 177.853C489.854 177.853 499.846 188.043 499.846 200.648Z" stroke="#C6CACC" stroke-width="1.5"/>
<path d="M499.846 299.949C499.846 312.554 489.854 322.744 477.563 322.744C465.271 322.744 455.279 312.554 455.279 299.949C455.279 287.344 465.271 277.153 477.563 277.153C489.854 277.153 499.846 287.344 499.846 299.949Z" stroke="#C6CACC" stroke-width="1.5"/>
<path d="M466.812 199.698L477.671 210.885L500.595 176.079" stroke="#C6CACC" stroke-width="2"/>
<path d="M457.599 278.45L498.547 321.446" stroke="#C6CACC" stroke-width="2"/>
<path d="M457.599 321.447L498.547 278.451" stroke="#C6CACC" stroke-width="2"/>
<path d="M341.922 250.064L456.578 206.789M341.922 277.266L456.578 301.994" stroke="#C6CACC"/>
<path d="M214.121 391.211H190.076C189.272 391.211 188.619 391.944 188.619 392.848C188.619 393.752 189.272 394.485 190.076 394.485H214.121C214.926 394.485 215.578 393.752 215.578 392.848C215.578 391.944 214.926 391.211 214.121 391.211Z" fill="#7A7A7A"/>
<path d="M477.97 573.309C476.134 574.602 474.036 575.331 472.141 576.468C470.247 577.606 468.403 579.316 467.864 581.673C467.663 582.405 467.697 583.193 467.959 583.9C468.43 584.753 469.152 585.396 469.999 585.717C473.848 587.636 478.004 588.654 482.215 588.708C486.426 588.761 490.602 587.849 494.488 586.028C495.856 585.289 497.268 584.66 498.714 584.145C500.496 583.737 502.309 583.529 504.128 583.523C506.039 583.398 507.941 583.124 509.819 582.705C510.762 582.587 511.657 582.169 512.398 581.502C513.074 580.627 513.48 579.53 513.556 578.375C514.419 571.999 513.119 565.492 509.913 560.141C509.509 559.391 508.968 558.746 508.325 558.25C507.541 557.795 506.678 557.535 505.796 557.489C502.153 556.99 498.335 556.073 494.656 555.975C492.018 555.909 490.692 557.317 488.827 559.355C484.972 563.684 482.721 569.978 477.97 573.309Z" fill="#3E4345"/>
<path d="M531.664 572.704C531.664 576.714 532.093 580.962 534.257 584.162C535.247 585.545 536.446 586.723 537.799 587.64C542.374 590.914 548.437 592.117 553.26 589.342C554.039 588.95 554.705 588.32 555.184 587.525C555.912 586.101 555.526 584.325 555.118 582.754L548.138 555.582C543.628 556.36 536.997 556.908 532.99 559.478C530.082 561.336 531.664 569.119 531.664 572.704Z" fill="#3E4345"/>
<path d="M478.267 399.221L483.128 415.007L483.135 415.032L483.144 415.056C483.514 416.072 483.726 417.156 483.768 418.258C483.686 420.461 481.999 422.373 480.129 422.782C479.122 422.948 478.093 422.842 477.124 422.472C476.148 422.1 475.254 421.467 474.522 420.614C472.997 418.791 471.959 416.503 471.547 414.017L471.544 414.002L471.541 413.987C471.19 412.218 471.171 410.522 471.918 409.398L478.267 399.221ZM478.267 399.221C478.045 399.324 477.81 399.425 477.584 399.522L477.556 399.534C477.155 399.706 476.757 399.877 476.378 400.068C475.572 400.473 475.085 400.856 474.9 401.223C474.719 401.585 474.738 402.054 474.86 402.898C474.867 402.952 474.876 403.008 474.884 403.066C474.989 403.771 475.135 404.755 474.831 405.685C474.54 406.694 473.887 407.392 473.328 407.928C473.189 408.062 473.058 408.185 472.934 408.3C472.512 408.694 472.18 409.004 471.918 409.398L478.267 399.221ZM478.99 398.258L478.652 398.474L478.99 398.258Z" fill="white" stroke="#7A7A7A" stroke-width="2"/>
<path d="M471.551 404.582C473.365 404.263 474.953 403.068 476.651 402.282C478.349 401.497 480.476 401.194 481.905 402.503C482.313 402.88 482.706 403.396 483.238 403.387C482.514 399.385 481.42 395.479 479.974 391.733C479.923 391.553 479.823 391.396 479.69 391.283C479.491 391.192 479.269 391.192 479.07 391.283L474.167 392.723C472.352 393.255 472.141 393.091 472.279 395.097C472.316 395.989 472.724 404.582 471.551 404.582Z" fill="#5E6366"/>
<path d="M488.777 356.598C488.455 369.866 486.516 383.022 483.017 395.697L488.777 356.598ZM488.777 356.598C488.821 354.822 488.836 353.044 488.851 351.267C488.892 346.331 488.932 341.397 489.607 336.53L488.777 356.598ZM472.296 313.917L472.296 313.915C471.351 306.819 471.284 299.596 471.284 292.351C471.284 291.052 471.302 289.941 471.644 289.035C472.491 289.015 473.313 288.936 474.075 288.862C474.438 288.827 474.787 288.793 475.119 288.768C476.37 288.672 477.504 288.675 478.68 289.021L478.707 289.03L478.735 289.036C481.311 289.636 483.669 291.151 485.454 293.385C487.305 295.906 488.041 299.328 488.394 302.837L488.394 302.837C489.521 314.028 490.138 325.366 488.617 336.393C487.932 341.33 487.891 346.36 487.85 351.315C487.835 353.08 487.821 354.835 487.777 356.573L487.777 356.573C487.459 369.679 485.554 382.671 482.118 395.194C480.507 394.372 478.763 393.896 476.977 393.801C475.205 393.706 473.439 393.988 471.773 394.625C470.68 387.237 469.616 379.864 469.096 372.438L469.096 372.434C469.019 371.406 469.268 370.39 469.784 369.566C472.094 366.25 472.247 361.797 472.333 358.012C472.333 358.012 472.333 358.012 472.333 358.012L473.062 326.511C473.16 324.058 473.125 321.6 472.958 319.152L472.957 319.144L472.957 319.136C472.851 317.879 472.672 316.616 472.499 315.388C472.429 314.891 472.359 314.4 472.296 313.917ZM468.951 369.013C468.308 370.028 468.006 371.266 468.098 372.508L471.333 357.989C471.246 361.844 471.071 365.985 468.951 369.013Z" fill="#9ED9D9" stroke="#7A7A7A" stroke-width="2"/>
<path opacity="0.1" d="M471.8 313.981L471.8 313.982C471.865 314.475 471.935 314.972 472.006 315.473C472.179 316.695 472.354 317.936 472.458 319.178L472.459 319.186L472.459 319.186C472.625 321.618 472.66 324.059 472.562 326.495C472.562 326.497 472.562 326.498 472.562 326.499L471.833 358C471.833 358 471.833 358 471.833 358C471.747 361.82 471.583 366.118 469.367 369.29C468.788 370.209 468.512 371.336 468.597 372.471L468.597 372.473C469.134 380.132 470.246 387.733 471.372 395.33C473.142 394.551 475.043 394.198 476.951 394.3C478.866 394.403 480.734 394.961 482.433 395.932C485.986 383.183 487.953 369.942 488.277 356.585L488.277 356.585C488.321 354.829 488.335 353.062 488.35 351.291C488.391 346.346 488.432 341.364 489.112 336.461M471.8 313.981L489.607 336.53M471.8 313.981C470.85 306.849 470.784 299.595 470.784 292.351C470.784 290.948 470.795 289.62 471.313 288.54M471.8 313.981L471.013 288.038M489.112 336.461C489.112 336.461 489.112 336.461 489.112 336.461L489.607 336.53M489.112 336.461C489.112 336.461 489.112 336.461 489.112 336.461L489.607 336.53M489.112 336.461C490.641 325.374 490.02 313.988 488.891 302.787L488.891 302.787C488.536 299.256 487.789 295.716 485.851 293.081M489.607 336.53C491.145 325.383 490.518 313.949 489.389 302.737C489.032 299.185 488.274 295.526 486.248 292.776M485.851 293.081C485.853 293.083 485.855 293.085 485.857 293.088L486.248 292.776M485.851 293.081C485.85 293.078 485.848 293.075 485.846 293.073L486.248 292.776M485.851 293.081C484 290.76 481.544 289.177 478.849 288.549L478.835 288.546L478.821 288.542C477.559 288.17 476.353 288.172 475.08 288.269C474.729 288.296 474.368 288.331 473.998 288.367C473.145 288.449 472.246 288.536 471.313 288.54M486.248 292.776C484.331 290.37 481.777 288.718 478.962 288.062C477.228 287.551 475.611 287.708 473.922 287.872C472.985 287.962 472.026 288.055 471.013 288.038M471.313 288.54C471.354 288.454 471.398 288.37 471.446 288.288L471.013 288.038M471.313 288.54C471.21 288.54 471.108 288.539 471.004 288.538L471.013 288.038" fill="black" fill-opacity="0.87" stroke="#3E4345"/>
<path d="M490.351 469.155L490.354 469.18C490.57 471.349 490.23 473.443 489.739 475.439C489.499 476.417 489.219 477.388 488.945 478.335L488.928 478.394C488.647 479.366 488.374 480.314 488.144 481.259L488.143 481.264C486.012 489.865 487.232 499.069 488.634 508.116L488.634 508.117C489.217 511.878 489.816 515.637 490.433 519.394C491.011 522.9 491.653 527.059 490.163 530.637C490.788 533.603 491.292 536.554 491.793 539.482L491.794 539.492C492.312 542.523 492.826 545.531 493.47 548.55C493.637 549.149 493.686 549.78 493.616 550.4L493.605 550.502L493.573 550.6C493.264 551.538 492.722 552.374 491.995 553.005C491.16 553.975 490.55 555.178 490.235 556.506C490.028 557.378 489.954 558.281 490.013 559.176C493.626 557.292 498.044 558.393 501.448 559.953C502.269 560.329 503.046 560.712 503.81 561.088C504.915 561.632 505.991 562.162 507.131 562.639C508.624 563.264 510.088 563.729 511.567 563.892C511.026 558.835 510.619 553.383 512.35 548.435L512.35 548.434C512.622 547.661 512.942 546.906 513.259 546.179C513.32 546.039 513.38 545.901 513.44 545.764C513.697 545.176 513.946 544.608 514.174 544.033C514.735 542.62 515.122 541.282 515.099 539.902C515.076 538.655 514.725 537.447 514.289 536.117C514.239 535.966 514.189 535.813 514.137 535.658C513.749 534.49 513.325 533.215 513.148 531.882L513.144 531.856L513.142 531.83C512.999 530.026 513.059 528.21 513.321 526.424C514.281 516.535 513.19 506.531 512.081 496.52L512.079 496.497L512.077 496.474C511.959 494.608 511.569 492.779 510.925 491.059C510.812 490.805 510.686 490.55 510.547 490.271L510.536 490.247C510.392 489.958 510.236 489.642 510.096 489.316C509.815 488.665 509.568 487.907 509.576 487.05C509.577 486.051 509.938 485.188 510.274 484.482C510.361 484.301 510.444 484.131 510.524 483.971C510.777 483.456 510.988 483.029 511.12 482.559C511.269 482.01 511.32 481.379 511.328 480.665C511.332 480.31 511.325 479.948 511.317 479.573L511.316 479.509C511.309 479.158 511.302 478.795 511.304 478.437C511.312 476.991 511.455 475.209 512.855 474.056C515.156 472.158 515.972 468.843 516.111 464.792C516.179 462.796 516.082 460.695 515.958 458.606C515.933 458.185 515.906 457.764 515.88 457.344C515.778 455.698 515.677 454.073 515.653 452.575L515.653 452.573C515.561 446.2 515.319 439.832 514.926 433.469L516.878 433.106C520.264 443.802 521.648 455.165 520.944 466.485L520.944 466.487C520.921 466.848 520.897 467.208 520.872 467.567C520.644 470.939 520.427 474.144 521.494 476.981L521.495 476.982C521.864 477.967 522.378 478.873 522.934 479.854C523.061 480.078 523.19 480.306 523.321 480.54C524 481.759 524.685 483.103 524.979 484.649M490.351 469.155L523.997 484.838M490.351 469.155L490.347 469.13C490.011 466.907 489.392 464.747 488.508 462.717L490.351 469.155ZM524.979 484.649C524.979 484.65 524.98 484.65 524.98 484.651L523.997 484.838M524.979 484.649C524.979 484.649 524.979 484.649 524.979 484.649L523.997 484.838M524.979 484.649C525.163 485.601 525.185 486.547 525.177 487.433C525.174 487.713 525.169 487.983 525.163 488.246C525.151 488.846 525.14 489.413 525.164 489.993C525.197 490.784 525.333 491.577 525.591 492.249C525.85 492.923 526.207 493.413 526.645 493.7L527.089 493.992L527.096 494.523C527.146 498.449 527.328 502.515 527.511 506.6L527.515 506.698C527.697 510.744 527.879 514.808 527.934 518.74L527.934 518.755L527.934 518.771C527.864 522.729 528.15 526.685 528.788 530.578M523.997 484.838C524.209 485.939 524.187 487.065 524.164 488.192C524.152 488.807 524.139 489.422 524.165 490.035C524.238 491.77 524.762 493.661 526.096 494.536C526.147 498.51 526.332 502.623 526.516 506.735C526.698 510.787 526.879 514.838 526.934 518.754C526.863 522.787 527.156 526.818 527.808 530.785M528.788 530.578C528.784 530.563 528.78 530.549 528.776 530.534L527.808 530.785M528.788 530.578C529.127 531.901 529.315 533.266 529.347 534.64L529.348 534.702L529.342 534.763C529.17 536.486 528.766 538.172 528.142 539.763M528.788 530.578C528.79 530.593 528.792 530.608 528.795 530.622L527.808 530.785M527.808 530.785C528.135 532.046 528.316 533.35 528.347 534.664C528.183 536.311 527.795 537.92 527.196 539.435M552.654 537.741C551.907 534.716 552.093 531.474 552.275 528.3C552.29 528.039 552.305 527.779 552.319 527.519C552.955 516.061 552.503 504.56 550.971 493.21C550.735 490.975 550.268 488.777 549.579 486.663M552.654 537.741L551.682 537.976C551.682 537.976 551.682 537.977 551.683 537.978M552.654 537.741L551.683 537.981C551.683 537.98 551.683 537.979 551.683 537.978M552.654 537.741C552.774 538.237 552.918 538.734 553.062 539.231C553.516 540.795 553.973 542.368 553.674 543.945M551.683 537.978C550.898 534.8 551.094 531.41 551.275 528.267C551.29 527.998 551.306 527.73 551.321 527.464C551.953 516.069 551.503 504.631 549.98 493.344L549.978 493.33L549.977 493.316C549.748 491.152 549.296 489.027 548.632 486.982M551.683 537.978C551.808 538.496 551.957 539.011 552.1 539.502L552.118 539.564C552.268 540.082 552.41 540.574 552.524 541.062C552.75 542.026 552.848 542.896 552.698 543.727M548.632 486.982C548.633 486.985 548.634 486.989 548.635 486.992L549.579 486.663M548.632 486.982C548.631 486.979 548.63 486.976 548.628 486.972L549.579 486.663M548.632 486.982C548.556 486.764 548.461 486.518 548.361 486.256C548.172 485.761 547.962 485.212 547.817 484.705L547.812 484.689L547.808 484.673C547.448 483.242 547.243 481.769 547.196 480.286M549.579 486.663C549.481 486.38 549.374 486.102 549.267 485.824C549.091 485.363 548.914 484.904 548.778 484.429C548.434 483.063 548.238 481.656 548.195 480.238M547.196 480.286L547.197 480.302L548.195 480.238M547.196 480.286C547.196 480.28 547.196 480.274 547.195 480.269L548.195 480.238M547.196 480.286L546.359 467.208M548.195 480.238L547.357 467.143M547.357 467.143L546.359 467.208M547.357 467.143C546.88 459.732 548.538 452.396 550.18 445.131C550.571 443.401 550.961 441.676 551.321 439.955M547.357 467.143L546.359 467.207L546.359 467.208M546.359 467.208C545.872 459.638 547.572 452.125 549.217 444.849C549.605 443.136 549.99 441.435 550.342 439.751L551.321 439.955M551.321 439.955L550.342 439.75L555.642 411.171C554.958 414.505 554.645 417.913 554.332 421.321C554.131 423.509 553.93 425.697 553.631 427.867C553.165 431.251 552.458 434.585 551.751 437.915C551.607 438.595 551.463 439.275 551.321 439.955ZM552.698 543.727C552.701 543.715 552.704 543.704 552.707 543.692L553.674 543.945M552.698 543.727C552.436 544.718 552.044 545.657 551.538 546.513L551.52 546.545L551.504 546.577C549.542 550.526 548.634 555.006 548.868 559.488M552.698 543.727C552.696 543.737 552.694 543.748 552.692 543.759L553.674 543.945M553.674 543.945C553.389 545.037 552.96 546.074 552.399 547.022C550.465 550.915 549.595 555.354 549.887 559.784C549.55 559.685 549.21 559.586 548.868 559.488M548.868 559.488C548.886 559.842 548.912 560.197 548.945 560.551C545.889 559.667 542.783 558.894 539.641 559.151C536.488 559.41 533.264 560.912 531.4 563.718C531.203 563.413 531.012 563.103 530.827 562.79M548.868 559.488C545.907 558.641 542.763 557.892 539.559 558.155C536.314 558.42 532.923 559.92 530.827 562.79M530.827 562.79C528.989 559.673 527.755 556.14 527.219 552.424C526.607 548.181 526.924 543.834 528.142 539.763M530.827 562.79C530.611 563.086 530.408 563.397 530.221 563.723C528.173 560.387 526.808 556.577 526.229 552.567C525.594 548.167 525.926 543.659 527.196 539.435M528.142 539.763C528.146 539.75 528.15 539.736 528.154 539.723L527.196 539.435M528.142 539.763C528.137 539.776 528.131 539.789 528.126 539.803L527.196 539.435" fill="#919699" stroke="#3E4345" stroke-width="2"/>
<mask id="path-78-inside-1" fill="white">
<path d="M494.409 234.152L496.638 243.892C497.245 246.125 497.58 248.441 497.637 250.775C497.66 251.626 497.492 252.471 497.149 253.23C496.782 253.854 496.312 254.393 495.764 254.818C494.241 256.119 493.185 259.156 491.443 260.056C492.34 261.807 493.578 260.67 495.196 261.545C498.045 263.1 500.653 265.335 503.743 266.104C506.657 266.824 509.717 266.145 512.61 265.286C516.712 264.033 520.792 262.306 524.093 259.286C527.394 256.266 529.274 253.598 529.259 248.827C525.616 249.31 522.374 245.177 520.763 241.461C520.205 240.049 519.794 238.568 519.539 237.05L517.586 227.4C515.459 227.924 513.725 229.635 511.692 230.527C509.659 231.419 507.255 231.501 504.996 231.615C500.986 231.82 496.999 232.401 493.075 233.35C492.536 233.473 491.859 233.858 491.99 234.447"/>
</mask>
<path d="M494.409 234.152L496.638 243.892C497.245 246.125 497.58 248.441 497.637 250.775C497.66 251.626 497.492 252.471 497.149 253.23C496.782 253.854 496.312 254.393 495.764 254.818C494.241 256.119 493.185 259.156 491.443 260.056C492.34 261.807 493.578 260.67 495.196 261.545C498.045 263.1 500.653 265.335 503.743 266.104C506.657 266.824 509.717 266.145 512.61 265.286C516.712 264.033 520.792 262.306 524.093 259.286C527.394 256.266 529.274 253.598 529.259 248.827C525.616 249.31 522.374 245.177 520.763 241.461C520.205 240.049 519.794 238.568 519.539 237.05L517.586 227.4C515.459 227.924 513.725 229.635 511.692 230.527C509.659 231.419 507.255 231.501 504.996 231.615C500.986 231.82 496.999 232.401 493.075 233.35C492.536 233.473 491.859 233.858 491.99 234.447" fill="white"/>
<path d="M496.638 243.892L494.689 244.338L494.698 244.377L494.708 244.416L496.638 243.892ZM497.637 250.775L495.637 250.823L495.637 250.829L497.637 250.775ZM497.149 253.23L498.872 254.244L498.927 254.152L498.971 254.054L497.149 253.23ZM495.764 254.818L494.538 253.238L494.501 253.267L494.465 253.297L495.764 254.818ZM491.443 260.056L490.525 258.279L488.756 259.194L489.663 260.967L491.443 260.056ZM495.196 261.545L496.154 259.79L496.148 259.787L495.196 261.545ZM503.743 266.104L503.259 268.045L503.263 268.046L503.743 266.104ZM512.61 265.286L513.179 267.203L513.187 267.201L513.194 267.198L512.61 265.286ZM529.259 248.827L531.259 248.821L531.252 246.545L528.996 246.844L529.259 248.827ZM520.763 241.461L518.903 242.196L518.915 242.226L518.928 242.256L520.763 241.461ZM519.539 237.05L521.512 236.718L521.506 236.686L521.499 236.653L519.539 237.05ZM517.586 227.4L519.547 227.004L519.133 224.96L517.108 225.458L517.586 227.4ZM504.996 231.615L504.894 229.618L504.894 229.618L504.996 231.615ZM493.075 233.35L493.519 235.3L493.533 235.297L493.546 235.294L493.075 233.35ZM492.459 234.599L494.689 244.338L498.588 243.445L496.358 233.706L492.459 234.599ZM494.708 244.416C495.272 246.493 495.585 248.648 495.637 250.823L499.636 250.727C499.576 248.233 499.217 245.758 498.569 243.368L494.708 244.416ZM495.637 250.829C495.652 251.385 495.542 251.928 495.326 252.406L498.971 254.054C499.442 253.013 499.667 251.868 499.636 250.721L495.637 250.829ZM495.425 252.216C495.18 252.631 494.876 252.975 494.538 253.238L496.991 256.398C497.747 255.81 498.383 255.077 498.872 254.244L495.425 252.216ZM494.465 253.297C493.421 254.189 492.576 255.624 492.009 256.497C491.284 257.612 490.849 258.112 490.525 258.279L492.362 261.832C493.779 261.1 494.743 259.631 495.363 258.677C496.14 257.482 496.585 256.748 497.063 256.338L494.465 253.297ZM489.663 260.967C490.016 261.657 490.502 262.247 491.186 262.639C491.844 263.017 492.492 263.095 492.908 263.124C493.848 263.19 493.927 263.133 494.244 263.304L496.148 259.787C494.847 259.082 493.498 259.156 493.19 259.134C492.983 259.119 493.052 259.099 493.175 259.169C493.324 259.254 493.319 259.33 493.224 259.145L489.663 260.967ZM494.238 263.301C495.624 264.057 496.789 264.884 498.339 265.828C499.784 266.708 501.416 267.586 503.259 268.045L504.226 264.163C502.98 263.853 501.763 263.229 500.419 262.411C499.18 261.657 497.617 260.588 496.154 259.79L494.238 263.301ZM503.263 268.046C506.744 268.906 510.265 268.069 513.179 267.203L512.04 263.368C509.17 264.221 506.57 264.743 504.222 264.162L503.263 268.046ZM513.194 267.198C517.41 265.911 521.821 264.076 525.443 260.762L522.743 257.811C519.764 260.537 516.014 262.155 512.026 263.373L513.194 267.198ZM525.443 260.762C527.156 259.195 528.644 257.593 529.681 255.659C530.739 253.689 531.267 251.494 531.259 248.821L527.259 248.833C527.265 250.931 526.861 252.456 526.157 253.768C525.434 255.116 524.331 256.358 522.743 257.811L525.443 260.762ZM528.996 246.844C528.048 246.97 526.91 246.526 525.648 245.29C524.412 244.078 523.33 242.354 522.598 240.666L518.928 242.256C519.807 244.284 521.151 246.484 522.849 248.147C524.522 249.786 526.827 251.167 529.522 250.81L528.996 246.844ZM522.623 240.726C522.117 239.446 521.744 238.101 521.512 236.718L517.567 237.381C517.845 239.036 518.293 240.652 518.903 242.196L522.623 240.726ZM521.499 236.653L519.547 227.004L515.626 227.797L517.579 237.446L521.499 236.653ZM517.108 225.458C515.702 225.805 514.5 226.523 513.533 227.136C512.481 227.803 511.724 228.329 510.888 228.695L512.496 232.358C513.693 231.833 514.819 231.057 515.675 230.515C516.615 229.918 517.343 229.52 518.065 229.342L517.108 225.458ZM510.888 228.695C509.262 229.409 507.273 229.497 504.894 229.618L505.097 233.613C507.236 233.504 510.056 233.429 512.496 232.358L510.888 228.695ZM504.894 229.618C500.759 229.829 496.649 230.428 492.605 231.407L493.546 235.294C497.349 234.373 501.213 233.811 505.098 233.613L504.894 229.618ZM492.631 231.4C492.149 231.51 491.525 231.747 490.995 232.192C490.435 232.663 489.753 233.605 490.038 234.882L493.942 234.013C494.005 234.297 493.97 234.598 493.857 234.854C493.756 235.083 493.623 235.208 493.568 235.255C493.478 235.33 493.463 235.313 493.519 235.3L492.631 231.4Z" fill="#7A7A7A" mask="url(#path-78-inside-1)"/>
<path opacity="0.1" d="M494.409 234.152L496.638 243.892C497.245 246.125 497.58 248.441 497.637 250.775C497.66 251.626 497.492 252.471 497.149 253.23C496.782 253.854 496.312 254.393 495.764 254.818C494.241 256.119 493.185 259.156 491.443 260.056C492.34 261.807 493.578 260.67 495.196 261.545C498.045 263.1 500.653 265.335 503.743 266.104C506.657 266.824 509.717 266.145 512.61 265.286C516.712 264.033 520.792 262.306 524.093 259.286C527.394 256.266 529.274 253.598 529.259 248.827C525.616 249.31 522.374 245.177 520.763 241.461C520.205 240.049 519.794 238.568 519.539 237.05L517.586 227.4C515.459 227.924 513.725 229.635 511.692 230.527C509.659 231.419 507.255 231.501 504.996 231.615C500.986 231.82 496.999 232.401 493.075 233.35C492.536 233.473 491.859 233.858 491.99 234.447" fill="black" fill-opacity="0.87"/>
<path d="M522.276 217.849C522.276 229.378 513.98 238.521 503.982 238.521C493.985 238.521 485.688 229.378 485.688 217.849C485.688 206.319 493.985 197.177 503.982 197.177C513.98 197.177 522.276 206.319 522.276 217.849Z" fill="white" stroke="#7A7A7A" stroke-width="2"/>
<path d="M518.698 243.799C519.667 242.81 520.557 241.692 521.14 240.353L525.835 246.494L525.859 246.525L525.885 246.554C526.094 246.788 526.266 247.072 526.384 247.391C526.424 247.685 526.412 247.986 526.349 248.275C526.281 248.589 526.155 248.877 525.985 249.12L525.956 249.161L525.932 249.205C524.684 251.44 522.774 253.096 520.744 254.855C520.571 255.005 520.398 255.155 520.224 255.306L520.224 255.306L520.216 255.313C515.213 259.765 510.423 264.511 505.867 269.53L505.839 269.561L505.814 269.594C505.778 269.641 505.739 269.677 505.701 269.704C505.682 269.695 505.662 269.683 505.642 269.668L505.6 269.638L505.556 269.611C501.768 267.377 498.407 264.31 495.676 260.584L495.674 260.582C495.57 260.441 495.391 260.2 495.158 260.002C494.918 259.798 494.516 259.55 493.982 259.589L493.916 259.593L493.851 259.607C493.442 259.691 493.08 259.902 492.801 260.195C492.686 260.301 492.572 260.407 492.458 260.512C491.701 261.211 490.969 261.887 490.212 262.439C492.062 259.79 493.166 256.51 493.664 253.274L493.669 253.243L493.672 253.211C493.802 251.754 494.068 250.317 494.467 248.925C494.503 248.803 494.545 248.684 494.591 248.569C494.59 249.192 494.661 249.814 494.79 250.418C495.168 252.176 496.06 253.863 497.262 255.103L497.276 255.117L497.29 255.131C499.489 257.227 502.136 258.672 504.987 259.319L504.994 259.32L505.001 259.322C505.853 259.502 506.621 259.37 507.278 258.981C507.905 258.609 508.36 258.045 508.705 257.478C509.052 256.907 509.328 256.263 509.565 255.661C509.675 255.379 509.771 255.123 509.863 254.878C509.982 254.559 510.094 254.26 510.22 253.953C511.203 251.569 512.618 249.453 514.368 247.739L514.369 247.737C514.982 247.134 515.65 246.555 516.35 245.949C516.395 245.91 516.439 245.871 516.485 245.832C517.223 245.191 517.991 244.52 518.698 243.799Z" fill="#5E6366" stroke="#3E4345" stroke-width="2"/>
<path d="M484.193 381.642C486.94 382.403 489.541 383.696 492.208 384.654C497.069 386.363 502.184 386.967 507.254 386.43C508.815 386.391 510.333 385.848 511.626 384.866C511.969 384.555 512.282 384.187 512.646 383.901C513.256 383.49 513.916 383.184 514.606 382.992C521.288 380.643 526.884 375.577 532.312 370.618C532.487 370.454 532.683 370.249 532.669 369.987C532.644 369.809 532.567 369.645 532.45 369.521L529.594 365.838C522.104 367.27 514.431 366.73 506.832 366.517C505.272 366.439 503.708 366.486 502.154 366.656C500.653 366.853 499.174 367.278 497.695 367.638C492.077 369.013 486.336 369.537 480.645 370.437C480.247 370.47 479.861 370.605 479.516 370.83C479.276 371.039 479.071 371.294 478.911 371.583L476.914 374.734C476.139 375.794 475.569 377.023 475.239 378.344C474.772 380.799 475.749 381.617 477.607 381.298C479.802 380.937 482.038 381.054 484.193 381.642Z" fill="#5E6366"/>
<mask id="path-84-inside-2" fill="white">
<path fill-rule="evenodd" clip-rule="evenodd" d="M499.012 259.868C501.769 261.675 504.296 263.891 506.525 266.456C509.723 261.717 513.184 257.069 517.614 253.689C518.27 253.19 518.95 252.721 519.631 252.252C521.416 251.023 523.2 249.795 524.529 248.017C524.579 247.949 524.63 247.879 524.682 247.809C525.358 246.886 526.122 245.842 527.145 245.971C527.571 246.065 527.975 246.258 528.332 246.536C533.197 249.688 538.989 250.126 544.583 250.55C544.711 250.559 544.839 250.569 544.967 250.579C546.361 250.615 547.743 250.866 549.076 251.323C551.117 252.125 552.785 253.828 554.242 255.604C561.341 264.086 565.689 275.008 566.585 286.606C566.465 286.839 566.344 287.071 566.223 287.304C566.537 288.179 566.83 289.062 567.081 289.954C567.901 292.872 568.073 295.934 568.244 298.996C568.31 300.178 568.377 301.36 568.48 302.534C568.7 305.077 569.097 307.597 569.668 310.071C569.928 311.431 570.397 312.73 571.052 313.91C571.287 314.297 571.559 314.659 571.83 315.019C572.315 315.663 572.797 316.303 573.063 317.085C573.29 317.911 573.391 318.775 573.362 319.639L573.449 325.286C573.636 328.279 573.231 331.28 572.262 334.076L569.121 344.806C567.424 350.616 565.682 356.517 562.622 361.575C562.191 362.431 561.538 363.119 560.749 363.548C560.132 363.731 559.5 363.841 558.862 363.875C557.751 364.098 556.744 364.748 556.014 365.714C555.284 366.681 554.877 367.903 554.862 369.17C554.133 367.973 553.223 366.929 552.174 366.085L550.999 365.031C550.18 365.164 549.32 365.162 548.486 365.16C548.379 365.159 548.272 365.159 548.166 365.159C544.499 365.117 540.838 365.484 537.236 366.256C535.292 366.594 533.409 367.285 531.662 368.302C530.839 368.824 530.082 369.46 529.324 370.097C528.882 370.469 528.439 370.841 527.983 371.191C523.429 374.702 517.731 375.823 512.208 375.938C509.267 375.999 506.33 375.795 503.392 375.591C500.812 375.413 498.232 375.234 495.646 375.234C493.974 375.236 492.293 375.312 490.615 375.389C485.586 375.617 480.575 375.845 475.849 374.072C476.322 373.788 476.728 373.384 477.035 372.891C477.342 372.399 477.542 371.832 477.618 371.237C477.694 370.641 477.644 370.034 477.472 369.465C477.3 368.895 477.011 368.379 476.629 367.958L480.666 367.14C480.359 360.577 481.613 354.098 482.86 347.658C483.063 346.605 483.267 345.553 483.464 344.502C483.795 342.949 483.976 341.36 484.003 339.763C483.987 338.776 483.858 337.794 483.73 336.814C483.554 335.48 483.379 334.15 483.493 332.815C483.548 332.196 483.664 331.576 483.781 330.957C483.973 329.94 484.164 328.922 484.083 327.904C484.051 327.512 483.977 327.131 483.904 326.746C483.828 326.351 483.752 325.953 483.719 325.539C483.612 324.244 483.946 322.992 484.283 321.732C484.542 320.762 484.802 319.788 484.863 318.787C485.03 315.979 483.646 313.426 482.32 311.069C480.468 307.616 478.378 304.332 476.068 301.248C475.566 300.609 475.018 299.972 474.463 299.326C472.294 296.801 470.014 294.149 469.962 290.813C469.875 284.789 470.37 278.332 473.671 273.585C474.904 271.909 476.333 270.428 477.919 269.182C480.828 266.787 483.972 264.774 487.289 263.182C488.263 262.807 489.167 262.232 489.956 261.488C490.251 261.168 490.498 260.798 490.745 260.429C491.021 260.016 491.296 259.604 491.639 259.262C492.156 258.795 492.758 258.46 493.402 258.282C494.047 258.104 494.718 258.087 495.369 258.231C496.664 258.518 497.899 259.073 499.012 259.868ZM552.732 333.57C552.759 333.504 552.786 333.438 552.815 333.372C552.996 333.044 553.229 332.742 553.46 332.442C553.91 331.859 554.355 331.283 554.403 330.532C554.448 329.797 554.09 329.155 553.731 328.511C553.39 327.899 553.048 327.285 553.048 326.587C553.048 325.982 553.303 325.443 553.559 324.901C553.705 324.593 553.851 324.283 553.951 323.96C554.21 322.858 554.21 321.699 553.951 320.596L553.07 315.097C553.018 314.545 552.869 314.011 552.633 313.525C552.303 313.059 551.937 312.626 551.54 312.232C551.518 312.205 551.497 312.177 551.476 312.15C551.457 312.215 551.441 312.282 551.43 312.35C551.4 312.538 551.405 312.732 551.444 312.919C551.508 313.206 551.725 313.376 551.942 313.545C552.022 313.607 552.101 313.669 552.173 313.737C552.923 314.441 552.909 315.718 552.829 316.814C552.724 318.267 552.498 319.745 552.271 321.229C551.771 324.494 551.268 327.783 552.049 330.867L552.732 333.57Z"/>
</mask>
<path fill-rule="evenodd" clip-rule="evenodd" d="M499.012 259.868C501.769 261.675 504.296 263.891 506.525 266.456C509.723 261.717 513.184 257.069 517.614 253.689C518.27 253.19 518.95 252.721 519.631 252.252C521.416 251.023 523.2 249.795 524.529 248.017C524.579 247.949 524.63 247.879 524.682 247.809C525.358 246.886 526.122 245.842 527.145 245.971C527.571 246.065 527.975 246.258 528.332 246.536C533.197 249.688 538.989 250.126 544.583 250.55C544.711 250.559 544.839 250.569 544.967 250.579C546.361 250.615 547.743 250.866 549.076 251.323C551.117 252.125 552.785 253.828 554.242 255.604C561.341 264.086 565.689 275.008 566.585 286.606C566.465 286.839 566.344 287.071 566.223 287.304C566.537 288.179 566.83 289.062 567.081 289.954C567.901 292.872 568.073 295.934 568.244 298.996C568.31 300.178 568.377 301.36 568.48 302.534C568.7 305.077 569.097 307.597 569.668 310.071C569.928 311.431 570.397 312.73 571.052 313.91C571.287 314.297 571.559 314.659 571.83 315.019C572.315 315.663 572.797 316.303 573.063 317.085C573.29 317.911 573.391 318.775 573.362 319.639L573.449 325.286C573.636 328.279 573.231 331.28 572.262 334.076L569.121 344.806C567.424 350.616 565.682 356.517 562.622 361.575C562.191 362.431 561.538 363.119 560.749 363.548C560.132 363.731 559.5 363.841 558.862 363.875C557.751 364.098 556.744 364.748 556.014 365.714C555.284 366.681 554.877 367.903 554.862 369.17C554.133 367.973 553.223 366.929 552.174 366.085L550.999 365.031C550.18 365.164 549.32 365.162 548.486 365.16C548.379 365.159 548.272 365.159 548.166 365.159C544.499 365.117 540.838 365.484 537.236 366.256C535.292 366.594 533.409 367.285 531.662 368.302C530.839 368.824 530.082 369.46 529.324 370.097C528.882 370.469 528.439 370.841 527.983 371.191C523.429 374.702 517.731 375.823 512.208 375.938C509.267 375.999 506.33 375.795 503.392 375.591C500.812 375.413 498.232 375.234 495.646 375.234C493.974 375.236 492.293 375.312 490.615 375.389C485.586 375.617 480.575 375.845 475.849 374.072C476.322 373.788 476.728 373.384 477.035 372.891C477.342 372.399 477.542 371.832 477.618 371.237C477.694 370.641 477.644 370.034 477.472 369.465C477.3 368.895 477.011 368.379 476.629 367.958L480.666 367.14C480.359 360.577 481.613 354.098 482.86 347.658C483.063 346.605 483.267 345.553 483.464 344.502C483.795 342.949 483.976 341.36 484.003 339.763C483.987 338.776 483.858 337.794 483.73 336.814C483.554 335.48 483.379 334.15 483.493 332.815C483.548 332.196 483.664 331.576 483.781 330.957C483.973 329.94 484.164 328.922 484.083 327.904C484.051 327.512 483.977 327.131 483.904 326.746C483.828 326.351 483.752 325.953 483.719 325.539C483.612 324.244 483.946 322.992 484.283 321.732C484.542 320.762 484.802 319.788 484.863 318.787C485.03 315.979 483.646 313.426 482.32 311.069C480.468 307.616 478.378 304.332 476.068 301.248C475.566 300.609 475.018 299.972 474.463 299.326C472.294 296.801 470.014 294.149 469.962 290.813C469.875 284.789 470.37 278.332 473.671 273.585C474.904 271.909 476.333 270.428 477.919 269.182C480.828 266.787 483.972 264.774 487.289 263.182C488.263 262.807 489.167 262.232 489.956 261.488C490.251 261.168 490.498 260.798 490.745 260.429C491.021 260.016 491.296 259.604 491.639 259.262C492.156 258.795 492.758 258.46 493.402 258.282C494.047 258.104 494.718 258.087 495.369 258.231C496.664 258.518 497.899 259.073 499.012 259.868ZM552.732 333.57C552.759 333.504 552.786 333.438 552.815 333.372C552.996 333.044 553.229 332.742 553.46 332.442C553.91 331.859 554.355 331.283 554.403 330.532C554.448 329.797 554.09 329.155 553.731 328.511C553.39 327.899 553.048 327.285 553.048 326.587C553.048 325.982 553.303 325.443 553.559 324.901C553.705 324.593 553.851 324.283 553.951 323.96C554.21 322.858 554.21 321.699 553.951 320.596L553.07 315.097C553.018 314.545 552.869 314.011 552.633 313.525C552.303 313.059 551.937 312.626 551.54 312.232C551.518 312.205 551.497 312.177 551.476 312.15C551.457 312.215 551.441 312.282 551.43 312.35C551.4 312.538 551.405 312.732 551.444 312.919C551.508 313.206 551.725 313.376 551.942 313.545C552.022 313.607 552.101 313.669 552.173 313.737C552.923 314.441 552.909 315.718 552.829 316.814C552.724 318.267 552.498 319.745 552.271 321.229C551.771 324.494 551.268 327.783 552.049 330.867L552.732 333.57Z" fill="#9ED9D9"/>
<path d="M506.525 266.456L505.015 267.768L506.724 269.735L508.182 267.575L506.525 266.456ZM499.012 259.868L497.851 261.496L497.883 261.519L497.916 261.54L499.012 259.868ZM517.614 253.689L516.403 252.097L516.401 252.099L517.614 253.689ZM519.631 252.252L520.765 253.9V253.9L519.631 252.252ZM524.529 248.017L526.131 249.215L526.137 249.206L524.529 248.017ZM524.682 247.809L523.068 246.627L523.068 246.627L524.682 247.809ZM527.145 245.971L527.578 244.018L527.488 243.998L527.396 243.987L527.145 245.971ZM528.332 246.536L527.104 248.114L527.172 248.167L527.245 248.214L528.332 246.536ZM544.583 250.55L544.432 252.544L544.432 252.544L544.583 250.55ZM544.967 250.579L544.815 252.573L544.865 252.577L544.914 252.578L544.967 250.579ZM549.076 251.323L549.808 249.462L549.767 249.446L549.725 249.432L549.076 251.323ZM554.242 255.604L552.696 256.872L552.702 256.88L552.709 256.887L554.242 255.604ZM566.585 286.606L568.362 287.523L568.623 287.018L568.579 286.452L566.585 286.606ZM566.223 287.304L564.45 286.379L564.045 287.155L564.341 287.979L566.223 287.304ZM567.081 289.954L569.007 289.413L569.006 289.412L567.081 289.954ZM568.244 298.996L570.241 298.884V298.884L568.244 298.996ZM568.48 302.534L570.473 302.361L570.472 302.358L568.48 302.534ZM569.668 310.071L571.632 309.695L571.625 309.658L571.617 309.622L569.668 310.071ZM571.052 313.91L569.304 314.881L569.323 314.915L569.342 314.948L571.052 313.91ZM571.83 315.019L570.232 316.221L570.232 316.221L571.83 315.019ZM573.063 317.085L574.992 316.555L574.976 316.497L574.956 316.441L573.063 317.085ZM573.362 319.639L571.363 319.571L571.361 319.62L571.362 319.67L573.362 319.639ZM573.449 325.286L571.45 325.317L571.45 325.364L571.453 325.411L573.449 325.286ZM572.262 334.076L570.372 333.421L570.356 333.467L570.342 333.514L572.262 334.076ZM569.121 344.806L567.202 344.244L567.202 344.245L569.121 344.806ZM562.622 361.575L560.911 360.54L560.871 360.606L560.836 360.676L562.622 361.575ZM560.749 363.548L561.319 365.465L561.52 365.405L561.704 365.305L560.749 363.548ZM558.862 363.875L558.754 361.878L558.611 361.886L558.469 361.914L558.862 363.875ZM556.014 365.714L554.418 364.509L554.418 364.509L556.014 365.714ZM554.862 369.17L553.154 370.211L556.781 376.164L556.862 369.193L554.862 369.17ZM552.174 366.085L550.838 367.574L550.878 367.61L550.92 367.643L552.174 366.085ZM550.999 365.031L552.334 363.542L551.622 362.904L550.679 363.057L550.999 365.031ZM548.486 365.16L548.481 367.16H548.481L548.486 365.16ZM548.166 365.159L548.143 367.159L548.154 367.159H548.166V365.159ZM537.236 366.256L537.579 368.226L537.617 368.219L537.655 368.211L537.236 366.256ZM531.662 368.302L530.656 366.573L530.623 366.592L530.592 366.612L531.662 368.302ZM529.324 370.097L528.037 368.566H528.037L529.324 370.097ZM527.983 371.191L526.766 369.603L526.761 369.607L527.983 371.191ZM512.208 375.938L512.166 373.938H512.166L512.208 375.938ZM503.392 375.591L503.53 373.596H503.53L503.392 375.591ZM495.646 375.234V373.234H495.644L495.646 375.234ZM490.615 375.389L490.706 377.387H490.706L490.615 375.389ZM475.849 374.072L474.82 372.357L471.269 374.489L475.147 375.944L475.849 374.072ZM477.035 372.891L475.338 371.833L475.338 371.833L477.035 372.891ZM477.618 371.237L475.634 370.984L475.634 370.984L477.618 371.237ZM476.629 367.958L476.232 365.998L472.782 366.697L475.149 369.303L476.629 367.958ZM480.666 367.14L481.063 369.1L482.744 368.759L482.664 367.046L480.666 367.14ZM482.86 347.658L484.823 348.038L482.86 347.658ZM483.464 344.502L481.508 344.084L481.502 344.109L481.498 344.134L483.464 344.502ZM484.003 339.763L486.003 339.797L486.003 339.764L486.003 339.732L484.003 339.763ZM483.73 336.814L481.747 337.075L483.73 336.814ZM483.493 332.815L481.501 332.637L481.5 332.645L483.493 332.815ZM483.781 330.957L481.816 330.587L481.816 330.587L483.781 330.957ZM484.083 327.904L486.077 327.744L486.076 327.739L484.083 327.904ZM483.904 326.746L485.868 326.37L485.868 326.37L483.904 326.746ZM483.719 325.539L485.712 325.379L485.712 325.374L483.719 325.539ZM484.283 321.732L486.215 322.249H486.215L484.283 321.732ZM484.863 318.787L486.859 318.907L486.859 318.906L484.863 318.787ZM482.32 311.069L480.557 312.014L480.567 312.032L480.577 312.05L482.32 311.069ZM476.068 301.248L477.669 300.049L477.655 300.03L477.641 300.012L476.068 301.248ZM474.463 299.326L472.947 300.63L472.947 300.63L474.463 299.326ZM469.962 290.813L467.962 290.842L467.962 290.844L469.962 290.813ZM473.671 273.585L472.06 272.399L472.044 272.421L472.029 272.443L473.671 273.585ZM477.919 269.182L479.154 270.754L479.172 270.74L479.19 270.726L477.919 269.182ZM487.289 263.182L486.569 261.316L486.495 261.345L486.423 261.379L487.289 263.182ZM489.956 261.488L491.328 262.943L491.379 262.895L491.426 262.844L489.956 261.488ZM490.745 260.429L492.408 261.54L492.408 261.54L490.745 260.429ZM491.639 259.262L490.298 257.778L490.261 257.811L490.227 257.846L491.639 259.262ZM493.402 258.282L493.935 260.21L493.935 260.21L493.402 258.282ZM495.369 258.231L495.803 256.278L495.802 256.278L495.369 258.231ZM552.732 333.57L550.793 334.06L552.297 340.011L554.588 334.316L552.732 333.57ZM552.815 333.372L551.063 332.407L551.016 332.492L550.978 332.58L552.815 333.372ZM553.46 332.442L555.043 333.664L555.043 333.664L553.46 332.442ZM554.403 330.532L556.399 330.66L556.399 330.654L554.403 330.532ZM553.731 328.511L551.984 329.484L551.984 329.484L553.731 328.511ZM553.559 324.901L555.367 325.756V325.756L553.559 324.901ZM553.951 323.96L555.861 324.553L555.882 324.486L555.898 324.417L553.951 323.96ZM553.951 320.596L551.977 320.913L551.988 320.984L552.004 321.053L553.951 320.596ZM553.07 315.097L551.079 315.284L551.085 315.349L551.095 315.413L553.07 315.097ZM552.633 313.525L554.431 312.65L554.359 312.503L554.265 312.37L552.633 313.525ZM551.54 312.232L549.974 313.476L550.047 313.569L550.131 313.652L551.54 312.232ZM551.476 312.15L553.076 310.95L550.699 307.78L549.56 311.575L551.476 312.15ZM551.43 312.35L553.406 312.665V312.665L551.43 312.35ZM551.444 312.919L549.487 313.33L549.49 313.342L549.492 313.353L551.444 312.919ZM551.942 313.545L553.174 311.969L553.173 311.969L551.942 313.545ZM552.173 313.737L550.802 315.193L550.805 315.196L552.173 313.737ZM552.829 316.814L550.834 316.668L550.834 316.67L552.829 316.814ZM552.271 321.229L550.294 320.926H550.294L552.271 321.229ZM552.049 330.867L553.988 330.377L553.988 330.375L552.049 330.867ZM508.034 265.144C505.689 262.445 503.024 260.106 500.109 258.195L497.916 261.54C500.514 263.243 502.903 265.337 505.015 267.768L508.034 265.144ZM516.401 252.099C511.692 255.691 508.079 260.578 504.867 265.337L508.182 267.575C511.367 262.856 514.676 258.446 518.827 255.279L516.401 252.099ZM518.496 250.605C517.823 251.069 517.102 251.565 516.403 252.097L518.826 255.28C519.437 254.815 520.078 254.373 520.765 253.9L518.496 250.605ZM522.927 246.819C521.826 248.291 520.325 249.346 518.496 250.605L520.765 253.9C522.506 252.7 524.573 251.298 526.131 249.215L522.927 246.819ZM523.068 246.627C523.016 246.698 522.968 246.764 522.921 246.828L526.137 249.206C526.191 249.133 526.245 249.06 526.295 248.99L523.068 246.627ZM527.396 243.987C526.068 243.819 525.062 244.458 524.451 245.003C523.861 245.531 523.376 246.207 523.068 246.627L526.295 248.991C526.469 248.753 526.615 248.554 526.762 248.372C526.909 248.192 527.024 248.068 527.115 247.987C527.311 247.812 527.199 247.994 526.894 247.955L527.396 243.987ZM529.561 244.957C528.978 244.504 528.304 244.18 527.578 244.018L526.711 247.923C526.838 247.951 526.972 248.011 527.104 248.114L529.561 244.957ZM544.734 248.555C539.043 248.125 533.786 247.686 529.42 244.857L527.245 248.214C532.609 251.69 538.934 252.128 544.432 252.544L544.734 248.555ZM545.118 248.584C544.99 248.575 544.862 248.565 544.734 248.555L544.432 252.544C544.56 252.554 544.688 252.563 544.815 252.573L545.118 248.584ZM549.725 249.432C548.202 248.909 546.619 248.622 545.02 248.579L544.914 252.578C546.102 252.609 547.284 252.823 548.427 253.215L549.725 249.432ZM555.788 254.335C554.299 252.52 552.356 250.464 549.808 249.462L548.345 253.185C549.877 253.787 551.271 255.136 552.696 256.872L555.788 254.335ZM568.579 286.452C567.653 274.461 563.157 263.139 555.776 254.32L552.709 256.887C559.526 265.033 563.726 275.554 564.591 286.76L568.579 286.452ZM567.997 288.228C568.119 287.993 568.241 287.758 568.362 287.523L564.808 285.689C564.689 285.919 564.57 286.149 564.45 286.379L567.997 288.228ZM564.341 287.979C564.644 288.825 564.921 289.661 565.156 290.496L569.006 289.412C568.739 288.462 568.43 287.534 568.106 286.629L564.341 287.979ZM565.156 290.496C565.907 293.166 566.074 296.006 566.247 299.108L570.241 298.884C570.072 295.861 569.896 292.577 569.007 289.413L565.156 290.496ZM566.247 299.108C566.313 300.284 566.381 301.498 566.488 302.709L570.472 302.358C570.372 301.222 570.308 300.072 570.241 298.884L566.247 299.108ZM566.488 302.706C566.716 305.342 567.127 307.955 567.719 310.521L571.617 309.622C571.067 307.24 570.685 304.812 570.473 302.361L566.488 302.706ZM567.703 310.448C568.003 312.01 568.543 313.511 569.304 314.881L572.801 312.939C572.251 311.949 571.854 310.852 571.632 309.695L567.703 310.448ZM569.342 314.948C569.638 315.434 569.971 315.874 570.232 316.221L573.428 313.816C573.147 313.443 572.937 313.16 572.762 312.872L569.342 314.948ZM570.232 316.221C570.747 316.905 571.023 317.299 571.17 317.73L574.956 316.441C574.571 315.308 573.883 314.42 573.428 313.816L570.232 316.221ZM571.135 317.615C571.308 318.245 571.386 318.907 571.363 319.571L575.361 319.707C575.397 318.643 575.273 317.578 574.992 316.555L571.135 317.615ZM571.362 319.67L571.45 325.317L575.449 325.255L575.362 319.608L571.362 319.67ZM571.453 325.411C571.624 328.143 571.253 330.879 570.372 333.421L574.151 334.731C575.208 331.682 575.649 328.415 575.445 325.161L571.453 325.411ZM570.342 333.514L567.202 344.244L571.041 345.367L574.181 334.638L570.342 333.514ZM567.202 344.245C565.491 350.1 563.813 355.743 560.911 360.54L564.333 362.61C567.551 357.291 569.356 351.132 571.041 345.366L567.202 344.245ZM560.836 360.676C560.575 361.194 560.2 361.57 559.794 361.79L561.704 365.305C562.876 364.668 563.807 363.668 564.408 362.475L560.836 360.676ZM560.18 361.63C559.712 361.769 559.234 361.852 558.754 361.878L558.97 365.872C559.765 365.829 560.553 365.692 561.319 365.465L560.18 361.63ZM558.469 361.914C556.844 362.24 555.421 363.181 554.418 364.509L557.61 366.92C558.067 366.315 558.659 365.955 559.255 365.836L558.469 361.914ZM554.418 364.509C553.418 365.833 552.882 367.474 552.862 369.147L556.862 369.193C556.872 368.332 557.15 367.529 557.61 366.92L554.418 364.509ZM556.57 368.13C555.726 366.743 554.664 365.522 553.427 364.526L550.92 367.643C551.782 368.337 552.54 369.204 553.154 370.211L556.57 368.13ZM553.509 364.596L552.334 363.542L549.664 366.521L550.838 367.574L553.509 364.596ZM548.481 367.16C549.284 367.162 550.311 367.169 551.319 367.006L550.679 363.057C550.05 363.159 549.357 363.162 548.491 363.16L548.481 367.16ZM548.166 367.159C548.269 367.159 548.373 367.159 548.481 367.16L548.491 363.16C548.385 363.159 548.275 363.159 548.166 363.159V367.159ZM537.655 368.211C541.112 367.471 544.625 367.118 548.143 367.159L548.189 363.159C544.373 363.115 540.564 363.497 536.817 364.3L537.655 368.211ZM532.668 370.03C534.215 369.13 535.874 368.523 537.579 368.226L536.894 364.285C534.71 364.665 532.603 365.44 530.656 366.573L532.668 370.03ZM530.611 371.628C531.387 370.975 532.042 370.429 532.733 369.991L530.592 366.612C529.635 367.219 528.776 367.944 528.037 368.566L530.611 371.628ZM529.199 372.778C529.698 372.396 530.175 371.995 530.611 371.628L528.037 368.566C527.589 368.943 527.181 369.286 526.766 369.603L529.199 372.778ZM512.249 377.937C517.976 377.818 524.169 376.657 529.204 372.775L526.761 369.607C522.689 372.747 517.486 373.828 512.166 373.938L512.249 377.937ZM503.253 377.587C506.176 377.789 509.203 378.001 512.249 377.937L512.166 373.938C509.33 373.997 506.483 373.801 503.53 373.596L503.253 377.587ZM495.646 377.234C498.151 377.234 500.662 377.407 503.253 377.587L503.53 373.596C500.962 373.418 498.312 373.234 495.646 373.234V377.234ZM490.706 377.387C492.392 377.31 494.028 377.236 495.649 377.234L495.644 373.234C493.92 373.236 492.195 373.315 490.524 373.391L490.706 377.387ZM475.147 375.944C480.32 377.886 485.752 377.612 490.706 377.387L490.524 373.391C485.421 373.623 480.829 373.804 476.552 372.199L475.147 375.944ZM475.338 371.833C475.189 372.072 475.006 372.245 474.82 372.357L476.879 375.786C477.637 375.331 478.267 374.696 478.732 373.95L475.338 371.833ZM475.634 370.984C475.593 371.303 475.487 371.593 475.338 371.833L478.732 373.95C479.197 373.204 479.491 372.361 479.602 371.49L475.634 370.984ZM475.557 370.042C475.647 370.34 475.675 370.664 475.634 370.984L479.602 371.49C479.713 370.618 479.64 369.728 479.387 368.887L475.557 370.042ZM475.149 369.303C475.322 369.493 475.467 369.744 475.557 370.042L479.387 368.887C479.133 368.046 478.701 367.265 478.109 366.613L475.149 369.303ZM480.268 365.179L476.232 365.998L477.026 369.918L481.063 369.1L480.268 365.179ZM480.896 347.278C479.657 353.677 478.348 360.391 478.668 367.233L482.664 367.046C482.37 360.762 483.568 354.519 484.823 348.038L480.896 347.278ZM481.498 344.134C481.302 345.178 481.1 346.224 480.896 347.278L484.823 348.038C485.027 346.986 485.232 345.928 485.43 344.869L481.498 344.134ZM482.003 339.73C481.978 341.198 481.812 342.658 481.508 344.084L485.419 344.919C485.778 343.239 485.974 341.522 486.003 339.797L482.003 339.73ZM481.747 337.075C481.878 338.074 481.99 338.941 482.003 339.794L486.003 339.732C485.985 338.61 485.839 337.514 485.713 336.554L481.747 337.075ZM481.5 332.645C481.365 334.232 481.576 335.778 481.747 337.075L485.713 336.554C485.532 335.182 485.394 334.068 485.486 332.984L481.5 332.645ZM481.816 330.587C481.702 331.189 481.566 331.905 481.501 332.637L485.485 332.992C485.53 332.486 485.627 331.964 485.747 331.328L481.816 330.587ZM482.089 328.064C482.146 328.769 482.017 329.521 481.816 330.587L485.747 331.328C485.929 330.359 486.183 329.074 486.077 327.744L482.089 328.064ZM481.939 327.122C482.016 327.524 482.068 327.801 482.09 328.069L486.076 327.739C486.034 327.223 485.938 326.737 485.868 326.37L481.939 327.122ZM481.725 325.698C481.768 326.24 481.867 326.743 481.939 327.122L485.868 326.37C485.789 325.959 485.735 325.667 485.712 325.379L481.725 325.698ZM482.35 321.216C482.03 322.415 481.585 324.005 481.725 325.704L485.712 325.374C485.638 324.483 485.862 323.569 486.215 322.249L482.35 321.216ZM482.866 318.667C482.82 319.432 482.619 320.212 482.35 321.216L486.215 322.249C486.465 321.312 486.785 320.143 486.859 318.907L482.866 318.667ZM480.577 312.05C481.948 314.486 482.993 316.537 482.866 318.667L486.859 318.906C487.067 315.422 485.344 312.366 484.063 310.088L480.577 312.05ZM474.467 302.446C476.716 305.449 478.752 308.648 480.557 312.014L484.082 310.124C482.184 306.584 480.04 303.215 477.669 300.049L474.467 302.446ZM472.947 300.63C473.507 301.282 474.026 301.886 474.495 302.483L477.641 300.012C477.107 299.333 476.53 298.662 475.98 298.022L472.947 300.63ZM467.962 290.844C468.028 295.033 470.894 298.241 472.947 300.63L475.98 298.022C473.694 295.362 472.001 293.266 471.962 290.781L467.962 290.844ZM472.029 272.443C468.333 277.758 467.875 284.801 467.962 290.842L471.962 290.784C471.875 284.777 472.407 278.905 475.313 274.727L472.029 272.443ZM476.683 267.609C474.951 268.97 473.397 270.583 472.06 272.399L475.282 274.77C476.411 273.235 477.715 271.885 479.154 270.754L476.683 267.609ZM486.423 261.379C482.958 263.043 479.679 265.143 476.648 267.637L479.19 270.726C481.978 268.431 484.986 266.506 488.154 264.986L486.423 261.379ZM488.583 260.034C487.976 260.607 487.292 261.038 486.569 261.316L488.008 265.049C489.234 264.576 490.358 263.858 491.328 262.943L488.583 260.034ZM489.082 259.318C488.819 259.711 488.657 259.946 488.486 260.132L491.426 262.844C491.846 262.389 492.177 261.885 492.408 261.54L489.082 259.318ZM490.227 257.846C489.719 258.352 489.337 258.936 489.082 259.318L492.408 261.54C492.705 261.096 492.873 260.856 493.051 260.678L490.227 257.846ZM492.869 256.355C491.912 256.619 491.036 257.111 490.298 257.778L492.98 260.746C493.276 260.478 493.604 260.302 493.935 260.21L492.869 256.355ZM495.802 256.278C494.831 256.063 493.828 256.09 492.869 256.355L493.935 260.21C494.265 260.119 494.605 260.11 494.936 260.184L495.802 256.278ZM500.174 258.24C498.849 257.294 497.367 256.626 495.803 256.278L494.936 260.183C495.96 260.411 496.949 260.852 497.851 261.496L500.174 258.24ZM554.588 334.316C554.608 334.265 554.63 334.214 554.651 334.164L550.978 332.58C550.943 332.661 550.91 332.742 550.877 332.824L554.588 334.316ZM554.567 334.337C554.66 334.167 554.795 333.986 555.043 333.664L551.877 331.219C551.663 331.497 551.331 331.921 551.063 332.407L554.567 334.337ZM555.043 333.664C555.424 333.172 556.306 332.12 556.399 330.66L552.407 330.404C552.407 330.409 552.406 330.419 552.399 330.44C552.391 330.465 552.374 330.508 552.336 330.575C552.248 330.733 552.12 330.906 551.877 331.219L555.043 333.664ZM556.399 330.654C556.486 329.236 555.779 328.077 555.478 327.537L551.984 329.484C552.177 329.83 552.284 330.029 552.353 330.209C552.383 330.287 552.397 330.338 552.402 330.369C552.408 330.397 552.407 330.408 552.407 330.41L556.399 330.654ZM555.478 327.537C555.296 327.211 555.189 327.014 555.116 326.832C555.05 326.669 555.048 326.603 555.048 326.587H551.048C551.048 327.893 551.694 328.964 551.984 329.484L555.478 327.537ZM555.048 326.587C555.048 326.57 555.051 326.51 555.098 326.371C555.152 326.215 555.23 326.045 555.367 325.756L551.751 324.046C551.529 324.515 551.048 325.459 551.048 326.587H555.048ZM555.367 325.756C555.502 325.47 555.712 325.034 555.861 324.553L552.041 323.367C551.99 323.533 551.907 323.715 551.751 324.046L555.367 325.756ZM555.898 324.417C556.228 323.014 556.228 321.542 555.898 320.139L552.004 321.053C552.193 321.855 552.193 322.701 552.004 323.503L555.898 324.417ZM555.926 320.28L555.044 314.78L551.095 315.413L551.977 320.913L555.926 320.28ZM555.061 314.909C554.987 314.125 554.775 313.357 554.431 312.65L550.834 314.4C550.963 314.666 551.049 314.966 551.079 315.284L555.061 314.909ZM554.265 312.37C553.87 311.811 553.429 311.29 552.948 310.812L550.131 313.652C550.444 313.963 550.736 314.307 551 314.68L554.265 312.37ZM553.105 310.988C553.095 310.975 553.086 310.962 553.076 310.95L549.876 313.35C549.908 313.392 549.941 313.435 549.974 313.476L553.105 310.988ZM553.406 312.665C553.402 312.684 553.398 312.704 553.392 312.724L549.56 311.575C549.515 311.726 549.48 311.879 549.455 312.035L553.406 312.665ZM553.401 312.507C553.413 312.56 553.414 312.613 553.406 312.665L549.455 312.035C549.387 312.464 549.398 312.904 549.487 313.33L553.401 312.507ZM553.173 311.969C553.113 311.922 553.093 311.906 553.08 311.894C553.069 311.886 553.09 311.902 553.124 311.94C553.204 312.029 553.337 312.214 553.397 312.484L549.492 313.353C549.736 314.448 550.59 315.027 550.711 315.122L553.173 311.969ZM553.544 312.281C553.393 312.139 553.24 312.021 553.174 311.969L550.711 315.122C550.754 315.155 550.776 315.172 550.794 315.187C550.81 315.2 550.811 315.201 550.802 315.193L553.544 312.281ZM554.823 316.96C554.865 316.392 554.905 315.612 554.791 314.837C554.677 314.062 554.376 313.061 553.541 312.278L550.805 315.196C550.72 315.117 550.788 315.106 550.834 315.42C550.88 315.733 550.873 316.14 550.834 316.668L554.823 316.96ZM554.248 321.531C554.472 320.063 554.712 318.504 554.824 316.958L550.834 316.67C550.736 318.029 550.523 319.428 550.294 320.926L554.248 321.531ZM553.988 330.375C553.324 327.755 553.735 324.884 554.248 321.531L550.294 320.926C549.807 324.104 549.211 327.811 550.11 331.358L553.988 330.375ZM554.671 333.08L553.988 330.377L550.11 331.357L550.793 334.06L554.671 333.08Z" fill="#3E4345" mask="url(#path-84-inside-2)"/>
<path d="M569.122 343.781C567.424 349.592 565.682 355.493 562.622 360.551C562.191 361.407 561.538 362.095 560.75 362.523C560.133 362.707 559.5 362.816 558.863 362.851C557.752 363.073 556.745 363.724 556.015 364.69C555.284 365.657 554.877 366.879 554.862 368.146C554.133 366.949 553.223 365.905 552.174 365.061L545.784 359.332C543.598 357.335 541.317 355.305 538.665 354.151C542.232 352.9 545.399 350.512 547.782 347.278C550.164 344.044 551.66 340.103 552.086 335.933" stroke="#3E4345" stroke-width="2"/>
<path d="M538.439 355.509C538.114 355.78 537.833 356.112 537.608 356.491C536.75 357.701 535.606 358.617 534.308 359.134C535.036 359.724 535.699 360.305 536.384 360.902C541.452 365.298 546.092 370.283 550.228 375.773C550.687 373.932 553.434 374.063 554.104 372.303C554.262 371.799 554.312 371.261 554.25 370.732C554.111 367.975 553.76 365.236 553.201 362.547C552.98 361.163 552.482 359.853 551.744 358.717C550.724 357.334 549.135 356.671 547.62 356.098C545.324 355.198 540.771 353.929 538.439 355.509Z" fill="#5E6366"/>
<path d="M529.97 362.71L529.972 362.708C531.346 361.56 532.734 360.756 534.091 360.455C535.411 360.162 536.749 360.332 538.119 361.224L538.122 361.226C541.297 363.278 544.296 365.663 547.078 368.348L547.12 368.39L547.168 368.426C547.789 368.898 548.293 369.571 548.605 370.377C548.917 371.184 549.019 372.08 548.895 372.956L548.886 373.023L548.885 373.09C548.878 374.372 548.849 375.642 548.785 376.917L548.781 376.977L548.786 377.037C548.791 377.115 548.783 377.193 548.762 377.264C548.757 377.283 548.75 377.301 548.743 377.319C548.718 377.325 548.695 377.328 548.674 377.327L548.618 377.324L548.561 377.328C543.292 377.701 538.045 377.901 534.012 374.979L534.011 374.978C533.122 374.336 532.575 373.682 532.575 372.949C532.575 372.559 532.709 372.172 532.915 371.581C532.931 371.533 532.949 371.483 532.966 371.432C533.172 370.837 533.448 370.007 533.288 369.101L533.196 368.576L532.709 368.36C531.654 367.892 530.612 368.082 529.754 368.433C528.922 368.773 528.133 369.318 527.503 369.753L527.48 369.769L527.457 369.785L527.435 369.802C525.939 370.964 524.216 371.673 522.429 371.877C521.033 371.924 519.614 371.294 518.831 370.15C519.318 369.835 519.862 369.579 520.46 369.332C520.698 369.234 520.952 369.134 521.217 369.031C521.868 368.777 522.577 368.499 523.226 368.169C524.572 367.486 525.743 366.536 526.821 365.568C527.243 365.189 527.64 364.818 528.029 364.454C528.673 363.852 529.296 363.27 529.97 362.71Z" fill="white" stroke="#7A7A7A" stroke-width="2"/>
<path d="M510.758 208.788C507.523 209.222 505.169 212.062 505.497 215.148C505.825 218.233 508.711 220.361 511.946 219.919C515.181 219.477 517.534 216.645 517.206 213.568C516.878 210.491 513.993 208.355 510.758 208.788ZM511.858 219.068C509.119 219.436 506.678 217.627 506.393 215.025C506.109 212.422 508.113 210.016 510.845 209.648C513.578 209.279 516.026 211.088 516.31 213.691C516.594 216.293 514.591 218.7 511.858 219.068Z" fill="#3C354C"/>
<path d="M494.99 210.916C491.755 211.349 489.402 214.189 489.73 217.267C490.058 220.344 492.943 222.48 496.178 222.046C499.413 221.613 501.767 218.773 501.439 215.687C501.111 212.602 498.225 210.482 494.99 210.916ZM496.091 221.187C493.351 221.555 490.91 219.747 490.633 217.152C490.356 214.558 492.345 212.143 495.085 211.767C497.825 211.39 500.266 213.207 500.543 215.81C500.819 218.412 498.823 220.819 496.091 221.187Z" fill="#3C354C"/>
<path d="M483.281 212.494L490.312 214.18L489.62 216.259L482.989 214.074L483.281 212.494Z" fill="#3C354C"/>
<path d="M522.476 207.21L515.991 210.721L517.106 212.554L523.088 208.667L522.476 207.21Z" fill="#3C354C"/>
<path d="M500.791 213.659L505.724 212.996L505.469 214.371L501.235 214.69L500.791 213.659Z" fill="#3C354C"/>
<path d="M491.225 211.801C491.689 210.679 491.938 209.461 491.954 208.224C491.971 207.484 492.084 206.751 492.289 206.047C492.647 205.153 493.192 204.37 493.878 203.764C496.151 201.603 499.408 200.49 502.621 200.334C506.125 200.153 509.61 201 512.734 202.79C513.689 203.292 514.544 204.005 515.248 204.885C516.268 206.284 516.487 208.093 517.514 209.476C518.215 210.316 519.097 210.937 520.075 211.281C521.053 211.626 522.093 211.68 523.095 211.441C523.452 210.017 522.986 208.511 523.168 207.054C523.455 205.805 523.843 204.589 524.327 203.42C525.456 199.68 523.809 195.342 520.414 193.108C519.226 192.289 517.82 191.757 516.931 190.652C516.042 189.548 515.831 188.402 515.219 187.297C513.594 184.375 509.39 183.008 506.191 184.359C505.186 184.784 504.297 185.431 503.277 185.889C501.382 186.765 499.226 186.92 497.142 187.215C495.088 187.428 493.079 188.02 491.196 188.966C489.396 189.965 487.888 191.569 487.473 193.484C487.276 194.368 487.32 195.285 487.123 196.16C486.118 200.605 479.626 202.765 479.261 207.299C479.13 208.936 479.924 210.508 480.915 211.842C481.6 212.75 483.24 215.181 484.398 215.533C485.557 215.885 486.438 214.649 487.546 214.223C489.294 213.609 490.351 213.478 491.225 211.801Z" fill="#3E4345"/>
<path d="M573.421 500.062C573.421 541.179 596.387 574.457 624.767 574.457L573.421 500.062Z" fill="#7A7A7A"/>
<path d="M624.768 574.465C624.768 532.88 650.401 499.234 682.074 499.234L624.768 574.465Z" fill="#9ED9D9"/>
<path d="M592.031 503.793C592.031 542.857 606.677 574.464 624.768 574.464L592.031 503.793Z" fill="#9ED9D9"/>
<path d="M624.768 574.464C624.768 521.331 654.394 478.331 691 478.331L624.768 574.464Z" fill="#7A7A7A"/>
<path opacity="0.1" d="M622.545 588.672C629.595 588.672 635.31 587.588 635.31 586.25C635.31 584.912 629.595 583.827 622.545 583.827C615.495 583.827 609.779 584.912 609.779 586.25C609.779 587.588 615.495 588.672 622.545 588.672Z" fill="#9ED9D9"/>
<path d="M613.97 574.987C613.97 574.987 621.256 574.734 623.442 572.982C625.628 571.231 634.641 569.128 635.187 571.943C635.734 574.758 646.117 585.946 637.905 586.02C629.694 586.094 618.801 584.579 616.615 583.082C614.429 581.584 613.97 574.987 613.97 574.987Z" fill="#A8A8A8"/>
<path opacity="0.2" d="M638.058 585.039C629.839 585.113 618.961 583.599 616.768 582.101C615.099 580.963 614.436 576.863 614.21 574.98H613.97C613.97 574.98 614.429 581.577 616.622 583.075C618.815 584.572 629.693 586.087 637.912 586.013C640.288 586.013 641.104 585.039 641.06 583.639C640.732 584.491 639.865 585.023 638.058 585.039Z" fill="black" fill-opacity="0.87"/>
<path d="M16.3867 524.09C16.3867 556.827 34.6534 583.279 57.2335 583.279L16.3867 524.09Z" fill="#7A7A7A"/>
<path d="M57.2344 583.28C57.2344 550.199 77.6359 523.428 102.824 523.428L57.2344 583.28Z" fill="#9ED9D9"/>
<path d="M31.1855 527.069C31.1855 558.17 42.8436 583.295 57.2339 583.295L31.1855 527.069Z" fill="#9ED9D9"/>
<path d="M57.2344 583.279C57.2344 541.007 80.8054 506.797 109.929 506.797L57.2344 583.279Z" fill="#7A7A7A"/>
<path opacity="0.1" d="M55.4617 594.589C61.0713 594.589 65.6188 593.724 65.6188 592.657C65.6188 591.59 61.0713 590.726 55.4617 590.726C49.8522 590.726 45.3047 591.59 45.3047 592.657C45.3047 593.724 49.8522 594.589 55.4617 594.589Z" fill="#9ED9D9"/>
<path d="M48.6426 583.696C48.6426 583.696 54.4352 583.492 56.1766 582.06C57.918 580.627 65.0949 578.99 65.5248 581.241C65.9547 583.492 74.2319 592.38 67.7107 592.437C61.1895 592.495 52.5116 591.291 50.7702 590.105C49.0287 588.918 48.6426 583.696 48.6426 583.696Z" fill="#A8A8A8"/>
<path opacity="0.2" d="M67.8054 591.725C61.2478 591.782 52.6063 590.579 50.8649 589.384C49.5388 588.484 49.0142 585.218 48.832 583.721H48.6426C48.6426 583.721 49.0069 588.967 50.7483 590.162C52.4897 591.357 61.1531 592.552 67.6889 592.494C69.576 592.494 70.2318 591.725 70.1953 590.604C69.933 591.258 69.2117 591.676 67.8054 591.725Z" fill="black" fill-opacity="0.87"/>
</svg>
