<svg width="269" height="256" viewBox="0 0 269 256" fill="none" xmlns="http://www.w3.org/2000/svg">
<path opacity="0.7" fill-rule="evenodd" clip-rule="evenodd" d="M62.318 88.4854C60.9908 88.4854 59.4846 89.6829 59.7381 91.5026C61.7811 106.371 61.2741 120.073 57.218 134.614C53.8926 146.543 50.2987 158.27 48.4496 170.619C45.1541 192.283 46.0339 214.166 50.2987 235.613C50.5373 236.81 51.3874 237.324 52.2672 237.324C53.6242 237.324 55.0855 236.142 54.7426 234.338C49.5233 208.116 49.7321 181.101 56.1443 155.159C59.0074 143.557 63.4214 132.375 65.0618 120.493C66.4486 110.383 65.5837 100.274 64.1372 90.2117C63.9881 89.0142 63.1828 88.4854 62.318 88.4854Z" fill="#FAFAFA" stroke="#7A7A7A" stroke-width="1.5"/>
<path opacity="0.7" fill-rule="evenodd" clip-rule="evenodd" d="M228.603 114.617C227.432 114.617 226.103 115.696 226.327 117.335C228.129 130.728 227.682 143.07 224.103 156.168C221.169 166.914 217.998 177.477 216.366 188.6C213.459 208.115 214.235 227.826 217.998 247.144C218.208 248.223 218.959 248.685 219.735 248.685C220.932 248.685 222.222 247.621 221.919 245.995C217.314 222.376 217.498 198.042 223.156 174.675C225.682 164.224 229.577 154.151 231.024 143.448C232.248 134.342 231.485 125.236 230.208 116.172C230.077 115.094 229.366 114.617 228.603 114.617Z" fill="#FAFAFA" stroke="#7A7A7A" stroke-width="1.5"/>
<path opacity="0.7" fill-rule="evenodd" clip-rule="evenodd" d="M147.384 59.2617C146.064 59.2617 144.565 60.4656 144.817 62.295C146.85 77.2422 146.345 91.0167 142.31 105.636C139.002 117.628 135.427 129.417 133.588 141.831C130.309 163.611 131.184 185.61 135.427 207.17C135.664 208.374 136.51 208.89 137.385 208.89C138.735 208.89 140.189 207.702 139.848 205.888C134.656 179.527 134.863 152.369 141.242 126.29C144.09 114.626 148.482 103.384 150.113 91.4389C151.493 81.276 150.633 71.1132 149.194 60.9972C149.045 59.7933 148.244 59.2617 147.384 59.2617Z" fill="#FAFAFA" stroke="#7A7A7A" stroke-width="1.5"/>
<path opacity="0.7" fill-rule="evenodd" clip-rule="evenodd" d="M109.139 73.8271C107.343 98.3136 112.31 123.366 123.267 144.82C125.558 149.338 128.495 154.028 133.014 155.537L136.302 157.248C136.846 150.476 135.03 143.757 133.014 137.324C129.156 124.927 124.471 112.785 119.051 101.089C115.013 92.3258 110.439 83.5478 109.139 73.8271Z" fill="#FAFAFA" stroke="#7A7A7A" stroke-width="1.5"/>
<path opacity="0.7" fill-rule="evenodd" clip-rule="evenodd" d="M180.833 98.9854C165.534 102.216 151.793 113.269 144.419 128.224C142.341 132.402 140.773 136.852 139.192 141.299C137.46 146.163 135.731 151.053 133.998 155.924L135.412 154.963C157.646 145.836 175.22 124.176 180.833 98.9854Z" fill="#FAFAFA" stroke="#7A7A7A" stroke-width="1.5"/>
<path opacity="0.8" fill-rule="evenodd" clip-rule="evenodd" d="M135.483 1C126.843 9.40849 122.644 22.8961 124.744 35.3618C119.523 31.0414 113.721 27.5727 107.578 25.188C107.933 44.5445 123.538 61.857 141.073 63.4984C143.257 65.2328 145.91 65.8832 148.677 65.8832C151.684 65.8832 154.834 65.1089 157.685 64.1178C161.629 62.7706 165.587 61.0827 168.665 58.0941C173.886 53.1388 176.085 45.2723 176.028 37.7C175.929 30.1742 173.929 22.8342 171.886 15.649C170.85 15.2619 169.843 15.0916 168.85 15.0916C162.182 15.0916 156.465 23.02 152.847 29.9729C151.429 18.1576 144.846 7.16313 135.483 1Z" fill="white" stroke="#7A7A7A" stroke-width="1.5"/>
<path opacity="0.7" fill-rule="evenodd" clip-rule="evenodd" d="M24.0774 103.255C22.305 127.6 27.208 152.508 38.0258 173.839C40.2872 178.33 43.1869 182.994 47.6485 184.493L50.8945 186.195C51.431 179.462 49.6383 172.782 47.6485 166.386C43.8388 154.06 39.2142 141.988 33.863 130.359C29.8768 121.647 25.3609 112.92 24.0774 103.255Z" fill="#FAFAFA" stroke="#7A7A7A" stroke-width="1.5"/>
<path opacity="0.7" fill-rule="evenodd" clip-rule="evenodd" d="M194.474 128.251C192.849 149.928 197.343 172.106 207.26 191.1C209.333 195.099 211.991 199.251 216.08 200.587L219.056 202.102C219.548 196.107 217.904 190.158 216.08 184.464C212.588 173.488 208.349 162.74 203.444 152.385C199.79 144.627 195.65 136.856 194.474 128.251Z" fill="#FAFAFA" stroke="#7A7A7A" stroke-width="1.5"/>
<path opacity="0.7" fill-rule="evenodd" clip-rule="evenodd" d="M96.4379 127.115C80.8496 130.403 66.8493 141.652 59.3361 156.871C57.2195 161.122 55.6212 165.651 54.011 170.177C52.2465 175.127 50.4841 180.104 48.7188 185.06L50.1595 184.082C72.8131 174.794 90.7187 152.751 96.4379 127.115Z" fill="#FAFAFA" stroke="#7A7A7A" stroke-width="1.5"/>
<path opacity="0.7" fill-rule="evenodd" clip-rule="evenodd" d="M260.048 149.838C245.944 152.803 233.277 162.949 226.479 176.676C224.564 180.511 223.118 184.595 221.661 188.678C220.065 193.143 218.47 197.631 216.873 202.102L218.177 201.22C238.673 192.842 254.873 172.96 260.048 149.838Z" fill="#FAFAFA" stroke="#7A7A7A" stroke-width="1.5"/>
<path opacity="0.8" fill-rule="evenodd" clip-rule="evenodd" d="M50.3783 29.4043C41.7742 37.797 37.5922 51.2594 39.6831 63.7017C34.4839 59.3894 28.7055 55.9272 22.5879 53.547C22.9411 72.8673 38.4823 90.1473 55.9448 91.7857C58.1206 93.5168 60.7626 94.166 63.5177 94.166C66.5129 94.166 69.6493 93.3932 72.4891 92.404C76.4168 91.0593 80.3586 89.3745 83.4245 86.3915C88.6237 81.4455 90.8136 73.5937 90.757 66.0356C90.6582 58.5239 88.6661 51.1976 86.6316 44.0259C85.6002 43.6395 84.5971 43.4695 83.6081 43.4695C76.9678 43.4695 71.2741 51.3831 67.6713 58.3229C66.2585 46.5298 59.703 35.5559 50.3783 29.4043Z" fill="white" stroke="#7A7A7A" stroke-width="1.5"/>
<path opacity="0.8" fill-rule="evenodd" clip-rule="evenodd" d="M240.717 61.2168C248.461 68.7261 252.225 80.7714 250.343 91.904C255.022 88.0456 260.223 84.9478 265.729 82.8181C265.411 100.105 251.424 115.566 235.707 117.032C233.749 118.581 231.371 119.161 228.892 119.161C226.196 119.161 223.373 118.47 220.817 117.585C217.283 116.382 213.735 114.874 210.976 112.205C206.296 107.78 204.325 100.755 204.376 93.9922C204.465 87.2712 206.258 80.7161 208.089 74.2993C209.017 73.9536 209.92 73.8014 210.81 73.8014C216.787 73.8014 221.911 80.882 225.153 87.0914C226.425 76.5396 232.325 66.7209 240.717 61.2168Z" fill="white" stroke="#7A7A7A" stroke-width="1.5"/>
<path fill-rule="evenodd" clip-rule="evenodd" d="M132.01 190.74C131.646 190.74 131.284 190.805 130.931 190.952C129.862 191.391 129.146 192.467 128.599 193.556C125.513 199.577 125.61 206.858 125.78 213.769C121.685 208.334 116.485 203.922 110.653 200.972C109.666 200.465 108.618 200.008 107.56 200.008C107.368 200.008 107.176 200.022 106.984 200.054C104.42 200.493 103.157 203.749 102.951 206.579C102.476 213.025 104.955 219.257 107.385 225.157C104.331 224.618 101.25 224.079 98.1656 224.079C97.6789 224.079 97.1921 224.093 96.7054 224.122C93.1327 224.334 89.5121 225.45 86.7549 227.949C85.868 228.759 85.0292 229.849 85.0782 231.111C85.1507 232.971 86.9977 234.061 88.6253 234.607C91.3112 235.483 94.1052 235.935 96.9114 235.935V236.148H186.978L187.136 236.187C188.29 230.58 184.16 224.932 179.214 222.939C176.789 221.949 174.236 221.61 171.646 221.61C168.918 221.61 166.15 221.985 163.444 222.367C167.392 217.424 168.462 210.368 167.77 203.856C167.503 201.37 166.846 198.646 164.915 197.318C164.12 196.773 163.256 196.544 162.367 196.544C160.262 196.544 158.013 197.822 156.203 199.204C151.902 202.473 148.002 206.354 144.624 210.739C143.287 203.735 140.688 196.627 135.488 192.307C134.478 191.469 133.23 190.74 132.01 190.74Z" fill="#FBFDFD" stroke="#7A7A7A" stroke-width="1.5"/>
<path fill-rule="evenodd" clip-rule="evenodd" d="M54.1918 196.421C53.7789 196.421 53.3683 196.495 52.9694 196.665C51.7573 197.169 50.9454 198.407 50.3255 199.659C46.8283 206.583 46.9381 214.957 47.1312 222.905C42.4901 216.654 36.5965 211.58 29.987 208.187C28.8687 207.605 27.6809 207.078 26.4816 207.078C26.2642 207.078 26.0468 207.095 25.8294 207.132C22.923 207.637 21.4912 211.381 21.2576 214.636C20.7198 222.048 23.529 229.216 26.2838 236.001C22.8223 235.381 19.3309 234.761 15.8347 234.761C15.2831 234.761 14.7314 234.776 14.1798 234.81C10.1308 235.053 6.02743 236.337 2.9025 239.211C1.89746 240.143 0.946794 241.395 1.00232 242.847C1.08446 244.987 3.17773 246.24 5.02239 246.867C8.06631 247.875 11.2329 248.395 14.4133 248.395V248.64H116.489L116.668 248.685C117.976 242.236 113.294 235.741 107.69 233.449C104.941 232.31 102.047 231.921 99.1121 231.921C96.0208 231.921 92.8832 232.353 89.8172 232.792C94.2917 227.107 95.5038 218.992 94.7197 211.504C94.4166 208.646 93.673 205.512 91.4837 203.985C90.5828 203.359 89.6043 203.095 88.5959 203.095C86.2112 203.095 83.6621 204.565 81.6105 206.154C76.7358 209.914 72.3155 214.377 68.4875 219.42C66.9725 211.365 64.0268 203.19 58.1332 198.223C56.9883 197.259 55.5739 196.421 54.1918 196.421Z" fill="#FBFDFD" stroke="#7A7A7A" stroke-width="1.5"/>
<path fill-rule="evenodd" clip-rule="evenodd" d="M205.303 202.103C204.89 202.103 204.48 202.177 204.081 202.346C202.869 202.851 202.057 204.088 201.437 205.341C197.94 212.264 198.049 220.638 198.243 228.586C193.601 222.335 187.708 217.261 181.098 213.869C179.98 213.286 178.792 212.76 177.593 212.76C177.376 212.76 177.158 212.777 176.941 212.814C174.034 213.318 172.603 217.062 172.369 220.317C171.831 227.73 174.64 234.897 177.395 241.682C173.934 241.062 170.442 240.442 166.946 240.442C166.394 240.442 165.843 240.458 165.291 240.491C161.242 240.735 157.139 242.019 154.014 244.892C153.009 245.824 152.058 247.077 152.114 248.529C152.196 250.668 154.289 251.921 156.134 252.549C159.178 253.556 162.344 254.076 165.525 254.076V254.321H267.6L267.779 254.366C269.087 247.918 264.406 241.423 258.801 239.131C256.052 237.992 253.159 237.603 250.223 237.603C247.132 237.603 243.994 238.034 240.929 238.473C245.403 232.789 246.615 224.674 245.831 217.186C245.528 214.327 244.784 211.194 242.595 209.667C241.694 209.04 240.716 208.777 239.707 208.777C237.322 208.777 234.773 210.247 232.722 211.836C227.847 215.595 223.427 220.058 219.599 225.101C218.084 217.047 215.138 208.872 209.244 203.905C208.1 202.941 206.685 202.103 205.303 202.103Z" fill="#FBFDFD" stroke="#7A7A7A" stroke-width="1.5"/>
</svg>
