<svg width="269" height="215" viewBox="0 0 269 215" fill="none" xmlns="http://www.w3.org/2000/svg">
<rect opacity="0.5" x="1" y="1" width="266.872" height="213" rx="16" fill="#FAFAFA" stroke="#5E6366" stroke-width="2"/>
<line x1="46.2715" y1="2" x2="46.2715" y2="213" stroke="#5E6366"/>
<g opacity="0.6">
<path d="M128.963 94.3301L110.463 75.8301L108.463 75.3301H78.4629L76.4629 76.3301L73.9629 77.8301L72.4629 80.3301L71.4629 83.3301V142.33L72.4629 144.83L74.9629 147.83L78.9629 149.33H122.963L126.463 146.83L128.963 142.83V94.3301Z" fill="white"/>
<path fill-rule="evenodd" clip-rule="evenodd" d="M127.1 160.25H81.1668C75.2648 160.25 70.4629 155.409 70.4629 149.458V84.6211C70.4629 78.6715 75.2639 73.8301 81.1658 73.8301H113.78C115.185 73.8301 116.996 74.5858 117.989 75.5882L136.06 93.8095C137.055 94.8119 137.803 96.6354 137.803 98.0527V149.459C137.803 155.409 133.002 160.25 127.1 160.25ZM81.1668 76.8865C76.9363 76.8865 73.4953 80.3567 73.4953 84.6211H73.4962V149.458C73.4962 153.724 76.9382 157.193 81.1677 157.193H127.101C131.333 157.193 134.773 153.723 134.773 149.458V98.0517C134.773 97.9528 134.759 97.8434 134.739 97.7281H120.212C116.842 97.7281 114.102 94.9646 114.102 91.5683V76.921C113.988 76.9018 113.878 76.8865 113.781 76.8865H81.1668ZM117.134 79.0499L117.135 79.0508V91.5702C117.135 93.2804 118.514 94.6708 120.211 94.6708H132.629L117.135 79.0508V79.0499H117.134Z" fill="#5E6366" stroke="#5E6366"/>
</g>
<line x1="45.7715" y1="28.4365" x2="266.873" y2="28.4365" stroke="#5E6366"/>
<g opacity="0.6">
<path d="M232.219 94.3301L213.719 75.8301L211.719 75.3301H181.719L179.719 76.3301L177.219 77.8301L175.719 80.3301L174.719 83.3301V142.33L175.719 144.83L178.219 147.83L182.219 149.33H226.219L229.719 146.83L232.219 142.83V94.3301Z" fill="white"/>
<path fill-rule="evenodd" clip-rule="evenodd" d="M230.356 160.25H184.423C178.521 160.25 173.719 155.409 173.719 149.458V84.6211C173.719 78.6715 178.52 73.8301 184.422 73.8301H217.036C218.441 73.8301 220.251 74.5858 221.245 75.5882L239.316 93.8095C240.311 94.8119 241.059 96.6354 241.059 98.0527V149.459C241.059 155.409 236.258 160.25 230.356 160.25ZM184.423 76.8865C180.192 76.8865 176.751 80.3567 176.751 84.6211H176.752V149.458C176.752 153.724 180.194 157.193 184.424 157.193H230.357C234.589 157.193 238.029 153.723 238.029 149.458V98.0517C238.029 97.9528 238.014 97.8434 237.994 97.7281H223.468C220.098 97.7281 217.358 94.9646 217.358 91.5683V76.921C217.244 76.9018 217.134 76.8865 217.037 76.8865H184.423ZM220.39 79.0499L220.39 79.0508V91.5702C220.39 93.2804 221.77 94.6708 223.467 94.6708H235.885L220.39 79.0508V79.0499H220.39Z" fill="#5E6366" stroke="#5E6366"/>
<path d="M220.987 113.327C220.7 113.041 220.236 113.041 219.949 113.327C219.663 113.613 219.663 114.077 219.949 114.364L228.092 122.495C228.178 122.582 228.178 122.722 228.092 122.809L219.949 130.941C219.663 131.227 219.663 131.691 219.949 131.977C220.236 132.264 220.7 132.264 220.987 131.977L229.491 123.484C229.95 123.026 229.95 122.279 229.491 121.82L220.987 113.327Z" fill="#3E4345" stroke="#3E4345" stroke-width="0.4"/>
<path d="M193.79 113.327C194.077 113.041 194.542 113.041 194.828 113.327C195.115 113.613 195.115 114.077 194.828 114.364L186.686 122.495C186.599 122.582 186.599 122.722 186.686 122.809L194.828 130.941C195.115 131.227 195.115 131.691 194.828 131.977C194.542 132.264 194.077 132.264 193.79 131.977L185.287 123.484C184.827 123.026 184.827 122.279 185.287 121.82L193.79 113.327Z" fill="#3E4345" stroke="#3E4345" stroke-width="0.4"/>
<path d="M197.219 126.83L203.718 117.33L210.718 107.83" stroke="#3E4345" stroke-width="1.5"/>
</g>
<path opacity="0.6" d="M87.2769 137.094H120.992C121.83 137.094 122.509 136.411 122.509 135.566C122.509 134.72 121.83 134.036 120.992 134.036H87.2769C86.4388 134.036 85.7598 134.72 85.7598 135.566C85.7598 136.411 86.4388 137.094 87.2769 137.094Z" fill="#5E6366"/>
<path opacity="0.6" d="M87.2769 120.885H120.992C121.83 120.885 122.509 120.201 122.509 119.356C122.509 118.513 121.83 117.827 120.992 117.827H87.2769C86.4388 117.827 85.7598 118.513 85.7598 119.356C85.7598 120.201 86.4388 120.885 87.2769 120.885Z" fill="#5E6366"/>
<path opacity="0.6" d="M87.2769 104.674H107.212C108.05 104.674 108.728 103.99 108.728 103.145C108.728 102.302 108.05 101.616 107.212 101.616H87.2769C86.4388 101.616 85.7598 102.302 85.7598 103.145C85.7598 103.99 86.4388 104.674 87.2769 104.674Z" fill="#5E6366"/>
</svg>
