<svg width="520" height="421" viewBox="0 0 520 421" fill="none" xmlns="http://www.w3.org/2000/svg">
<path opacity="0.4" d="M302.124 63.1252C268.789 61.8544 237.037 50.0075 206.72 37.057C176.404 24.1064 146.368 9.75342 113.834 2.8883C92.9048 -1.52644 68.971 -2.13904 52.1101 10.1939C35.8796 22.0711 30.6382 42.5956 27.8219 61.6063C25.7005 75.9239 24.4535 90.9704 30.2609 104.392C34.2966 113.692 41.4616 121.514 46.4177 130.425C63.6513 161.439 51.4796 199.678 32.7873 229.954C24.0439 244.16 13.8602 257.708 7.10018 272.83C0.340184 287.953 -2.78902 305.273 3.12425 320.694C8.99151 335.983 22.9625 347.466 38.0977 355.541C68.8421 371.944 105.072 376.642 140.4 379.3C218.607 385.163 297.228 382.632 375.637 380.1C404.656 379.154 433.799 378.197 462.349 373.261C478.197 370.522 494.561 366.173 506.065 355.667C520.676 342.332 524.298 319.752 514.505 303.015C498.086 274.972 452.68 268.006 441.203 237.907C434.885 221.342 441.374 202.888 450.554 187.523C470.25 154.559 503.263 125.645 505.002 87.9682C506.199 62.0924 490.327 36.176 465.791 23.9342C440.067 11.1001 404.403 12.7151 385.425 33.9585C365.896 55.8348 331.557 64.2491 302.124 63.1252Z" fill="#9ED9D9"/>
<path d="M304.121 379.028L304.121 379.029L304.49 381.671L217.014 380.437L217.163 378.994L217.163 378.993L221.41 338.123H298.443L304.121 379.028Z" fill="#E3E5E6" stroke="#919699" stroke-width="2"/>
<path opacity="0.1" d="M305.553 382.055H260.773L215.906 381.422L216.169 378.891H305.112L305.553 382.055Z" fill="#3E4345"/>
<path d="M201.449 382.188V380.023H319.52V382.188H201.449Z" fill="#C6CACC" stroke="#919699"/>
<path d="M432.625 86.2478V86.2522V307.002H87.1915L87.1915 86.2522L87.1915 86.2478C87.1872 85.2844 87.3555 84.3314 87.6852 83.4439C88.0148 82.5565 88.498 81.7551 89.1031 81.0832C89.7079 80.4116 90.422 79.8834 91.2015 79.5236C91.9801 79.1644 92.8113 78.9789 93.6488 78.9746H426.172C427.009 78.9795 427.84 79.1654 428.618 79.5249C429.397 79.8849 430.111 80.4132 430.715 81.0848C431.32 81.7566 431.802 82.5579 432.132 83.445C432.461 84.3322 432.629 85.2848 432.625 86.2478Z" fill="white" stroke="#5E6366" stroke-width="2"/>
<path d="M87.1914 331.771V306.799H432.625V331.771C432.625 333.71 431.924 335.552 430.703 336.897C429.484 338.238 427.853 338.972 426.174 338.973H93.6463C91.9668 338.973 90.3344 338.24 89.1149 336.898C87.8925 335.553 87.1914 333.711 87.1914 331.771Z" fill="#E3E5E6" stroke="#919699" stroke-width="2"/>
<path opacity="0.1" d="M420.97 91.8965H100.572V291.243H420.97V91.8965Z" fill="#9ED9D9"/>
<path opacity="0.1" d="M269.402 339.973L305.2 379.524L299.71 339.973H269.402Z" fill="#3E4345"/>
<path d="M319.087 127.863H111.179C110.518 127.863 109.982 128.453 109.982 129.18V265.267C109.982 265.994 110.518 266.583 111.179 266.583H319.087C319.748 266.583 320.283 265.994 320.283 265.267V129.18C320.283 128.453 319.748 127.863 319.087 127.863Z" fill="white"/>
<path d="M421.062 91.917H100.779V103.561H421.062V91.917Z" fill="white"/>
<path d="M111.005 93.9424H102.519C102.321 93.9424 102.16 94.1192 102.16 94.3373V100.635C102.16 100.853 102.321 101.03 102.519 101.03H111.005C111.203 101.03 111.364 100.853 111.364 100.635V94.3373C111.364 94.1192 111.203 93.9424 111.005 93.9424Z" fill="#919699"/>
<path opacity="0.3" d="M308.052 93.9424H211.949C211.801 93.9424 211.682 94.0739 211.682 94.236V100.737C211.682 100.899 211.801 101.03 211.949 101.03H308.052C308.199 101.03 308.319 100.899 308.319 100.737V94.236C308.319 94.0739 308.199 93.9424 308.052 93.9424Z" fill="#919699"/>
<path d="M305.451 98.2147H305.217L305.129 98.1336C305.425 97.7481 305.588 97.2607 305.59 96.7566C305.587 96.3425 305.473 95.9385 305.261 95.5957C305.05 95.253 304.751 94.9867 304.403 94.8305C304.054 94.6744 303.671 94.6353 303.303 94.7183C302.934 94.8013 302.596 95.0026 302.331 95.2968C302.066 95.5911 301.886 95.965 301.814 96.3715C301.742 96.778 301.782 97.1988 301.927 97.5808C302.072 97.9629 302.317 98.289 302.631 98.518C302.944 98.747 303.313 98.8687 303.689 98.8677C304.147 98.8647 304.59 98.6856 304.941 98.3615L305.028 98.4425V98.7057L306.501 100.326L306.961 99.8196L305.451 98.2147ZM303.684 98.2147C303.421 98.2157 303.163 98.1306 302.944 97.9702C302.724 97.8098 302.553 97.5813 302.452 97.3138C302.351 97.0462 302.324 96.7516 302.375 96.4673C302.426 96.183 302.553 95.9219 302.739 95.7169C302.926 95.512 303.163 95.3725 303.421 95.3162C303.68 95.2599 303.948 95.2894 304.191 95.4007C304.434 95.5121 304.642 95.7004 304.787 95.9418C304.933 96.1832 305.011 96.4668 305.01 96.7566C305.011 96.9484 304.977 97.1386 304.911 97.3161C304.845 97.4937 304.748 97.6549 304.624 97.7906C304.501 97.9263 304.354 98.0336 304.193 98.1064C304.032 98.1792 303.859 98.216 303.684 98.2147Z" fill="#444053"/>
<path d="M416.783 101.03C418.741 101.03 420.328 99.4436 420.328 97.4863C420.328 95.5291 418.741 93.9424 416.783 93.9424C414.825 93.9424 413.238 95.5291 413.238 97.4863C413.238 99.4436 414.825 101.03 416.783 101.03Z" fill="#919699"/>
<path d="M364.262 116.219H336.587C335.969 116.219 335.469 116.77 335.469 117.449V137.265C335.469 137.944 335.969 138.495 336.587 138.495H364.262C364.88 138.495 365.38 137.944 365.38 137.265V117.449C365.38 116.77 364.88 116.219 364.262 116.219Z" fill="white"/>
<path d="M411.577 116.219H373.484C373.329 116.219 373.203 116.357 373.203 116.528V119.454C373.203 119.624 373.329 119.763 373.484 119.763H411.577C411.732 119.763 411.858 119.624 411.858 119.454V116.528C411.858 116.357 411.732 116.219 411.577 116.219Z" fill="white"/>
<path d="M411.577 123.812H373.484C373.329 123.812 373.203 123.951 373.203 124.121V127.048C373.203 127.218 373.329 127.356 373.484 127.356H411.577C411.732 127.356 411.858 127.218 411.858 127.048V124.121C411.858 123.951 411.732 123.812 411.577 123.812Z" fill="white"/>
<path d="M411.577 131.406H373.484C373.329 131.406 373.203 131.545 373.203 131.715V134.641C373.203 134.812 373.329 134.95 373.484 134.95H411.577C411.732 134.95 411.858 134.812 411.858 134.641V131.715C411.858 131.545 411.732 131.406 411.577 131.406Z" fill="white"/>
<path d="M364.262 151.152H336.587C335.969 151.152 335.469 151.703 335.469 152.383V172.198C335.469 172.878 335.969 173.429 336.587 173.429H364.262C364.88 173.429 365.38 172.878 365.38 172.198V152.383C365.38 151.703 364.88 151.152 364.262 151.152Z" fill="white"/>
<path d="M411.577 151.152H373.484C373.329 151.152 373.203 151.291 373.203 151.461V154.387C373.203 154.558 373.329 154.696 373.484 154.696H411.577C411.732 154.696 411.858 154.558 411.858 154.387V151.461C411.858 151.291 411.732 151.152 411.577 151.152Z" fill="white"/>
<path d="M411.577 158.746H373.484C373.329 158.746 373.203 158.884 373.203 159.055V161.981C373.203 162.152 373.329 162.29 373.484 162.29H411.577C411.732 162.29 411.858 162.152 411.858 161.981V159.055C411.858 158.884 411.732 158.746 411.577 158.746Z" fill="white"/>
<path d="M411.554 166.34H373.507C373.339 166.34 373.203 166.489 373.203 166.674V169.55C373.203 169.734 373.339 169.884 373.507 169.884H411.554C411.722 169.884 411.858 169.734 411.858 169.55V166.674C411.858 166.489 411.722 166.34 411.554 166.34Z" fill="white"/>
<path d="M364.262 186.085H336.587C335.969 186.085 335.469 186.636 335.469 187.315V207.131C335.469 207.81 335.969 208.361 336.587 208.361H364.262C364.88 208.361 365.38 207.81 365.38 207.131V187.315C365.38 186.636 364.88 186.085 364.262 186.085Z" fill="white"/>
<path d="M411.554 186.085H373.507C373.339 186.085 373.203 186.235 373.203 186.419V189.295C373.203 189.479 373.339 189.629 373.507 189.629H411.554C411.722 189.629 411.858 189.479 411.858 189.295V186.419C411.858 186.235 411.722 186.085 411.554 186.085Z" fill="white"/>
<path d="M411.554 193.68H373.507C373.339 193.68 373.203 193.829 373.203 194.014V196.889C373.203 197.074 373.339 197.224 373.507 197.224H411.554C411.722 197.224 411.858 197.074 411.858 196.889V194.014C411.858 193.829 411.722 193.68 411.554 193.68Z" fill="white"/>
<path d="M411.554 201.273H373.507C373.339 201.273 373.203 201.423 373.203 201.608V204.483C373.203 204.668 373.339 204.817 373.507 204.817H411.554C411.722 204.817 411.858 204.668 411.858 204.483V201.608C411.858 201.423 411.722 201.273 411.554 201.273Z" fill="white"/>
<path d="M364.262 221.018H336.587C335.969 221.018 335.469 221.569 335.469 222.248V242.064C335.469 242.743 335.969 243.294 336.587 243.294H364.262C364.88 243.294 365.38 242.743 365.38 242.064V222.248C365.38 221.569 364.88 221.018 364.262 221.018Z" fill="white"/>
<path d="M411.554 221.018H373.507C373.339 221.018 373.203 221.168 373.203 221.352V224.228C373.203 224.412 373.339 224.562 373.507 224.562H411.554C411.722 224.562 411.858 224.412 411.858 224.228V221.352C411.858 221.168 411.722 221.018 411.554 221.018Z" fill="white"/>
<path d="M411.554 228.612H373.507C373.339 228.612 373.203 228.762 373.203 228.946V231.822C373.203 232.007 373.339 232.156 373.507 232.156H411.554C411.722 232.156 411.858 232.007 411.858 231.822V228.946C411.858 228.762 411.722 228.612 411.554 228.612Z" fill="white"/>
<path d="M411.554 236.207H373.507C373.339 236.207 373.203 236.356 373.203 236.541V239.416C373.203 239.601 373.339 239.75 373.507 239.75H411.554C411.722 239.75 411.858 239.601 411.858 239.416V236.541C411.858 236.356 411.722 236.207 411.554 236.207Z" fill="white"/>
<path d="M364.262 255.951H336.587C335.969 255.951 335.469 256.502 335.469 257.181V276.997C335.469 277.677 335.969 278.227 336.587 278.227H364.262C364.88 278.227 365.38 277.677 365.38 276.997V257.181C365.38 256.502 364.88 255.951 364.262 255.951Z" fill="white"/>
<path d="M411.554 255.951H373.507C373.339 255.951 373.203 256.101 373.203 256.285V259.161C373.203 259.346 373.339 259.495 373.507 259.495H411.554C411.722 259.495 411.858 259.346 411.858 259.161V256.285C411.858 256.101 411.722 255.951 411.554 255.951Z" fill="white"/>
<path d="M411.554 263.545H373.507C373.339 263.545 373.203 263.695 373.203 263.88V266.755C373.203 266.94 373.339 267.089 373.507 267.089H411.554C411.722 267.089 411.858 266.94 411.858 266.755V263.88C411.858 263.695 411.722 263.545 411.554 263.545Z" fill="white"/>
<path d="M411.554 271.139H373.507C373.339 271.139 373.203 271.289 373.203 271.473V274.349C373.203 274.534 373.339 274.683 373.507 274.683H411.554C411.722 274.683 411.858 274.534 411.858 274.349V271.473C411.858 271.289 411.722 271.139 411.554 271.139Z" fill="white"/>
<path opacity="0.1" d="M187.636 164.623H140.316V167.321H187.636V164.623Z" fill="#9ED9D9"/>
<path opacity="0.1" d="M149.079 150.357H144.523V164.624H149.079V150.357Z" fill="#9ED9D9"/>
<path opacity="0.1" d="M155.737 150.357H151.182V164.624H155.737V150.357Z" fill="#9ED9D9"/>
<path opacity="0.1" d="M162.396 150.357H157.84V164.624H162.396V150.357Z" fill="#9ED9D9"/>
<path opacity="0.1" d="M169.056 150.357H164.5V164.624H169.056V150.357Z" fill="#9ED9D9"/>
<path opacity="0.1" d="M175.714 150.357H171.158V164.624H175.714V150.357Z" fill="#9ED9D9"/>
<path opacity="0.1" d="M182.378 150.357H177.822V164.624H182.378V150.357Z" fill="#9ED9D9"/>
<path opacity="0.1" d="M149.079 153.055H144.523V154.599H149.079V153.055Z" fill="#9ED9D9"/>
<path opacity="0.1" d="M155.737 153.055H151.182V154.599H155.737V153.055Z" fill="#9ED9D9"/>
<path opacity="0.1" d="M162.396 153.055H157.84V154.599H162.396V153.055Z" fill="#9ED9D9"/>
<path opacity="0.1" d="M169.056 153.055H164.5V154.599H169.056V153.055Z" fill="#9ED9D9"/>
<path opacity="0.1" d="M175.714 153.055H171.158V154.599H175.714V153.055Z" fill="#9ED9D9"/>
<path opacity="0.1" d="M182.378 153.055H177.822V154.599H182.378V153.055Z" fill="#9ED9D9"/>
<path opacity="0.1" d="M149.079 159.996H144.523V161.54H149.079V159.996Z" fill="#9ED9D9"/>
<path opacity="0.1" d="M155.737 159.996H151.182V161.54H155.737V159.996Z" fill="#9ED9D9"/>
<path opacity="0.1" d="M162.396 159.996H157.84V161.54H162.396V159.996Z" fill="#9ED9D9"/>
<path opacity="0.1" d="M169.056 159.996H164.5V161.54H169.056V159.996Z" fill="#9ED9D9"/>
<path opacity="0.1" d="M175.714 159.996H171.158V161.54H175.714V159.996Z" fill="#9ED9D9"/>
<path opacity="0.1" d="M182.378 159.996H177.822V161.54H182.378V159.996Z" fill="#9ED9D9"/>
<path opacity="0.1" d="M291.384 171.564H244.064V174.263H291.384V171.564Z" fill="#9ED9D9"/>
<path opacity="0.1" d="M252.825 157.298H248.27V171.565H252.825V157.298Z" fill="#9ED9D9"/>
<path opacity="0.1" d="M259.485 157.298H254.93V171.565H259.485V157.298Z" fill="#9ED9D9"/>
<path opacity="0.1" d="M266.144 157.298H261.588V171.565H266.144V157.298Z" fill="#9ED9D9"/>
<path opacity="0.1" d="M272.806 157.298H268.25V171.565H272.806V157.298Z" fill="#9ED9D9"/>
<path opacity="0.1" d="M279.466 157.298H274.91V171.565H279.466V157.298Z" fill="#9ED9D9"/>
<path opacity="0.1" d="M286.124 157.298H281.568V171.565H286.124V157.298Z" fill="#9ED9D9"/>
<path opacity="0.1" d="M252.825 159.996H248.27V161.54H252.825V159.996Z" fill="#9ED9D9"/>
<path opacity="0.1" d="M259.485 159.996H254.93V161.54H259.485V159.996Z" fill="#9ED9D9"/>
<path opacity="0.1" d="M266.144 159.996H261.588V161.54H266.144V159.996Z" fill="#9ED9D9"/>
<path opacity="0.1" d="M272.806 159.996H268.25V161.54H272.806V159.996Z" fill="#9ED9D9"/>
<path opacity="0.1" d="M279.466 159.996H274.91V161.54H279.466V159.996Z" fill="#9ED9D9"/>
<path opacity="0.1" d="M286.124 159.996H281.568V161.54H286.124V159.996Z" fill="#9ED9D9"/>
<path opacity="0.1" d="M252.825 166.938H248.27V168.482H252.825V166.938Z" fill="#9ED9D9"/>
<path opacity="0.1" d="M259.485 166.938H254.93V168.482H259.485V166.938Z" fill="#9ED9D9"/>
<path opacity="0.1" d="M266.144 166.938H261.588V168.482H266.144V166.938Z" fill="#9ED9D9"/>
<path opacity="0.1" d="M272.806 166.938H268.25V168.482H272.806V166.938Z" fill="#9ED9D9"/>
<path opacity="0.1" d="M279.466 166.938H274.91V168.482H279.466V166.938Z" fill="#9ED9D9"/>
<path opacity="0.1" d="M286.124 166.938H281.568V168.482H286.124V166.938Z" fill="#9ED9D9"/>
<path opacity="0.1" d="M291.384 191.229H244.064V193.927H291.384V191.229Z" fill="#9ED9D9"/>
<path opacity="0.1" d="M252.825 176.962H248.27V191.229H252.825V176.962Z" fill="#9ED9D9"/>
<path opacity="0.1" d="M259.485 176.962H254.93V191.229H259.485V176.962Z" fill="#9ED9D9"/>
<path opacity="0.1" d="M266.144 176.962H261.588V191.229H266.144V176.962Z" fill="#9ED9D9"/>
<path opacity="0.1" d="M272.806 176.962H268.25V191.229H272.806V176.962Z" fill="#9ED9D9"/>
<path opacity="0.1" d="M279.466 176.962H274.91V191.229H279.466V176.962Z" fill="#9ED9D9"/>
<path opacity="0.1" d="M286.124 176.962H281.568V191.229H286.124V176.962Z" fill="#9ED9D9"/>
<path opacity="0.1" d="M252.825 179.66H248.27V181.204H252.825V179.66Z" fill="#9ED9D9"/>
<path opacity="0.1" d="M259.485 179.66H254.93V181.204H259.485V179.66Z" fill="#9ED9D9"/>
<path opacity="0.1" d="M266.144 179.66H261.588V181.204H266.144V179.66Z" fill="#9ED9D9"/>
<path opacity="0.1" d="M272.806 179.66H268.25V181.204H272.806V179.66Z" fill="#9ED9D9"/>
<path opacity="0.1" d="M279.466 179.66H274.91V181.204H279.466V179.66Z" fill="#9ED9D9"/>
<path opacity="0.1" d="M286.124 179.66H281.568V181.204H286.124V179.66Z" fill="#9ED9D9"/>
<path opacity="0.1" d="M252.825 186.602H248.27V188.146H252.825V186.602Z" fill="#9ED9D9"/>
<path opacity="0.1" d="M259.485 186.602H254.93V188.146H259.485V186.602Z" fill="#9ED9D9"/>
<path opacity="0.1" d="M266.144 186.602H261.588V188.146H266.144V186.602Z" fill="#9ED9D9"/>
<path opacity="0.1" d="M272.806 186.602H268.25V188.146H272.806V186.602Z" fill="#9ED9D9"/>
<path opacity="0.1" d="M279.466 186.602H274.91V188.146H279.466V186.602Z" fill="#9ED9D9"/>
<path opacity="0.1" d="M286.124 186.602H281.568V188.146H286.124V186.602Z" fill="#9ED9D9"/>
<path opacity="0.1" d="M169.345 195.137C168.992 194.639 168.669 194.117 168.378 193.573L175.194 192.342L167.831 192.403C167.125 190.711 166.739 188.879 166.698 187.018C166.657 185.157 166.961 183.306 167.592 181.579L177.462 187.209L168.346 179.837C169.194 178.2 170.341 176.774 171.714 175.647C173.087 174.521 174.657 173.719 176.325 173.292C177.993 172.865 179.723 172.822 181.407 173.166C183.091 173.51 184.693 174.233 186.11 175.29C187.528 176.347 188.732 177.715 189.647 179.308C190.561 180.901 191.166 182.685 191.424 184.548C191.682 186.411 191.587 188.312 191.145 190.133C190.703 191.953 189.924 193.653 188.856 195.127C189.411 195.897 189.886 196.732 190.274 197.618L181.429 202.681L190.858 199.202C191.518 201.353 191.68 203.651 191.331 205.888C190.981 208.125 190.131 210.231 188.856 212.016C190.301 214.032 191.201 216.454 191.453 219.006C191.705 221.558 191.298 224.136 190.28 226.445C189.262 228.755 187.674 230.703 185.697 232.065C183.72 233.428 181.434 234.151 179.101 234.151C176.767 234.151 174.482 233.428 172.504 232.065C170.527 230.703 168.939 228.755 167.921 226.445C166.903 224.136 166.497 221.558 166.748 219.006C167 216.454 167.9 214.032 169.345 212.016C167.624 209.608 166.688 206.633 166.688 203.569C166.688 200.505 167.624 197.53 169.345 195.122V195.137Z" fill="#9ED9D9"/>
<path opacity="0.1" d="M191.516 203.582C191.516 206.642 190.579 209.614 188.856 212.016C190.301 214.032 191.201 216.454 191.453 219.006C191.705 221.558 191.298 224.136 190.28 226.446C189.262 228.755 187.674 230.703 185.697 232.065C183.72 233.428 181.434 234.151 179.101 234.151C176.767 234.151 174.482 233.428 172.504 232.065C170.527 230.703 168.939 228.755 167.921 226.446C166.903 224.136 166.497 221.558 166.748 219.006C167 216.454 167.9 214.032 169.345 212.016C167.674 209.703 191.516 202.048 191.516 203.582Z" fill="#9ED9D9"/>
<path opacity="0.2" d="M181.088 237.776C181.11 237.812 181.13 237.849 181.148 237.887H176.933C176.956 237.852 176.969 237.811 176.992 237.776C176.63 237.081 176.442 236.293 176.449 235.492C176.447 234.943 176.533 234.399 176.703 233.882C176.937 233.923 177.227 233.968 177.563 234.009C178.541 234.116 179.526 234.116 180.504 234.009C180.786 233.979 181.076 233.938 181.373 233.887C181.371 233.896 181.371 233.904 181.373 233.913C181.541 234.421 181.625 234.957 181.622 235.497C181.631 236.295 181.447 237.082 181.088 237.776Z" fill="#3F3D56"/>
<path opacity="0.1" d="M165.939 237.887H142.47C142.42 237.741 142.374 237.584 142.332 237.432C141.506 234.506 141.601 231.359 142.604 228.501C140.313 226.758 138.62 224.219 137.798 221.291C136.976 218.363 137.072 215.216 138.071 212.356C137.6 211.999 137.152 211.604 136.732 211.176L142.908 207.789L135.885 210.24C134.756 208.853 133.896 207.228 133.358 205.464C132.82 203.699 132.615 201.832 132.756 199.977L143.713 202.154L133.028 198.069C133.396 196.226 134.107 194.488 135.116 192.963C136.125 191.438 137.41 190.159 138.891 189.207C140.371 188.255 142.014 187.65 143.717 187.431C145.42 187.211 147.146 187.382 148.786 187.932C150.426 188.482 151.944 189.4 153.246 190.627C154.548 191.855 155.605 193.365 156.351 195.064C157.096 196.763 157.514 198.613 157.578 200.498C157.642 202.383 157.35 204.262 156.722 206.017C157.463 206.585 158.147 207.238 158.761 207.966L151.665 215.667L159.741 209.278C160.951 211.12 161.725 213.265 161.991 215.52C162.258 217.774 162.01 220.066 161.269 222.188C163.497 223.886 165.16 226.339 166.003 229.173C166.847 232.008 166.824 235.068 165.939 237.887Z" fill="#9ED9D9"/>
<path opacity="0.1" d="M165.94 237.887H142.471C142.42 237.741 142.374 237.584 142.333 237.432C141.506 234.506 141.601 231.359 142.604 228.501C140.395 226.82 161.117 211.758 161.527 213.227C162.353 216.154 162.258 219.302 161.255 222.162C163.491 223.86 165.16 226.316 166.006 229.156C166.852 231.996 166.829 235.063 165.94 237.887Z" fill="#9ED9D9"/>
<path opacity="0.1" d="M272.125 219.388C270.7 222.019 268.509 224.046 265.908 225.139C266.019 226.113 266.036 227.097 265.959 228.075L256.014 227.417L265.729 229.736C265.443 231.193 264.942 232.588 264.247 233.867C263.4 235.434 262.273 236.794 260.934 237.867H247.395V238.257H233.59C233.617 238.125 233.645 237.998 233.677 237.867C234.181 235.772 235.13 233.839 236.446 232.228C237.762 230.616 239.408 229.371 241.247 228.597C240.894 225.558 241.479 222.476 242.909 219.847C244.338 217.217 246.529 215.192 249.13 214.097C249.057 213.471 249.023 212.84 249.029 212.209L255.448 214.998L249.098 210.892C249.285 209.042 249.814 207.253 250.652 205.636C251.49 204.018 252.619 202.606 253.971 201.486L259.82 211.905L255.434 200.433C257.823 198.978 260.581 198.43 263.281 198.873C265.982 199.316 268.474 200.725 270.374 202.882C272.274 205.039 273.475 207.825 273.791 210.808C274.108 213.792 273.522 216.807 272.125 219.388Z" fill="#9ED9D9"/>
<path opacity="0.1" d="M264.247 233.887C263.4 235.454 262.273 236.815 260.934 237.887H247.395V238.277H233.59C233.617 238.145 233.645 238.019 233.677 237.887C234.181 235.792 235.13 233.86 236.446 232.248C237.762 230.636 239.408 229.392 241.247 228.617C241.132 227.605 243.806 227.756 247.372 228.415C254.362 229.706 264.721 233.017 264.247 233.887Z" fill="#9ED9D9"/>
<path d="M232.532 212.797C232.959 212.988 233.338 213.132 233.642 213.236C233.493 213.683 233.27 214.322 232.968 215.095C232.354 216.664 231.419 218.775 230.13 220.953C227.534 225.344 223.602 229.842 218.129 230.935C212.849 231.989 208.451 228.023 205.762 223.019C204.435 220.55 203.583 217.921 203.292 215.734C203.146 214.64 203.144 213.685 203.276 212.929C203.41 212.163 203.666 211.684 203.96 211.428C205.07 210.463 205.73 209.046 206.124 207.561C206.52 206.067 206.667 204.425 206.692 202.919C206.717 201.409 206.621 200.01 206.519 198.99C206.487 198.671 206.455 198.389 206.425 198.151L226.266 197.448C225.445 200.448 225.41 202.941 225.876 205.005C226.395 207.299 227.523 209.012 228.792 210.268C230.056 211.519 231.456 212.315 232.532 212.797Z" fill="white" stroke="#7A7A7A" stroke-width="1.5"/>
<path opacity="0.1" d="M205.566 197.431C205.566 197.431 207.269 207.556 203.468 210.862C199.667 214.168 206.689 233.984 218.276 231.67C229.863 229.357 234.585 212.735 234.585 212.735C234.585 212.735 222.979 210.093 227.282 196.661L205.566 197.431Z" fill="#3E4345"/>
<path d="M234.284 183.725C234.284 195.053 225.952 204.112 215.822 204.112C205.691 204.112 197.359 195.053 197.359 183.725C197.359 172.397 205.691 163.338 215.822 163.338C225.952 163.338 234.284 172.397 234.284 183.725Z" fill="white" stroke="#7A7A7A" stroke-width="1.5"/>
<path d="M246.895 223.909V223.909V237.777H184.455V224.562V224.562C184.455 222.911 184.897 221.3 185.722 219.93C186.547 218.561 187.716 217.497 189.076 216.864L189.077 216.864L190.895 216.013L190.895 216.013C195.475 213.866 201.088 211.179 202.954 210.044C203.168 209.925 203.37 209.783 203.556 209.621C203.554 209.644 203.552 209.671 203.55 209.7C203.54 209.832 203.529 210.024 203.519 210.265L203.519 210.268C203.463 211.909 203.537 216.002 205.383 219.569C206.31 221.363 207.692 223.034 209.735 224.185C211.78 225.336 214.448 225.944 217.914 225.673C224.66 225.156 228.266 222.37 230.143 219.27C231.998 216.205 232.115 212.913 232.046 211.42C232.045 211.386 232.044 211.352 232.043 211.318C232.691 211.521 233.328 211.767 233.95 212.055L233.961 212.06L233.972 212.064C235.347 212.624 237.049 213.352 238.541 214.045C240.055 214.749 241.29 215.389 241.782 215.772L241.783 215.773C242.144 216.052 242.575 216.336 243.032 216.618L243.033 216.619C243.512 216.913 243.96 217.264 244.37 217.668C245.162 218.45 245.797 219.409 246.233 220.485C246.669 221.561 246.895 222.728 246.895 223.909ZM203.677 209.501L204.065 209.54L203.677 209.501C203.677 209.501 203.677 209.501 203.677 209.501Z" fill="#9ED9D9" stroke="#3E4345"/>
<path opacity="0.1" d="M234.161 211.601C233.043 217.302 229.532 227.979 216.877 228.258C203.394 228.551 202.611 213.798 202.699 209.611C202.902 209.504 203.092 209.37 203.265 209.211C204.268 208.113 204.066 209.54 204.066 209.54C204.066 209.54 202.368 226.384 217.871 225.174C233.374 223.964 231.469 210.644 231.469 210.644C231.469 210.563 232.624 211.004 234.161 211.601Z" fill="#3E4345"/>
<path d="M193.081 184.783C193.719 184.608 194.39 184.647 195.008 184.895C195.625 185.143 196.161 185.589 196.546 186.175C197.246 187.254 197.352 188.555 197.439 189.8C198.272 189.993 198.741 188.955 198.82 188.17C199.128 184.976 199.151 181.72 200.126 178.632C201.102 175.544 203.233 172.557 206.505 171.377C207.622 170.951 208.817 170.826 209.988 171.012C210.683 171.139 211.336 171.407 212.027 171.519C214.42 171.954 217.02 170.709 219.261 171.574C220.669 172.121 221.562 173.382 222.22 174.642C222.506 175.322 222.895 175.944 223.37 176.48C224.323 177.422 225.814 177.665 227.18 177.959C228.547 178.252 230.038 178.764 230.622 179.923C231.147 180.971 230.76 182.181 230.586 183.315C230.315 185.111 230.588 186.956 231.363 188.565C231.616 189.071 232.132 189.684 232.744 189.517C233.018 189.415 233.25 189.208 233.397 188.935C234.966 186.515 234.925 183.366 236.895 181.184C237.553 180.455 238.404 179.887 239.044 179.158C239.528 178.618 239.883 177.954 240.077 177.227C240.271 176.499 240.299 175.729 240.157 174.987C239.803 173.316 238.588 171.949 237.608 170.481C236.335 168.621 235.408 166.503 234.879 164.249C234.787 163.986 234.787 163.696 234.879 163.433C235.065 163.168 235.304 162.953 235.578 162.806C236.112 162.412 236.497 161.818 236.661 161.135C236.825 160.452 236.758 159.727 236.471 159.095C235.914 157.844 234.69 156.892 233.31 156.325C231.91 155.819 230.464 155.48 228.998 155.313C228.032 155.465 226.9 154.862 226.6 154.012C226.467 153.632 226.467 153.222 226.334 152.842C226.152 152.461 225.891 152.133 225.57 151.886C225.25 151.64 224.88 151.481 224.493 151.425C223.67 151.278 222.827 151.344 222.031 151.617C221.111 151.9 220.066 152.326 219.27 151.83C218.851 151.571 218.621 151.101 218.17 150.888C217.25 150.463 216.302 151.323 215.644 152.032C215.01 152.776 214.231 153.352 213.366 153.718C212.909 153.909 212.42 153.99 211.932 153.954C211.445 153.918 210.97 153.767 210.54 153.51C209.91 153.07 209.592 152.361 209.091 151.799C208.143 150.87 206.931 150.333 205.662 150.28C204.358 150.204 203.051 150.362 201.792 150.746C199.39 151.39 197.096 152.45 194.995 153.885C193.939 154.524 193.043 155.44 192.386 156.553C191.998 157.406 191.798 158.348 191.802 159.302C191.701 162.294 192.603 165.443 194.954 167.539C193.518 168.198 193.035 169.813 192.699 171.245C192.161 173.534 191.622 175.857 191.825 178.186C191.926 179.391 192.225 180.596 192.064 181.796C191.935 182.361 191.864 182.94 191.852 183.523C191.92 183.843 192.073 184.135 192.292 184.359C192.511 184.584 192.786 184.731 193.081 184.783Z" fill="#3E4345"/>
<g opacity="0.1">
<path opacity="0.1" d="M239.859 174.045C239.652 174.541 239.372 174.996 239.03 175.392C238.391 176.131 237.539 176.703 236.881 177.417C234.912 179.584 234.953 182.753 233.384 185.173C233.237 185.447 233.005 185.652 232.73 185.75C232.132 185.922 231.617 185.325 231.35 184.798C231.046 184.157 230.816 183.477 230.664 182.773C230.632 182.95 230.6 183.128 230.572 183.279C230.302 185.076 230.575 186.92 231.35 188.53C231.603 189.036 232.118 189.648 232.73 189.481C233.005 189.379 233.236 189.173 233.384 188.899C234.953 186.479 234.912 183.33 236.881 181.148C237.539 180.419 238.391 179.852 239.03 179.123C239.514 178.583 239.869 177.919 240.064 177.191C240.258 176.463 240.286 175.694 240.144 174.951C240.073 174.64 239.978 174.337 239.859 174.045Z" fill="#3E4345"/>
<path opacity="0.1" d="M235.569 159.059C235.294 159.204 235.054 159.419 234.87 159.687C234.778 159.947 234.778 160.236 234.87 160.497C235.051 161.283 235.284 162.055 235.565 162.805C236.098 162.412 236.483 161.818 236.647 161.135C236.812 160.452 236.744 159.727 236.457 159.094C236.368 158.886 236.26 158.687 236.135 158.502C235.972 158.717 235.781 158.904 235.569 159.059Z" fill="#3E4345"/>
<path opacity="0.1" d="M194.982 163.753C193.351 162.275 192.277 160.184 191.968 157.885C191.885 158.338 191.839 158.799 191.83 159.262C191.724 161.473 192.254 163.664 193.344 165.525C193.673 164.732 194.256 164.102 194.982 163.753Z" fill="#3E4345"/>
<path opacity="0.1" d="M230.586 179.584C230.76 178.445 231.147 177.235 230.622 176.192C230.038 175.027 228.547 174.521 227.18 174.228C225.813 173.934 224.322 173.686 223.37 172.749C222.895 172.213 222.506 171.591 222.219 170.911C221.571 169.651 220.669 168.38 219.261 167.843C217.019 166.978 214.419 168.218 212.027 167.788C211.336 167.661 210.683 167.398 209.988 167.281C208.817 167.093 207.622 167.218 206.504 167.646C203.233 168.831 201.102 171.818 200.126 174.901C199.151 177.984 199.128 181.239 198.819 184.439C198.741 185.219 198.272 186.262 197.439 186.069C197.352 184.819 197.246 183.538 196.546 182.439C196.161 181.854 195.624 181.409 195.007 181.162C194.389 180.914 193.719 180.876 193.081 181.052C192.694 180.957 192.351 180.715 192.11 180.369C192.161 180.833 192.161 181.302 192.11 181.766C191.981 182.331 191.91 182.91 191.898 183.492C191.958 183.816 192.104 184.113 192.318 184.345C192.532 184.577 192.804 184.733 193.099 184.794C193.737 184.618 194.408 184.657 195.026 184.905C195.644 185.153 196.18 185.599 196.565 186.186C197.264 187.264 197.37 188.565 197.457 189.811C198.29 190.003 198.76 188.965 198.838 188.181C199.146 184.986 199.169 181.731 200.145 178.642C201.12 175.554 203.251 172.567 206.523 171.387C207.641 170.961 208.835 170.836 210.006 171.023C210.701 171.149 211.355 171.418 212.045 171.529C214.438 171.964 217.038 170.719 219.279 171.585C220.687 172.132 221.58 173.392 222.238 174.653C222.524 175.333 222.913 175.954 223.388 176.491C224.341 177.432 225.832 177.675 227.199 177.969C228.565 178.263 229.96 178.738 230.572 179.812C230.549 179.736 230.572 179.66 230.586 179.584Z" fill="#3E4345"/>
<path opacity="0.1" d="M192.092 178.009C192.167 177.066 192.116 176.116 191.94 175.189C191.805 176.168 191.775 177.16 191.852 178.146C191.852 178.399 191.903 178.652 191.935 178.9C191.986 178.602 192.055 178.308 192.092 178.009Z" fill="#3E4345"/>
</g>
<path d="M169.57 258.705V249.567C169.57 249.499 169.595 249.433 169.639 249.384C169.683 249.336 169.743 249.309 169.805 249.309H170.748C170.811 249.309 170.87 249.336 170.914 249.384C170.958 249.433 170.983 249.499 170.983 249.567V253.369L174.812 249.466C174.902 249.383 175.011 249.33 175.127 249.313C175.243 249.295 175.362 249.314 175.468 249.366C175.575 249.419 175.667 249.504 175.732 249.611C175.797 249.718 175.834 249.843 175.838 249.972V258.25C175.834 258.379 175.797 258.504 175.732 258.611C175.667 258.718 175.575 258.803 175.468 258.855C175.362 258.908 175.243 258.927 175.127 258.909C175.011 258.892 174.902 258.839 174.812 258.756L170.983 254.878V258.66C170.983 258.728 170.958 258.794 170.914 258.842C170.87 258.891 170.811 258.918 170.748 258.918H169.805C169.749 258.919 169.695 258.898 169.652 258.859C169.609 258.82 169.58 258.766 169.57 258.705Z" fill="#5E6366"/>
<path d="M262.08 249.567V258.705C262.08 258.74 262.074 258.774 262.062 258.805C262.05 258.837 262.032 258.866 262.01 258.89C261.987 258.914 261.961 258.933 261.932 258.945C261.903 258.958 261.872 258.964 261.841 258.964H260.92C260.858 258.964 260.798 258.936 260.754 258.888C260.71 258.84 260.686 258.774 260.686 258.705V254.903L256.857 258.802C256.766 258.884 256.657 258.936 256.541 258.954C256.424 258.971 256.306 258.952 256.199 258.9C256.092 258.847 256 258.763 255.934 258.656C255.869 258.549 255.831 258.424 255.826 258.295V249.987C255.831 249.858 255.869 249.734 255.934 249.627C256 249.52 256.092 249.436 256.199 249.383C256.306 249.33 256.424 249.312 256.541 249.329C256.657 249.346 256.766 249.399 256.857 249.481L260.686 253.359V249.582C260.686 249.514 260.71 249.448 260.754 249.4C260.798 249.351 260.858 249.324 260.92 249.324H261.841C261.901 249.323 261.96 249.347 262.005 249.393C262.05 249.438 262.076 249.5 262.08 249.567Z" fill="#5E6366"/>
<path d="M214.262 259.1H212.389C212.145 259.1 211.911 258.994 211.738 258.804C211.566 258.614 211.469 258.356 211.469 258.088V250.524C211.469 250.255 211.566 249.998 211.738 249.808C211.911 249.618 212.145 249.511 212.389 249.511H214.262C214.506 249.511 214.74 249.618 214.913 249.808C215.085 249.998 215.182 250.255 215.182 250.524V258.088C215.182 258.356 215.085 258.614 214.913 258.804C214.74 258.994 214.506 259.1 214.262 259.1ZM220.198 258.088V250.524C220.198 250.255 220.101 249.998 219.929 249.808C219.756 249.618 219.522 249.511 219.278 249.511H217.387C217.143 249.511 216.908 249.618 216.736 249.808C216.563 249.998 216.466 250.255 216.466 250.524V258.088C216.466 258.356 216.563 258.614 216.736 258.804C216.908 258.994 217.143 259.1 217.387 259.1H219.26C219.382 259.103 219.504 259.079 219.617 259.029C219.731 258.979 219.835 258.905 219.922 258.811C220.01 258.717 220.079 258.604 220.127 258.48C220.174 258.356 220.198 258.222 220.198 258.088Z" fill="#5E6366"/>
<path opacity="0.6" d="M271.044 237.249H160.602V238.601H271.044V237.249Z" fill="#5E6366"/>
<path d="M194.706 241.127C196.315 241.127 197.619 239.692 197.619 237.923C197.619 236.153 196.315 234.718 194.706 234.718C193.097 234.718 191.793 236.153 191.793 237.923C191.793 239.692 193.097 241.127 194.706 241.127Z" fill="#5E6366"/>
<path d="M194.705 237.249H160.602V238.601H194.705V237.249Z" fill="#444053"/>
<path d="M440.425 389.821C455.54 389.821 467.792 387.228 467.792 384.029C467.792 380.83 455.54 378.237 440.425 378.237C425.311 378.237 413.059 380.83 413.059 384.029C413.059 387.228 425.311 389.821 440.425 389.821Z" fill="#9ED9D9"/>
<path d="M439.97 386.156C441.728 386.156 443.154 384.102 443.154 381.569C443.154 379.036 441.728 376.982 439.97 376.982C438.211 376.982 436.785 379.036 436.785 381.569C436.785 384.102 438.211 386.156 439.97 386.156Z" fill="#3F3D56"/>
<path d="M439.97 380.546C441.728 380.546 443.154 378.492 443.154 375.959C443.154 373.426 441.728 371.372 439.97 371.372C438.211 371.372 436.785 373.426 436.785 375.959C436.785 378.492 438.211 380.546 439.97 380.546Z" fill="#3F3D56"/>
<path d="M439.97 374.941C441.728 374.941 443.154 372.888 443.154 370.354C443.154 367.821 441.728 365.768 439.97 365.768C438.211 365.768 436.785 367.821 436.785 370.354C436.785 372.888 438.211 374.941 439.97 374.941Z" fill="#3F3D56"/>
<path d="M439.97 369.332C441.728 369.332 443.154 367.278 443.154 364.745C443.154 362.212 441.728 360.158 439.97 360.158C438.211 360.158 436.785 362.212 436.785 364.745C436.785 367.278 438.211 369.332 439.97 369.332Z" fill="#3F3D56"/>
<path d="M439.97 363.723C441.728 363.723 443.154 361.669 443.154 359.136C443.154 356.602 441.728 354.549 439.97 354.549C438.211 354.549 436.785 356.602 436.785 359.136C436.785 361.669 438.211 363.723 439.97 363.723Z" fill="#3F3D56"/>
<path d="M439.97 358.113C441.728 358.113 443.154 356.059 443.154 353.526C443.154 350.993 441.728 348.939 439.97 348.939C438.211 348.939 436.785 350.993 436.785 353.526C436.785 356.059 438.211 358.113 439.97 358.113Z" fill="#3F3D56"/>
<path d="M439.97 352.503C441.728 352.503 443.154 350.45 443.154 347.916C443.154 345.383 441.728 343.33 439.97 343.33C438.211 343.33 436.785 345.383 436.785 347.916C436.785 350.45 438.211 352.503 439.97 352.503Z" fill="#3F3D56"/>
<path d="M451.894 309.541C452.329 308.929 452.725 308.287 453.082 307.617L444.706 306.098L453.763 306.174C454.63 304.094 455.103 301.842 455.153 299.554C455.203 297.267 454.828 294.992 454.053 292.869L441.913 299.805L453.114 290.748C452.065 288.751 450.653 287.015 448.966 285.645C447.28 284.275 445.356 283.303 443.313 282.787C441.27 282.272 439.152 282.225 437.092 282.649C435.032 283.073 433.073 283.96 431.338 285.253C429.603 286.547 428.129 288.22 427.007 290.168C425.885 292.115 425.14 294.297 424.818 296.575C424.496 298.854 424.604 301.181 425.135 303.411C425.666 305.642 426.609 307.728 427.905 309.541C427.23 310.483 426.647 311.502 426.166 312.578L437.035 318.79L425.448 314.512C424.635 317.158 424.433 319.985 424.862 322.737C425.291 325.49 426.337 328.082 427.905 330.278C426.136 332.754 425.036 335.729 424.73 338.861C424.424 341.993 424.926 345.156 426.177 347.99C427.429 350.823 429.379 353.212 431.806 354.883C434.233 356.554 437.039 357.441 439.902 357.441C442.765 357.441 445.571 356.554 447.998 354.883C450.425 353.212 452.376 350.823 453.627 347.99C454.879 345.156 455.38 341.993 455.075 338.861C454.769 335.729 453.668 332.754 451.899 330.278C454.013 327.318 455.162 323.663 455.162 319.899C455.162 316.135 454.013 312.48 451.899 309.52L451.894 309.541Z" fill="#9ED9D9"/>
<path opacity="0.1" d="M424.643 319.919C424.636 323.685 425.786 327.342 427.905 330.298C426.136 332.775 425.035 335.749 424.73 338.881C424.424 342.013 424.926 345.177 426.177 348.01C427.428 350.843 429.379 353.232 431.806 354.904C434.233 356.575 437.039 357.461 439.902 357.461C442.765 357.461 445.571 356.575 447.998 354.904C450.425 353.232 452.376 350.843 453.627 348.01C454.878 345.177 455.38 342.013 455.074 338.881C454.769 335.749 453.668 332.775 451.899 330.298C453.942 327.448 424.643 318.036 424.643 319.919Z" fill="#3E4345"/>
<path opacity="0.1" d="M133.452 420.997C158.613 420.997 179.01 416.237 179.01 410.366C179.01 404.494 158.613 399.734 133.452 399.734C108.291 399.734 87.8945 404.494 87.8945 410.366C87.8945 416.237 108.291 420.997 133.452 420.997Z" fill="#9ED9D9"/>
<path d="M148.706 409.13C147.786 408.761 146.801 408.821 145.839 408.705C143.842 408.451 141.983 407.459 140.566 405.89C139.654 404.876 138.938 403.671 138.458 402.346C138.762 402.468 139.066 402.594 139.378 402.731C138.458 400.367 139.424 397.714 140.271 395.324C141.707 391.274 143.064 387.202 144.344 383.108C147.565 372.734 150.326 361.945 150.266 350.908C150.266 346.919 149.599 343.147 149.47 339.163C149.374 336.206 149.788 333.255 149.769 330.293C149.769 329.878 149.769 329.468 149.742 329.052C150.565 328.26 151.212 327.269 151.632 326.158C152.053 325.047 152.235 323.844 152.167 322.643C152.12 322.017 152.039 321.395 151.923 320.78C151.76 319.711 151.545 318.654 151.279 317.611C150.975 316.512 150.561 315.459 150.206 314.386C149.521 312.305 149.056 310.138 148.472 308.022C148.688 308.046 148.899 308.109 149.097 308.209C148.95 308.019 148.849 307.791 148.803 307.546C148.459 306.199 148.274 304.808 148.251 303.409L148.642 303.217C148.818 301.851 148.754 300.461 148.453 299.121C148.674 296.949 149.019 294.762 149.231 292.6C149.309 291.79 149.277 290.773 148.6 290.575C148.462 289.416 148.407 288.241 148.352 287.072C148.159 282.991 147.967 278.912 147.777 274.835C147.583 270.739 147.39 266.649 147.317 262.548C147.266 259.946 147.238 257.252 146.677 254.761C146.774 253.568 146.663 252.365 146.35 251.217C145.494 248.235 142.834 245.871 140.138 246.038C139.334 244.772 138.339 243.666 137.197 242.768C137.736 241.441 138.38 240.074 138.909 239.001C143.226 237.457 146.382 232.774 146.382 227.205C146.389 225.166 145.955 223.155 145.117 221.337C145.196 221.113 145.264 220.885 145.319 220.653C145.55 219.56 145.478 218.415 145.112 217.368C144.983 216.965 144.829 216.573 144.652 216.193C144.532 215.94 144.404 215.687 144.27 215.444L144.035 215.054C143.893 214.816 143.746 214.588 143.575 214.365C143.248 213.883 142.898 213.419 142.526 212.978C142.068 212.433 141.562 211.937 141.017 211.5C140.277 210.895 139.43 210.465 138.532 210.239C138.012 210.126 137.483 210.074 136.953 210.082C136.636 210.082 136.314 210.082 135.996 210.113C135.352 210.153 134.712 210.204 134.073 210.199C133.861 210.199 133.645 210.199 133.433 210.163C132.307 209.998 131.193 209.743 130.101 209.399L129.549 209.272C129.36 209.232 129.176 209.196 128.988 209.171C128.483 209.097 127.974 209.063 127.464 209.07H126.954C126.444 209.097 125.935 209.154 125.431 209.242L124.924 209.328C123.646 209.548 122.4 209.955 121.22 210.538C121.068 210.614 120.912 210.7 120.76 210.791L120.668 210.847C120.543 210.918 120.419 210.994 120.3 211.075L120.23 211.12L119.839 211.394L119.807 211.419C116.153 214.122 113.995 219.246 113.447 224.329C112.835 230.035 113.908 235.786 114.98 241.401L115.946 246.463C115.988 246.691 116.034 246.914 116.075 247.142C114.716 248.368 113.671 249.963 113.043 251.769C112.122 254.301 112.099 257.039 112.173 259.784C112.173 260.34 112.2 260.897 112.251 261.454C112.136 262.507 112.035 263.565 111.97 264.629C111.68 269.539 112.223 274.476 112.081 279.397C111.97 283.189 111.45 286.991 111.703 290.758C111.924 294.099 112.739 297.339 113.544 300.564L114.704 305.161C114.741 305.399 114.842 305.619 114.994 305.794C115.184 305.935 115.417 305.987 115.643 305.941C114.888 307.826 114.258 309.768 113.756 311.753C113.409 312.968 113.181 314.221 113.075 315.489C112.923 317.808 113.411 320.112 113.898 322.365C114.635 325.74 115.368 329.128 116.098 332.531C116.614 334.91 117.127 337.288 117.64 339.664C118.652 344.352 119.669 349.071 119.858 353.895C119.963 356.319 119.808 358.747 119.398 361.13C118.07 368.268 117.877 375.604 118.827 382.814C119.595 388.897 120.841 394.895 122.55 400.741C122.923 400.524 123.3 400.321 123.686 400.134L123.525 400.463C122.995 401.475 122.504 402.513 122.053 403.576C121.749 404.267 121.486 404.979 121.266 405.708C120.677 407.733 120.585 409.89 120.502 412.021C120.46 412.431 120.493 412.846 120.599 413.241C120.852 414.006 121.579 414.396 122.255 414.608C124.243 415.231 126.309 415.008 128.376 414.715C128.385 414.765 128.399 414.814 128.417 414.861C128.67 415.626 129.393 416.016 130.074 416.228C132.918 417.119 135.918 416.279 138.849 415.975C141.781 415.671 144.661 415.894 147.482 415.15C147.903 415.051 148.306 414.88 148.679 414.644C149.404 414.086 149.936 413.274 150.188 412.34C150.276 412.098 150.335 411.845 150.363 411.586C150.478 410.477 149.617 409.5 148.706 409.13ZM138.974 362.244C138.815 363.43 138.505 364.586 138.053 365.677C135.84 370.855 134.252 376.331 133.332 381.963C132.728 385.684 132.379 389.45 132.287 393.228C132.241 396.013 132.338 398.929 131.284 401.43L131.666 401.364C131.546 401.607 131.431 401.87 131.321 402.063L131.266 402.174C130.628 400.98 130.202 399.664 130.009 398.296C130.009 398.25 129.802 398.215 129.485 398.195C128.184 390.198 127.733 382.061 128.141 373.949C128.147 372.965 128.271 371.986 128.509 371.038C128.744 370.223 129.14 369.479 129.429 368.689C129.889 367.362 130.198 365.978 130.35 364.568C130.851 360.964 131.045 357.316 130.93 353.673C130.819 350.235 131.542 346.818 132.158 343.395C132.453 341.77 132.724 340.14 132.872 338.51L132.899 338.181C135.637 343.15 137.55 348.615 138.55 354.321C139.106 356.915 139.249 359.596 138.974 362.244ZM119.278 289.077L119.425 289.218C119.87 289.649 120.28 290.122 120.649 290.631C120.833 290.853 120.966 291.12 121.036 291.411C121.174 292.15 120.617 292.778 120.161 293.319C119.964 293.554 119.778 293.801 119.605 294.059C119.506 292.398 119.402 290.737 119.292 289.077H119.278Z" fill="url(#paint0_linear)"/>
<path d="M120.073 296.878C120.08 296.978 120.086 297.077 120.092 297.176C120.178 298.484 120.263 299.792 120.4 301.091C120.57 302.668 120.888 304.257 121.197 305.806C121.212 305.88 121.227 305.954 121.242 306.028L120.842 306.067M120.842 306.067C120.83 306.007 120.817 305.946 120.805 305.885C120.496 304.338 120.175 302.73 120.002 301.134L120.002 301.133C119.864 299.826 119.779 298.51 119.693 297.204C119.687 297.104 119.68 297.004 119.674 296.905L119.674 296.904C119.479 293.907 119.264 290.91 119.05 287.908C118.95 286.521 118.851 285.133 118.754 283.744C118.754 283.744 118.754 283.743 118.754 283.743L118.179 276.05L118.178 276.049C117.934 272.703 117.683 269.378 116.927 266.168L116.927 266.168C116.248 263.263 114.968 260.579 113.196 258.32L112.799 261.688L112.799 261.688L112.796 261.715C112.627 263.166 112.459 264.599 112.369 266.041L112.369 266.041C112.216 268.454 112.28 270.877 112.366 273.319C112.375 273.565 112.384 273.811 112.393 274.057C112.471 276.251 112.551 278.461 112.484 280.669L112.484 280.67C112.443 281.973 112.35 283.281 112.258 284.579C112.217 285.159 112.176 285.738 112.14 286.314C112.023 288.185 111.954 290.04 112.083 291.889C112.315 295.155 113.16 298.339 114.017 301.534L114.017 301.534L115.232 306.091L115.236 306.108L115.239 306.125C115.265 306.273 115.326 306.406 115.411 306.512C115.544 306.585 115.692 306.604 115.832 306.57L115.859 306.563L115.887 306.56L120.842 306.067Z" fill="#9ED9D9" stroke="#3E4345" stroke-width="0.8"/>
<path opacity="0.1" d="M112.908 257.343L112.402 261.642C112.232 263.1 112.061 264.553 111.969 266.016C111.661 270.886 112.232 275.777 112.084 280.657C111.965 284.414 111.422 288.165 111.684 291.917C111.919 295.228 112.775 298.448 113.631 301.637L114.845 306.194C114.887 306.432 114.993 306.651 115.149 306.822C115.383 306.974 115.661 307.023 115.927 306.958L121.32 306.422C120.975 304.68 120.593 302.878 120.4 301.091C120.252 299.693 120.165 298.286 120.073 296.878C119.788 292.494 119.461 288.11 119.153 283.715L118.577 276.02C118.334 272.678 118.08 269.322 117.317 266.077C116.55 262.799 115.032 259.792 112.908 257.343Z" fill="#3E4345"/>
<path d="M122.517 403.667C122.2 404.353 121.923 405.06 121.688 405.784C121.072 407.784 120.98 409.93 120.888 412.041C120.847 412.448 120.881 412.86 120.989 413.251C121.256 414.011 122.02 414.396 122.733 414.603C125.719 415.489 128.867 414.659 131.936 414.355C135.006 414.051 138.038 414.274 141.002 413.54C141.44 413.447 141.863 413.285 142.258 413.059C143.009 412.521 143.569 411.717 143.846 410.781C143.935 410.541 143.995 410.289 144.025 410.031C144.122 408.918 143.243 407.956 142.286 407.591C141.329 407.227 140.284 407.282 139.276 407.171C137.201 406.937 135.253 405.957 133.736 404.381C132.218 402.806 131.215 400.724 130.883 398.458C130.846 398.215 125.894 398.362 125.361 398.676C124.753 399.045 124.385 399.962 124.04 400.584C123.497 401.587 122.989 402.614 122.517 403.667Z" fill="#5E6366"/>
<path opacity="0.1" d="M122.517 403.667C122.2 404.353 121.923 405.06 121.688 405.784C121.072 407.784 120.98 409.93 120.888 412.041C120.847 412.448 120.881 412.86 120.989 413.251C121.256 414.011 122.02 414.396 122.733 414.603C125.719 415.489 128.867 414.659 131.936 414.355C135.006 414.051 138.038 414.274 141.002 413.54C141.44 413.447 141.863 413.285 142.258 413.059C143.009 412.521 143.569 411.717 143.846 410.781C143.935 410.541 143.995 410.289 144.025 410.031C144.122 408.918 143.243 407.956 142.286 407.591C141.329 407.227 140.284 407.282 139.276 407.171C137.201 406.937 135.253 405.957 133.736 404.381C132.218 402.806 131.215 400.724 130.883 398.458C130.846 398.215 125.894 398.362 125.361 398.676C124.753 399.045 124.385 399.962 124.04 400.584C123.497 401.587 122.989 402.614 122.517 403.667Z" fill="#3E4345"/>
<path d="M130.731 405.278C130.412 405.96 130.136 406.666 129.903 407.389C129.281 409.414 129.189 411.535 129.102 413.646C129.059 414.053 129.093 414.465 129.203 414.856C129.465 415.616 130.229 416.001 130.943 416.213C133.929 417.094 137.081 416.264 140.146 415.96C143.211 415.656 146.253 415.879 149.212 415.145C149.651 415.047 150.075 414.877 150.468 414.639C151.219 414.103 151.78 413.298 152.055 412.36C152.145 412.12 152.205 411.869 152.235 411.611C152.332 410.502 151.453 409.535 150.496 409.171C149.538 408.806 148.494 408.867 147.486 408.751C145.411 408.517 143.465 407.537 141.947 405.962C140.43 404.388 139.426 402.308 139.092 400.043C139.056 399.8 134.104 399.942 133.57 400.255C132.958 400.625 132.59 401.541 132.245 402.164C131.72 403.192 131.205 404.225 130.731 405.278Z" fill="#5E6366"/>
<path d="M151.394 351.5L151.394 351.499C151.385 349.561 151.213 347.669 151.024 345.748C151.005 345.563 150.987 345.377 150.968 345.192C150.796 343.458 150.62 341.693 150.557 339.882L150.557 339.882C150.505 338.377 150.585 336.88 150.676 335.415C150.686 335.255 150.696 335.096 150.706 334.938C150.788 333.632 150.869 332.354 150.869 331.074C150.781 328.172 150.47 325.285 149.939 322.441L149.937 322.432L149.935 322.422L146.608 301.665L146.602 301.625L146.6 301.585C146.586 301.314 146.494 301.065 146.349 300.871C146.158 300.773 145.949 300.748 145.75 300.791L145.703 300.801L145.654 300.805C144.817 300.876 143.978 300.948 143.138 301.021C135.262 301.701 127.243 302.393 119.3 301.946C117.226 305.292 115.618 308.962 114.529 312.837L114.526 312.844L114.524 312.852C114.175 314.001 113.944 315.191 113.836 316.399C113.686 318.566 114.171 320.739 114.685 322.987C115.452 326.332 116.219 329.692 116.986 333.068L118.606 340.155C118.606 340.155 118.606 340.155 118.606 340.155C119.666 344.791 120.751 349.535 120.952 354.399C121.068 356.856 120.902 359.32 120.457 361.732L120.456 361.741L120.456 361.741C119.078 368.724 118.877 375.926 119.864 382.989L119.865 382.993C120.63 388.694 121.841 394.311 123.487 399.78C125.367 398.854 127.431 398.229 129.544 398.218C128.147 390.366 127.818 382.271 128.173 374.309C128.183 373.274 128.321 372.245 128.585 371.251L128.588 371.237L128.592 371.224C128.731 370.768 128.914 370.345 129.091 369.954C129.14 369.847 129.188 369.743 129.235 369.641C129.362 369.366 129.481 369.107 129.591 368.837C130.056 367.589 130.373 366.278 130.535 364.939L130.536 364.929L130.537 364.919C131.055 361.395 131.256 357.823 131.137 354.255L151.394 351.5ZM151.394 351.5C151.458 362.314 148.601 372.91 145.215 383.156L145.215 383.156M151.394 351.5L145.215 383.156M145.215 383.156C143.874 387.217 142.453 391.242 140.95 395.232C140.95 395.232 140.95 395.232 140.95 395.232L140.918 395.316C140.485 396.466 140.002 397.746 139.75 399.034C139.586 399.874 139.514 400.745 139.622 401.613C137.607 400.9 135.521 400.475 133.366 400.636C133.977 398.603 134.001 396.408 134.023 394.39C134.026 394.072 134.03 393.759 134.036 393.452C134.129 389.742 134.488 386.047 135.111 382.4C136.075 376.855 137.727 371.484 140.02 366.437L140.02 366.437L140.025 366.426C140.521 365.287 140.863 364.076 141.041 362.831C141.436 360.109 141.125 357.341 140.626 354.733C139.551 348.959 137.509 343.452 134.6 338.495L133.406 336.46L133.206 338.81L133.179 339.127M145.215 383.156L133.179 339.127M133.179 339.127C133.009 340.729 132.764 342.32 132.445 343.894L132.445 343.894L132.443 343.902C132.372 344.275 132.299 344.65 132.225 345.027C131.639 348.029 131.032 351.134 131.137 354.254L133.179 339.127Z" fill="#919699" stroke="#3E4345" stroke-width="1.5"/>
<path opacity="0.1" d="M133.934 339.198C133.762 340.826 133.513 342.444 133.189 344.043C131.261 340.373 129.181 336.793 127.404 333.032C126.944 332.065 126.512 331.083 126.074 330.1L124.763 327.164C124.519 326.612 124.275 326.06 124.054 325.498C123.695 324.691 123.418 323.842 123.23 322.967C123.875 322.835 125.467 324.749 125.946 325.25C126.922 326.314 127.843 327.436 128.707 328.612C129.755 329.919 130.717 331.306 131.587 332.763C132.701 334.743 133.495 336.92 133.934 339.198Z" fill="#3E4345"/>
<path d="M140.548 238.638C140.579 238.656 140.609 238.672 140.638 238.688C140.507 238.926 140.33 239.249 140.123 239.636C139.674 240.478 139.082 241.622 138.519 242.825C137.957 244.024 137.416 245.296 137.072 246.391C136.901 246.938 136.773 247.456 136.721 247.909C136.682 248.246 136.678 248.595 136.763 248.903C136.466 248.962 135.968 248.978 135.291 248.947C133.909 248.882 131.965 248.629 129.972 248.316C127.984 248.003 125.966 247.634 124.444 247.343C123.796 247.219 123.239 247.11 122.813 247.025C123.019 246.814 123.267 246.56 123.544 246.269C124.373 245.397 125.472 244.195 126.543 242.877C127.612 241.562 128.666 240.116 129.397 238.758C129.763 238.079 130.055 237.408 130.225 236.777C130.394 236.149 130.452 235.525 130.309 234.96C130.264 234.784 130.275 234.693 130.284 234.658C130.29 234.638 130.294 234.631 130.316 234.618C130.406 234.563 130.658 234.512 131.162 234.585C132.124 234.725 133.535 235.239 135.028 235.891C136.507 236.537 138.018 237.297 139.163 237.896C139.734 238.196 140.212 238.454 140.548 238.638Z" fill="white" stroke="#7A7A7A"/>
<path d="M147.576 228.86C147.576 235.394 142.772 240.607 136.944 240.607C131.116 240.607 126.312 235.394 126.312 228.86C126.312 222.327 131.116 217.113 136.944 217.113C142.772 217.113 147.576 222.327 147.576 228.86Z" fill="white" stroke="#7A7A7A"/>
<path d="M141.069 247.821L141.227 248.063L141.516 248.046C144.065 247.896 146.686 250.032 147.557 252.828C148.24 255.073 147.825 257.572 147.184 259.974C146.855 261.207 146.643 262.451 146.438 263.67L146.423 263.759C146.223 264.955 146.026 266.126 145.729 267.284L145.728 267.287C145.025 270.107 145.101 273.088 145.497 275.932C145.695 277.353 145.968 278.756 146.247 280.143C146.284 280.329 146.321 280.513 146.359 280.698C146.602 281.901 146.842 283.093 147.04 284.293L147.041 284.295C147.315 285.916 147.515 287.545 147.717 289.186C147.768 289.6 147.819 290.014 147.872 290.428C148.131 292.485 148.421 294.554 148.887 296.604L148.887 296.605C149.006 297.123 149.134 297.627 149.261 298.127C149.456 298.895 149.648 299.652 149.8 300.433C150.027 301.607 150.141 302.752 149.996 303.87C145.618 305.871 140.718 306.01 135.834 306.119L135.834 306.119L135.822 306.12C134.898 306.162 133.972 306.136 133.051 306.042C132.74 306 132.429 305.945 132.106 305.886L132.061 305.878C131.753 305.822 131.433 305.764 131.11 305.719L131.106 305.718C130.432 305.63 129.746 305.603 129.087 305.577C128.821 305.567 128.561 305.557 128.307 305.543L128.307 305.543C124.706 305.346 121.164 304.452 117.843 302.902C117.825 302.668 117.841 302.432 117.89 302.203C117.953 301.903 118.072 301.623 118.236 301.381C118.458 301.132 118.627 300.837 118.736 300.516L118.755 300.46L118.76 300.401C118.79 300.064 118.754 299.723 118.654 299.401C118.656 299.136 118.74 298.883 118.887 298.687L118.948 298.606L118.972 298.508C119.327 297.082 120.006 295.784 120.941 294.735L120.941 294.735L120.945 294.73C120.973 294.698 121.003 294.664 121.033 294.629C121.237 294.396 121.491 294.105 121.681 293.791C121.905 293.422 122.083 292.953 121.978 292.418L121.974 292.396L121.968 292.375C121.867 292.028 121.692 291.709 121.453 291.445C121.052 290.916 120.605 290.43 120.12 289.992L120.104 289.977L120.087 289.964C119.552 289.559 119.078 289.06 118.682 288.487C118.415 287.922 118.247 287.304 118.189 286.667L118.188 286.651L118.185 286.636C117.42 281.679 116.46 276.773 115.307 271.918C114.891 270.058 114.373 268.227 113.755 266.435L113.751 266.422L113.745 266.409C113.417 265.606 113.144 264.778 112.929 263.93C112.767 263.045 112.686 262.145 112.687 261.242L112.687 261.235L112.687 261.228C112.614 258.508 112.648 255.881 113.574 253.483L113.575 253.481C114.462 251.157 116.011 249.127 118.022 248.187L118.023 248.187C118.272 248.07 118.528 247.968 118.801 247.859L118.807 247.857C119.074 247.751 119.355 247.639 119.634 247.508L119.634 247.508C121.4 246.678 122.816 245.205 124.139 243.828C124.346 243.613 124.55 243.401 124.753 243.193L124.762 243.185L124.769 243.176C125.133 242.768 125.551 242.428 126.008 242.168C126.845 241.769 127.838 241.918 128.943 242.134L128.944 242.134L133.385 242.995L133.394 242.997L133.404 242.998C134.495 243.166 135.569 243.456 136.607 243.864C138.385 244.714 139.928 246.079 141.069 247.821Z" fill="#9ED9D9" stroke="#3E4345"/>
<path d="M146.952 222.365C147.495 220.193 146.427 217.93 145.157 216.163C143.777 214.264 142.019 212.553 139.861 212.077C138.107 211.687 136.29 212.158 134.504 212.001C132.926 211.865 131.407 211.237 129.838 210.989C128.414 210.82 126.976 210.88 125.568 211.166C124.231 211.384 122.925 211.786 121.679 212.361C116.939 214.674 114.164 220.375 113.52 226.03C112.876 231.685 114.003 237.386 115.126 242.95L116.143 247.982C117.202 253.222 118.26 258.483 118.541 263.839C118.821 269.195 118.297 274.694 116.295 279.584C122.769 275.758 127.785 269.511 130.436 261.971C131.154 259.9 131.688 257.748 132.489 255.713C133.174 253.961 134.053 252.301 134.661 250.514C135.347 248.497 135.677 246.354 135.632 244.2C135.595 242.58 135.351 240.97 135.392 239.35C135.434 237.73 135.811 236.044 136.828 234.87C137.749 233.832 139.014 233.351 140.178 232.678C142.011 231.642 143.613 230.172 144.867 228.374C145.599 227.321 145.641 226.855 145.825 225.661C146.009 224.466 146.667 223.514 146.952 222.365Z" fill="#3E4345"/>
<path d="M147.466 314.315L147.465 314.307L147.464 314.3C147.28 312.792 146.832 311.336 146.144 310.013C146.101 309.927 146.051 309.836 146.008 309.758C145.993 309.731 145.979 309.706 145.967 309.683C145.911 309.58 145.868 309.496 145.838 309.417C145.782 309.27 145.781 309.179 145.821 309.084C145.867 308.977 146.006 308.83 146.261 308.676C146.496 308.533 146.763 308.423 146.968 308.354C147.697 308.163 148.446 308.088 149.194 308.131L149.231 308.133L149.269 308.13C149.328 308.124 149.388 308.132 149.447 308.155C149.514 308.227 149.565 308.325 149.588 308.439L149.593 308.465L149.601 308.489C149.902 309.456 150.166 310.435 150.434 311.425C150.482 311.603 150.53 311.782 150.578 311.961C150.895 313.129 151.224 314.307 151.626 315.461L151.627 315.462C151.763 315.853 151.903 316.23 152.041 316.6C152.293 317.277 152.538 317.933 152.74 318.627C153.016 319.641 153.237 320.672 153.404 321.714L153.406 321.724L153.408 321.734C153.526 322.322 153.61 322.918 153.661 323.518C153.722 324.679 153.523 325.837 153.085 326.891C152.647 327.946 151.983 328.862 151.155 329.562C150.731 329.902 150.289 330.213 149.831 330.494L149.831 330.494L149.824 330.499C149.274 330.849 148.714 331.176 148.163 331.356C147.751 331.49 147.372 331.532 147.024 331.455C147.054 331.29 147.101 331.131 147.165 330.98L147.738 329.633L146.472 330.342C146.471 330.341 146.47 330.339 146.469 330.338L146.069 330.637L146.469 330.338C146.465 330.333 146.461 330.326 146.457 330.317C146.45 330.232 146.462 330.147 146.491 330.07L146.026 329.892L146.491 330.07C146.523 329.989 146.571 329.924 146.626 329.878C146.846 329.715 147.086 329.589 147.337 329.503C147.544 329.439 147.721 329.31 147.849 329.142L147.864 329.122L147.877 329.101C148.111 328.719 147.964 328.333 147.796 328.113C147.63 327.894 147.371 327.722 147.097 327.663C147.003 327.642 146.909 327.631 146.841 327.623C146.834 327.622 146.827 327.621 146.821 327.62C146.742 327.611 146.697 327.604 146.66 327.594C146.627 327.586 146.618 327.579 146.618 327.579L146.618 327.579C146.617 327.579 146.616 327.578 146.614 327.575C146.612 327.573 146.607 327.567 146.6 327.554C146.6 327.554 146.6 327.553 146.6 327.553C146.6 327.543 146.604 327.519 146.623 327.484C146.663 327.406 146.739 327.334 146.808 327.3C146.913 327.249 147.03 327.221 147.214 327.176L147.236 327.171C147.413 327.128 147.655 327.067 147.886 326.933C148.424 326.622 148.675 326.081 148.794 325.571C148.912 325.062 148.917 324.505 148.899 324.039C148.893 322.915 148.757 321.795 148.494 320.708L148.491 320.698L148.489 320.689C148.374 320.282 148.224 319.888 148.084 319.517C148.058 319.449 148.033 319.382 148.008 319.316C147.844 318.878 147.7 318.467 147.614 318.044C147.501 317.473 147.49 316.887 147.496 316.26C147.497 316.157 147.498 316.052 147.5 315.945C147.508 315.421 147.516 314.866 147.466 314.315ZM146.47 330.365L146.337 330.627L146.47 330.365L146.47 330.363L146.47 330.365Z" fill="white" stroke="#7A7A7A"/>
<path opacity="0.1" d="M146.217 252.843C146.454 253.109 146.652 253.413 146.806 253.744C148.389 256.908 148.408 260.69 148.481 264.3C148.564 268.35 148.767 272.4 148.969 276.476L149.572 288.626C149.632 289.786 149.687 290.945 149.839 292.094C150.548 292.292 150.575 293.304 150.497 294.12C149.986 299.071 148.721 304.169 150.037 308.933C150.088 309.178 150.194 309.404 150.345 309.591C149.677 309.361 148.962 309.35 148.288 309.561C147.63 309.713 146.995 309.981 146.332 310.148C145.495 310.356 144.547 310.447 143.976 311.161C143.33 309.021 142.815 306.836 142.435 304.62C142.122 302.595 142.034 300.509 141.289 298.636C140.99 297.881 140.585 297.183 140.217 296.459C138.289 292.672 137.341 288.394 136.416 284.171C136.001 282.17 135.901 280.104 136.121 278.066C136.255 277.136 136.332 276.197 136.351 275.256C136.295 274.262 136.177 273.274 135.997 272.299C135.606 269.436 135.79 266.514 136.535 263.738C137.226 261.161 137.833 258.447 139.296 256.28C140.76 254.114 143.774 252.878 146.217 252.843Z" fill="#3E4345"/>
<path d="M149.517 276.05L150.12 288.201M149.517 276.05C149.314 272 149.112 267.95 149.029 263.9C149.026 263.77 149.024 263.64 149.021 263.51C148.952 260.019 148.88 256.389 147.354 253.344L150.12 288.201M149.517 276.05L149.017 276.075M149.517 276.05L149.017 276.075L149.017 276.071C148.815 272.024 148.612 267.967 148.529 263.91L148.529 263.91C148.527 263.795 148.524 263.681 148.522 263.566C148.452 260.036 148.381 256.51 146.907 253.568L146.903 253.561L146.9 253.554C146.799 253.335 146.676 253.131 146.535 252.945M150.12 288.201C150.122 288.253 150.125 288.306 150.128 288.358C150.185 289.465 150.241 290.572 150.386 291.669L150.12 288.201ZM149.017 276.075L146.773 252.937C146.694 252.939 146.615 252.941 146.535 252.945M149.017 276.075L149.62 288.226L149.62 288.227C149.623 288.281 149.626 288.336 149.629 288.39C149.685 289.492 149.743 290.617 149.891 291.734L149.934 292.062L150.252 292.151C150.349 292.178 150.455 292.26 150.522 292.559C150.589 292.859 150.582 293.251 150.542 293.644C150.429 294.754 150.277 295.872 150.123 297.002C150.107 297.121 150.091 297.24 150.075 297.36C149.905 298.608 149.739 299.868 149.63 301.126C149.416 303.59 149.419 306.073 150.058 308.493C149.603 308.463 149.144 308.516 148.7 308.653C148.352 308.734 148.015 308.844 147.699 308.948L147.671 308.957C147.353 309.061 147.057 309.159 146.757 309.232L146.752 309.233C146.636 309.263 146.502 309.293 146.359 309.325C146.063 309.391 145.73 309.465 145.439 309.562C145.22 309.634 144.997 309.727 144.784 309.853C144.246 307.96 143.812 306.031 143.485 304.079C143.408 303.582 143.345 303.081 143.281 302.571L143.278 302.546C143.215 302.047 143.152 301.54 143.075 301.037C142.918 300.014 142.703 298.982 142.31 297.995L142.307 297.988L142.304 297.98C141.975 297.223 141.612 296.485 141.215 295.768C139.319 292.051 138.388 287.836 137.461 283.606C137.058 281.662 136.961 279.656 137.173 277.676C137.527 275.714 137.483 273.691 137.046 271.749M149.017 276.075L137.046 271.749M146.535 252.945C144.251 253.054 141.568 254.178 140.267 256.104C139.01 257.966 138.408 260.252 137.793 262.588C137.721 262.862 137.649 263.137 137.575 263.411L137.575 263.412C136.848 266.115 136.668 268.96 137.046 271.749M146.535 252.945L137.046 271.749" fill="#9ED9D9" stroke="#3E4345"/>
<g opacity="0.1">
<path opacity="0.1" d="M145.159 216.163C143.778 214.264 142.02 212.553 139.862 212.077C138.109 211.687 136.291 212.158 134.506 212.001C132.927 211.865 131.409 211.237 129.84 210.989C128.416 210.82 126.977 210.88 125.569 211.166C124.233 211.384 122.927 211.786 121.681 212.361C121.008 212.692 120.365 213.094 119.762 213.561C120.871 213.087 122.023 212.747 123.199 212.548C124.606 212.261 126.043 212.202 127.465 212.371C129.039 212.594 130.553 213.216 132.136 213.353C133.917 213.51 135.734 213.044 137.492 213.429C139.651 213.905 141.418 215.621 142.784 217.52C144.059 219.282 145.122 221.545 144.584 223.722C144.298 224.866 143.636 225.868 143.456 227.048C143.277 228.227 143.231 228.708 142.494 229.761C141.55 231.112 140.409 232.28 139.117 233.219C139.471 233.037 139.835 232.855 140.18 232.657C142.013 231.622 143.614 230.152 144.869 228.354C145.601 227.301 145.642 226.835 145.826 225.64C146.01 224.446 146.668 223.463 146.954 222.314C147.497 220.193 146.429 217.93 145.159 216.163Z" fill="#3E4345"/>
<path opacity="0.1" d="M136.83 234.9C137.021 234.683 137.228 234.484 137.451 234.308C136.388 234.875 135.27 235.371 134.455 236.333C133.438 237.502 133.075 239.193 133.02 240.813C132.964 242.433 133.227 244.043 133.259 245.658C133.304 247.813 132.975 249.958 132.288 251.977C131.681 253.764 130.802 255.419 130.116 257.176C129.32 259.201 128.786 261.358 128.068 263.429C125.768 269.966 121.683 275.558 116.375 279.437C116.348 279.503 116.324 279.574 116.297 279.64C122.771 275.814 127.787 269.566 130.438 262.026C131.156 259.956 131.69 257.804 132.491 255.769C133.176 254.017 134.055 252.356 134.663 250.569C135.349 248.552 135.679 246.409 135.634 244.256C135.597 242.636 135.353 241.026 135.394 239.406C135.436 237.786 135.813 236.075 136.83 234.9Z" fill="#3E4345"/>
</g>
<circle cx="261.5" cy="322.498" r="7.5" fill="white"/>
<defs>
<linearGradient id="paint0_linear" x1="131.924" y1="416.608" x2="131.924" y2="209.085" gradientUnits="userSpaceOnUse">
<stop stop-color="#808080" stop-opacity="0.25"/>
<stop offset="0.54" stop-color="#808080" stop-opacity="0.12"/>
<stop offset="1" stop-color="#808080" stop-opacity="0.1"/>
</linearGradient>
</defs>
</svg>
