<svg width="940" height="802" viewBox="0 0 940 802" fill="none" xmlns="http://www.w3.org/2000/svg">
<g clip-path="url(#clip0)">
<path opacity="0.1" d="M668.071 801.99C721.107 801.99 764.101 797.652 764.101 792.3C764.101 786.949 721.107 782.61 668.071 782.61C615.035 782.61 572.041 786.949 572.041 792.3C572.041 797.652 615.035 801.99 668.071 801.99Z" fill="#9ED9D9"/>
<path opacity="0.1" d="M411.545 11.7317C453.839 -4.36043 505.328 9.47938 549.298 29.664C687.397 93.0742 788.006 213.444 867.94 336.076C896.882 380.48 924.373 426.84 935.253 476.41C957.407 577.305 899.626 681.755 801.358 718.358C767.94 730.817 731.227 735.926 694.457 738.772C629.073 743.843 561.377 741.83 496.517 723.054C450.263 709.636 406.508 688.052 364.542 664.206C247.341 597.576 140.309 511.048 63.24 405.352C29.4385 358.992 0.842985 306.729 0.0190151 253.238C-0.804955 199.748 33.2494 145.999 89.2793 136.903C112.444 133.146 136.948 137.057 160.852 141.082C196.049 147.015 231.723 153.254 266.517 150.667C302.463 147.973 349.214 133.597 355.768 98.4702C362.706 60.7557 369.307 27.8047 411.545 11.7317Z" fill="#9ED9D9"/>
<path d="M228.483 736.855C228.483 736.855 273.67 734.066 268.343 766.48C268.343 766.48 269.401 772.231 264.326 774.809C264.326 774.809 264.251 772.403 259.691 773.218C258.071 773.503 256.424 773.587 254.784 773.467C252.568 773.31 250.461 772.419 248.783 770.927C248.783 770.927 236.077 765.56 231.142 744.302C231.142 744.302 227.481 739.673 227.631 738.475L235.253 741.81C235.253 741.81 232.65 747.446 234.7 752.123C234.7 752.123 234.944 742.021 236.414 742.251C236.704 742.299 240.374 744.168 240.374 744.168C240.374 744.168 235.889 753.973 239.27 761.103C239.27 761.103 237.987 749.018 241.77 744.877L247.144 748.088C247.144 748.088 241.901 758.219 245.459 766.48C245.459 766.48 244.522 753.8 248.268 748.864L253.137 752.698C253.137 752.698 248.211 762.685 251.217 769.547C251.217 769.547 251.601 754.778 254.185 753.666C254.185 753.666 258.446 757.5 259.092 759.091C259.092 759.091 255.721 766.337 257.809 770.161C257.809 770.161 259.092 760.327 260.15 760.279C260.15 760.279 264.382 766.797 264.831 771.263C264.831 771.263 264.644 764.621 261.17 759.656C261.17 759.656 265.271 760.375 267.668 763.097C267.668 763.097 267.004 758.487 260.131 758.084C260.131 758.084 256.629 753.148 255.683 752.842C255.683 752.842 262.528 752.257 266.676 754.145C266.676 754.145 263.024 749.794 254.429 751.768L249.625 747.762C249.625 747.762 258.642 746.497 262.453 747.896C262.453 747.896 258.062 744.062 248.333 746.852L243.108 743.65C243.108 743.65 250.786 741.954 255.365 742.567C255.365 742.567 250.534 739.903 241.573 742.788L237.828 741.072C237.828 741.072 243.446 739.941 245.103 739.759C246.76 739.577 246.835 739.117 246.835 739.117C243.271 738.506 239.611 738.92 236.264 740.315C236.264 740.315 228.343 737.411 228.483 736.855Z" fill="#9ED9D9"/>
<path opacity="0.1" d="M259.607 783.167C277.272 783.167 291.592 780.691 291.592 777.637C291.592 774.582 277.272 772.106 259.607 772.106C241.942 772.106 227.622 774.582 227.622 777.637C227.622 780.691 241.942 783.167 259.607 783.167Z" fill="#9ED9D9"/>
<path d="M167.949 715.05C167.949 715.05 193.427 713.479 190.421 731.756C190.58 732.683 190.447 733.637 190.041 734.481C189.636 735.325 188.979 736.016 188.165 736.452C188.165 736.452 188.118 735.101 185.552 735.561C184.64 735.721 183.713 735.766 182.79 735.695C181.537 735.616 180.345 735.114 179.401 734.267C179.401 734.267 172.247 731.229 169.438 719.248C169.438 719.248 167.378 716.632 167.453 715.961L171.76 717.878C171.76 717.878 170.29 721.06 171.442 723.696C171.442 723.696 171.582 717.993 172.378 718.127C172.547 718.127 174.616 719.229 174.616 719.229C174.616 719.229 172.088 724.76 173.998 728.814C173.998 728.814 173.268 721.999 175.403 719.661L178.427 721.472C178.427 721.472 175.478 727.223 177.491 731.842C177.491 731.842 176.976 724.692 179.073 721.913L181.816 724.098C181.816 724.098 179.007 729.724 180.74 733.596C180.74 733.596 180.955 725.267 182.416 724.644C182.416 724.644 184.813 726.811 185.178 727.702C185.178 727.702 183.305 731.785 184.457 733.941C184.457 733.941 185.178 728.402 185.777 728.373C185.777 728.373 188.165 732.044 188.408 734.564C188.289 732.236 187.579 729.98 186.348 728.018C187.726 728.276 188.999 728.943 190.009 729.935C190.009 729.935 189.644 727.338 185.758 727.108C185.758 727.108 183.783 724.319 183.258 724.156C183.258 724.156 187.116 723.82 189.457 724.884C189.457 724.884 187.397 722.43 182.547 723.542L179.841 721.28C179.841 721.28 184.925 720.571 187.079 721.357C187.079 721.357 184.597 719.191 179.11 720.772L176.17 718.961C178.435 718.454 180.755 718.251 183.071 718.357C183.071 718.357 180.356 716.852 175.3 718.482L173.193 717.523C173.193 717.523 176.367 716.881 177.294 716.785C178.221 716.689 178.277 716.421 178.277 716.421C176.266 716.08 174.201 716.315 172.313 717.102C172.313 717.102 167.875 715.367 167.949 715.05Z" fill="#9ED9D9"/>
<path opacity="0.1" d="M185.497 741.158C195.456 741.158 203.53 739.759 203.53 738.034C203.53 736.308 195.456 734.909 185.497 734.909C175.537 734.909 167.463 736.308 167.463 738.034C167.463 739.759 175.537 741.158 185.497 741.158Z" fill="#9ED9D9"/>
<path d="M794.738 732.619C794.738 732.619 825.496 730.702 821.891 752.746C822.076 753.866 821.911 755.017 821.42 756.036C820.929 757.054 820.138 757.888 819.157 758.42C819.157 758.42 819.101 756.781 816.002 757.337C814.898 757.529 813.776 757.584 812.659 757.5C811.15 757.4 809.715 756.794 808.577 755.775C808.577 755.775 799.925 752.123 796.564 737.651C796.564 737.651 794.073 734.498 794.176 733.693L799.363 735.955C799.363 735.955 797.594 739.788 798.989 742.98C798.989 742.98 799.157 736.098 800.15 736.271C800.356 736.271 802.846 737.594 802.846 737.594C802.846 737.594 799.794 744.303 802.097 749.095C802.097 749.095 801.227 740.871 803.801 738.054L807.453 740.229C807.453 740.229 803.886 747.13 806.311 752.756C806.311 752.756 805.683 744.13 808.183 740.766L811.498 743.411C811.498 743.411 808.146 750.207 810.187 754.912C810.187 754.912 810.459 744.868 812.219 744.101C812.219 744.101 815.112 746.718 815.552 747.791C815.552 747.791 813.258 752.727 814.682 755.334C814.682 755.334 815.552 748.625 816.273 748.625C816.273 748.625 819.157 753.063 819.457 756.101C819.317 753.292 818.462 750.569 816.976 748.203C818.64 748.526 820.176 749.339 821.395 750.542C821.395 750.542 820.946 747.408 816.255 747.13C816.255 747.13 813.876 743.766 813.24 743.565C813.24 743.565 817.921 743.162 820.73 744.446C820.73 744.446 818.24 741.494 812.388 742.836L809.12 740.105C809.12 740.105 815.253 739.242 817.856 740.191C817.856 740.191 814.86 737.574 808.24 739.482L804.682 737.306C804.682 737.306 809.906 736.156 813.024 736.568C813.024 736.568 809.738 734.757 803.661 736.721L801.114 735.552C801.114 735.552 804.944 734.776 806.067 734.661C807.191 734.546 807.247 734.22 807.247 734.22C804.823 733.806 802.334 734.088 800.056 735.034C800.056 735.034 794.644 732.983 794.738 732.619Z" fill="#9ED9D9"/>
<path opacity="0.1" d="M815.918 764.151C827.941 764.151 837.687 762.465 837.687 760.385C837.687 758.305 827.941 756.618 815.918 756.618C803.895 756.618 794.148 758.305 794.148 760.385C794.148 762.465 803.895 764.151 815.918 764.151Z" fill="#9ED9D9"/>
<path d="M764.092 499.94C763.502 496.565 763.161 493.15 763.071 489.723C763.071 485.611 757.612 481.969 757.612 481.969C757.612 481.969 754.242 473.985 751.994 472.806C749.747 471.627 742.809 461.181 742.809 461.181C742.729 459.12 741.996 457.142 740.721 455.545C738.643 452.748 736.744 449.815 735.038 446.766C734.101 445.596 734.569 444.772 733.165 437.958C733.09 437.603 733.006 437.258 732.903 436.932C732.903 436.779 732.809 436.645 732.753 436.491C734.243 434.961 735.282 433.032 735.751 430.925C736.22 428.817 736.099 426.618 735.403 424.578C735.15 423.767 734.691 423.039 734.073 422.469C732.491 421.147 729.963 421.693 728.333 420.437L730.066 412.597C730.478 410.681 730.693 408.256 729.054 407.221C728.44 406.922 727.792 406.7 727.126 406.559C724.317 405.601 722.687 402.563 721.957 399.639C721.255 396.824 721.064 393.9 721.395 391.013C721.714 388.234 722.509 385.531 722.8 382.742C723.328 377.584 722.115 372.395 719.363 368.04C718.293 366.16 716.717 364.636 714.822 363.65C713.09 362.855 711.077 362.692 709.457 361.733C705.974 359.462 706.152 354.066 703.371 350.97C700.59 347.874 695.665 347.884 691.611 348.948C687.556 350.012 683.521 351.823 679.363 351.373C676.685 351.066 674.176 349.82 671.489 349.532C670.72 349.458 669.945 349.493 669.185 349.638V349.552C667.2 349.916 665.375 351.047 664.906 352.973C664.801 353.431 664.757 353.902 664.775 354.372C664.775 355.494 665.038 356.663 665.056 357.737C665.091 358.163 665.042 358.592 664.911 358.999C664.781 359.405 664.572 359.781 664.298 360.104C663.764 360.689 662.978 360.995 662.425 361.599C662.2 361.83 662.023 362.105 661.906 362.409C661.788 362.712 661.732 363.037 661.742 363.363C661.742 365.069 663.82 366.573 665.215 367.263H665.272C664.897 367.647 664.523 368.049 664.176 368.461C660.176 373.085 657.971 379.049 657.978 385.225C658.012 390.213 659.469 395.082 662.17 399.233C664.872 403.384 668.7 406.637 673.184 408.591L672.987 409.214C672.593 410.446 672.133 411.656 671.611 412.837C670.642 412.504 669.614 412.391 668.598 412.507C667.582 412.623 666.604 412.964 665.73 413.508C663.052 415.425 657.818 415.271 656.423 414.917C655.028 414.562 640.506 412.684 639.335 413.153C638.165 413.623 635.852 411.514 634.345 414.332C632.837 417.15 632.135 418.674 630.599 419.383C629.064 420.092 626.414 422.316 626.77 422.786C627.126 423.255 622.931 426.073 622.931 426.073C622.931 426.073 619.326 429.907 617.238 430.415C615.15 430.923 610.73 433.827 610.73 433.827L605.609 437.929C605.609 437.929 601.779 438.523 602.94 435.82C604.101 433.118 600.843 429.715 600.843 429.715C600.843 429.715 594.335 416.211 594.335 413.422C594.335 410.633 588.989 398.738 588.989 398.738L588.333 398.671L588.034 397.799C587.051 394.972 585.777 391.502 584.803 389.47C582.931 385.589 581.779 385.186 581.779 385.186C581.779 385.186 559.232 367.858 544.588 373.139C529.944 378.42 571.32 394.157 575.038 395.806C576.339 396.381 577.275 398.24 577.931 400.416C574.632 402.044 571.855 404.601 569.925 407.786C569.925 407.786 578.877 428.095 579.111 433.146C579.345 438.197 585.272 452.315 585.272 452.315C585.272 452.315 587.481 462.772 599.448 462.177C599.448 462.177 615.955 465.283 619.56 462.177C623.165 459.072 626.414 456.638 628.165 456.283C629.453 455.85 630.584 455.032 631.414 453.935C631.414 453.935 625.955 489.157 623.277 492.215C620.599 495.272 596.938 534.817 605.431 541.89C612.157 547.221 619.265 552.027 626.695 556.267C627.416 556.631 629.579 552.941 632.669 550.325C632.669 550.986 632.669 551.657 632.669 552.366C632.725 566.436 634.541 587.828 637.051 592.62C640.796 599.665 639.26 613.284 639.26 613.284C641.23 614.233 643.368 614.758 645.543 614.827C645.655 615.287 645.787 615.786 645.908 616.265C647.959 624.191 651.283 636.45 652.978 639.708C655.534 644.644 657.388 660.267 657.388 660.267C657.388 660.267 658.905 675.602 658.324 677.758C658.099 678.573 659.082 684.956 660.627 693.093C659.691 704.106 657.912 725.335 657.612 733.012C657.612 733.156 657.612 733.3 657.612 733.434V733.568C657.617 733.654 657.617 733.741 657.612 733.827C657.612 733.999 657.612 734.153 657.612 734.296C657.583 734.78 657.602 735.264 657.669 735.744C657.785 736.475 657.73 737.224 657.509 737.929C656.847 740.051 656.004 742.11 654.991 744.082C654.564 745.051 654.189 746.043 653.867 747.053C652.931 747.475 651.788 748.5 651.152 751.002C649.991 755.583 648.249 768.254 648.249 768.254C648.249 768.254 647.547 776.008 646.161 777.771C644.775 779.535 643.352 790.566 653.249 791.975C663.146 793.384 667.425 786.608 667.425 786.608L667.079 755.861V755.804C667.279 755.545 667.451 755.266 667.594 754.97V754.893C667.659 754.749 667.734 754.596 667.8 754.424L667.884 754.194L668.034 753.82C668.028 753.775 668.028 753.73 668.034 753.686C668.994 750.741 669.282 747.609 668.877 744.533V744.379V744.14C668.877 744.063 668.877 743.977 668.877 743.9V743.421C668.877 743.363 668.877 743.296 668.877 743.239C668.877 743.034 668.895 742.823 668.933 742.606C668.933 742.606 668.933 742.529 668.933 742.491L668.989 742.117V741.954C668.989 741.83 668.989 741.705 669.064 741.571C669.06 741.539 669.06 741.507 669.064 741.475C669.157 741.034 669.27 740.517 669.391 740.095V739.99L669.532 739.53C669.672 739.041 669.832 738.571 670 738.053V737.958C670 737.804 670.103 737.651 670.159 737.507V737.45C670.328 736.98 670.506 736.491 670.674 736.089L670.721 735.964L670.871 735.581L670.918 735.466L671.274 734.613L674.017 743.287C674.017 743.287 675.534 749.746 674.719 751.27C673.905 752.794 675.656 759.139 676.807 759.254L675.73 767.238C675.148 771.64 674.801 776.071 674.691 780.512C674.616 781.02 674.541 781.471 674.485 781.777C673.736 785.87 675.534 792.215 675.534 792.215C684.71 803.323 695.646 793.077 695.646 793.077C695.646 793.077 696.92 787.202 695.646 786.033C694.373 784.864 694.944 780.627 694.944 780.627C694.944 780.627 695.524 770.171 695.637 762.542C695.749 754.912 689.541 748.165 689.541 748.165L689.195 748.481C688.062 745.491 686.77 742.002 687.041 740.44C687.509 737.737 685.758 709.205 685.758 709.205C686.406 701.556 686.543 693.87 686.17 686.202C686.32 684.908 686.461 683.634 686.601 682.368C687.303 676.234 687.875 670.992 688.099 668.241V667.915C688.156 667.177 688.184 666.65 688.174 666.401C688.174 665.442 688.174 664.35 688.268 663.152C688.483 659.855 688.989 656.184 688.989 656.184L691.423 641.031C691.423 641.031 693.296 633.632 695.965 629.53L696.283 629.012C696.386 628.83 696.489 628.629 696.601 628.418L696.648 628.332C696.751 628.131 696.863 627.92 696.966 627.699L697.013 627.613C697.388 626.856 697.79 625.984 698.212 625.025C698.212 624.948 698.277 624.881 698.305 624.805L698.624 624.076C698.624 623.98 698.699 623.885 698.745 623.789C698.792 623.693 698.942 623.3 699.045 623.06C699.091 622.964 699.132 622.865 699.167 622.763C699.288 622.476 699.42 622.179 699.541 621.872L699.719 621.431C699.803 621.211 699.897 620.99 699.991 620.77L700.215 620.185C700.281 620.041 700.337 619.898 700.393 619.754L700.646 619.092C700.646 618.997 700.73 618.891 700.768 618.795C701.433 617.099 702.069 615.422 702.641 613.898C702.818 613.419 702.996 612.939 703.156 612.518C709.111 612.891 713.156 613.227 713.156 613.227C713.156 613.227 715.028 599.492 714.429 590.454C714.036 584.282 715.159 576.519 715.899 572.244C715.983 571.774 716.058 571.353 716.133 570.969L716.292 571.104C719.204 573.452 721.292 565.698 721.292 565.698C721.292 565.698 720.506 558.462 719.42 549.692L719.307 548.82C720.985 549.186 722.683 549.452 724.391 549.615C724.391 549.615 725.328 549.529 726.611 549.366C730.159 551.469 733.904 553.203 737.79 554.542L743.979 542.849C745.143 540.425 746.505 538.107 748.053 535.919C749.925 533.571 756.536 526.057 756.423 524.648C756.311 523.239 758.633 515.131 760.955 511.489C763.277 507.847 764.204 500.524 764.092 499.94ZM738.287 508.863C735.843 509.917 733.521 515.792 733.408 517.556C733.296 519.319 730.73 527.063 728.062 528.003C725.599 528.865 720.899 533.293 720.15 534.003C719.382 534.07 718.511 534.175 717.603 534.328C716.582 526.92 715.571 520.786 714.925 519.549C713.053 516.022 716.976 504.751 716.976 504.751C716.976 504.751 717.36 493.365 719.785 490.662C722.21 487.959 721.657 481.145 721.657 481.145C721.657 481.145 722.238 478.327 722.472 477.043C722.706 475.758 725.927 477.043 725.955 477.043C725.955 477.043 732.229 480.56 733.165 485.841C734.101 491.122 740.955 500.285 740.955 500.285C740.955 500.285 739.906 503.457 740.955 505.077C742.004 506.697 740.73 507.808 738.287 508.863Z" fill="url(#paint0_linear)"/>
<path d="M574.626 411.082L570.855 408.369C572.705 405.412 575.333 403.048 578.438 401.551C581.549 400.051 585.008 399.485 588.414 399.912V412.691H580.841L574.626 411.082Z" fill="#9ED9D9" stroke="#3E4345"/>
<path opacity="0.1" d="M570.188 408.504C572.096 405.282 574.891 402.706 578.221 401.101C581.552 399.495 585.271 398.93 588.914 399.476V413.191H580.777L574.41 411.542L570.188 408.504Z" fill="black" fill-opacity="0.87"/>
<path d="M580.398 408.42C580.348 407.933 580.285 407.366 580.205 406.747L580.204 406.742C579.953 404.871 579.541 402.49 578.873 400.421C578.538 399.388 578.129 398.395 577.62 397.572C577.119 396.762 576.466 396.025 575.607 395.641C575.23 395.471 574.5 395.168 573.503 394.755C569.444 393.07 560.962 389.55 553.897 385.721C549.468 383.321 545.78 380.892 544.073 378.82C543.21 377.772 543.058 377.065 543.183 376.614C543.311 376.158 543.853 375.493 545.577 374.863C548.951 373.631 552.84 373.696 556.848 374.553C560.85 375.41 564.896 377.041 568.528 378.853C572.156 380.662 575.343 382.638 577.625 384.162C578.765 384.923 579.677 385.571 580.302 386.027C580.614 386.255 580.855 386.435 581.017 386.557C581.098 386.618 581.159 386.665 581.199 386.696L581.244 386.731L581.255 386.739L581.257 386.741L581.257 386.741L581.257 386.741L581.386 386.841L581.474 386.872C581.479 386.876 581.486 386.88 581.493 386.886C581.56 386.934 581.706 387.053 581.921 387.297C582.355 387.79 583.049 388.768 583.934 390.641C584.848 392.624 586.116 396.04 587.078 398.859L587.08 398.866C587.521 400.131 587.893 401.265 588.154 402.083C588.231 402.323 588.298 402.535 588.354 402.715L580.398 408.42Z" fill="white" stroke="#7A7A7A" stroke-width="2"/>
<path d="M669.186 414.121L670.319 413.574L673.502 417.293L670.899 422.976L666.461 421.155L667.491 416.612L669.186 414.121Z" fill="#9ED9D9"/>
<path d="M664.783 756.547L665.12 786.48C665.12 786.481 665.12 786.481 665.119 786.481C665.001 786.641 664.817 786.875 664.565 787.155C664.061 787.716 663.289 788.458 662.233 789.16C660.137 790.555 656.889 791.818 652.296 791.157C650.062 790.836 648.533 789.977 647.482 788.894C646.422 787.8 645.794 786.419 645.473 784.978C645.151 783.535 645.146 782.069 645.303 780.863C645.381 780.262 645.498 779.741 645.628 779.333C645.764 778.904 645.892 778.67 645.957 778.587C646.44 777.968 646.781 776.97 647.038 776C647.308 774.98 647.528 773.811 647.702 772.719C647.877 771.623 648.007 770.585 648.094 769.823C648.137 769.441 648.17 769.127 648.192 768.908C648.203 768.799 648.211 768.713 648.216 768.654L648.222 768.586L648.223 768.586L648.224 768.572L648.239 768.466C648.252 768.373 648.271 768.235 648.295 768.057C648.345 767.703 648.416 767.191 648.506 766.562C648.685 765.304 648.935 763.58 649.221 761.714C649.796 757.962 650.506 753.697 651.064 751.464C651.583 749.389 652.443 748.589 653.018 748.265C653.319 748.095 653.588 748.029 653.77 748.004L664.783 756.547Z" fill="#5E6366" stroke="#3E4345" stroke-width="2"/>
<path d="M692.379 780.568L692.374 780.651L692.372 780.668C692.368 780.703 692.362 780.753 692.355 780.816C692.341 780.943 692.323 781.122 692.306 781.341C692.271 781.775 692.238 782.373 692.247 783.015C692.255 783.65 692.305 784.363 692.45 785.017C692.587 785.639 692.843 786.367 693.382 786.869C693.379 786.867 693.378 786.865 693.378 786.865C693.377 786.866 693.42 786.916 693.47 787.076C693.526 787.253 693.57 787.498 693.596 787.812C693.648 788.44 693.615 789.215 693.539 789.997C693.464 790.771 693.35 791.514 693.255 792.068C693.214 792.301 693.178 792.499 693.149 792.649C693.091 792.698 693.024 792.755 692.946 792.819C692.654 793.061 692.223 793.398 691.676 793.771C690.578 794.52 689.042 795.397 687.256 795.943C685.475 796.489 683.476 796.698 681.417 796.156C679.411 795.628 677.265 794.364 675.161 791.842C675.156 791.822 675.151 791.802 675.145 791.78C675.1 791.605 675.036 791.349 674.961 791.029C674.811 790.387 674.618 789.489 674.448 788.468C674.103 786.393 673.872 783.931 674.205 782.068C674.577 779.989 675.274 774.343 675.874 769.259C676.175 766.708 676.453 764.284 676.656 762.499C676.757 761.606 676.84 760.873 676.897 760.363L676.945 759.938L687.957 749.821C688.037 749.921 688.123 750.031 688.213 750.15C688.765 750.871 689.502 751.911 690.234 753.181C691.709 755.737 693.116 759.132 693.064 762.679C693.008 766.469 692.835 770.969 692.676 774.527C692.597 776.305 692.521 777.845 692.465 778.941C692.436 779.488 692.413 779.925 692.397 780.225L692.379 780.568Z" fill="#5E6366" stroke="#3E4345" stroke-width="2"/>
<path d="M689.458 641.401L689.453 641.421L689.45 641.441L687.044 656.556L687.044 656.556L687.042 656.565C686.57 659.964 686.299 663.39 686.232 666.822L686.232 666.835L686.233 666.849C686.245 667.235 686.167 668.344 686.011 670.039C685.856 671.716 685.628 673.929 685.352 676.491C684.799 681.614 684.052 688.128 683.3 694.536C682.549 700.944 681.794 707.246 681.227 711.946C680.944 714.296 680.707 716.246 680.541 717.608C680.459 718.289 680.393 718.823 680.349 719.187L680.298 719.602L680.297 719.609L670.764 732.047L670.733 732.087L670.711 732.134L671.161 732.351C670.711 732.134 670.711 732.134 670.711 732.134L670.71 732.134L670.71 732.136L670.707 732.141L670.698 732.161L670.662 732.237C670.63 732.303 670.585 732.401 670.527 732.526C670.411 732.776 670.247 733.137 670.053 733.581C669.664 734.468 669.152 735.692 668.661 737.032C668.171 738.371 667.698 739.836 667.391 741.206C667.087 742.56 666.931 743.88 667.121 744.902C667.448 746.657 667.341 748.967 666.97 751.068C666.785 752.115 666.538 753.096 666.253 753.917C665.964 754.747 665.65 755.377 665.35 755.749L665.243 755.882L665.24 756.053L665.24 756.053L665.24 756.055L665.24 756.061L665.239 756.086L665.237 756.182L665.229 756.551C665.223 756.87 665.213 757.329 665.199 757.888C665.173 759.005 665.134 760.521 665.084 762.117C664.984 765.326 664.842 768.808 664.673 770.056C664.578 770.755 664.619 771.74 664.702 772.801C664.75 773.42 664.815 774.093 664.88 774.771C664.927 775.255 664.973 775.741 665.015 776.213C665.115 777.363 665.184 778.449 665.153 779.32C665.138 779.756 665.098 780.119 665.031 780.402C664.961 780.695 664.876 780.844 664.812 780.909C664.813 780.908 664.813 780.908 664.811 780.91C664.8 780.917 664.744 780.955 664.595 781.006C664.436 781.06 664.218 781.113 663.94 781.162C663.387 781.26 662.647 781.334 661.775 781.38C660.035 781.472 657.817 781.455 655.62 781.332C653.421 781.209 651.261 780.98 649.632 780.655C648.814 780.492 648.153 780.308 647.693 780.112C647.462 780.014 647.303 779.921 647.204 779.841C647.13 779.781 647.111 779.746 647.107 779.739C647.066 779.542 647.052 779.208 647.076 778.74C647.1 778.278 647.159 777.721 647.243 777.102C647.413 775.865 647.682 774.405 647.968 773.003C648.253 771.603 648.552 770.268 648.78 769.282C648.895 768.79 648.991 768.385 649.059 768.103C649.092 767.963 649.119 767.853 649.137 767.778L649.158 767.693L649.163 767.672L649.165 767.666L649.165 767.665L649.165 767.665L648.68 767.545L649.165 767.665L649.171 767.642L649.174 767.619L650.65 757.863C650.671 757.823 650.701 757.769 650.737 757.701C650.818 757.548 650.933 757.327 651.07 757.057C651.341 756.518 651.697 755.779 652.033 754.982C652.367 754.187 652.686 753.321 652.878 752.531C652.974 752.136 653.041 751.748 653.06 751.39C653.077 751.038 653.049 750.682 652.929 750.371C652.804 750.049 652.784 749.565 652.867 748.955C652.949 748.358 653.122 747.7 653.324 747.071C653.525 746.443 653.751 745.856 653.936 745.401C654.019 745.196 654.093 745.019 654.153 744.876L654.172 744.83L654.177 744.817C654.232 744.687 654.284 744.561 654.306 744.492C654.305 744.495 654.305 744.497 654.305 744.497C654.305 744.497 654.313 744.477 654.338 744.423C654.365 744.365 654.402 744.288 654.449 744.19C654.475 744.137 654.503 744.078 654.534 744.014C654.616 743.847 654.713 743.645 654.821 743.419C655.12 742.793 655.505 741.962 655.869 741.071C656.232 740.182 656.579 739.219 656.8 738.33C657.015 737.46 657.13 736.581 656.954 735.897C656.95 735.879 656.938 735.807 656.929 735.655C656.921 735.513 656.917 735.328 656.916 735.098C656.916 734.64 656.931 734.026 656.961 733.275C657.02 731.776 657.136 729.751 657.291 727.38C657.602 722.638 658.07 716.521 658.557 710.471C659.043 704.422 659.547 698.443 659.93 693.975C660.121 691.741 660.282 689.886 660.395 688.589C660.451 687.94 660.496 687.431 660.526 687.084L660.561 686.688L660.57 686.587L660.572 686.565L672.285 602.371L702.559 608.598C702.535 608.668 702.508 608.743 702.479 608.825C702.305 609.316 702.054 610.022 701.744 610.883C701.124 612.604 700.27 614.941 699.334 617.405C698.397 619.87 697.38 622.46 696.433 624.687C695.481 626.925 694.614 628.763 693.98 629.748C692.624 631.855 691.494 634.78 690.708 637.15C690.312 638.341 690.001 639.402 689.787 640.165C689.681 640.547 689.599 640.855 689.543 641.068C689.516 641.174 689.494 641.257 689.48 641.313L689.464 641.378L689.46 641.394L689.459 641.399L689.458 641.4L689.458 641.4C689.458 641.401 689.458 641.401 689.944 641.52L689.458 641.401Z" fill="white" stroke="#5E6366"/>
<path opacity="0.1" d="M703.221 608.223C703.221 608.223 702.285 610.888 701.002 614.386C698.961 619.906 696.021 627.507 694.401 630.018C691.77 634.12 689.935 641.519 689.935 641.519L687.528 656.643C687.063 660.023 686.797 663.428 686.732 666.841C686.732 668.183 685.852 676.742 684.729 686.604C682.996 701.68 680.777 719.814 680.777 719.814L671.161 732.36C671.161 732.36 670.674 733.318 670.066 734.832C668.858 737.708 667.154 742.375 667.612 744.781C668.296 748.413 667.154 754.27 665.74 756.033C665.74 756.033 665.506 767.534 665.169 770.093C664.831 772.652 666.433 779.936 665.169 781.23C663.905 782.524 647.079 781.94 646.62 779.831C646.161 777.722 648.68 767.525 648.68 767.525L650.168 757.672C650.168 757.672 653.146 752.286 652.453 750.522C651.76 748.759 653.717 744.666 653.83 744.311C653.942 743.957 657.041 738.216 656.47 735.992C656.03 734.296 658.343 706.53 659.419 693.361C659.785 689.22 660.019 686.527 660.019 686.527L670.159 613.629L670.983 607.753L671.807 601.792L703.221 608.223Z" fill="#5E6366"/>
<path d="M656.255 660.65C657.25 660.552 657.25 660.552 657.25 660.552L657.25 660.553L657.25 660.555L657.251 660.564L657.254 660.597L657.267 660.727C657.278 660.84 657.294 661.007 657.314 661.22C657.354 661.645 657.411 662.254 657.477 662.992C657.61 664.468 657.781 666.458 657.934 668.516C658.087 670.572 658.223 672.704 658.285 674.459C658.316 675.336 658.328 676.13 658.314 676.778C658.301 677.379 658.265 677.952 658.163 678.348C658.163 678.347 658.164 678.346 658.164 678.346C658.166 678.347 658.157 678.426 658.164 678.639C658.171 678.875 658.195 679.198 658.236 679.606C658.317 680.422 658.463 681.529 658.663 682.876C659.065 685.566 659.683 689.168 660.44 693.206L660.44 693.206C661.641 699.633 663.208 707.15 664.808 713.81C666.415 720.499 668.035 726.238 669.332 729.166L669.355 729.218L669.372 729.273L671.02 734.554L671.02 734.554L673.717 743.18L673.728 743.216L673.737 743.254L672.762 743.478C673.737 743.254 673.737 743.254 673.737 743.254L673.737 743.255L673.737 743.256L673.738 743.26L673.742 743.275L673.754 743.332C673.765 743.382 673.781 743.454 673.801 743.545C673.841 743.729 673.897 743.991 673.961 744.311C674.09 744.949 674.253 745.819 674.391 746.74C674.529 747.657 674.646 748.648 674.674 749.522C674.688 749.959 674.682 750.387 674.639 750.773C674.598 751.142 674.516 751.553 674.332 751.905C674.332 751.905 674.331 751.907 674.329 751.912C674.327 751.917 674.324 751.923 674.321 751.933C674.315 751.951 674.307 751.977 674.298 752.012C674.281 752.084 674.266 752.179 674.256 752.301C674.235 752.548 674.238 752.862 674.269 753.231C674.33 753.969 674.494 754.847 674.719 755.699C674.945 756.553 675.222 757.337 675.493 757.895C675.621 758.159 675.732 758.338 675.815 758.445L676.632 758.535L676.497 759.548L675.439 767.513L675.439 767.513L674.448 767.381L675.439 767.513L675.439 767.514L675.438 767.516L675.437 767.525L675.433 767.561L675.414 767.705C675.398 767.831 675.374 768.018 675.345 768.256C675.286 768.733 675.205 769.416 675.115 770.241C674.935 771.891 674.719 774.102 674.575 776.353C674.43 778.611 674.361 780.877 674.466 782.651C674.519 783.541 674.614 784.265 674.749 784.787C674.816 785.047 674.886 785.224 674.945 785.335C674.967 785.375 674.984 785.399 674.994 785.413C675.113 785.471 675.43 785.569 676.033 785.642C676.644 785.716 677.426 785.753 678.329 785.754C680.133 785.755 682.342 785.615 684.49 785.39C686.638 785.165 688.694 784.857 690.192 784.532C690.94 784.369 691.509 784.21 691.874 784.069C691.711 782.678 691.178 778.831 690.639 775.023C690.328 772.824 690.019 770.664 689.788 769.054C689.672 768.249 689.576 767.581 689.509 767.115L689.431 766.574L689.411 766.432L689.405 766.396L689.404 766.387L689.404 766.385L689.404 766.384C689.404 766.384 689.404 766.384 690.393 766.241M656.255 660.65L657.25 660.552L657.249 660.541L657.247 660.531L656.255 660.65ZM656.255 660.65C657.247 660.531 657.247 660.531 657.247 660.53L657.247 660.53L657.247 660.527L657.246 660.518L657.242 660.484L657.225 660.35C657.211 660.234 657.189 660.062 657.161 659.843C657.105 659.404 657.021 658.772 656.914 657.999C656.699 656.453 656.386 654.339 655.995 652.069C655.604 649.801 655.134 647.366 654.603 645.182C654.078 643.019 653.476 641.028 652.804 639.69L652.804 639.69L652.799 639.682C652.016 638.159 650.806 634.392 649.518 629.905C648.243 625.465 646.923 620.442 645.913 616.497C645.398 614.472 644.964 612.732 644.657 611.499C644.581 611.191 644.513 610.915 644.453 610.674C644.906 610.636 645.479 610.588 646.152 610.533C647.937 610.385 650.426 610.184 653.243 609.966C658.88 609.53 665.818 609.03 671.051 608.772L671.051 608.772C673.459 608.652 675.487 608.586 676.857 608.599C677.116 608.602 677.345 608.607 677.544 608.615C677.495 608.921 677.458 609.269 677.43 609.647C677.354 610.664 677.333 612.01 677.343 613.568C677.343 613.568 677.343 613.568 677.343 613.568L678.343 613.562M678.343 613.562C678.39 621.603 679.485 635.75 680.646 639.555L679.689 639.845C679.689 639.846 679.689 639.846 679.689 639.846C680.459 642.382 681.253 647.567 681.768 652.373C682.024 654.761 682.208 657.025 682.286 658.778C682.325 659.657 682.336 660.393 682.319 660.946C682.31 661.224 682.295 661.441 682.275 661.6C682.258 661.733 682.242 661.785 682.243 661.785C682.1 662.116 682.017 662.56 681.958 662.98C681.894 663.44 681.845 663.991 681.807 664.588C681.73 665.785 681.694 667.223 681.679 668.599C681.664 669.978 681.671 671.307 681.682 672.29C681.687 672.782 681.693 673.188 681.698 673.472C681.7 673.613 681.702 673.725 681.704 673.8L681.706 673.887L681.706 673.91L681.706 673.915L681.706 673.917L681.706 673.917C681.706 673.917 681.706 673.918 682.706 673.895L681.706 673.918L681.709 674.046L681.744 674.17C682.902 678.231 683.569 682.423 683.729 686.652L683.73 686.662C684.094 694.251 683.963 701.857 683.339 709.429L683.333 709.5L683.337 709.571L684.335 709.511C683.337 709.571 683.337 709.571 683.337 709.571L683.337 709.572L683.337 709.576L683.338 709.591L683.342 709.652L683.356 709.891C683.369 710.1 683.387 710.407 683.41 710.799C683.456 711.582 683.521 712.705 683.597 714.06C683.751 716.771 683.95 720.414 684.136 724.14C684.321 727.867 684.492 731.673 684.588 734.713C684.636 736.233 684.665 737.556 684.668 738.579C684.671 739.639 684.644 740.286 684.604 740.521C684.449 741.434 684.683 742.661 685.003 743.851C685.337 745.092 685.821 746.485 686.309 747.816C686.525 748.403 686.737 748.97 686.94 749.511C687.207 750.221 687.457 750.886 687.672 751.491C687.86 752.017 688.01 752.468 688.113 752.829C688.164 753.01 688.201 753.157 688.224 753.274C688.235 753.332 688.242 753.378 688.246 753.412C688.248 753.429 688.25 753.442 688.25 753.451C688.251 753.455 688.251 753.458 688.251 753.46C688.251 753.463 688.251 753.465 688.251 753.465C688.251 754.346 688.544 757.608 688.827 760.562C688.97 762.059 689.113 763.504 689.22 764.575C689.273 765.11 689.318 765.552 689.349 765.86L689.386 766.217L689.395 766.311L689.398 766.335L689.398 766.341L689.398 766.342L689.398 766.343C689.398 766.343 689.399 766.343 690.393 766.241M678.343 613.562C678.324 610.457 678.427 608.31 678.82 607.907L678.343 613.562ZM690.393 766.241L689.399 766.343L689.401 766.363L689.404 766.384L690.393 766.241ZM675.89 758.527C675.89 758.528 675.885 758.524 675.875 758.514C675.885 758.522 675.889 758.527 675.89 758.527Z" fill="white" stroke="#7A7A7A" stroke-width="2"/>
<path d="M666.015 421.153L666.036 421.138L666.056 421.122C668.047 419.526 669.635 417.468 670.69 415.121C671.454 413.56 672.095 411.94 672.607 410.275C672.666 410.107 672.718 409.934 672.763 409.786C672.779 409.732 672.794 409.681 672.809 409.635L672.809 409.635L672.812 409.623C673.622 406.893 674.219 404.101 674.597 401.275C674.878 401.121 675.288 400.898 675.803 400.626C676.841 400.078 678.304 399.328 680.007 398.52L680.01 398.519C684.504 396.37 690.459 393.905 694.568 393.561C696.673 393.385 697.854 393.8 698.357 394.548C698.885 395.332 699.039 396.994 697.707 400.268C696.901 402.24 696.213 404.261 695.647 406.319C695.559 406.631 695.481 406.941 695.412 407.24C693.569 414.794 694.761 419.519 696.235 422.233C696.483 422.701 696.768 423.148 697.087 423.569C697.428 424.046 697.823 424.48 698.265 424.86L700.435 438.963L700.435 438.965L700.622 440.163L700.623 440.169L700.892 441.822L699.249 443.641L699.249 443.641L697.968 445.058L697.966 445.06L690.729 453.023L671.941 455.19L661.828 452.424L661.827 452.424L660.022 451.928C660.022 451.879 660.023 451.828 660.024 451.775C660.031 451.184 660.045 450.33 660.074 449.277C660.131 447.173 660.245 444.281 660.472 441.129C660.798 437.084 661.348 432.642 662.269 428.894C662.73 427.02 663.276 425.349 663.919 424C664.568 422.637 665.276 421.685 666.015 421.153Z" fill="white" stroke="#7A7A7A" stroke-width="2"/>
<path opacity="0.1" d="M698.643 401.354C697.622 403.865 699.139 399.303 698.643 401.354C694.56 404.325 684.944 412.788 679.542 412.788C675.89 412.788 674.794 412.108 671.667 410.661C672.613 407.628 673.287 404.513 673.68 401.354C673.68 401.354 706.087 383.067 698.643 401.354Z" fill="black" fill-opacity="0.87"/>
<path d="M705.891 385.951C705.887 392.023 703.688 397.875 699.724 402.382C695.761 406.886 690.316 409.728 684.437 410.366C683.599 410.45 682.765 410.504 681.929 410.504C677.195 410.504 672.565 409.067 668.625 406.373C664.685 403.677 661.61 399.844 659.793 395.355C657.977 390.866 657.501 385.925 658.428 381.158C659.354 376.391 661.64 372.015 664.993 368.583C668.346 365.151 672.615 362.817 677.258 361.871C681.902 360.926 686.716 361.411 691.091 363.266C695.467 365.121 699.211 368.265 701.847 372.303C704.483 376.341 705.891 381.091 705.891 385.951Z" fill="white" stroke="#7A7A7A" stroke-width="2"/>
<path opacity="0.1" d="M710.44 499.221L706.882 508.719C706.882 508.719 703.989 508.843 699.476 508.987C684.241 509.486 650.674 510.118 649.176 506.112C648.84 505.096 648.663 504.031 648.652 502.959C648.455 496.853 651.236 487.48 651.236 487.48C651.236 487.48 652.837 468.723 652.837 467.909C652.837 467.094 651.461 453.954 651.461 453.954L654.213 443.411L661.882 437.9C661.882 437.9 665.318 443.296 667.378 443.756C669.438 444.216 672.191 446.813 672.191 446.813C672.191 446.813 678.942 451.031 681.123 448.682C683.305 446.334 700.243 436.021 700.243 436.021L709.176 446.104L710.44 499.221Z" fill="black" fill-opacity="0.87"/>
<path d="M651.264 488.927L651.744 489.07L651.758 489.021L651.762 488.97L651.264 488.927ZM651.264 488.927C651.762 488.97 651.762 488.97 651.762 488.97L651.762 488.969L651.763 488.966L651.764 488.956L651.767 488.916L651.78 488.759L651.831 488.162C651.875 487.648 651.937 486.912 652.013 486.026C652.163 484.255 652.363 481.885 652.563 479.489C652.763 477.093 652.963 474.672 653.113 472.798C653.262 470.944 653.365 469.586 653.365 469.356C653.365 469.121 653.275 468.111 653.148 466.784C653.019 465.436 652.847 463.716 652.674 462.023C652.502 460.329 652.33 458.66 652.201 457.416C652.137 456.793 652.083 456.277 652.045 455.916L652.002 455.497L651.996 455.44M651.264 488.927L651.744 489.07L651.743 489.07L651.743 489.071L651.742 489.076L651.736 489.095L651.713 489.173C651.693 489.242 651.664 489.345 651.626 489.478C651.551 489.744 651.444 490.131 651.316 490.615C651.06 491.584 650.72 492.939 650.387 494.483C649.718 497.582 649.084 501.4 649.18 504.388C649.198 504.828 649.234 505.33 649.288 505.752C649.36 506.309 649.489 506.857 649.674 507.387C649.713 507.487 649.822 507.632 650.076 507.803C650.33 507.975 650.691 508.148 651.164 508.315C652.109 508.649 653.428 508.935 655.054 509.173L655.056 509.174C663.722 510.488 680.352 510.414 692.469 510.126L692.471 510.126C694.846 510.079 697.072 510.012 699.018 509.945L699.027 509.944H699.036H699.468C701.719 509.872 703.567 509.803 704.851 509.752C705.494 509.726 705.997 509.705 706.338 509.69C706.409 509.687 706.473 509.684 706.53 509.682L709.938 500.593L708.709 447.756L701.096 439.171L701.095 439.17L700.172 438.122C700.087 438.174 699.988 438.234 699.876 438.302C699.459 438.557 698.858 438.925 698.13 439.379L698.128 439.38C695.751 440.85 691.991 443.196 688.62 445.397C686.934 446.498 685.348 447.56 684.083 448.457C682.801 449.366 681.891 450.076 681.519 450.479L681.518 450.48C680.823 451.228 679.806 451.406 678.801 451.337C677.789 451.267 676.686 450.94 675.686 450.552C674.681 450.161 673.749 449.698 673.071 449.333C672.732 449.15 672.454 448.992 672.261 448.878C672.164 448.822 672.088 448.776 672.036 448.745L671.976 448.708L671.96 448.698L671.956 448.696L671.955 448.695L671.954 448.695C671.954 448.695 671.954 448.695 672.219 448.271L671.954 448.695L671.912 448.668L651.996 455.44M651.996 455.44L654.68 445.16L659.804 441.489L659.805 441.488L661.781 440.066C662.514 441.157 663.304 442.207 664.147 443.212C664.937 444.291 665.992 445.14 667.206 445.671L667.25 445.69L667.296 445.701C668.219 445.91 669.349 446.616 670.29 447.318C670.75 447.663 671.148 447.993 671.431 448.237C671.573 448.359 671.685 448.46 671.761 448.529C671.8 448.563 671.829 448.59 671.848 448.608L671.87 448.628L671.875 448.633L671.876 448.634L671.876 448.634L671.876 448.634L651.996 455.44Z" fill="white" stroke="#5E6366"/>
<path opacity="0.1" d="M589.522 403.109L579.55 410.259C579.55 410.259 579.466 408.831 579.213 406.876C584.138 404.748 587.135 400.042 587.996 398.537C588.914 401.087 589.522 403.109 589.522 403.109Z" fill="black" fill-opacity="0.87"/>
<path d="M588.776 401.654C588.791 401.69 588.807 401.727 588.823 401.764C589.318 402.912 589.977 404.47 590.635 406.114C591.294 407.76 591.948 409.481 592.436 410.958C592.679 411.697 592.878 412.363 593.014 412.921C593.155 413.496 593.213 413.894 593.213 414.121C593.213 414.617 593.346 415.246 593.525 415.896C593.71 416.569 593.97 417.354 594.275 418.197C594.886 419.883 595.697 421.853 596.502 423.721C597.308 425.591 598.113 427.371 598.716 428.683C599.018 429.339 599.27 429.879 599.446 430.255C599.534 430.443 599.604 430.59 599.651 430.69L599.705 430.805L599.719 430.834L599.723 430.842L599.724 430.844L599.724 430.844C599.724 430.845 599.724 430.845 600.627 430.415L599.724 430.845L599.791 430.985L599.896 431.097L599.896 431.097L599.896 431.097L599.896 431.098L599.897 431.098L599.9 431.101L599.919 431.123C599.938 431.143 599.967 431.176 600.004 431.219C600.079 431.306 600.188 431.436 600.316 431.601C600.575 431.933 600.904 432.398 601.199 432.932C601.824 434.064 602.136 435.224 601.762 436.129C601.42 436.959 601.349 437.792 601.77 438.494C602.169 439.159 602.85 439.432 603.354 439.551C603.879 439.676 604.415 439.684 604.791 439.669C604.984 439.661 605.15 439.646 605.268 439.633C605.328 439.627 605.376 439.621 605.411 439.616L605.453 439.61L605.467 439.608L605.472 439.607L605.473 439.607L605.474 439.607C605.474 439.607 605.475 439.607 605.318 438.619L605.475 439.607L605.74 439.565L605.949 439.395L610.957 435.324L610.964 435.32C610.995 435.3 611.041 435.269 611.101 435.23C611.221 435.152 611.395 435.04 611.611 434.903C612.043 434.629 612.64 434.259 613.299 433.875C614.662 433.078 616.142 432.309 617.009 432.095C617.705 431.923 618.435 431.503 619.085 431.054C619.754 430.591 620.426 430.035 621.016 429.509C621.608 428.982 622.133 428.472 622.508 428.095C622.576 428.027 622.639 427.963 622.697 427.904L623.846 428.218L629.655 440.832V454.186C629.651 454.191 629.646 454.196 629.641 454.202C629.489 454.373 629.271 454.606 629.008 454.846C628.452 455.355 627.815 455.788 627.246 455.908C626.179 456.134 624.805 456.954 623.36 457.988C621.869 459.055 620.153 460.461 618.368 462.018C618.087 462.264 617.609 462.502 616.895 462.695C616.194 462.884 615.336 463.01 614.362 463.08C612.413 463.22 610.107 463.128 607.874 462.936C605.648 462.745 603.528 462.458 601.961 462.218C601.179 462.099 600.536 461.991 600.09 461.913C599.868 461.875 599.694 461.843 599.576 461.822C599.551 461.817 599.527 461.813 599.507 461.809C599.481 461.804 599.46 461.8 599.443 461.797L599.41 461.791L599.402 461.79L599.4 461.789L599.4 461.789L599.283 461.767L599.164 461.773C593.626 462.047 590.431 459.755 588.59 457.442C587.656 456.268 587.059 455.072 586.696 454.168C586.516 453.718 586.395 453.344 586.32 453.087C586.283 452.959 586.257 452.86 586.241 452.796C586.233 452.764 586.228 452.741 586.225 452.727L586.222 452.714L586.222 452.713L586.222 452.713L586.222 452.712L586.203 452.622L586.167 452.535L585.243 452.919L586.167 452.535L586.166 452.535L586.166 452.533L586.163 452.526L586.151 452.496L586.102 452.38C586.06 452.277 585.998 452.124 585.918 451.929C585.759 451.537 585.531 450.971 585.257 450.276C584.708 448.886 583.975 446.981 583.235 444.921C582.494 442.859 581.751 440.651 581.18 438.654C580.603 436.633 580.225 434.907 580.175 433.773C580.111 432.353 579.47 430.013 578.618 427.423C577.751 424.788 576.62 421.762 575.5 418.906C574.38 416.047 573.267 413.348 572.435 411.364C572.228 410.871 572.038 410.422 571.87 410.025C577.395 411.176 581.744 408.942 584.732 406.324C586.4 404.863 587.663 403.27 588.508 402.049C588.602 401.912 588.691 401.78 588.776 401.654Z" fill="#9ED9D9" stroke="#3E4345" stroke-width="2"/>
<path opacity="0.1" d="M604.176 440.612C604.176 440.612 607.042 451.519 605.206 452.689L604.176 440.612Z" fill="black" fill-opacity="0.87"/>
<path opacity="0.1" d="M699.476 510.396C684.242 510.894 650.674 511.517 649.176 507.52C648.84 506.504 648.663 505.44 648.652 504.367L698.418 507.051L699.476 510.396Z" fill="black" fill-opacity="0.87"/>
<path opacity="0.1" d="M703.221 608.224C703.221 608.224 702.285 610.888 701.002 614.387C694.682 613.994 686.311 613.581 678.362 613.524C675.553 613.524 672.8 613.524 670.197 613.62C664.673 613.792 659.897 614.252 656.854 615.134C653.007 616.347 648.985 616.878 644.963 616.706C643.933 612.652 643.221 609.738 643.221 609.738C643.221 609.738 660.525 608.253 671.021 607.735L671.845 601.773L703.221 608.224Z" fill="black" fill-opacity="0.87"/>
<path d="M710.633 611.338C710.573 611.86 710.52 612.305 710.476 612.658C710.227 612.638 709.931 612.615 709.592 612.588C708.413 612.496 706.715 612.368 704.64 612.226C700.49 611.941 694.826 611.6 688.773 611.373C682.723 611.145 676.273 611.031 670.553 611.202C664.863 611.372 659.797 611.827 656.572 612.775C650.526 614.552 646.06 614.539 643.143 614.107C641.682 613.891 640.602 613.568 639.901 613.307C639.736 613.246 639.592 613.189 639.469 613.136C639.503 612.748 639.544 612.212 639.583 611.56C639.667 610.157 639.741 608.211 639.698 606.04C639.614 601.747 639.073 596.385 637.122 592.646C636.577 591.6 636.018 589.506 635.499 586.6C634.988 583.736 634.535 580.201 634.156 576.362C633.4 568.687 632.947 559.854 632.919 552.852C632.919 549.62 632.999 546.801 633.175 544.676C633.263 543.612 633.373 542.744 633.504 542.096C633.569 541.771 633.636 541.52 633.701 541.335C633.765 541.153 633.81 541.084 633.815 541.077C633.815 541.076 633.815 541.076 633.815 541.076L633.816 541.075C634.219 540.569 634.709 539.616 635.236 538.465C635.782 537.275 636.415 535.762 637.099 534.049C638.468 530.623 640.054 526.358 641.557 522.201C643.061 518.042 644.486 513.983 645.535 510.964C646.06 509.455 646.49 508.205 646.789 507.332C646.875 507.084 646.949 506.866 647.012 506.681L648.709 506.774L648.71 506.774L655.264 507.129L655.264 507.129L692.53 509.142L692.53 509.142L697.696 509.421L698.102 510.681L698.103 510.683L715.549 565.257L713.764 569.121L713.718 569.221L713.695 569.329L714.672 569.54L713.695 569.329L713.695 569.329L713.695 569.33L713.695 569.331L713.694 569.334L713.691 569.346L713.682 569.391C713.673 569.431 713.661 569.489 713.645 569.565C713.614 569.717 713.568 569.939 713.512 570.224C713.4 570.793 713.244 571.613 713.069 572.618L713.068 572.622C712.338 576.913 711.175 584.762 711.614 591.065C711.895 595.502 711.585 601.124 711.198 605.668C711.005 607.934 710.795 609.919 710.633 611.338Z" fill="#919699" stroke="#3E4345" stroke-width="2"/>
<path d="M735.169 551.254L735.515 555.011C735.515 555.011 717.06 548.858 717.996 541.296C718.933 533.734 717.996 534.587 717.996 534.587L732.828 535.871L735.169 551.254Z" fill="#9ED9D9"/>
<path opacity="0.1" d="M735.169 551.254L735.515 555.011C735.515 555.011 717.06 548.858 717.996 541.296C718.933 533.734 717.996 534.587 717.996 534.587L732.828 535.871L735.169 551.254Z" fill="black" fill-opacity="0.87"/>
<path opacity="0.1" d="M616.489 443.641C618.373 445.279 620.594 446.462 622.987 447.101C622.294 446.947 621.65 446.617 621.114 446.142C619.794 445.184 618.539 444.139 617.266 443.123C616.236 442.299 614.953 440.928 613.689 440.593C614.517 441.705 615.455 442.727 616.489 443.641Z" fill="black" fill-opacity="0.87"/>
<path opacity="0.1" d="M616.77 448.576C617.363 449.262 617.844 450.043 618.193 450.886C618.784 453.272 618.748 455.775 618.09 458.142L615.131 450.838C614.616 449.592 614.101 448.346 613.483 447.158C613.212 446.65 611.508 444.532 611.704 444.091C612.229 442.845 616.217 447.877 616.77 448.576Z" fill="black" fill-opacity="0.87"/>
<path opacity="0.1" d="M699.326 489.023C701.343 488.773 703.229 487.869 704.709 486.444C701.666 486.837 698.782 488.064 695.786 488.706C693.004 489.368 690.088 489.092 687.472 487.92C690.917 489.646 695.655 489.703 699.326 489.023Z" fill="black" fill-opacity="0.87"/>
<path opacity="0.1" d="M690.721 467.563C690.175 467.646 689.62 467.505 689.176 467.17C686.891 465.828 684.638 464.429 682.416 462.972C680.253 461.544 677.64 460.097 675.796 458.295C680.337 462.493 684.569 466.039 690.721 467.563Z" fill="black" fill-opacity="0.87"/>
<path opacity="0.1" d="M697.069 492.425C698.269 492.481 699.471 492.381 700.646 492.128C701.835 491.875 702.886 491.169 703.586 490.154C703.161 490.053 702.715 490.125 702.341 490.355C698.713 491.918 694.729 492.406 690.843 491.764C692.706 492.578 695.094 492.415 697.069 492.425Z" fill="black" fill-opacity="0.87"/>
<path opacity="0.1" d="M675.384 546.845C673 547.581 670.55 548.072 668.071 548.312C666.142 548.403 664.209 548.364 662.285 548.197L652.922 547.593L648.24 547.286C647.688 547.286 645.431 547.286 646.545 546.145C647.107 545.59 650.234 545.944 651.04 545.915C652.594 545.864 654.154 545.835 655.721 545.829C658.82 545.829 661.929 545.829 665.028 546.021C668.502 546.193 671.92 546.462 675.384 546.845Z" fill="black" fill-opacity="0.87"/>
<path opacity="0.1" d="M664.532 551.59C662.94 551.522 660.89 552.49 659.251 552.701C657.418 552.923 655.571 552.997 653.727 552.922C650.077 552.832 646.473 552.079 643.081 550.698C650.225 551.072 657.388 551.292 664.532 551.59Z" fill="black" fill-opacity="0.87"/>
<path opacity="0.1" d="M644.476 556.611C645.168 556.755 645.85 556.947 646.517 557.187C650.468 558.337 654.672 557.321 658.689 556.305C657.687 557.848 655.88 558.509 654.073 558.931C651.134 559.693 648.07 559.807 645.084 559.266C644.148 559.075 641.798 558.73 641.339 557.733C640.571 556.266 643.596 556.468 644.476 556.611Z" fill="black" fill-opacity="0.87"/>
<path opacity="0.1" d="M666.629 564.174C667.814 564.422 668.983 564.742 670.131 565.132C674.579 566.263 679.195 564.711 683.661 563.666C689.03 562.418 694.536 561.896 700.037 562.113C699.054 562.113 697.491 562.995 696.526 563.292C695.262 563.685 693.979 564.049 692.697 564.375C690.178 565.008 687.622 565.525 685.047 565.899C679.849 566.668 674.588 566.903 669.345 566.599C666.948 566.465 662.79 566.714 660.74 565.477C662.512 564.399 664.58 563.942 666.629 564.174Z" fill="black" fill-opacity="0.87"/>
<path opacity="0.1" d="M668.305 419.622C668.305 419.622 668.53 430.414 666.816 435.341C666.273 436.874 665.431 439.702 664.513 442.874C663.511 446.392 662.416 450.331 661.573 453.417C660.73 456.503 660.168 458.573 660.168 458.573C660.168 458.573 656.301 490.815 655.3 506.179C655.3 506.447 655.3 506.725 655.243 506.984C655.187 507.846 655.094 508.747 654.953 509.677C652.725 524.935 639.869 548.465 635.552 550.344C634.206 550.976 632.977 551.842 631.919 552.903C631.919 546.414 632.238 541.497 633.034 540.5C635.552 537.338 646.311 505.69 646.311 505.69L648.764 505.824C648.708 505.383 648.67 504.866 648.652 504.415C648.455 498.31 651.236 488.937 651.236 488.937C651.236 488.937 652.837 470.18 652.837 469.365C652.837 468.551 651.461 455.41 651.461 455.41L654.213 444.868L659.485 441.091C660.14 432.954 661.704 423.073 665.44 420.38C667.311 418.881 668.804 416.945 669.794 414.734C670.534 414.84 669.185 414.169 669.185 414.169L668.305 419.622Z" fill="black" fill-opacity="0.87"/>
<path d="M659.485 457.116C658.957 456.974 658.717 456.909 658.609 456.88C658.52 456.856 658.52 456.856 658.52 456.856L658.52 456.855L658.521 456.853L658.523 456.843L658.534 456.803L658.576 456.649L658.735 456.06C658.873 455.549 659.072 454.815 659.317 453.919C659.806 452.126 660.475 449.685 661.199 447.089C662.641 441.913 664.31 436.074 665.179 433.574C665.983 431.264 666.354 427.47 666.512 424.149C666.59 422.51 666.615 421.021 666.621 419.943C666.624 419.404 666.622 418.968 666.619 418.667C666.618 418.517 666.616 418.401 666.615 418.322L666.613 418.234L666.613 418.212L666.613 418.207L666.613 418.206L666.613 418.205L666.607 417.923L666.75 417.678L668.77 414.237C668.337 414.187 667.898 414.186 667.462 414.237C666.62 414.334 665.808 414.62 665.083 415.075C663.54 416.181 661.385 416.635 659.552 416.794C657.7 416.956 655.947 416.833 655.113 416.624C654.833 416.554 653.746 416.379 652.167 416.158C650.622 415.94 648.676 415.688 646.735 415.46C644.794 415.233 642.868 415.032 641.36 414.917C640.604 414.859 639.967 414.824 639.491 414.818C639.252 414.814 639.069 414.818 638.939 414.827C638.876 414.831 638.84 414.836 638.823 414.839C638.232 415.055 637.617 414.938 637.234 414.854C637.055 414.815 636.901 414.776 636.759 414.741C636.502 414.678 636.286 414.624 636.031 414.591C635.685 414.547 635.438 414.573 635.234 414.669C635.038 414.76 634.759 414.974 634.461 415.537C634.333 415.779 634.21 416.015 634.09 416.243C633.532 417.307 633.057 418.214 632.58 418.933C631.979 419.838 631.311 420.551 630.341 421.007C629.714 421.301 628.762 421.969 628.003 422.639C627.631 422.967 627.35 423.257 627.19 423.466C627.203 423.596 627.192 423.715 627.173 423.812C627.13 424.029 627.035 424.203 626.968 424.31C626.829 424.532 626.632 424.746 626.45 424.925C626.072 425.299 625.553 425.724 625.054 426.11C624.547 426.502 624.031 426.876 623.644 427.151C623.626 427.164 623.609 427.176 623.592 427.188L631.735 454.289L631.8 454.505L631.766 454.728L630.777 454.576C631.766 454.728 631.766 454.728 631.766 454.728L631.766 454.73L631.765 454.734L631.762 454.754L631.75 454.83L631.705 455.125C631.664 455.384 631.605 455.764 631.529 456.249C631.376 457.217 631.155 458.604 630.882 460.278C630.336 463.625 629.579 468.122 628.74 472.715C627.902 477.305 626.979 482.005 626.098 485.753C625.659 487.626 625.226 489.278 624.815 490.567C624.61 491.21 624.406 491.779 624.204 492.246C624.01 492.692 623.787 493.124 623.519 493.433C623.248 493.748 622.634 494.634 621.752 496.03C620.887 497.402 619.799 499.21 618.59 501.32C616.171 505.542 613.28 510.958 610.733 516.493C608.181 522.038 605.997 527.654 604.965 532.291C604.448 534.612 604.233 536.631 604.377 538.246C604.52 539.859 605.007 540.944 605.768 541.588C612.219 546.78 619.039 551.473 626.17 555.628C626.253 555.55 626.355 555.446 626.477 555.312C626.777 554.986 627.11 554.585 627.501 554.115C627.761 553.802 628.047 553.458 628.366 553.086C629.879 551.314 631.977 549.067 634.498 547.97C634.853 547.815 635.452 547.334 636.27 546.405C637.058 545.509 637.965 544.296 638.945 542.824C640.904 539.882 643.114 535.971 645.216 531.642C649.436 522.951 653.134 512.754 653.562 505.459C654.004 497.93 655.238 485.806 656.359 475.583C656.92 470.467 657.453 465.821 657.846 462.454C658.043 460.77 658.204 459.406 658.317 458.463C658.373 457.991 658.417 457.624 658.447 457.376L658.481 457.093L658.49 457.021L658.492 457.002L658.492 456.998L658.492 456.997C658.493 456.996 658.493 456.996 659.485 457.116ZM659.485 457.116L658.52 456.856L658.501 456.925L658.493 456.996L659.485 457.116ZM625.923 555.827C625.923 555.825 625.934 555.818 625.954 555.809C625.932 555.823 625.922 555.828 625.923 555.827Z" fill="#9ED9D9" stroke="#3E4345" stroke-width="2"/>
<path opacity="0.1" d="M716.62 565.324L714.672 569.541C714.672 569.541 714.401 570.797 714.054 572.79C713.707 572.745 713.381 572.595 713.118 572.359C710.253 570.011 693.455 552.318 692.622 536.609C692.032 525.022 692.313 515.035 692.5 510.588C692.556 509.188 692.612 508.345 692.612 508.163C692.612 508.163 705.665 491.984 704.176 486.253C702.687 480.522 699.251 449.832 699.251 449.832L698.745 445.807L697.875 439.002L695.796 422.536L697.95 423.054C698.315 423.568 698.754 424.023 699.251 424.405L701.479 438.887L709.214 447.609L710.478 500.706L706.92 510.195C706.92 510.195 704.026 510.329 699.513 510.473H699.073L716.62 565.324Z" fill="black" fill-opacity="0.87"/>
<path d="M694.855 507.81C694.949 507.692 695.072 507.535 695.223 507.343C695.58 506.884 696.089 506.224 696.694 505.415C697.903 503.797 699.502 501.576 701.057 499.17C702.608 496.769 704.132 494.157 705.178 491.761C705.701 490.564 706.115 489.395 706.348 488.316C706.579 487.249 706.65 486.194 706.408 485.263C705.685 482.473 704.462 473.454 703.412 465.028C702.89 460.837 702.414 456.826 702.069 453.862C701.896 452.38 701.756 451.16 701.659 450.31C701.611 449.885 701.573 449.553 701.548 449.328L701.519 449.07L701.511 449.005L701.51 448.988L701.509 448.984L701.509 448.983C701.509 448.983 701.509 448.983 700.515 449.094L701.509 448.983L701.507 448.969L700.908 444.224L700.908 444.224L700.262 439.125L700.261 439.118L700.112 438.003L700.111 437.997L698.225 423.144C699.537 423.463 701.606 423.981 703.736 424.577C705.461 425.059 707.21 425.589 708.624 426.1C709.332 426.356 709.94 426.602 710.411 426.829C710.913 427.07 711.161 427.244 711.242 427.327C711.567 427.66 712.031 427.947 712.504 428.194C712.997 428.451 713.581 428.705 714.21 428.95C715.469 429.442 716.968 429.924 718.395 430.346C719.826 430.769 721.2 431.137 722.216 431.399C722.725 431.53 723.144 431.634 723.437 431.706C723.584 431.742 723.698 431.77 723.777 431.789L723.867 431.811L723.879 431.814C725.276 432.205 726.549 432.972 727.565 434.039C728.584 435.109 729.307 436.443 729.655 437.901L729.663 437.936L729.674 437.971C729.76 438.242 729.826 438.541 729.901 438.897C730.473 441.725 730.727 443.499 730.9 444.713C730.933 444.945 730.964 445.157 730.993 445.351C731.158 446.462 731.297 447.171 731.813 447.905C731.812 447.92 731.811 447.935 731.81 447.952C731.794 448.169 731.745 448.495 731.658 448.934C731.485 449.804 731.184 451.006 730.79 452.441C730.002 455.307 728.862 459.028 727.689 462.723C726.517 466.417 725.316 470.074 724.407 472.809C723.952 474.176 723.571 475.313 723.304 476.107C723.268 476.213 723.234 476.313 723.203 476.407C722.956 476.335 722.678 476.263 722.392 476.208C721.944 476.12 721.373 476.05 720.853 476.145C720.585 476.194 720.266 476.298 719.985 476.526C719.683 476.771 719.486 477.109 719.418 477.503C719.308 478.135 719.109 479.146 718.936 480.009C718.849 480.438 718.77 480.827 718.712 481.109L718.644 481.442L718.625 481.533L718.62 481.556L718.619 481.562L718.619 481.563L718.618 481.564L718.618 481.564L719.598 481.767L718.618 481.564L718.589 481.706L718.601 481.85L718.601 481.85L718.601 481.851L718.601 481.853L718.602 481.864L718.606 481.915C718.609 481.961 718.614 482.031 718.619 482.121C718.629 482.303 718.641 482.568 718.649 482.895C718.664 483.551 718.659 484.451 718.581 485.427C718.503 486.406 718.353 487.439 718.087 488.37C717.818 489.313 717.451 490.079 716.984 490.593C716.197 491.461 715.669 492.888 715.288 494.345C714.894 495.85 714.613 497.571 714.412 499.181C714.21 500.796 714.087 502.321 714.013 503.442C713.977 504.003 713.952 504.464 713.937 504.785C713.93 504.937 713.925 505.058 713.922 505.144C713.893 505.229 713.853 505.352 713.802 505.507C713.699 505.828 713.553 506.288 713.384 506.851C713.046 507.975 712.615 509.515 712.24 511.17C711.866 512.821 711.543 514.613 711.434 516.236C711.327 517.808 711.404 519.414 711.997 520.556L711.997 520.557C712.095 520.745 712.261 521.26 712.471 522.174C712.671 523.047 712.891 524.185 713.124 525.535C713.59 528.233 714.103 531.734 714.618 535.563L714.618 535.565C715.272 540.349 715.918 545.604 716.488 550.413L716.488 550.413C717.008 554.781 717.462 558.773 717.786 561.673C717.948 563.123 718.077 564.3 718.166 565.114C718.211 565.521 718.245 565.837 718.268 566.052L718.283 566.187C718.272 566.223 718.26 566.265 718.246 566.312C718.187 566.508 718.099 566.788 717.985 567.117C717.755 567.78 717.426 568.619 717.023 569.375C716.602 570.163 716.172 570.722 715.791 570.974C715.622 571.086 715.51 571.105 715.438 571.102C715.37 571.1 715.226 571.073 714.997 570.885C713.654 569.785 708.798 564.849 704.175 558.222C699.541 551.58 695.272 543.423 694.875 535.857C694.315 524.866 694.539 515.314 694.726 510.608L694.726 510.605C694.763 509.609 694.8 508.831 694.828 508.302C694.839 508.102 694.848 507.937 694.855 507.81ZM714.916 505.325C714.916 505.325 711.058 516.577 712.884 520.095C713.549 521.37 714.579 527.762 715.609 535.43C716.264 540.222 716.91 545.484 717.481 550.295C718.521 559.036 719.298 566.272 719.298 566.272L714.916 505.325Z" fill="#9ED9D9" stroke="#3E4345" stroke-width="2"/>
<path opacity="0.1" d="M717.556 550.286C712.875 549.328 705.927 547.114 706.086 542.226C706.227 537.654 711.601 536.006 715.674 535.421C716.33 540.194 716.976 545.475 717.556 550.286Z" fill="black" fill-opacity="0.87"/>
<path d="M718.243 535.498L718.252 535.497L718.26 535.496C718.983 535.427 719.709 535.39 720.435 535.385C720.497 535.449 720.569 535.522 720.65 535.604C720.972 535.932 721.433 536.402 721.984 536.972C723.085 538.112 724.545 539.646 725.982 541.224C727.423 542.807 728.825 544.418 729.819 545.717C730.319 546.37 730.693 546.915 730.917 547.322C730.955 547.391 730.987 547.452 731.013 547.506C730.992 547.517 730.969 547.53 730.944 547.543C730.686 547.678 730.31 547.822 729.814 547.969C727.394 548.558 724.937 548.971 722.46 549.206C722.438 549.204 722.411 549.201 722.38 549.198C722.269 549.187 722.104 549.17 721.893 549.146C721.47 549.098 720.864 549.02 720.136 548.904C718.676 548.672 716.746 548.289 714.833 547.685C712.907 547.077 711.071 546.268 709.749 545.218C708.443 544.18 707.726 542.987 707.769 541.557C707.836 539.462 709.261 538.04 711.431 537.055C713.598 536.072 716.27 535.653 718.243 535.498ZM731.113 547.766C731.113 547.766 731.111 547.759 731.11 547.747C731.113 547.76 731.114 547.766 731.113 547.766Z" fill="white" stroke="#7A7A7A" stroke-width="2"/>
<path opacity="0.1" d="M732.079 547.852C731.891 548.264 731.142 548.619 730.075 548.935C725.927 543.252 720.14 535.958 717.303 535.316L718.165 534.501C719.058 534.416 719.955 534.377 720.852 534.386C720.852 534.386 732.762 546.338 732.079 547.852Z" fill="black" fill-opacity="0.87"/>
<path d="M754.049 482.957L754.049 482.957L754.048 482.957L754.047 482.953L754.04 482.937L754.013 482.873C753.989 482.816 753.953 482.732 753.907 482.624C753.813 482.408 753.677 482.097 753.507 481.72C753.166 480.964 752.69 479.947 752.149 478.897C751.606 477.844 751.008 476.777 750.422 475.912C750.13 475.479 749.851 475.113 749.594 474.829C749.329 474.536 749.129 474.378 749.001 474.31C748.593 474.09 748.162 473.71 747.755 473.301C747.33 472.875 746.862 472.346 746.377 471.763C745.406 470.596 744.328 469.162 743.328 467.778C742.326 466.391 741.393 465.043 740.712 464.043C740.371 463.542 740.092 463.128 739.899 462.838C739.802 462.693 739.726 462.58 739.675 462.502L739.616 462.414L739.601 462.391L739.597 462.385L739.596 462.383L739.596 462.383C739.596 462.382 739.596 462.382 740.431 461.832L739.596 462.382L739.442 462.15L739.431 461.871C739.36 460.027 738.711 458.258 737.584 456.824L737.574 456.81L737.563 456.796C735.584 454.089 733.766 451.263 732.118 448.333L728.739 447.821L721.348 468.817L724.635 477.072C724.818 477.187 725.074 477.354 725.382 477.57C726.004 478.004 726.843 478.641 727.715 479.451C729.433 481.048 731.397 483.431 731.912 486.368C732.333 488.772 734.15 492.216 735.962 495.168C736.853 496.619 737.716 497.91 738.357 498.839C738.677 499.303 738.941 499.675 739.125 499.931C739.217 500.059 739.288 500.158 739.337 500.224L739.391 500.299L739.405 500.317L739.408 500.322L739.409 500.322L739.409 500.323L739.409 500.323L739.716 500.738L754.049 482.957ZM754.049 482.957L754.049 482.957L754.164 483.234L754.412 483.401L754.412 483.401L754.412 483.401L754.412 483.402L754.413 483.402L754.421 483.407L754.459 483.434C754.493 483.458 754.546 483.495 754.614 483.545C754.75 483.644 754.948 483.793 755.187 483.985C755.667 484.369 756.304 484.921 756.938 485.589C758.249 486.973 759.356 488.662 759.356 490.307V490.321L759.356 490.335C759.452 493.795 759.8 497.244 760.396 500.652C760.396 500.659 760.396 500.67 760.396 500.684C760.396 500.742 760.392 500.83 760.384 500.949C760.368 501.186 760.335 501.512 760.285 501.91C760.183 502.704 760.013 503.754 759.769 504.9C759.272 507.226 758.498 509.809 757.45 511.473C756.233 513.405 755.055 516.423 754.204 519.084C753.775 520.426 753.42 521.706 753.179 522.749C753.059 523.271 752.964 523.743 752.904 524.14C752.851 524.488 752.813 524.843 752.828 525.136C752.827 525.143 752.825 525.15 752.822 525.159C752.801 525.226 752.76 525.331 752.688 525.476C752.545 525.767 752.319 526.146 752.017 526.6C751.416 527.505 750.574 528.621 749.655 529.786C748.739 530.948 747.76 532.139 746.893 533.191C746.788 533.319 746.684 533.445 746.581 533.569C745.849 534.456 745.211 535.229 744.801 535.754L744.785 535.776L744.769 535.798C743.217 538.026 741.851 540.383 740.686 542.846L735.401 553.056C735.085 552.595 734.7 552.035 734.257 551.401C732.976 549.564 731.218 547.1 729.309 544.602C727.404 542.107 725.336 539.558 723.438 537.559C722.489 536.56 721.566 535.68 720.714 535.009C720.398 534.76 720.078 534.528 719.757 534.327C720.26 533.862 720.903 533.282 721.606 532.68C722.416 531.987 723.296 531.275 724.127 530.683C724.975 530.078 725.704 529.648 726.226 529.462C727.194 529.116 727.997 528.232 728.63 527.316C729.29 526.361 729.886 525.191 730.388 524.025C730.892 522.854 731.314 521.658 731.618 520.635C731.915 519.637 732.123 518.726 732.159 518.154C732.179 517.835 732.31 517.231 732.572 516.439C732.826 515.667 733.18 514.783 733.603 513.922C734.028 513.058 734.509 512.243 735.009 511.598C735.524 510.932 735.988 510.541 736.351 510.388C737.561 509.88 738.689 509.274 739.348 508.456C739.7 508.02 739.942 507.494 739.963 506.884C739.984 506.283 739.785 505.711 739.453 505.179C739.137 504.674 739.085 503.789 739.21 502.824C739.268 502.376 739.356 501.971 739.43 501.678C739.466 501.531 739.499 501.415 739.522 501.337C739.528 501.317 739.533 501.3 739.537 501.286C739.542 501.271 739.545 501.259 739.548 501.25L739.554 501.231L739.555 501.228L739.555 501.228L739.555 501.228L739.555 501.227L754.049 482.957Z" fill="#9ED9D9" stroke="#3E4345" stroke-width="2"/>
<path opacity="0.1" d="M745.103 490.461C747.694 488.221 750.955 486.957 754.345 486.876C752.172 487.259 749.888 487.748 748.296 489.301C747.671 489.973 747.109 490.705 746.62 491.486C746.077 492.282 741.657 498.032 741.002 497.122C739.906 495.789 744.214 491.237 745.103 490.461Z" fill="black" fill-opacity="0.87"/>
<path opacity="0.1" d="M734.729 484.911C735.43 484.849 736.102 484.597 736.676 484.181C737.251 483.765 737.706 483.2 737.996 482.544C738.555 481.223 738.899 479.818 739.017 478.384C739.352 475.984 739.824 473.606 740.431 471.263C740.613 470.8 740.69 470.3 740.656 469.802C740.622 469.304 740.478 468.82 740.234 468.387C739.983 467.639 739.643 466.924 739.223 466.26C738.38 467.218 738.137 469.451 737.79 470.736C737.36 472.327 736.966 473.927 736.592 475.528C736.395 476.295 734.841 484.911 734.729 484.911Z" fill="black" fill-opacity="0.87"/>
<path opacity="0.1" d="M730.674 437.593C730.213 438.211 729.682 438.771 729.092 439.261C727.219 440.785 724.738 442.069 724.504 444.475C724.569 445.257 724.473 446.043 724.223 446.785C723.624 447.839 722.154 447.743 720.983 447.542C719.996 447.451 719.049 447.094 718.24 446.507C717.013 445.433 716.901 443.517 715.965 442.165C715.396 441.468 714.677 440.914 713.865 440.546C713.053 440.179 712.17 440.008 711.283 440.047C709.532 439.99 707.79 440.392 706.039 440.469C704.914 440.527 703.786 440.45 702.678 440.239C702.312 440.181 701.95 440.105 701.592 440.009C700.809 439.811 700.045 439.545 699.307 439.213C698.925 439.058 698.553 438.879 698.193 438.676C697.021 438.06 695.935 437.287 694.963 436.376C693.249 434.766 691.826 432.542 691.966 430.156C692.051 428.69 692.697 427.338 692.903 425.891C693.605 421.75 690.918 417.84 688.006 414.879C686.845 413.7 685.609 412.559 684.448 411.361C682.64 409.654 681.212 407.569 680.262 405.246C679.481 402.774 679.226 400.16 679.513 397.579C679.776 394.962 679.848 392.328 679.729 389.7C678.867 380.384 671.096 373.244 663.324 369.362L662.978 369.18C665.283 366.472 668.121 364.292 671.305 362.782C674.49 361.273 677.95 360.468 681.459 360.42C684.968 360.372 688.448 361.083 691.671 362.505C694.893 363.928 697.787 366.03 700.162 368.675C702.537 371.319 704.34 374.447 705.454 377.854C706.568 381.26 706.967 384.869 706.626 388.444C706.284 392.02 705.21 395.481 703.473 398.602C701.736 401.724 699.375 404.435 696.545 406.559C696.461 406.856 696.386 407.154 696.32 407.441C694.523 414.802 695.712 419.268 697.051 421.731C697.416 421.818 710.262 424.789 711.957 426.524C713.652 428.258 724.129 430.741 724.129 430.741C725.722 431.174 727.17 432.04 728.322 433.246C729.474 434.452 730.287 435.954 730.674 437.593Z" fill="black" fill-opacity="0.87"/>
<path d="M661.33 362.423C661.845 361.819 662.622 361.512 663.146 360.927C664.766 359.126 663.146 356.183 663.736 353.806C664.373 351.171 667.538 350.02 670.178 350.298C672.818 350.576 675.29 351.822 677.931 352.129C682.032 352.599 686.002 350.778 690 349.714C693.998 348.65 698.83 348.592 701.583 351.726C704.335 354.86 704.148 360.199 707.575 362.47C709.157 363.515 711.152 363.63 712.865 364.387C714.74 365.372 716.295 366.894 717.341 368.767C720.053 373.128 721.248 378.299 720.73 383.441C720.44 386.221 719.654 388.923 719.335 391.703C719.012 394.589 719.203 397.512 719.897 400.329C720.618 403.204 722.182 406.309 724.981 407.229C725.628 407.375 726.257 407.597 726.854 407.891C728.474 408.926 728.259 411.36 727.847 413.258L726.18 421.127C727.781 422.373 730.272 421.836 731.798 423.149C732.409 423.721 732.862 424.448 733.109 425.258C733.862 427.458 733.943 429.841 733.343 432.09C732.743 434.339 731.489 436.348 729.747 437.851C727.875 439.375 725.393 440.66 725.159 443.056C725.231 443.837 725.135 444.626 724.878 445.366C724.289 446.42 722.809 446.324 721.639 446.123C720.654 446.03 719.711 445.673 718.905 445.088C717.669 444.014 717.566 442.097 716.629 440.746C716.06 440.05 715.341 439.496 714.529 439.129C713.718 438.762 712.834 438.59 711.948 438.628C710.187 438.57 708.455 438.973 706.695 439.059C702.635 439.229 698.672 437.764 695.656 434.976C693.933 433.356 692.519 431.142 692.65 428.746C692.734 427.29 693.38 425.929 693.586 424.481C694.279 420.35 691.601 416.43 688.689 413.469C685.777 410.507 682.36 407.776 680.936 403.837C679.157 398.958 680.88 393.514 680.403 388.339C679.541 379.013 671.779 371.882 663.998 367.991C662.266 367.081 659.317 364.771 661.33 362.423Z" fill="#5E6366"/>
<path opacity="0.1" d="M722.566 442.913C721.33 441.83 721.227 439.922 720.29 438.571C719.721 437.874 719.002 437.32 718.191 436.951C717.379 436.582 716.496 436.408 715.609 436.443C713.848 436.386 712.107 436.788 710.356 436.875C706.281 437.058 702.3 435.587 699.279 432.782C697.556 431.172 696.152 428.948 696.283 426.562C696.367 425.095 697.013 423.734 697.219 422.297C697.922 418.156 695.234 414.236 692.322 411.275C689.41 408.313 686.002 405.582 684.569 401.642C682.8 396.774 684.569 391.33 684.045 386.145C683.174 376.819 675.412 369.688 667.641 365.797C665.824 364.886 662.875 362.577 664.888 360.228C665.393 359.625 666.171 359.318 666.695 358.733C668.315 356.941 666.695 353.989 667.294 351.622C667.409 351.15 667.609 350.705 667.884 350.309C665.927 350.682 664.139 351.813 663.661 353.73C663.09 356.107 664.691 359.05 663.071 360.851C662.547 361.436 661.77 361.743 661.255 362.337C659.242 364.685 662.191 367.005 664.008 367.905C671.789 371.797 679.551 378.937 680.412 388.253C680.89 393.438 679.167 398.882 680.946 403.761C682.369 407.69 685.787 410.47 688.699 413.393C691.611 416.316 694.317 420.265 693.596 424.405C693.201 425.807 692.888 427.231 692.659 428.67C692.528 431.057 693.942 433.28 695.665 434.891C698.682 437.697 702.66 439.168 706.732 438.983C708.493 438.897 710.225 438.504 711.985 438.552C712.872 438.518 713.755 438.692 714.567 439.061C715.378 439.429 716.097 439.983 716.667 440.68C717.603 442.031 717.706 443.948 718.942 445.021C719.75 445.603 720.693 445.957 721.676 446.047C722.847 446.267 724.326 446.344 724.916 445.299C725.126 444.873 725.217 444.395 725.178 443.919C724.236 443.825 723.335 443.477 722.566 442.913Z" fill="black" fill-opacity="0.87"/>
<path d="M586.264 385.953H521.498V320.626H586.311L586.264 385.953ZM585.328 287.454H522.434C522.434 185.937 616.704 191.869 616.704 127.645C616.704 92.2688 588.418 63.9279 553.858 63.9279C519.298 63.9279 491.02 94.4828 491.02 128.651H428.174C428.146 111.748 431.377 95.0059 437.683 79.3842C443.989 63.7624 453.246 49.5685 464.923 37.6164C476.599 25.6643 490.466 16.189 505.727 9.73401C520.988 3.27899 537.345 -0.0288478 553.858 0.000189527C623.277 0.000189527 679.541 56.6917 679.541 127.645C679.541 207.952 585.281 217.096 585.281 287.454H585.328Z" fill="#9ED9D9"/>
<path d="M263.239 366.497H246.535V349.609H263.239V366.497ZM262.987 341.098H246.788C246.788 314.933 271.086 316.457 271.086 299.885C271.077 297.717 270.651 295.572 269.833 293.572C269.014 291.573 267.818 289.758 266.314 288.231C264.809 286.705 263.026 285.497 261.065 284.676C259.105 283.855 257.006 283.438 254.887 283.448C250.61 283.549 246.537 285.343 243.523 288.453C240.51 291.562 238.791 295.746 238.726 300.125H222.528C222.635 291.423 226.079 283.113 232.117 276.986C238.155 270.86 246.303 267.407 254.805 267.373C263.307 267.339 271.481 270.727 277.566 276.805C283.65 282.883 287.157 291.166 287.331 299.866C287.284 320.569 262.987 322.926 262.987 341.06V341.098Z" fill="#9ED9D9"/>
<path d="M389.719 483.819H373.015V466.979H389.719V483.819ZM389.476 458.43H373.277C373.277 432.255 397.575 433.788 397.575 417.217C397.566 415.049 397.14 412.905 396.322 410.906C395.503 408.906 394.307 407.092 392.802 405.566C391.298 404.041 389.514 402.834 387.554 402.014C385.593 401.194 383.494 400.778 381.376 400.79C377.081 400.869 372.984 402.655 369.952 405.771C366.92 408.887 365.191 413.088 365.131 417.485H348.933C349.04 408.784 352.484 400.473 358.522 394.347C364.56 388.22 372.708 384.768 381.21 384.734C389.712 384.7 397.886 388.087 403.971 394.165C410.055 400.244 413.562 408.526 413.736 417.227C413.764 437.929 389.476 440.296 389.476 458.43Z" fill="#9ED9D9"/>
<path d="M466.629 276.126H454.522V263.944H466.629V276.126ZM466.451 257.714H454.71C454.71 238.756 472.322 239.859 472.322 227.859C472.315 226.288 472.005 224.734 471.411 223.286C470.817 221.838 469.95 220.523 468.86 219.418C467.77 218.312 466.477 217.438 465.057 216.844C463.636 216.249 462.115 215.948 460.581 215.955C457.473 216.019 454.512 217.317 452.321 219.573C450.131 221.83 448.882 224.87 448.839 228.051H437.097C437.073 221.675 439.523 215.551 443.909 211.025C448.296 206.5 454.259 203.943 460.487 203.917C466.715 203.892 472.698 206.4 477.119 210.89C481.541 215.38 484.039 221.484 484.064 227.859C484.045 242.858 466.451 244.574 466.451 257.714Z" fill="#9ED9D9"/>
<path d="M673.408 293.32H666.563V286.419H673.408V293.32ZM673.305 282.921H666.629C666.629 272.205 676.582 272.828 676.582 266.043C676.582 265.155 676.41 264.276 676.076 263.457C675.742 262.638 675.253 261.895 674.636 261.271C674.02 260.647 673.288 260.155 672.484 259.822C671.68 259.489 670.82 259.323 669.953 259.334C668.197 259.371 666.524 260.104 665.286 261.378C664.047 262.653 663.341 264.37 663.314 266.167H656.676C656.753 262.625 658.179 259.255 660.649 256.773C663.118 254.291 666.437 252.895 669.898 252.881C673.359 252.867 676.689 254.237 679.177 256.699C681.666 259.161 683.117 262.521 683.221 266.062C683.258 274.486 673.305 275.493 673.305 282.921Z" fill="#9ED9D9"/>
<path opacity="0.1" d="M771.818 596.28C771.89 593.938 772.47 592.205 773.296 590.83C774.184 589.351 775.375 588.256 776.608 587.251C776.878 587.031 777.152 586.814 777.427 586.596C778.383 585.839 779.338 585.081 780.092 584.224C781.089 583.089 781.773 581.743 781.773 579.902L781.773 579.898C781.76 577.979 781.003 576.142 779.665 574.79C778.327 573.437 776.517 572.682 774.632 572.693L774.632 572.693L774.625 572.693C772.735 572.73 770.935 573.518 769.606 574.887C768.391 576.137 767.656 577.783 767.519 579.527H761.878C762.072 576.3 763.425 573.255 765.685 570.985C768.062 568.596 771.255 567.254 774.582 567.24C777.909 567.227 781.111 568.544 783.507 570.914C785.901 573.283 787.3 576.518 787.402 579.93C787.418 583.915 785.109 586.137 782.625 588.367C782.528 588.453 782.431 588.54 782.334 588.626C780.076 590.647 777.707 592.765 777.501 596.28H771.818ZM777.552 606.679H771.708V600.778H777.552V606.679Z" fill="#F8FDFD" stroke="#7A7A7A"/>
</g>
<defs>
<linearGradient id="paint0_linear" x1="652.809" y1="797.467" x2="652.809" y2="348.2" gradientUnits="userSpaceOnUse">
<stop stop-color="#808080" stop-opacity="0.25"/>
<stop offset="0.54" stop-color="#808080" stop-opacity="0.12"/>
<stop offset="1" stop-color="#808080" stop-opacity="0.1"/>
</linearGradient>
<clipPath id="clip0">
<rect width="940" height="802" fill="white"/>
</clipPath>
</defs>
</svg>
