<svg width="408" height="381" viewBox="0 0 408 381" fill="none" xmlns="http://www.w3.org/2000/svg">
<g filter="url(#filter0_d)">
<path d="M383.679 55.6133L24.0005 55.6132L24.0005 35.9999C24.0005 24.9542 32.9548 15.9999 44.0005 15.9999L363.679 15.9999C374.725 15.9999 383.679 24.9542 383.679 35.9999L383.679 55.6133Z" fill="#9ED9D9"/>
<path d="M24 56H384V324C384 337.807 372.807 349 359 349H49C35.1929 349 24 337.807 24 324V56Z" fill="white"/>
<path d="M228.383 194H177V244.39H228.383V194Z" fill="white"/>
<mask id="path-4-inside-1" fill="white">
<path d="M188.201 233.435C184.23 229.542 182 224.263 182 218.757C182 213.252 184.23 207.972 188.201 204.08C192.171 200.187 197.555 198 203.17 198C208.785 198 214.169 200.187 218.139 204.08L215.146 207.015C211.969 203.901 207.662 202.151 203.17 202.151C198.678 202.151 194.371 203.901 191.194 207.015C188.018 210.129 186.234 214.353 186.234 218.757C186.234 223.162 188.018 227.385 191.194 230.5L188.201 233.435Z"/>
</mask>
<path d="M188.201 233.435C184.23 229.542 182 224.263 182 218.757C182 213.252 184.23 207.972 188.201 204.08C192.171 200.187 197.555 198 203.17 198C208.785 198 214.169 200.187 218.139 204.08L215.146 207.015C211.969 203.901 207.662 202.151 203.17 202.151C198.678 202.151 194.371 203.901 191.194 207.015C188.018 210.129 186.234 214.353 186.234 218.757C186.234 223.162 188.018 227.385 191.194 230.5L188.201 233.435Z" stroke="#A78EC3" stroke-width="16" mask="url(#path-4-inside-1)"/>
<mask id="path-5-inside-2" fill="white">
<path d="M218.139 204.08C222.11 207.972 224.34 213.252 224.34 218.757C224.34 224.263 222.11 229.542 218.139 233.435C214.169 237.328 208.785 239.515 203.17 239.515C197.555 239.515 192.171 237.328 188.201 233.435L191.194 230.5C194.371 233.614 198.678 235.363 203.17 235.363C207.662 235.363 211.969 233.614 215.146 230.5C218.322 227.385 220.106 223.162 220.106 218.757C220.106 214.353 218.322 210.129 215.146 207.015L218.139 204.08Z"/>
</mask>
<path d="M218.139 204.08C222.11 207.972 224.34 213.252 224.34 218.757C224.34 224.263 222.11 229.542 218.139 233.435C214.169 237.328 208.785 239.515 203.17 239.515C197.555 239.515 192.171 237.328 188.201 233.435L191.194 230.5C194.371 233.614 198.678 235.363 203.17 235.363C207.662 235.363 211.969 233.614 215.146 230.5C218.322 227.385 220.106 223.162 220.106 218.757C220.106 214.353 218.322 210.129 215.146 207.015L218.139 204.08Z" stroke="#C0D18C" stroke-width="16" mask="url(#path-5-inside-2)"/>
<path d="M199.403 225H197.567V217.625C197.567 216.745 197.588 216.047 197.63 215.531C197.51 215.656 197.361 215.794 197.184 215.945C197.012 216.096 196.429 216.576 195.434 217.383L194.512 216.219L197.872 213.578H199.403V225ZM204.55 225L209.066 215.211H203.128V213.594H211.027V214.875L206.534 225H204.55Z" fill="#3E4345"/>
<path d="M165.301 45L161.161 33.0762H161.083C161.193 34.847 161.249 36.5072 161.249 38.0566V45H159.13V30.7227H162.421L166.385 42.0801H166.444L170.526 30.7227H173.827V45H171.581V37.9395C171.581 37.2298 171.597 36.3053 171.63 35.166C171.669 34.0267 171.701 33.3366 171.727 33.0957H171.649L167.362 45H165.301ZM184.25 45L183.791 43.4961H183.713C183.192 44.1536 182.668 44.6029 182.141 44.8438C181.614 45.0781 180.937 45.1953 180.11 45.1953C179.048 45.1953 178.218 44.9089 177.619 44.3359C177.027 43.763 176.731 42.9525 176.731 41.9043C176.731 40.791 177.144 39.9512 177.971 39.3848C178.798 38.8184 180.058 38.5091 181.75 38.457L183.616 38.3984V37.8223C183.616 37.1322 183.453 36.6178 183.127 36.2793C182.808 35.9342 182.31 35.7617 181.633 35.7617C181.08 35.7617 180.549 35.8431 180.041 36.0059C179.534 36.1686 179.045 36.3607 178.576 36.582L177.834 34.9414C178.42 34.6354 179.062 34.4043 179.758 34.248C180.455 34.0853 181.112 34.0039 181.731 34.0039C183.104 34.0039 184.14 34.3034 184.836 34.9023C185.539 35.5013 185.891 36.4421 185.891 37.7246V45H184.25ZM180.832 43.4375C181.666 43.4375 182.333 43.2064 182.834 42.7441C183.342 42.2754 183.596 41.6211 183.596 40.7812V39.8438L182.209 39.9023C181.129 39.9414 180.341 40.1237 179.846 40.4492C179.358 40.7682 179.114 41.2598 179.114 41.9238C179.114 42.4056 179.257 42.7799 179.543 43.0469C179.83 43.3073 180.259 43.4375 180.832 43.4375ZM187.603 34.1992H190.103L192.301 40.3223C192.633 41.1947 192.854 42.015 192.965 42.7832H193.043C193.101 42.4251 193.209 41.9922 193.365 41.4844C193.521 40.9701 194.348 38.5417 195.846 34.1992H198.326L193.707 46.4355C192.867 48.6816 191.467 49.8047 189.508 49.8047C189 49.8047 188.505 49.7493 188.023 49.6387V47.8223C188.368 47.9004 188.762 47.9395 189.205 47.9395C190.312 47.9395 191.09 47.2982 191.539 46.0156L191.939 45L187.603 34.1992ZM214.378 45H204.7V43.2617L208.382 39.5605C209.469 38.4473 210.189 37.6595 210.54 37.1973C210.898 36.7285 211.159 36.2891 211.321 35.8789C211.484 35.4688 211.566 35.0293 211.566 34.5605C211.566 33.916 211.37 33.4082 210.98 33.0371C210.595 32.666 210.062 32.4805 209.378 32.4805C208.831 32.4805 208.301 32.5814 207.786 32.7832C207.278 32.985 206.689 33.3496 206.019 33.877L204.778 32.3633C205.573 31.6927 206.344 31.2174 207.093 30.9375C207.842 30.6576 208.639 30.5176 209.485 30.5176C210.814 30.5176 211.878 30.8659 212.679 31.5625C213.48 32.2526 213.88 33.1836 213.88 34.3555C213.88 35 213.763 35.612 213.528 36.1914C213.301 36.7708 212.946 37.3698 212.464 37.9883C211.989 38.6003 211.194 39.4303 210.081 40.4785L207.601 42.8809V42.9785H214.378V45ZM225.954 37.8613C225.954 40.3418 225.553 42.1842 224.753 43.3887C223.958 44.5931 222.741 45.1953 221.1 45.1953C219.512 45.1953 218.307 44.5736 217.487 43.3301C216.667 42.0866 216.257 40.2637 216.257 37.8613C216.257 35.3418 216.654 33.4863 217.448 32.2949C218.249 31.097 219.466 30.498 221.1 30.498C222.695 30.498 223.903 31.123 224.723 32.373C225.544 33.623 225.954 35.4525 225.954 37.8613ZM218.581 37.8613C218.581 39.8079 218.779 41.1979 219.176 42.0312C219.58 42.8646 220.221 43.2812 221.1 43.2812C221.979 43.2812 222.62 42.8581 223.024 42.0117C223.434 41.1654 223.639 39.7819 223.639 37.8613C223.639 35.9473 223.434 34.5638 223.024 33.7109C222.62 32.8516 221.979 32.4219 221.1 32.4219C220.221 32.4219 219.58 32.8418 219.176 33.6816C218.779 34.5215 218.581 35.9147 218.581 37.8613ZM237.53 45H227.852V43.2617L231.534 39.5605C232.621 38.4473 233.34 37.6595 233.692 37.1973C234.05 36.7285 234.31 36.2891 234.473 35.8789C234.636 35.4688 234.717 35.0293 234.717 34.5605C234.717 33.916 234.522 33.4082 234.131 33.0371C233.747 32.666 233.213 32.4805 232.53 32.4805C231.983 32.4805 231.452 32.5814 230.938 32.7832C230.43 32.985 229.841 33.3496 229.17 33.877L227.93 32.3633C228.724 31.6927 229.496 31.2174 230.244 30.9375C230.993 30.6576 231.791 30.5176 232.637 30.5176C233.965 30.5176 235.03 30.8659 235.83 31.5625C236.631 32.2526 237.032 33.1836 237.032 34.3555C237.032 35 236.914 35.612 236.68 36.1914C236.452 36.7708 236.097 37.3698 235.616 37.9883C235.14 38.6003 234.346 39.4303 233.233 40.4785L230.752 42.8809V42.9785H237.53V45ZM249.105 37.8613C249.105 40.3418 248.705 42.1842 247.904 43.3887C247.11 44.5931 245.892 45.1953 244.252 45.1953C242.663 45.1953 241.459 44.5736 240.639 43.3301C239.818 42.0866 239.408 40.2637 239.408 37.8613C239.408 35.3418 239.805 33.4863 240.6 32.2949C241.4 31.097 242.618 30.498 244.252 30.498C245.847 30.498 247.055 31.123 247.875 32.373C248.695 33.623 249.105 35.4525 249.105 37.8613ZM241.732 37.8613C241.732 39.8079 241.931 41.1979 242.328 42.0312C242.732 42.8646 243.373 43.2812 244.252 43.2812C245.131 43.2812 245.772 42.8581 246.176 42.0117C246.586 41.1654 246.791 39.7819 246.791 37.8613C246.791 35.9473 246.586 34.5638 246.176 33.7109C245.772 32.8516 245.131 32.4219 244.252 32.4219C243.373 32.4219 242.732 32.8418 242.328 33.6816C241.931 34.5215 241.732 35.9147 241.732 37.8613Z" fill="white"/>
<g filter="url(#filter1_d)">
<path d="M75.3826 55.5918H24V92.0779H75.3826V55.5918Z" fill="#F5F7FA"/>
</g>
<path d="M53.1135 76.6401C53.1135 77.5923 52.7693 78.3394 52.0808 78.8813C51.3923 79.4233 50.4426 79.6943 49.2317 79.6943C48.0208 79.6943 47.0296 79.5063 46.2581 79.1304V77.4751C46.7463 77.7046 47.2639 77.8853 47.8108 78.0171C48.3626 78.1489 48.8753 78.2148 49.3489 78.2148C50.0422 78.2148 50.5525 78.083 50.8796 77.8193C51.2117 77.5557 51.3777 77.2017 51.3777 76.7573C51.3777 76.3569 51.2263 76.0176 50.9236 75.7393C50.6209 75.4609 49.9959 75.1313 49.0486 74.7505C48.072 74.355 47.3836 73.9033 46.9832 73.3955C46.5828 72.8877 46.3826 72.2773 46.3826 71.5645C46.3826 70.6709 46.7 69.9678 47.3347 69.4551C47.9695 68.9424 48.8215 68.686 49.8909 68.686C50.9163 68.686 51.9368 68.9106 52.9524 69.3599L52.3958 70.7881C51.4436 70.3877 50.594 70.1875 49.8469 70.1875C49.2805 70.1875 48.8508 70.312 48.5579 70.561C48.2649 70.8052 48.1184 71.1299 48.1184 71.5352C48.1184 71.8135 48.177 72.0527 48.2942 72.2529C48.4114 72.4482 48.6043 72.6338 48.8728 72.8096C49.1414 72.9854 49.6248 73.2173 50.323 73.5054C51.1091 73.8325 51.6853 74.1377 52.0515 74.4209C52.4177 74.7041 52.6863 75.0239 52.8572 75.3804C53.0281 75.7368 53.1135 76.1567 53.1135 76.6401Z" fill="#5E6366"/>
<g filter="url(#filter2_d)">
<path d="M126.681 55.5918H75.2983V92.0779H126.681V55.5918Z" fill="#F5F7FA"/>
</g>
<path d="M100.364 79.5479L97.2581 70.605H97.1995C97.2826 71.9331 97.3241 73.1782 97.3241 74.3403V79.5479H95.7347V68.8398H98.203L101.177 77.3579H101.221L104.282 68.8398H106.758V79.5479H105.073V74.2524C105.073 73.7202 105.085 73.0269 105.11 72.1724C105.139 71.3179 105.163 70.8003 105.183 70.6196H105.124L101.909 79.5479H100.364Z" fill="#5E6366"/>
<g filter="url(#filter3_d)">
<path d="M178.274 55.5918H126.891V92.0779H178.274V55.5918Z" fill="#F5F7FA"/>
</g>
<path d="M153.405 79.5479H151.655V70.3413H148.505V68.8398H156.555V70.3413H153.405V79.5479Z" fill="#5E6366"/>
<g filter="url(#filter4_d)">
<path d="M229.573 55.5918H178.19V92.0779H229.573V55.5918Z" fill="#F5F7FA"/>
</g>
<path d="M208.479 79.5479H206.574L204.758 73.1611C204.68 72.8828 204.582 72.4824 204.465 71.96C204.348 71.4326 204.277 71.0664 204.252 70.8613C204.204 71.1738 204.123 71.5791 204.011 72.0771C203.903 72.5752 203.813 72.9463 203.74 73.1904L201.967 79.5479H200.063L198.679 74.1865L197.272 68.8398H199.06L200.59 75.0801C200.83 76.0811 201.001 76.9648 201.103 77.7314C201.157 77.3164 201.237 76.8525 201.345 76.3398C201.452 75.8271 201.55 75.4121 201.638 75.0947L203.381 68.8398H205.117L206.904 75.124C207.075 75.7051 207.255 76.5742 207.446 77.7314C207.519 77.0332 207.695 76.1445 207.973 75.0654L209.497 68.8398H211.269L208.479 79.5479Z" fill="#5E6366"/>
<g filter="url(#filter5_d)">
<path d="M280.871 55.5918H229.489V92.0779H280.871V55.5918Z" fill="#F5F7FA"/>
</g>
<path d="M255.707 79.5479H253.957V70.3413H250.807V68.8398H258.857V70.3413H255.707V79.5479Z" fill="#5E6366"/>
<g filter="url(#filter6_d)">
<path d="M332.169 55.5918H280.787V92.0779H332.169V55.5918Z" fill="#F5F7FA"/>
</g>
<path d="M305.742 79.5479H304.006V68.8398H310.048V70.3193H305.742V73.6665H309.777V75.1533H305.742V79.5479Z" fill="#5E6366"/>
<g filter="url(#filter7_d)">
<path d="M383.763 55.5918H332.38V92.0779H383.763V55.5918Z" fill="#F5F7FA"/>
</g>
<path d="M361.494 76.6401C361.494 77.5923 361.15 78.3394 360.461 78.8813C359.773 79.4233 358.823 79.6943 357.612 79.6943C356.401 79.6943 355.41 79.5063 354.638 79.1304V77.4751C355.127 77.7046 355.644 77.8853 356.191 78.0171C356.743 78.1489 357.256 78.2148 357.729 78.2148C358.423 78.2148 358.933 78.083 359.26 77.8193C359.592 77.5557 359.758 77.2017 359.758 76.7573C359.758 76.3569 359.607 76.0176 359.304 75.7393C359.001 75.4609 358.376 75.1313 357.429 74.7505C356.452 74.355 355.764 73.9033 355.364 73.3955C354.963 72.8877 354.763 72.2773 354.763 71.5645C354.763 70.6709 355.08 69.9678 355.715 69.4551C356.35 68.9424 357.202 68.686 358.271 68.686C359.297 68.686 360.317 68.9106 361.333 69.3599L360.776 70.7881C359.824 70.3877 358.974 70.1875 358.227 70.1875C357.661 70.1875 357.231 70.312 356.938 70.561C356.645 70.8052 356.499 71.1299 356.499 71.5352C356.499 71.8135 356.557 72.0527 356.675 72.2529C356.792 72.4482 356.985 72.6338 357.253 72.8096C357.522 72.9854 358.005 73.2173 358.703 73.5054C359.49 73.8325 360.066 74.1377 360.432 74.4209C360.798 74.7041 361.067 75.0239 361.238 75.3804C361.408 75.7368 361.494 76.1567 361.494 76.6401Z" fill="#5E6366"/>
<path d="M75.3826 93H24V142.671H75.3826V93Z" fill="white"/>
<path opacity="0.3" d="M48.7625 116.012C48.7625 116.596 48.5979 117.073 48.2687 117.444C47.9437 117.815 47.4812 118.062 46.8812 118.187V118.237C47.6146 118.329 48.1583 118.562 48.5125 118.937C48.8667 119.312 49.0438 119.804 49.0438 120.412C49.0438 121.283 48.7417 121.954 48.1375 122.425C47.5333 122.892 46.675 123.125 45.5625 123.125C45.0792 123.125 44.6354 123.088 44.2312 123.013C43.8312 122.942 43.4417 122.815 43.0625 122.631V121.644C43.4583 121.84 43.8792 121.99 44.325 122.094C44.775 122.194 45.2 122.244 45.6 122.244C47.1792 122.244 47.9687 121.625 47.9687 120.387C47.9687 119.279 47.0979 118.725 45.3562 118.725H44.4562V117.831H45.3687C46.0812 117.831 46.6458 117.675 47.0625 117.362C47.4792 117.046 47.6875 116.608 47.6875 116.05C47.6875 115.604 47.5333 115.254 47.225 115C46.9208 114.746 46.5062 114.619 45.9812 114.619C45.5812 114.619 45.2042 114.673 44.85 114.781C44.4958 114.89 44.0917 115.09 43.6375 115.381L43.1125 114.681C43.4875 114.385 43.9187 114.154 44.4062 113.987C44.8979 113.817 45.4146 113.731 45.9562 113.731C46.8437 113.731 47.5333 113.935 48.025 114.344C48.5167 114.748 48.7625 115.304 48.7625 116.012ZM54.6688 123H53.6563V116.487C53.6563 115.946 53.6729 115.433 53.7063 114.95C53.6188 115.037 53.5208 115.129 53.4125 115.225C53.3042 115.321 52.8083 115.727 51.925 116.444L51.375 115.731L53.7938 113.862H54.6688V123Z" fill="#C6CACC"/>
<path d="M126.765 93H75.3826V143.39H126.765V93Z" fill="white"/>
<path opacity="0.3" d="M101.274 123H100.261V116.487C100.261 115.946 100.278 115.433 100.311 114.95C100.224 115.037 100.126 115.129 100.018 115.225C99.9093 115.321 99.4134 115.727 98.5301 116.444L97.9801 115.731L100.399 113.862H101.274V123Z" fill="#5E6366"/>
<path d="M178.148 93H126.765V143.39H178.148V93Z" fill="white"/>
<path opacity="0.3" d="M155.436 123H149.43V122.106L151.836 119.687C152.57 118.946 153.053 118.417 153.286 118.1C153.52 117.783 153.695 117.475 153.811 117.175C153.928 116.875 153.986 116.552 153.986 116.206C153.986 115.719 153.838 115.333 153.543 115.05C153.247 114.762 152.836 114.619 152.311 114.619C151.932 114.619 151.572 114.681 151.23 114.806C150.893 114.931 150.516 115.158 150.099 115.487L149.549 114.781C150.391 114.081 151.307 113.731 152.299 113.731C153.157 113.731 153.83 113.952 154.318 114.394C154.805 114.831 155.049 115.421 155.049 116.162C155.049 116.742 154.886 117.315 154.561 117.881C154.236 118.448 153.628 119.165 152.736 120.031L150.736 121.987V122.037H155.436V123Z" fill="#5E6366"/>
<path d="M229.53 93H178.148V143.39H229.53V93Z" fill="white"/>
<path opacity="0.3" d="M194.148 127.666H212.54" stroke="#C0D18C" stroke-width="4"/>
<path opacity="0.3" d="M206.093 116.012C206.093 116.596 205.928 117.073 205.599 117.444C205.274 117.815 204.811 118.062 204.211 118.187V118.237C204.945 118.329 205.488 118.562 205.843 118.937C206.197 119.312 206.374 119.804 206.374 120.412C206.374 121.283 206.072 121.954 205.468 122.425C204.863 122.892 204.005 123.125 202.893 123.125C202.409 123.125 201.966 123.088 201.561 123.013C201.161 122.942 200.772 122.815 200.393 122.631V121.644C200.788 121.84 201.209 121.99 201.655 122.094C202.105 122.194 202.53 122.244 202.93 122.244C204.509 122.244 205.299 121.625 205.299 120.387C205.299 119.279 204.428 118.725 202.686 118.725H201.786V117.831H202.699C203.411 117.831 203.976 117.675 204.393 117.362C204.809 117.046 205.018 116.608 205.018 116.05C205.018 115.604 204.863 115.254 204.555 115C204.251 114.746 203.836 114.619 203.311 114.619C202.911 114.619 202.534 114.673 202.18 114.781C201.826 114.89 201.422 115.09 200.968 115.381L200.443 114.681C200.818 114.385 201.249 114.154 201.736 113.987C202.228 113.817 202.745 113.731 203.286 113.731C204.174 113.731 204.863 113.935 205.355 114.344C205.847 114.748 206.093 115.304 206.093 116.012Z" fill="#5E6366"/>
<path d="M280.913 93H229.53V143.39H280.913V93Z" fill="white"/>
<path opacity="0.3" d="M258.868 120.9H257.511V123H256.518V120.9H252.074V119.994L256.411 113.812H257.511V119.956H258.868V120.9ZM256.518 119.956V116.919C256.518 116.323 256.538 115.65 256.58 114.9H256.53C256.33 115.3 256.143 115.631 255.968 115.894L253.111 119.956H256.518Z" fill="#5E6366"/>
<path d="M332.295 93H280.913V143.39H332.295V93Z" fill="white"/>
<path opacity="0.3" d="M296.913 128.753H315.305" stroke="#F9D475" stroke-width="4"/>
<path opacity="0.3" d="M306.576 118.419C307.539 118.419 308.295 118.658 308.845 119.137C309.399 119.612 309.676 120.265 309.676 121.094C309.676 122.04 309.374 122.781 308.77 123.319C308.17 123.856 307.341 124.125 306.282 124.125C305.253 124.125 304.468 123.96 303.926 123.631V122.631C304.218 122.819 304.58 122.967 305.014 123.075C305.447 123.179 305.874 123.231 306.295 123.231C307.028 123.231 307.597 123.058 308.001 122.712C308.409 122.367 308.614 121.867 308.614 121.212C308.614 119.937 307.832 119.3 306.27 119.3C305.874 119.3 305.345 119.36 304.682 119.481L304.145 119.137L304.489 114.862H309.032V115.819H305.376L305.145 118.562C305.624 118.467 306.101 118.419 306.576 118.419Z" fill="#5E6366"/>
<path d="M383.383 93H332V143.39H383.383V93Z" fill="white"/>
<path opacity="0.3" d="M354.826 120.094C354.826 118.298 355.174 116.956 355.87 116.069C356.57 115.177 357.603 114.731 358.97 114.731C359.441 114.731 359.811 114.771 360.082 114.85V115.744C359.761 115.64 359.395 115.587 358.982 115.587C358.003 115.587 357.255 115.894 356.739 116.506C356.222 117.115 355.939 118.073 355.889 119.381H355.964C356.422 118.665 357.147 118.306 358.139 118.306C358.959 118.306 359.605 118.554 360.076 119.05C360.551 119.546 360.789 120.219 360.789 121.069C360.789 122.019 360.528 122.767 360.007 123.312C359.491 123.854 358.791 124.125 357.907 124.125C356.961 124.125 356.211 123.771 355.657 123.062C355.103 122.35 354.826 121.36 354.826 120.094ZM357.895 123.244C358.486 123.244 358.945 123.058 359.27 122.687C359.599 122.312 359.764 121.773 359.764 121.069C359.764 120.465 359.611 119.99 359.307 119.644C359.003 119.298 358.549 119.125 357.945 119.125C357.57 119.125 357.226 119.202 356.914 119.356C356.601 119.51 356.351 119.723 356.164 119.994C355.98 120.265 355.889 120.546 355.889 120.837C355.889 121.267 355.972 121.667 356.139 122.037C356.305 122.408 356.541 122.702 356.845 122.919C357.153 123.135 357.503 123.244 357.895 123.244Z" fill="#5E6366"/>
<path d="M75.3826 143.391H24V193.781H75.3826V143.391Z" fill="white"/>
<path opacity="0.3" d="M47.5863 174L51.3738 165.819H46.3926V164.862H52.4738V165.694L48.7363 174H47.5863Z" fill="#5E6366"/>
<path d="M126.765 143.391H75.3826V193.781H126.765V143.391Z" fill="white"/>
<path opacity="0.3" d="M91.8538 178.17H110.246" stroke="#93C8FF" stroke-width="4"/>
<path opacity="0.3" d="M101.455 164.731C102.288 164.731 102.949 164.925 103.436 165.312C103.924 165.7 104.168 166.235 104.168 166.919C104.168 167.369 104.028 167.779 103.749 168.15C103.47 168.521 103.024 168.858 102.411 169.162C103.153 169.517 103.68 169.89 103.993 170.281C104.305 170.669 104.461 171.119 104.461 171.631C104.461 172.39 104.197 172.996 103.668 173.45C103.138 173.9 102.413 174.125 101.493 174.125C100.518 174.125 99.7676 173.912 99.2426 173.487C98.7176 173.058 98.4551 172.452 98.4551 171.669C98.4551 170.623 99.0926 169.808 100.368 169.225C99.7926 168.9 99.3801 168.55 99.1301 168.175C98.8801 167.796 98.7551 167.373 98.7551 166.906C98.7551 166.244 98.9988 165.717 99.4863 165.325C99.978 164.929 100.634 164.731 101.455 164.731ZM99.4801 171.694C99.4801 172.194 99.653 172.583 99.9988 172.862C100.349 173.142 100.838 173.281 101.468 173.281C102.088 173.281 102.572 173.135 102.918 172.844C103.263 172.552 103.436 172.152 103.436 171.644C103.436 171.24 103.274 170.881 102.949 170.569C102.624 170.252 102.057 169.946 101.249 169.65C100.628 169.917 100.178 170.212 99.8988 170.537C99.6197 170.858 99.4801 171.244 99.4801 171.694ZM101.443 165.575C100.922 165.575 100.513 165.7 100.218 165.95C99.9218 166.2 99.7738 166.533 99.7738 166.95C99.7738 167.333 99.8968 167.662 100.143 167.937C100.388 168.212 100.843 168.487 101.505 168.762C102.101 168.512 102.522 168.244 102.768 167.956C103.018 167.669 103.143 167.333 103.143 166.95C103.143 166.529 102.991 166.196 102.686 165.95C102.386 165.7 101.972 165.575 101.443 165.575Z" fill="#5E6366"/>
<path d="M178.148 143.391H126.765V193.781H178.148V143.391Z" fill="white"/>
<path opacity="0.3" d="M143.236 178.259H161.628" stroke="#A78EC3" stroke-width="4"/>
<path opacity="0.3" d="M155.436 168.762C155.436 172.337 154.053 174.125 151.286 174.125C150.803 174.125 150.42 174.083 150.136 174V173.106C150.47 173.215 150.849 173.269 151.274 173.269C152.274 173.269 153.028 172.96 153.536 172.344C154.049 171.723 154.328 170.773 154.374 169.494H154.299C154.07 169.84 153.766 170.104 153.386 170.287C153.007 170.467 152.58 170.556 152.105 170.556C151.297 170.556 150.655 170.315 150.18 169.831C149.705 169.348 149.468 168.673 149.468 167.806C149.468 166.856 149.732 166.106 150.261 165.556C150.795 165.006 151.495 164.731 152.361 164.731C152.982 164.731 153.524 164.892 153.986 165.212C154.453 165.529 154.811 165.994 155.061 166.606C155.311 167.215 155.436 167.933 155.436 168.762ZM152.361 165.619C151.766 165.619 151.305 165.81 150.98 166.194C150.655 166.577 150.493 167.11 150.493 167.794C150.493 168.394 150.643 168.867 150.943 169.212C151.243 169.554 151.699 169.725 152.311 169.725C152.691 169.725 153.038 169.648 153.355 169.494C153.676 169.34 153.928 169.129 154.111 168.862C154.295 168.596 154.386 168.317 154.386 168.025C154.386 167.587 154.301 167.183 154.13 166.812C153.959 166.442 153.72 166.15 153.411 165.937C153.107 165.725 152.757 165.619 152.361 165.619Z" fill="#5E6366"/>
<path d="M229.53 143.391H178.148V193.781H229.53V143.391Z" fill="white"/>
<path opacity="0.3" d="M200.944 174H199.931V167.487C199.931 166.946 199.948 166.433 199.981 165.95C199.894 166.037 199.796 166.129 199.687 166.225C199.579 166.321 199.083 166.727 198.2 167.444L197.65 166.731L200.069 164.862H200.944V174ZM210.881 169.419C210.881 170.998 210.631 172.177 210.131 172.956C209.635 173.735 208.875 174.125 207.85 174.125C206.867 174.125 206.119 173.727 205.606 172.931C205.094 172.131 204.838 170.96 204.838 169.419C204.838 167.827 205.085 166.646 205.581 165.875C206.077 165.104 206.833 164.719 207.85 164.719C208.842 164.719 209.594 165.121 210.106 165.925C210.623 166.729 210.881 167.894 210.881 169.419ZM205.888 169.419C205.888 170.748 206.044 171.717 206.356 172.325C206.669 172.929 207.167 173.231 207.85 173.231C208.542 173.231 209.042 172.925 209.35 172.312C209.663 171.696 209.819 170.731 209.819 169.419C209.819 168.106 209.663 167.146 209.35 166.537C209.042 165.925 208.542 165.619 207.85 165.619C207.167 165.619 206.669 165.921 206.356 166.525C206.044 167.125 205.888 168.09 205.888 169.419Z" fill="#5E6366"/>
<path d="M280.913 143.391H229.53V193.781H280.913V143.391Z" fill="white"/>
<path opacity="0.3" d="M251.944 174H250.931V167.487C250.931 166.946 250.948 166.433 250.981 165.95C250.894 166.037 250.796 166.129 250.687 166.225C250.579 166.321 250.083 166.727 249.2 167.444L248.65 166.731L251.069 164.862H251.944V174ZM259.669 174H258.656V167.487C258.656 166.946 258.673 166.433 258.706 165.95C258.619 166.037 258.521 166.129 258.413 166.225C258.304 166.321 257.808 166.727 256.925 167.444L256.375 166.731L258.794 164.862H259.669V174Z" fill="#5E6366"/>
<path d="M332.295 143.391H280.913V193.781H332.295V143.391Z" fill="white"/>
<path opacity="0.3" d="M303.944 174H302.931V167.487C302.931 166.946 302.948 166.433 302.981 165.95C302.894 166.037 302.796 166.129 302.687 166.225C302.579 166.321 302.083 166.727 301.2 167.444L300.65 166.731L303.069 164.862H303.944V174ZM313.831 174H307.825V173.106L310.231 170.687C310.965 169.946 311.448 169.417 311.681 169.1C311.915 168.783 312.09 168.475 312.206 168.175C312.323 167.875 312.381 167.552 312.381 167.206C312.381 166.719 312.233 166.333 311.938 166.05C311.642 165.762 311.231 165.619 310.706 165.619C310.327 165.619 309.967 165.681 309.625 165.806C309.288 165.931 308.91 166.158 308.494 166.487L307.944 165.781C308.785 165.081 309.702 164.731 310.694 164.731C311.552 164.731 312.225 164.952 312.713 165.394C313.2 165.831 313.444 166.421 313.444 167.162C313.444 167.742 313.281 168.315 312.956 168.881C312.631 169.448 312.023 170.165 311.131 171.031L309.131 172.987V173.037H313.831V174Z" fill="#5E6366"/>
<path d="M383.678 143H332.295V193.39H383.678V143Z" fill="white"/>
<path opacity="0.3" d="M354.944 174H353.931V167.487C353.931 166.946 353.948 166.433 353.981 165.95C353.894 166.037 353.796 166.129 353.687 166.225C353.579 166.321 353.083 166.727 352.2 167.444L351.65 166.731L354.069 164.862H354.944V174ZM364.488 167.012C364.488 167.596 364.323 168.073 363.994 168.444C363.669 168.815 363.206 169.062 362.606 169.187V169.237C363.34 169.329 363.883 169.562 364.238 169.937C364.592 170.312 364.769 170.804 364.769 171.412C364.769 172.283 364.467 172.954 363.863 173.425C363.258 173.892 362.4 174.125 361.288 174.125C360.804 174.125 360.36 174.088 359.956 174.013C359.556 173.942 359.167 173.815 358.788 173.631V172.644C359.183 172.84 359.604 172.99 360.05 173.094C360.5 173.194 360.925 173.244 361.325 173.244C362.904 173.244 363.694 172.625 363.694 171.387C363.694 170.279 362.823 169.725 361.081 169.725H360.181V168.831H361.094C361.806 168.831 362.371 168.675 362.788 168.362C363.204 168.046 363.413 167.608 363.413 167.05C363.413 166.604 363.258 166.254 362.95 166C362.646 165.746 362.231 165.619 361.706 165.619C361.306 165.619 360.929 165.673 360.575 165.781C360.221 165.89 359.817 166.09 359.363 166.381L358.838 165.681C359.213 165.385 359.644 165.154 360.131 164.987C360.623 164.817 361.14 164.731 361.681 164.731C362.569 164.731 363.258 164.935 363.75 165.344C364.242 165.748 364.488 166.304 364.488 167.012Z" fill="#5E6366"/>
<path d="M75.3826 194H24V244.39H75.3826V194Z" fill="white"/>
<path opacity="0.3" d="M46.9437 224H45.9312V217.487C45.9312 216.946 45.9479 216.433 45.9812 215.95C45.8937 216.037 45.7958 216.129 45.6875 216.225C45.5792 216.321 45.0833 216.727 44.2 217.444L43.65 216.731L46.0687 214.862H46.9437V224ZM57.2625 221.9H55.9063V224H54.9125V221.9H50.4688V220.994L54.8063 214.812H55.9063V220.956H57.2625V221.9ZM54.9125 220.956V217.919C54.9125 217.323 54.9333 216.65 54.975 215.9H54.925C54.725 216.3 54.5375 216.631 54.3625 216.894L51.5063 220.956H54.9125Z" fill="#5E6366"/>
<path d="M126.383 194H75V244.39H126.383V194Z" fill="white"/>
<path opacity="0.3" d="M91.4709 229.687H109.863" stroke="#93C8FF" stroke-width="4"/>
<path opacity="0.3" d="M97.9437 224H96.9312V217.487C96.9312 216.946 96.9479 216.433 96.9812 215.95C96.8937 216.037 96.7958 216.129 96.6875 216.225C96.5792 216.321 96.0833 216.727 95.2 217.444L94.65 216.731L97.0687 214.862H97.9437V224ZM104.681 218.419C105.644 218.419 106.4 218.658 106.95 219.137C107.504 219.612 107.781 220.265 107.781 221.094C107.781 222.04 107.479 222.781 106.875 223.319C106.275 223.856 105.446 224.125 104.388 224.125C103.358 224.125 102.573 223.96 102.031 223.631V222.631C102.323 222.819 102.685 222.967 103.119 223.075C103.552 223.179 103.979 223.231 104.4 223.231C105.133 223.231 105.702 223.058 106.106 222.712C106.515 222.367 106.719 221.867 106.719 221.212C106.719 219.937 105.938 219.3 104.375 219.3C103.979 219.3 103.45 219.36 102.788 219.481L102.25 219.137L102.594 214.862H107.138V215.819H103.481L103.25 218.562C103.729 218.467 104.206 218.419 104.681 218.419Z" fill="#5E6366"/>
<path d="M178.383 194H127V244.39H178.383V194Z" fill="white"/>
<path opacity="0.3" d="M144 229.541H162.392" stroke="#A78EC3" stroke-width="4"/>
<path opacity="0.3" d="M149.944 224H148.931V217.487C148.931 216.946 148.948 216.433 148.981 215.95C148.894 216.037 148.796 216.129 148.687 216.225C148.579 216.321 148.083 216.727 147.2 217.444L146.65 216.731L149.069 214.862H149.944V224ZM153.931 220.094C153.931 218.298 154.279 216.956 154.975 216.069C155.675 215.177 156.708 214.731 158.075 214.731C158.546 214.731 158.917 214.771 159.188 214.85V215.744C158.867 215.64 158.5 215.587 158.088 215.587C157.108 215.587 156.36 215.894 155.844 216.506C155.327 217.115 155.044 218.073 154.994 219.381H155.069C155.527 218.665 156.252 218.306 157.244 218.306C158.065 218.306 158.71 218.554 159.181 219.05C159.656 219.546 159.894 220.219 159.894 221.069C159.894 222.019 159.633 222.767 159.113 223.312C158.596 223.854 157.896 224.125 157.013 224.125C156.067 224.125 155.317 223.771 154.763 223.062C154.208 222.35 153.931 221.36 153.931 220.094ZM157 223.244C157.592 223.244 158.05 223.058 158.375 222.687C158.704 222.312 158.869 221.773 158.869 221.069C158.869 220.465 158.717 219.99 158.413 219.644C158.108 219.298 157.654 219.125 157.05 219.125C156.675 219.125 156.331 219.202 156.019 219.356C155.706 219.51 155.456 219.723 155.269 219.994C155.085 220.265 154.994 220.546 154.994 220.837C154.994 221.267 155.077 221.667 155.244 222.037C155.41 222.408 155.646 222.702 155.95 222.919C156.258 223.135 156.608 223.244 157 223.244Z" fill="#5E6366"/>
<path d="M279.383 193.767H228V244.157H279.383V193.767Z" fill="white"/>
<path d="M251.471 223.023H250.458V216.511C250.458 215.969 250.475 215.457 250.508 214.973C250.421 215.061 250.323 215.153 250.215 215.248C250.106 215.344 249.61 215.751 248.727 216.467L248.177 215.755L250.596 213.886H251.471V223.023ZM258.377 213.755C259.21 213.755 259.871 213.948 260.358 214.336C260.846 214.723 261.09 215.259 261.09 215.942C261.09 216.392 260.95 216.803 260.671 217.173C260.392 217.544 259.946 217.882 259.333 218.186C260.075 218.54 260.602 218.913 260.915 219.305C261.227 219.692 261.383 220.142 261.383 220.655C261.383 221.413 261.119 222.019 260.59 222.473C260.06 222.923 259.335 223.148 258.415 223.148C257.44 223.148 256.69 222.936 256.165 222.511C255.64 222.082 255.377 221.476 255.377 220.692C255.377 219.646 256.015 218.832 257.29 218.248C256.715 217.923 256.302 217.573 256.052 217.198C255.802 216.819 255.677 216.396 255.677 215.93C255.677 215.267 255.921 214.74 256.408 214.348C256.9 213.953 257.556 213.755 258.377 213.755ZM256.402 220.717C256.402 221.217 256.575 221.607 256.921 221.886C257.271 222.165 257.76 222.305 258.39 222.305C259.01 222.305 259.494 222.159 259.84 221.867C260.185 221.576 260.358 221.176 260.358 220.667C260.358 220.263 260.196 219.905 259.871 219.592C259.546 219.276 258.979 218.969 258.171 218.673C257.55 218.94 257.1 219.236 256.821 219.561C256.542 219.882 256.402 220.267 256.402 220.717ZM258.365 214.598C257.844 214.598 257.435 214.723 257.14 214.973C256.844 215.223 256.696 215.557 256.696 215.973C256.696 216.357 256.819 216.686 257.065 216.961C257.31 217.236 257.765 217.511 258.427 217.786C259.023 217.536 259.444 217.267 259.69 216.98C259.94 216.692 260.065 216.357 260.065 215.973C260.065 215.553 259.913 215.219 259.608 214.973C259.308 214.723 258.894 214.598 258.365 214.598Z" fill="#5E6366"/>
<path d="M330.383 194H279V244.39H330.383V194Z" fill="white"/>
<path d="M295.8 229.69H314.192" stroke="#F9D475" stroke-width="4"/>
<path d="M301.944 224H300.931V217.487C300.931 216.946 300.948 216.433 300.981 215.95C300.894 216.037 300.796 216.129 300.687 216.225C300.579 216.321 300.083 216.727 299.2 217.444L298.65 216.731L301.069 214.862H301.944V224ZM311.831 218.762C311.831 222.337 310.448 224.125 307.681 224.125C307.198 224.125 306.815 224.083 306.531 224V223.106C306.865 223.215 307.244 223.269 307.669 223.269C308.669 223.269 309.423 222.96 309.931 222.344C310.444 221.723 310.723 220.773 310.769 219.494H310.694C310.465 219.84 310.16 220.104 309.781 220.287C309.402 220.467 308.975 220.556 308.5 220.556C307.692 220.556 307.05 220.315 306.575 219.831C306.1 219.348 305.863 218.673 305.863 217.806C305.863 216.856 306.127 216.106 306.656 215.556C307.19 215.006 307.89 214.731 308.756 214.731C309.377 214.731 309.919 214.892 310.381 215.212C310.848 215.529 311.206 215.994 311.456 216.606C311.706 217.215 311.831 217.933 311.831 218.762ZM308.756 215.619C308.16 215.619 307.7 215.81 307.375 216.194C307.05 216.577 306.888 217.11 306.888 217.794C306.888 218.394 307.038 218.867 307.338 219.212C307.638 219.554 308.094 219.725 308.706 219.725C309.085 219.725 309.433 219.648 309.75 219.494C310.071 219.34 310.323 219.129 310.506 218.862C310.69 218.596 310.781 218.317 310.781 218.025C310.781 217.587 310.696 217.183 310.525 216.812C310.354 216.442 310.115 216.15 309.806 215.937C309.502 215.725 309.152 215.619 308.756 215.619Z" fill="#5E6366"/>
<path d="M381.383 194H330V244.39H381.383V194Z" fill="white"/>
<path d="M355.106 224H349.1V223.106L351.506 220.687C352.24 219.946 352.723 219.417 352.956 219.1C353.19 218.783 353.365 218.475 353.481 218.175C353.598 217.875 353.656 217.552 353.656 217.206C353.656 216.719 353.508 216.333 353.212 216.05C352.917 215.762 352.506 215.619 351.981 215.619C351.602 215.619 351.242 215.681 350.9 215.806C350.562 215.931 350.185 216.158 349.769 216.487L349.219 215.781C350.06 215.081 350.977 214.731 351.969 214.731C352.827 214.731 353.5 214.952 353.987 215.394C354.475 215.831 354.719 216.421 354.719 217.162C354.719 217.742 354.556 218.315 354.231 218.881C353.906 219.448 353.298 220.165 352.406 221.031L350.406 222.987V223.037H355.106V224ZM362.881 219.419C362.881 220.998 362.631 222.177 362.131 222.956C361.635 223.735 360.875 224.125 359.85 224.125C358.867 224.125 358.119 223.727 357.606 222.931C357.094 222.131 356.838 220.96 356.838 219.419C356.838 217.827 357.085 216.646 357.581 215.875C358.077 215.104 358.833 214.719 359.85 214.719C360.842 214.719 361.594 215.121 362.106 215.925C362.623 216.729 362.881 217.894 362.881 219.419ZM357.888 219.419C357.888 220.748 358.044 221.717 358.356 222.325C358.669 222.929 359.167 223.231 359.85 223.231C360.542 223.231 361.042 222.925 361.35 222.312C361.663 221.696 361.819 220.731 361.819 219.419C361.819 218.106 361.663 217.146 361.35 216.537C361.042 215.925 360.542 215.619 359.85 215.619C359.167 215.619 358.669 215.921 358.356 216.525C358.044 217.125 357.888 218.09 357.888 219.419Z" fill="#5E6366"/>
<path d="M74 244H24V296.602H74V244Z" fill="white"/>
<path d="M24 296.603H74V328.679C74 339.725 65.0457 348.679 54 348.679H44C32.9543 348.679 24 339.725 24 328.679V296.603Z" fill="white"/>
<path d="M48.1783 275H42.172V274.106L44.5783 271.687C45.3116 270.946 45.7949 270.417 46.0283 270.1C46.2616 269.783 46.4366 269.475 46.5533 269.175C46.6699 268.875 46.7283 268.552 46.7283 268.206C46.7283 267.719 46.5804 267.333 46.2845 267.05C45.9887 266.762 45.5783 266.619 45.0533 266.619C44.6741 266.619 44.3137 266.681 43.972 266.806C43.6345 266.931 43.2574 267.158 42.8408 267.487L42.2908 266.781C43.1324 266.081 44.0491 265.731 45.0408 265.731C45.8991 265.731 46.572 265.952 47.0595 266.394C47.547 266.831 47.7908 267.421 47.7908 268.162C47.7908 268.742 47.6283 269.315 47.3033 269.881C46.9783 270.448 46.3699 271.165 45.4783 272.031L43.4783 273.987V274.037H48.1783V275ZM53.7408 275H52.7283V268.487C52.7283 267.946 52.7449 267.433 52.7783 266.95C52.6908 267.037 52.5929 267.129 52.4845 267.225C52.3762 267.321 51.8804 267.727 50.997 268.444L50.447 267.731L52.8658 265.862H53.7408V275Z" fill="#5E6366"/>
<path d="M125.383 244H74V294.39H125.383V244Z" fill="white"/>
<path d="M91.6182 284.606H110.01" stroke="#F9D475" stroke-width="4"/>
<path d="M91.6182 280.83H110.01" stroke="#93C8FF" stroke-width="4"/>
<path d="M99.1063 275H93.1V274.106L95.5062 271.687C96.2396 270.946 96.7229 270.417 96.9562 270.1C97.1896 269.783 97.3646 269.475 97.4812 269.175C97.5979 268.875 97.6562 268.552 97.6562 268.206C97.6562 267.719 97.5083 267.333 97.2125 267.05C96.9167 266.762 96.5062 266.619 95.9812 266.619C95.6021 266.619 95.2417 266.681 94.9 266.806C94.5625 266.931 94.1854 267.158 93.7687 267.487L93.2187 266.781C94.0604 266.081 94.9771 265.731 95.9687 265.731C96.8271 265.731 97.5 265.952 97.9875 266.394C98.475 266.831 98.7187 267.421 98.7187 268.162C98.7187 268.742 98.5562 269.315 98.2312 269.881C97.9062 270.448 97.2979 271.165 96.4062 272.031L94.4062 273.987V274.037H99.1063V275ZM106.831 275H100.825V274.106L103.231 271.687C103.965 270.946 104.448 270.417 104.681 270.1C104.915 269.783 105.09 269.475 105.206 269.175C105.323 268.875 105.381 268.552 105.381 268.206C105.381 267.719 105.233 267.333 104.938 267.05C104.642 266.762 104.231 266.619 103.706 266.619C103.327 266.619 102.967 266.681 102.625 266.806C102.288 266.931 101.91 267.158 101.494 267.487L100.944 266.781C101.785 266.081 102.702 265.731 103.694 265.731C104.552 265.731 105.225 265.952 105.713 266.394C106.2 266.831 106.444 267.421 106.444 268.162C106.444 268.742 106.281 269.315 105.956 269.881C105.631 270.448 105.023 271.165 104.131 272.031L102.131 273.987V274.037H106.831V275Z" fill="#5E6366"/>
<path d="M177.383 244H126V294.39H177.383V244Z" fill="white"/>
<path d="M142 280.823H160.392" stroke="#A78EC3" stroke-width="4"/>
<path d="M151.106 274H145.1V273.106L147.506 270.687C148.24 269.946 148.723 269.417 148.956 269.1C149.19 268.783 149.365 268.475 149.481 268.175C149.598 267.875 149.656 267.552 149.656 267.206C149.656 266.719 149.508 266.333 149.212 266.05C148.917 265.762 148.506 265.619 147.981 265.619C147.602 265.619 147.242 265.681 146.9 265.806C146.562 265.931 146.185 266.158 145.769 266.487L145.219 265.781C146.06 265.081 146.977 264.731 147.969 264.731C148.827 264.731 149.5 264.952 149.987 265.394C150.475 265.831 150.719 266.421 150.719 267.162C150.719 267.742 150.556 268.315 150.231 268.881C149.906 269.448 149.298 270.165 148.406 271.031L146.406 272.987V273.037H151.106V274ZM158.488 267.012C158.488 267.596 158.323 268.073 157.994 268.444C157.669 268.815 157.206 269.062 156.606 269.187V269.237C157.34 269.329 157.883 269.562 158.238 269.937C158.592 270.312 158.769 270.804 158.769 271.412C158.769 272.283 158.467 272.954 157.863 273.425C157.258 273.892 156.4 274.125 155.288 274.125C154.804 274.125 154.36 274.088 153.956 274.013C153.556 273.942 153.167 273.815 152.788 273.631V272.644C153.183 272.84 153.604 272.99 154.05 273.094C154.5 273.194 154.925 273.244 155.325 273.244C156.904 273.244 157.694 272.625 157.694 271.387C157.694 270.279 156.823 269.725 155.081 269.725H154.181V268.831H155.094C155.806 268.831 156.371 268.675 156.788 268.362C157.204 268.046 157.413 267.608 157.413 267.05C157.413 266.604 157.258 266.254 156.95 266C156.646 265.746 156.231 265.619 155.706 265.619C155.306 265.619 154.929 265.673 154.575 265.781C154.221 265.89 153.817 266.09 153.363 266.381L152.838 265.681C153.213 265.385 153.644 265.154 154.131 264.987C154.623 264.817 155.14 264.731 155.681 264.731C156.569 264.731 157.258 264.935 157.75 265.344C158.242 265.748 158.488 266.304 158.488 267.012Z" fill="#5E6366"/>
<path d="M228.383 244H177V294.39H228.383V244Z" fill="white"/>
<path d="M193.779 280.826H212.171" stroke="#A78EC3" stroke-width="4"/>
<path d="M202.106 274H196.1V273.106L198.506 270.687C199.24 269.946 199.723 269.417 199.956 269.1C200.19 268.783 200.365 268.475 200.481 268.175C200.598 267.875 200.656 267.552 200.656 267.206C200.656 266.719 200.508 266.333 200.212 266.05C199.917 265.762 199.506 265.619 198.981 265.619C198.602 265.619 198.242 265.681 197.9 265.806C197.562 265.931 197.185 266.158 196.769 266.487L196.219 265.781C197.06 265.081 197.977 264.731 198.969 264.731C199.827 264.731 200.5 264.952 200.987 265.394C201.475 265.831 201.719 266.421 201.719 267.162C201.719 267.742 201.556 268.315 201.231 268.881C200.906 269.448 200.298 270.165 199.406 271.031L197.406 272.987V273.037H202.106V274ZM210.263 271.9H208.906V274H207.913V271.9H203.469V270.994L207.806 264.812H208.906V270.956H210.263V271.9ZM207.913 270.956V267.919C207.913 267.323 207.933 266.65 207.975 265.9H207.925C207.725 266.3 207.538 266.631 207.363 266.894L204.506 270.956H207.913Z" fill="#5E6366"/>
<path d="M279.383 244H228V294.39H279.383V244Z" fill="white"/>
<path d="M253.106 275H247.1V274.106L249.506 271.687C250.24 270.946 250.723 270.417 250.956 270.1C251.19 269.783 251.365 269.475 251.481 269.175C251.598 268.875 251.656 268.552 251.656 268.206C251.656 267.719 251.508 267.333 251.212 267.05C250.917 266.762 250.506 266.619 249.981 266.619C249.602 266.619 249.242 266.681 248.9 266.806C248.562 266.931 248.185 267.158 247.769 267.487L247.219 266.781C248.06 266.081 248.977 265.731 249.969 265.731C250.827 265.731 251.5 265.952 251.987 266.394C252.475 266.831 252.719 267.421 252.719 268.162C252.719 268.742 252.556 269.315 252.231 269.881C251.906 270.448 251.298 271.165 250.406 272.031L248.406 273.987V274.037H253.106V275ZM257.681 269.419C258.644 269.419 259.4 269.658 259.95 270.137C260.504 270.612 260.781 271.265 260.781 272.094C260.781 273.04 260.479 273.781 259.875 274.319C259.275 274.856 258.446 275.125 257.388 275.125C256.358 275.125 255.573 274.96 255.031 274.631V273.631C255.323 273.819 255.685 273.967 256.119 274.075C256.552 274.179 256.979 274.231 257.4 274.231C258.133 274.231 258.702 274.058 259.106 273.712C259.515 273.367 259.719 272.867 259.719 272.212C259.719 270.937 258.938 270.3 257.375 270.3C256.979 270.3 256.45 270.36 255.788 270.481L255.25 270.137L255.594 265.862H260.138V266.819H256.481L256.25 269.562C256.729 269.467 257.206 269.419 257.681 269.419Z" fill="#5E6366"/>
<path d="M331.383 244H280V294.39H331.383V244Z" fill="white"/>
<path d="M296.471 280.83H314.863" stroke="#FFB08A" stroke-width="4"/>
<path d="M305.106 274H299.1V273.106L301.506 270.687C302.24 269.946 302.723 269.417 302.956 269.1C303.19 268.783 303.365 268.475 303.481 268.175C303.598 267.875 303.656 267.552 303.656 267.206C303.656 266.719 303.508 266.333 303.212 266.05C302.917 265.762 302.506 265.619 301.981 265.619C301.602 265.619 301.242 265.681 300.9 265.806C300.562 265.931 300.185 266.158 299.769 266.487L299.219 265.781C300.06 265.081 300.977 264.731 301.969 264.731C302.827 264.731 303.5 264.952 303.987 265.394C304.475 265.831 304.719 266.421 304.719 267.162C304.719 267.742 304.556 268.315 304.231 268.881C303.906 269.448 303.298 270.165 302.406 271.031L300.406 272.987V273.037H305.106V274ZM306.931 270.094C306.931 268.298 307.279 266.956 307.975 266.069C308.675 265.177 309.708 264.731 311.075 264.731C311.546 264.731 311.917 264.771 312.188 264.85V265.744C311.867 265.64 311.5 265.587 311.088 265.587C310.108 265.587 309.36 265.894 308.844 266.506C308.327 267.115 308.044 268.073 307.994 269.381H308.069C308.527 268.665 309.252 268.306 310.244 268.306C311.065 268.306 311.71 268.554 312.181 269.05C312.656 269.546 312.894 270.219 312.894 271.069C312.894 272.019 312.633 272.767 312.113 273.312C311.596 273.854 310.896 274.125 310.013 274.125C309.067 274.125 308.317 273.771 307.763 273.062C307.208 272.35 306.931 271.36 306.931 270.094ZM310 273.244C310.592 273.244 311.05 273.058 311.375 272.687C311.704 272.312 311.869 271.773 311.869 271.069C311.869 270.465 311.717 269.99 311.413 269.644C311.108 269.298 310.654 269.125 310.05 269.125C309.675 269.125 309.331 269.202 309.019 269.356C308.706 269.51 308.456 269.723 308.269 269.994C308.085 270.265 307.994 270.546 307.994 270.837C307.994 271.267 308.077 271.667 308.244 272.037C308.41 272.408 308.646 272.702 308.95 272.919C309.258 273.135 309.608 273.244 310 273.244Z" fill="#5E6366"/>
<path d="M384 244H331.001V296.096H384V244Z" fill="white"/>
<path d="M331 348.192L331 296.096L363.999 296.096C375.045 296.096 383.999 305.05 383.999 316.096L383.999 328.192C383.999 339.238 375.045 348.192 363.999 348.192L331 348.192Z" fill="white"/>
<path d="M355.928 275H349.921V274.106L352.328 271.687C353.061 270.946 353.544 270.417 353.778 270.1C354.011 269.783 354.186 269.475 354.303 269.175C354.419 268.875 354.478 268.552 354.478 268.206C354.478 267.719 354.33 267.333 354.034 267.05C353.738 266.762 353.328 266.619 352.803 266.619C352.423 266.619 352.063 266.681 351.721 266.806C351.384 266.931 351.007 267.158 350.59 267.487L350.04 266.781C350.882 266.081 351.798 265.731 352.79 265.731C353.648 265.731 354.321 265.952 354.809 266.394C355.296 266.831 355.54 267.421 355.54 268.162C355.54 268.742 355.378 269.315 355.053 269.881C354.728 270.448 354.119 271.165 353.228 272.031L351.228 273.987V274.037H355.928V275ZM358.803 275L362.59 266.819H357.609V265.862H363.69V266.694L359.953 275H358.803Z" fill="#5E6366"/>
<path d="M48.1783 325H42.172V324.106L44.5783 321.687C45.3116 320.946 45.7949 320.417 46.0283 320.1C46.2616 319.783 46.4366 319.475 46.5533 319.175C46.6699 318.875 46.7283 318.552 46.7283 318.206C46.7283 317.719 46.5804 317.333 46.2845 317.05C45.9887 316.762 45.5783 316.619 45.0533 316.619C44.6741 316.619 44.3137 316.681 43.972 316.806C43.6345 316.931 43.2574 317.158 42.8408 317.487L42.2908 316.781C43.1324 316.081 44.0491 315.731 45.0408 315.731C45.8991 315.731 46.572 315.952 47.0595 316.394C47.547 316.831 47.7908 317.421 47.7908 318.162C47.7908 318.742 47.6283 319.315 47.3033 319.881C46.9783 320.448 46.3699 321.165 45.4783 322.031L43.4783 323.987V324.037H48.1783V325ZM52.922 315.731C53.7554 315.731 54.4158 315.925 54.9033 316.312C55.3908 316.7 55.6345 317.235 55.6345 317.919C55.6345 318.369 55.4949 318.779 55.2158 319.15C54.9366 319.521 54.4908 319.858 53.8783 320.162C54.6199 320.517 55.147 320.89 55.4595 321.281C55.772 321.669 55.9283 322.119 55.9283 322.631C55.9283 323.39 55.6637 323.996 55.1345 324.45C54.6054 324.9 53.8804 325.125 52.9595 325.125C51.9845 325.125 51.2345 324.912 50.7095 324.487C50.1845 324.058 49.922 323.452 49.922 322.669C49.922 321.623 50.5595 320.808 51.8345 320.225C51.2595 319.9 50.847 319.55 50.597 319.175C50.347 318.796 50.222 318.373 50.222 317.906C50.222 317.244 50.4658 316.717 50.9533 316.325C51.4449 315.929 52.1012 315.731 52.922 315.731ZM50.947 322.694C50.947 323.194 51.1199 323.583 51.4658 323.862C51.8158 324.142 52.3054 324.281 52.9345 324.281C53.5554 324.281 54.0387 324.135 54.3845 323.844C54.7304 323.552 54.9033 323.152 54.9033 322.644C54.9033 322.24 54.7408 321.881 54.4158 321.569C54.0908 321.252 53.5241 320.946 52.7158 320.65C52.0949 320.917 51.6449 321.212 51.3658 321.537C51.0866 321.858 50.947 322.244 50.947 322.694ZM52.9095 316.575C52.3887 316.575 51.9804 316.7 51.6845 316.95C51.3887 317.2 51.2408 317.533 51.2408 317.95C51.2408 318.333 51.3637 318.662 51.6095 318.937C51.8554 319.212 52.3095 319.487 52.972 319.762C53.5679 319.512 53.9887 319.244 54.2345 318.956C54.4845 318.669 54.6095 318.333 54.6095 317.95C54.6095 317.529 54.4574 317.196 54.1533 316.95C53.8533 316.7 53.4387 316.575 52.9095 316.575Z" fill="#5E6366"/>
<path d="M126.383 295H75V345.39H126.383V295Z" fill="white"/>
<path d="M91.4709 330.881H109.863" stroke="#93C8FF" stroke-width="4"/>
<path d="M100.106 325H94.1V324.106L96.5062 321.687C97.2396 320.946 97.7229 320.417 97.9562 320.1C98.1896 319.783 98.3646 319.475 98.4812 319.175C98.5979 318.875 98.6562 318.552 98.6562 318.206C98.6562 317.719 98.5083 317.333 98.2125 317.05C97.9167 316.762 97.5062 316.619 96.9812 316.619C96.6021 316.619 96.2417 316.681 95.9 316.806C95.5625 316.931 95.1854 317.158 94.7687 317.487L94.2187 316.781C95.0604 316.081 95.9771 315.731 96.9687 315.731C97.8271 315.731 98.5 315.952 98.9875 316.394C99.475 316.831 99.7187 317.421 99.7187 318.162C99.7187 318.742 99.5562 319.315 99.2312 319.881C98.9062 320.448 98.2979 321.165 97.4062 322.031L95.4062 323.987V324.037H100.106V325ZM107.831 319.762C107.831 323.337 106.448 325.125 103.681 325.125C103.198 325.125 102.815 325.083 102.531 325V324.106C102.865 324.215 103.244 324.269 103.669 324.269C104.669 324.269 105.423 323.96 105.931 323.344C106.444 322.723 106.723 321.773 106.769 320.494H106.694C106.465 320.84 106.16 321.104 105.781 321.287C105.402 321.467 104.975 321.556 104.5 321.556C103.692 321.556 103.05 321.315 102.575 320.831C102.1 320.348 101.863 319.673 101.863 318.806C101.863 317.856 102.127 317.106 102.656 316.556C103.19 316.006 103.89 315.731 104.756 315.731C105.377 315.731 105.919 315.892 106.381 316.212C106.848 316.529 107.206 316.994 107.456 317.606C107.706 318.215 107.831 318.933 107.831 319.762ZM104.756 316.619C104.16 316.619 103.7 316.81 103.375 317.194C103.05 317.577 102.888 318.11 102.888 318.794C102.888 319.394 103.038 319.867 103.338 320.212C103.638 320.554 104.094 320.725 104.706 320.725C105.085 320.725 105.433 320.648 105.75 320.494C106.071 320.34 106.323 320.129 106.506 319.862C106.69 319.596 106.781 319.317 106.781 319.025C106.781 318.587 106.696 318.183 106.525 317.812C106.354 317.442 106.115 317.15 105.806 316.937C105.502 316.725 105.152 316.619 104.756 316.619Z" fill="#5E6366"/>
<path d="M177.777 295H126.395V345.39H177.777V295Z" fill="white"/>
<path d="M142.866 330.969H161.258" stroke="#A78EC3" stroke-width="4"/>
<path d="M150.762 318.012C150.762 318.596 150.598 319.073 150.269 319.444C149.944 319.815 149.481 320.062 148.881 320.187V320.237C149.615 320.329 150.158 320.562 150.512 320.937C150.867 321.312 151.044 321.804 151.044 322.412C151.044 323.283 150.742 323.954 150.137 324.425C149.533 324.892 148.675 325.125 147.562 325.125C147.079 325.125 146.635 325.088 146.231 325.013C145.831 324.942 145.442 324.815 145.062 324.631V323.644C145.458 323.84 145.879 323.99 146.325 324.094C146.775 324.194 147.2 324.244 147.6 324.244C149.179 324.244 149.969 323.625 149.969 322.387C149.969 321.279 149.098 320.725 147.356 320.725H146.456V319.831H147.369C148.081 319.831 148.646 319.675 149.062 319.362C149.479 319.046 149.687 318.608 149.687 318.05C149.687 317.604 149.533 317.254 149.225 317C148.921 316.746 148.506 316.619 147.981 316.619C147.581 316.619 147.204 316.673 146.85 316.781C146.496 316.89 146.092 317.09 145.637 317.381L145.112 316.681C145.487 316.385 145.919 316.154 146.406 315.987C146.898 315.817 147.415 315.731 147.956 315.731C148.844 315.731 149.533 315.935 150.025 316.344C150.517 316.748 150.762 317.304 150.762 318.012ZM158.881 320.419C158.881 321.998 158.631 323.177 158.131 323.956C157.635 324.735 156.875 325.125 155.85 325.125C154.867 325.125 154.119 324.727 153.606 323.931C153.094 323.131 152.838 321.96 152.838 320.419C152.838 318.827 153.085 317.646 153.581 316.875C154.077 316.104 154.833 315.719 155.85 315.719C156.842 315.719 157.594 316.121 158.106 316.925C158.623 317.729 158.881 318.894 158.881 320.419ZM153.888 320.419C153.888 321.748 154.044 322.717 154.356 323.325C154.669 323.929 155.167 324.231 155.85 324.231C156.542 324.231 157.042 323.925 157.35 323.312C157.663 322.696 157.819 321.731 157.819 320.419C157.819 319.106 157.663 318.146 157.35 317.537C157.042 316.925 156.542 316.619 155.85 316.619C155.167 316.619 154.669 316.921 154.356 317.525C154.044 318.125 153.888 319.09 153.888 320.419Z" fill="#5E6366"/>
<path d="M229.383 294H178V344.39H229.383V294Z" fill="white"/>
<path d="M192.779 330.97H211.171" stroke="#A78EC3" stroke-width="4"/>
<path d="M201.762 318.012C201.762 318.596 201.598 319.073 201.269 319.444C200.944 319.815 200.481 320.062 199.881 320.187V320.237C200.615 320.329 201.158 320.562 201.512 320.937C201.867 321.312 202.044 321.804 202.044 322.412C202.044 323.283 201.742 323.954 201.137 324.425C200.533 324.892 199.675 325.125 198.562 325.125C198.079 325.125 197.635 325.088 197.231 325.013C196.831 324.942 196.442 324.815 196.062 324.631V323.644C196.458 323.84 196.879 323.99 197.325 324.094C197.775 324.194 198.2 324.244 198.6 324.244C200.179 324.244 200.969 323.625 200.969 322.387C200.969 321.279 200.098 320.725 198.356 320.725H197.456V319.831H198.369C199.081 319.831 199.646 319.675 200.062 319.362C200.479 319.046 200.687 318.608 200.687 318.05C200.687 317.604 200.533 317.254 200.225 317C199.921 316.746 199.506 316.619 198.981 316.619C198.581 316.619 198.204 316.673 197.85 316.781C197.496 316.89 197.092 317.09 196.637 317.381L196.112 316.681C196.487 316.385 196.919 316.154 197.406 315.987C197.898 315.817 198.415 315.731 198.956 315.731C199.844 315.731 200.533 315.935 201.025 316.344C201.517 316.748 201.762 317.304 201.762 318.012ZM207.669 325H206.656V318.487C206.656 317.946 206.673 317.433 206.706 316.95C206.619 317.037 206.521 317.129 206.413 317.225C206.304 317.321 205.808 317.727 204.925 318.444L204.375 317.731L206.794 315.862H207.669V325Z" fill="#5E6366"/>
<path d="M280.383 294H229V344.39H280.383V294Z" fill="white"/>
<path d="M255.274 325H254.261V318.487C254.261 317.946 254.278 317.433 254.311 316.95C254.224 317.037 254.126 317.129 254.018 317.225C253.909 317.321 253.413 317.727 252.53 318.444L251.98 317.731L254.399 315.862H255.274V325Z" fill="#C6CACC"/>
<path d="M332.383 294H281V344.39H332.383V294Z" fill="white"/>
<path d="M309.436 325H303.43V324.106L305.836 321.687C306.57 320.946 307.053 320.417 307.286 320.1C307.52 319.783 307.695 319.475 307.811 319.175C307.928 318.875 307.986 318.552 307.986 318.206C307.986 317.719 307.838 317.333 307.543 317.05C307.247 316.762 306.836 316.619 306.311 316.619C305.932 316.619 305.572 316.681 305.23 316.806C304.893 316.931 304.516 317.158 304.099 317.487L303.549 316.781C304.391 316.081 305.307 315.731 306.299 315.731C307.157 315.731 307.83 315.952 308.318 316.394C308.805 316.831 309.049 317.421 309.049 318.162C309.049 318.742 308.886 319.315 308.561 319.881C308.236 320.448 307.628 321.165 306.736 322.031L304.736 323.987V324.037H309.436V325Z" fill="#C6CACC"/>
<path d="M360.381 318.012C360.381 318.596 360.216 319.073 359.887 319.444C359.562 319.815 359.1 320.062 358.5 320.187V320.237C359.233 320.329 359.777 320.562 360.131 320.937C360.485 321.312 360.662 321.804 360.662 322.412C360.662 323.283 360.36 323.954 359.756 324.425C359.152 324.892 358.293 325.125 357.181 325.125C356.698 325.125 356.254 325.088 355.85 325.013C355.45 324.942 355.06 324.815 354.681 324.631V323.644C355.077 323.84 355.498 323.99 355.943 324.094C356.393 324.194 356.818 324.244 357.218 324.244C358.798 324.244 359.587 323.625 359.587 322.387C359.587 321.279 358.716 320.725 356.975 320.725H356.075V319.831H356.987C357.7 319.831 358.264 319.675 358.681 319.362C359.098 319.046 359.306 318.608 359.306 318.05C359.306 317.604 359.152 317.254 358.843 317C358.539 316.746 358.125 316.619 357.6 316.619C357.2 316.619 356.823 316.673 356.468 316.781C356.114 316.89 355.71 317.09 355.256 317.381L354.731 316.681C355.106 316.385 355.537 316.154 356.025 315.987C356.516 315.817 357.033 315.731 357.575 315.731C358.462 315.731 359.152 315.935 359.643 316.344C360.135 316.748 360.381 317.304 360.381 318.012Z" fill="#C6CACC"/>
<path d="M40.9384 36.7305L46.6301 28.9986L40.9384 36.7305Z" fill="white"/>
<path d="M40.9384 36.7305L46.6301 28.9986" stroke="white" stroke-width="2" stroke-linecap="round"/>
<path d="M46.6313 44.2549L40.9497 36.7757L46.6313 44.2549Z" fill="white"/>
<path d="M46.6313 44.2549L40.9497 36.7757" stroke="white" stroke-width="2" stroke-linecap="round"/>
<path d="M368.146 36.5234L362.453 44.2553L368.146 36.5234Z" fill="white"/>
<path d="M368.146 36.5234L362.453 44.2553" stroke="white" stroke-width="2" stroke-linecap="round"/>
<path d="M362.452 28.998L368.135 36.4773L362.452 28.998Z" fill="white"/>
<path d="M362.452 28.998L368.135 36.4773" stroke="white" stroke-width="2" stroke-linecap="round"/>
</g>
<defs>
<filter id="filter0_d" x="0" y="0" width="408" height="381" filterUnits="userSpaceOnUse" color-interpolation-filters="sRGB">
<feFlood flood-opacity="0" result="BackgroundImageFix"/>
<feColorMatrix in="SourceAlpha" type="matrix" values="0 0 0 0 0 0 0 0 0 0 0 0 0 0 0 0 0 0 127 0"/>
<feOffset dy="8"/>
<feGaussianBlur stdDeviation="12"/>
<feColorMatrix type="matrix" values="0 0 0 0 0.470588 0 0 0 0 0.384314 0 0 0 0 0.737255 0 0 0 0.16 0"/>
<feBlend mode="multiply" in2="BackgroundImageFix" result="effect1_dropShadow"/>
<feBlend mode="normal" in="SourceGraphic" in2="effect1_dropShadow" result="shape"/>
</filter>
<filter id="filter1_d" x="19" y="55.5918" width="61.3826" height="47.4861" filterUnits="userSpaceOnUse" color-interpolation-filters="sRGB">
<feFlood flood-opacity="0" result="BackgroundImageFix"/>
<feColorMatrix in="SourceAlpha" type="matrix" values="0 0 0 0 0 0 0 0 0 0 0 0 0 0 0 0 0 0 127 0"/>
<feOffset dy="6"/>
<feGaussianBlur stdDeviation="2.5"/>
<feColorMatrix type="matrix" values="0 0 0 0 0 0 0 0 0 0 0 0 0 0 0 0 0 0 0.1 0"/>
<feBlend mode="normal" in2="BackgroundImageFix" result="effect1_dropShadow"/>
<feBlend mode="normal" in="SourceGraphic" in2="effect1_dropShadow" result="shape"/>
</filter>
<filter id="filter2_d" x="70.2983" y="55.5918" width="61.3826" height="47.4861" filterUnits="userSpaceOnUse" color-interpolation-filters="sRGB">
<feFlood flood-opacity="0" result="BackgroundImageFix"/>
<feColorMatrix in="SourceAlpha" type="matrix" values="0 0 0 0 0 0 0 0 0 0 0 0 0 0 0 0 0 0 127 0"/>
<feOffset dy="6"/>
<feGaussianBlur stdDeviation="2.5"/>
<feColorMatrix type="matrix" values="0 0 0 0 0 0 0 0 0 0 0 0 0 0 0 0 0 0 0.1 0"/>
<feBlend mode="normal" in2="BackgroundImageFix" result="effect1_dropShadow"/>
<feBlend mode="normal" in="SourceGraphic" in2="effect1_dropShadow" result="shape"/>
</filter>
<filter id="filter3_d" x="121.891" y="55.5918" width="61.3826" height="47.4861" filterUnits="userSpaceOnUse" color-interpolation-filters="sRGB">
<feFlood flood-opacity="0" result="BackgroundImageFix"/>
<feColorMatrix in="SourceAlpha" type="matrix" values="0 0 0 0 0 0 0 0 0 0 0 0 0 0 0 0 0 0 127 0"/>
<feOffset dy="6"/>
<feGaussianBlur stdDeviation="2.5"/>
<feColorMatrix type="matrix" values="0 0 0 0 0 0 0 0 0 0 0 0 0 0 0 0 0 0 0.1 0"/>
<feBlend mode="normal" in2="BackgroundImageFix" result="effect1_dropShadow"/>
<feBlend mode="normal" in="SourceGraphic" in2="effect1_dropShadow" result="shape"/>
</filter>
<filter id="filter4_d" x="173.19" y="55.5918" width="61.3826" height="47.4861" filterUnits="userSpaceOnUse" color-interpolation-filters="sRGB">
<feFlood flood-opacity="0" result="BackgroundImageFix"/>
<feColorMatrix in="SourceAlpha" type="matrix" values="0 0 0 0 0 0 0 0 0 0 0 0 0 0 0 0 0 0 127 0"/>
<feOffset dy="6"/>
<feGaussianBlur stdDeviation="2.5"/>
<feColorMatrix type="matrix" values="0 0 0 0 0 0 0 0 0 0 0 0 0 0 0 0 0 0 0.1 0"/>
<feBlend mode="normal" in2="BackgroundImageFix" result="effect1_dropShadow"/>
<feBlend mode="normal" in="SourceGraphic" in2="effect1_dropShadow" result="shape"/>
</filter>
<filter id="filter5_d" x="224.489" y="55.5918" width="61.3826" height="47.4861" filterUnits="userSpaceOnUse" color-interpolation-filters="sRGB">
<feFlood flood-opacity="0" result="BackgroundImageFix"/>
<feColorMatrix in="SourceAlpha" type="matrix" values="0 0 0 0 0 0 0 0 0 0 0 0 0 0 0 0 0 0 127 0"/>
<feOffset dy="6"/>
<feGaussianBlur stdDeviation="2.5"/>
<feColorMatrix type="matrix" values="0 0 0 0 0 0 0 0 0 0 0 0 0 0 0 0 0 0 0.1 0"/>
<feBlend mode="normal" in2="BackgroundImageFix" result="effect1_dropShadow"/>
<feBlend mode="normal" in="SourceGraphic" in2="effect1_dropShadow" result="shape"/>
</filter>
<filter id="filter6_d" x="275.787" y="55.5918" width="61.3826" height="47.4861" filterUnits="userSpaceOnUse" color-interpolation-filters="sRGB">
<feFlood flood-opacity="0" result="BackgroundImageFix"/>
<feColorMatrix in="SourceAlpha" type="matrix" values="0 0 0 0 0 0 0 0 0 0 0 0 0 0 0 0 0 0 127 0"/>
<feOffset dy="6"/>
<feGaussianBlur stdDeviation="2.5"/>
<feColorMatrix type="matrix" values="0 0 0 0 0 0 0 0 0 0 0 0 0 0 0 0 0 0 0.1 0"/>
<feBlend mode="normal" in2="BackgroundImageFix" result="effect1_dropShadow"/>
<feBlend mode="normal" in="SourceGraphic" in2="effect1_dropShadow" result="shape"/>
</filter>
<filter id="filter7_d" x="327.38" y="55.5918" width="61.3826" height="47.4861" filterUnits="userSpaceOnUse" color-interpolation-filters="sRGB">
<feFlood flood-opacity="0" result="BackgroundImageFix"/>
<feColorMatrix in="SourceAlpha" type="matrix" values="0 0 0 0 0 0 0 0 0 0 0 0 0 0 0 0 0 0 127 0"/>
<feOffset dy="6"/>
<feGaussianBlur stdDeviation="2.5"/>
<feColorMatrix type="matrix" values="0 0 0 0 0 0 0 0 0 0 0 0 0 0 0 0 0 0 0.1 0"/>
<feBlend mode="normal" in2="BackgroundImageFix" result="effect1_dropShadow"/>
<feBlend mode="normal" in="SourceGraphic" in2="effect1_dropShadow" result="shape"/>
</filter>
</defs>
</svg>
