<svg width="992" height="771" viewBox="0 0 992 771" fill="none" xmlns="http://www.w3.org/2000/svg">
<g clip-path="url(#clip0)">
<path d="M289.581 0L131.727 85.5022C134.427 90.1493 136.166 95.2908 136.842 100.622C137.517 105.954 137.116 111.367 135.661 116.54C134.207 121.714 131.729 126.543 128.374 130.741C125.019 134.939 120.855 138.421 116.13 140.981C111.404 143.54 106.213 145.125 100.864 145.642C95.5146 146.158 90.1161 145.596 84.9882 143.988C79.8603 142.38 75.1074 139.758 71.0111 136.28C66.9148 132.801 63.5584 128.536 61.1408 123.736L7.31738 152.89L146.737 410.284L429 257.394L289.581 0Z" fill="#E2F4F4"/>
<path d="M94.604 138.255C112.602 138.255 127.191 123.665 127.191 105.667C127.191 87.6699 112.602 73.0801 94.604 73.0801C76.6065 73.0801 62.0166 87.6699 62.0166 105.667C62.0166 123.665 76.6065 138.255 94.604 138.255Z" fill="#9ED9D9"/>
<path d="M685.955 689.064L856.627 633.393C854.809 628.336 854.024 622.965 854.32 617.599C854.616 612.233 855.985 606.981 858.348 602.154C860.71 597.327 864.018 593.024 868.074 589.499C872.131 585.973 876.853 583.298 881.962 581.632C887.072 579.965 892.463 579.341 897.818 579.796C903.173 580.252 908.382 581.778 913.136 584.283C917.89 586.788 922.093 590.223 925.496 594.382C928.899 598.542 931.432 603.342 932.946 608.499L991.14 589.516L900.363 311.22L595.178 410.767L685.955 689.064Z" fill="#E2F4F4"/>
<path d="M896.776 652.831C914.773 652.831 929.363 638.241 929.363 620.244C929.363 602.246 914.773 587.656 896.776 587.656C878.778 587.656 864.188 602.246 864.188 620.244C864.188 638.241 878.778 652.831 896.776 652.831Z" fill="#9ED9D9"/>
<path d="M903.5 152.678H115.5V510.678H903.5V152.678Z" fill="#3F3D56"/>
<path d="M890.5 165.678H128.5V490.678H890.5V165.678Z" fill="white"/>
<path d="M813 475.178H739V500.178H813V475.178Z" fill="#3F3D56"/>
<path d="M735 494.178H681V501.178H735V494.178Z" fill="#9ED9D9"/>
<path d="M190.5 288.678H481.5L526.616 310.657L598.5 345.678L645.5 257.678H778.5" stroke="#5E6366" stroke-width="2" stroke-miterlimit="10"/>
<path d="M304.925 288.678L326.5 339.678H379.5" stroke="#3F3D56" stroke-width="2" stroke-miterlimit="10"/>
<path d="M385.807 288.678L459.5 248.678H511.5" stroke="#3F3D56" stroke-width="2" stroke-miterlimit="10"/>
<path d="M304.5 297.678C309.471 297.678 313.5 293.648 313.5 288.678C313.5 283.707 309.471 279.678 304.5 279.678C299.529 279.678 295.5 283.707 295.5 288.678C295.5 293.648 299.529 297.678 304.5 297.678Z" fill="#9ED9D9"/>
<path d="M388.5 297.678C393.471 297.678 397.5 293.648 397.5 288.678C397.5 283.707 393.471 279.678 388.5 279.678C383.529 279.678 379.5 283.707 379.5 288.678C379.5 293.648 383.529 297.678 388.5 297.678Z" fill="#9ED9D9"/>
<path d="M526.5 310.678L532.5 399.678H584.5" stroke="#3F3D56" stroke-width="2" stroke-miterlimit="10"/>
<path d="M626.65 292.971L569.5 248.678H623.5" stroke="#3F3D56" stroke-width="2" stroke-miterlimit="10"/>
<path d="M721.051 257.678L776.5 301.678H828.5" stroke="#3F3D56" stroke-width="2" stroke-miterlimit="10"/>
<path d="M526.5 319.678C531.471 319.678 535.5 315.648 535.5 310.678C535.5 305.707 531.471 301.678 526.5 301.678C521.529 301.678 517.5 305.707 517.5 310.678C517.5 315.648 521.529 319.678 526.5 319.678Z" fill="#9ED9D9"/>
<path d="M720.5 266.678C725.471 266.678 729.5 262.648 729.5 257.678C729.5 252.707 725.471 248.678 720.5 248.678C715.529 248.678 711.5 252.707 711.5 257.678C711.5 262.648 715.529 266.678 720.5 266.678Z" fill="#9ED9D9"/>
<path d="M626.5 301.678C631.471 301.678 635.5 297.648 635.5 292.678C635.5 287.707 631.471 283.678 626.5 283.678C621.529 283.678 617.5 287.707 617.5 292.678C617.5 297.648 621.529 301.678 626.5 301.678Z" fill="#9ED9D9"/>
<path d="M327.5 347.678H379.5" stroke="#3F3D56" stroke-width="2" stroke-miterlimit="10"/>
<path d="M809.542 90.2855C817.691 90.2855 824.297 83.6792 824.297 75.53C824.297 67.3807 817.691 60.7744 809.542 60.7744C801.392 60.7744 794.786 67.3807 794.786 75.53C794.786 83.6792 801.392 90.2855 809.542 90.2855Z" stroke="#9ED9D9" stroke-width="2" stroke-miterlimit="10"/>
<path d="M152 770.178C235.947 770.178 304 757.642 304 742.178C304 726.714 235.947 714.178 152 714.178C68.0527 714.178 0 726.714 0 742.178C0 757.642 68.0527 770.178 152 770.178Z" fill="#F2F2F2"/>
<path d="M256.389 493.658L229.272 507.339L231.027 510.834L258.143 497.153L256.389 493.658Z" fill="#9ED9D9"/>
<path d="M250.817 469.11L249.776 475.356L249.759 475.456L249.763 475.557L250.762 475.521C249.763 475.557 249.763 475.557 249.763 475.557L249.763 475.559L249.763 475.565L249.764 475.591L249.767 475.697C249.77 475.791 249.775 475.931 249.78 476.112C249.79 476.476 249.803 477.008 249.814 477.68C249.838 479.024 249.857 480.928 249.838 483.164C249.8 487.641 249.61 493.426 249.007 498.706C248.705 501.346 248.302 503.84 247.769 505.972C247.232 508.121 246.581 509.823 245.824 510.933C245.075 512.033 244.358 512.379 243.641 512.301C242.806 512.211 241.585 511.525 239.952 509.595C233.484 501.95 232.432 492.962 233.028 485.807C233.326 482.232 234.034 479.139 234.668 476.94C234.984 475.841 235.281 474.968 235.498 474.374C235.606 474.076 235.694 473.849 235.755 473.697C235.783 473.627 235.804 473.573 235.82 473.537L239.114 468.046L250.817 469.11Z" fill="white" stroke="#7A7A7A" stroke-width="2"/>
<path d="M174.013 234.311C174.013 234.311 171.577 259.893 170.359 261.112C169.14 262.33 188.632 285.476 188.632 285.476L205.687 269.639C205.687 269.639 204.469 246.493 208.124 241.62C211.778 236.747 174.013 234.311 174.013 234.311Z" fill="#FBBEBE"/>
<path d="M204.643 268.676C204.652 268.89 204.66 269.073 204.666 269.223L188.723 284.028C188.672 283.968 188.62 283.904 188.564 283.838C188.035 283.204 187.279 282.297 186.376 281.204C184.57 279.018 182.176 276.091 179.821 273.129C177.464 270.163 175.156 267.173 173.516 264.855C172.693 263.692 172.057 262.723 171.668 262.023C171.517 261.751 171.418 261.545 171.359 261.399C171.366 261.385 171.372 261.372 171.378 261.36C171.443 261.225 171.499 261.076 171.549 260.926C171.649 260.626 171.746 260.252 171.841 259.829C172.032 258.981 172.231 257.856 172.432 256.564C172.834 253.975 173.255 250.647 173.636 247.37C174.017 244.09 174.361 240.849 174.608 238.429C174.732 237.219 174.832 236.213 174.901 235.51C174.906 235.464 174.91 235.419 174.915 235.375C175.103 235.389 175.317 235.404 175.555 235.422C176.577 235.498 178.033 235.612 179.77 235.764C183.245 236.067 187.834 236.523 192.305 237.129C196.79 237.737 201.101 238.49 204.047 239.379C205.545 239.832 206.566 240.284 207.092 240.695C207.263 240.829 207.334 240.921 207.361 240.965C207.353 240.978 207.342 240.996 207.324 241.02C206.76 241.772 206.338 242.802 206.009 243.946C205.675 245.107 205.415 246.46 205.211 247.915C204.804 250.825 204.612 254.219 204.535 257.433C204.459 260.653 204.497 263.715 204.554 265.972C204.583 267.101 204.617 268.029 204.643 268.676ZM207.376 240.935C207.376 240.935 207.375 240.937 207.374 240.941C207.374 240.937 207.375 240.935 207.376 240.935Z" fill="white" stroke="#7A7A7A" stroke-width="2"/>
<path d="M112.706 698.438L127.939 701.703V721.955L120.487 723.02L109.352 719.679L112.706 698.438Z" fill="#F5F7FA" stroke="#5E6366" stroke-width="2"/>
<path d="M117.038 712.209L117.038 712.209L117.038 712.209L117.039 712.209L117.152 712.511L117.42 712.69L124.729 717.563L125.9 718.343L126.252 716.981C126.887 714.525 127.918 712.192 129.305 710.072C129.387 710.301 129.477 710.59 129.57 710.946C130.007 712.611 130.382 715.153 130.686 717.849C130.989 720.53 131.216 723.309 131.368 725.421C131.443 726.477 131.5 727.364 131.538 727.987C131.557 728.298 131.571 728.543 131.581 728.711L131.591 728.901L131.594 728.95L131.595 728.962L131.595 728.965L131.595 728.965C131.595 728.966 131.595 728.966 132.593 728.913L131.595 728.966L131.611 729.269L131.793 729.512L131.793 729.512L131.793 729.513L131.793 729.513L131.794 729.513L131.799 729.521L131.825 729.556C131.849 729.589 131.885 729.639 131.931 729.705C132.024 729.838 132.16 730.037 132.323 730.291C132.651 730.801 133.089 731.531 133.526 732.406C134.412 734.176 135.248 736.449 135.248 738.659C135.248 739.7 134.992 740.49 134.563 741.126C134.126 741.773 133.47 742.322 132.576 742.804C130.752 743.786 128.164 744.372 125.088 744.988C121.71 745.663 119.086 748.002 117.341 750.223C116.46 751.344 115.777 752.468 115.31 753.401C115.077 753.868 114.892 754.297 114.763 754.665C114.679 754.905 114.599 755.171 114.561 755.426C114.519 755.465 114.459 755.517 114.376 755.581C114.08 755.809 113.604 756.106 112.949 756.443C111.646 757.112 109.73 757.889 107.349 758.558C102.586 759.898 96.0368 760.79 88.9014 759.601C85.4325 759.022 83.4387 757.683 82.379 756.062C81.309 754.424 81.069 752.313 81.4978 749.954C82.3623 745.2 85.8687 739.914 89.3772 736.991C91.3353 735.359 93.0802 732.959 94.5901 730.346C96.1067 727.721 97.4212 724.819 98.4977 722.127C99.5753 719.433 100.421 716.934 100.997 715.109C101.286 714.196 101.507 713.45 101.657 712.932C101.731 712.672 101.788 712.47 101.827 712.331C101.846 712.262 101.86 712.209 101.87 712.172L101.881 712.131L101.884 712.12L101.885 712.117L101.885 712.116C101.886 712.116 101.886 712.115 100.919 711.858L101.886 712.115L101.898 712.069L101.905 712.024L101.906 712.023L101.906 712.023L101.906 712.023L101.906 712.022L101.907 712.013C101.909 712.004 101.912 711.988 101.916 711.965C101.925 711.92 101.939 711.851 101.96 711.759C102 711.577 102.066 711.309 102.163 710.981C102.359 710.324 102.678 709.439 103.17 708.525C104.16 706.686 105.784 704.839 108.425 704.311C110.846 703.826 112.939 705.491 114.58 707.728C115.371 708.808 115.989 709.932 116.41 710.793C116.62 711.222 116.779 711.581 116.885 711.831C116.938 711.956 116.977 712.053 117.003 712.118C117.016 712.15 117.025 712.174 117.031 712.19L117.037 712.206L117.038 712.209ZM129.739 709.434C129.739 709.434 129.737 709.436 129.734 709.44C129.737 709.436 129.739 709.434 129.739 709.434ZM128.996 709.427C128.992 709.423 128.989 709.42 128.989 709.42C128.989 709.42 128.992 709.422 128.996 709.427ZM114.645 755.335C114.646 755.335 114.642 755.341 114.632 755.354C114.639 755.342 114.645 755.335 114.645 755.335Z" fill="#5E6366" stroke="#3E4345" stroke-width="2"/>
<path d="M194.854 689.806L193.755 704.103L188.304 709.554L177.691 707.431L182.108 690.868L194.854 689.806Z" fill="#F5F7FA" stroke="#5E6366" stroke-width="2"/>
<path d="M180.105 705.767L179.273 706.322L179.859 707.202L180.705 706.567L180.705 706.567L180.705 706.567L180.705 706.567L180.707 706.566L180.716 706.559L180.754 706.531C180.788 706.506 180.839 706.468 180.905 706.42C181.038 706.324 181.232 706.185 181.473 706.018C181.956 705.684 182.623 705.24 183.36 704.797C184.101 704.353 184.896 703.921 185.638 703.603C186.405 703.274 187.014 703.113 187.414 703.113H191.069H192.069L192.069 702.114L192.069 702.114V702.113V702.113L192.069 702.112L192.069 702.1C192.069 702.087 192.069 702.068 192.07 702.041C192.071 701.987 192.074 701.904 192.079 701.797C192.09 701.583 192.112 701.273 192.157 700.898C192.247 700.145 192.425 699.158 192.772 698.185C193.121 697.207 193.622 696.301 194.321 695.648C194.998 695.017 195.898 694.585 197.16 694.585C198.512 694.585 199.35 694.92 199.881 695.329C200.417 695.742 200.738 696.302 200.923 696.918C201.11 697.541 201.146 698.185 201.129 698.691C201.12 698.94 201.1 699.146 201.082 699.287C201.073 699.357 201.064 699.41 201.059 699.443C201.056 699.46 201.054 699.472 201.053 699.478L201.052 699.481L201.052 699.482L201.052 699.483V699.483L201.052 699.483L200.973 699.878L201.193 700.219L202.033 699.676C201.193 700.219 201.193 700.219 201.194 700.22L201.194 700.22L201.196 700.223L201.203 700.235L201.232 700.279L201.346 700.454C201.445 700.607 201.591 700.832 201.778 701.119C202.152 701.693 202.691 702.518 203.348 703.518C204.663 705.519 206.455 708.226 208.361 711.048C210.267 713.869 212.292 716.809 214.07 719.277C215.831 721.719 217.4 723.767 218.381 724.748C219.111 725.478 220.421 726.473 221.886 727.586C222.374 727.958 222.88 728.342 223.388 728.734C225.479 730.35 227.695 732.165 229.302 733.99C230.96 735.875 231.714 737.488 231.469 738.755C231.239 739.942 229.995 741.38 226.104 742.577C218.227 745 211.671 746.175 206.225 745.734C200.828 745.296 196.513 743.271 193.046 739.227L192.915 739.074L192.734 738.983L192.287 739.878C192.734 738.983 192.734 738.983 192.734 738.983L192.733 738.983L192.732 738.982L192.727 738.98L192.709 738.971L192.643 738.939C192.586 738.91 192.502 738.87 192.394 738.818C192.179 738.716 191.867 738.57 191.479 738.395C190.703 738.046 189.617 737.58 188.374 737.114C185.924 736.195 182.734 735.223 180.105 735.223C177.812 735.223 175.226 734.645 173.243 733.654C171.191 732.628 170.141 731.359 170.141 730.132C170.141 729.358 170.339 728.322 170.673 727.152C171.003 725.997 171.447 724.775 171.896 723.651C172.345 722.529 172.795 721.518 173.132 720.786C173.301 720.421 173.441 720.126 173.539 719.924C173.588 719.823 173.626 719.745 173.652 719.692L173.681 719.633L173.688 719.619L173.689 719.616L173.69 719.615L173.69 719.615L173.69 719.615L173.77 719.456L173.789 719.278L172.795 719.168C173.789 719.278 173.789 719.278 173.789 719.278L173.789 719.277L173.79 719.275L173.791 719.263L173.796 719.217L173.817 719.035C173.835 718.876 173.861 718.642 173.896 718.346C173.965 717.753 174.064 716.908 174.188 715.901C174.435 713.888 174.776 711.232 175.155 708.654C175.536 706.068 175.949 703.59 176.339 701.921C176.358 701.839 176.377 701.759 176.396 701.682C176.884 702.539 177.417 703.415 177.886 704.165C178.271 704.781 178.617 705.319 178.867 705.703C178.992 705.895 179.093 706.05 179.163 706.156L179.244 706.278L179.265 706.31L179.271 706.319L179.272 706.321L179.272 706.322L179.273 706.322C179.273 706.322 179.273 706.322 180.105 705.767Z" fill="#5E6366" stroke="#3E4345" stroke-width="2"/>
<path d="M221.525 546.179C220.529 546.08 220.529 546.08 220.529 546.082L220.529 546.086L220.527 546.105L220.52 546.178L220.491 546.468L220.379 547.601C220.281 548.593 220.137 550.049 219.954 551.905C219.587 555.617 219.064 560.928 218.435 567.324C217.179 580.116 215.504 597.248 213.829 614.608C212.154 631.969 210.478 649.559 209.222 663.266C207.969 676.932 207.124 686.825 207.124 688.712C207.124 689.883 206.084 691.088 203.615 692.219C201.241 693.306 197.954 694.127 194.403 694.731C187.468 695.911 179.791 696.226 176.647 696.239C176.599 696.159 176.534 696.023 176.461 695.81C176.255 695.201 176.081 694.235 175.958 692.907C175.715 690.273 175.689 686.468 175.831 681.852C176.116 672.633 177.065 660.324 178.207 647.993C179.348 635.668 180.68 623.341 181.726 614.093C182.25 609.47 182.701 605.617 183.022 602.921C183.183 601.573 183.311 600.513 183.398 599.791C183.442 599.43 183.476 599.154 183.499 598.967L183.525 598.756L183.531 598.703L183.533 598.69L183.533 598.686C183.533 598.686 183.533 598.685 182.541 598.563L183.533 598.685L183.542 598.613L183.541 598.54L181.104 488.899L181.087 488.136L180.347 487.951L175.474 486.733L174.518 486.494L174.265 487.446L175.232 487.703C174.265 487.446 174.265 487.447 174.265 487.448L174.264 487.451L174.261 487.464L174.247 487.516L174.192 487.722L173.978 488.527C173.79 489.232 173.515 490.267 173.164 491.584C172.462 494.217 171.458 497.981 170.249 502.502C167.832 511.543 164.596 523.61 161.323 535.715C158.049 547.82 154.738 559.961 152.169 569.151C150.885 573.747 149.787 577.6 148.973 580.34C148.566 581.711 148.232 582.796 147.982 583.554C147.857 583.934 147.757 584.22 147.682 584.415C147.65 584.496 147.627 584.552 147.611 584.587C147.541 584.684 147.503 584.769 147.487 584.805C147.454 584.88 147.429 584.953 147.411 585.011C147.375 585.129 147.344 585.265 147.315 585.405C147.257 585.69 147.196 586.073 147.13 586.537C146.998 587.47 146.842 588.791 146.665 590.438C146.312 593.735 145.874 598.377 145.379 603.918C144.388 615 143.17 629.698 141.952 644.469C141.831 645.93 141.711 647.391 141.591 648.85C140.495 662.143 139.418 675.211 138.526 685.466C138.031 691.156 137.594 695.976 137.242 699.486C137.066 701.242 136.913 702.664 136.784 703.701C136.72 704.22 136.663 704.636 136.614 704.946C136.589 705.101 136.568 705.223 136.549 705.316C136.532 705.399 136.521 705.439 136.518 705.449C136.517 705.448 136.416 705.646 135.747 705.859C135.097 706.066 134.153 706.208 132.94 706.272C130.526 706.401 127.276 706.218 123.715 705.839C116.603 705.082 108.425 703.567 103.598 702.361C103.504 702.337 103.173 702.157 102.81 701.179C102.47 700.265 102.204 698.917 102.024 697.141C101.665 693.603 101.671 688.604 101.956 682.534C102.526 670.409 104.197 654.183 106.176 637.205C107.29 627.658 108.497 617.899 109.659 608.505C110.565 601.181 111.444 594.077 112.229 587.469C114.016 572.434 115.32 559.956 115.32 553.488C115.32 540.785 118.656 514.977 122.009 492.265C123.684 480.927 125.358 470.387 126.614 462.681C127.241 458.828 127.765 455.684 128.131 453.504C128.314 452.414 128.458 451.564 128.556 450.988C128.605 450.699 128.642 450.479 128.668 450.331L128.696 450.164L128.704 450.121L128.705 450.111L128.706 450.108C128.706 450.108 128.706 450.107 127.72 449.938L128.706 450.107L128.72 450.023V449.938V410.749L224.251 411.943C224.26 412.025 224.271 412.113 224.283 412.205C224.383 412.99 224.582 414.137 224.974 415.625C225.757 418.603 227.312 422.944 230.396 428.495C230.689 429.023 230.963 429.942 231.177 431.299C231.387 432.633 231.527 434.304 231.601 436.273C231.749 440.209 231.632 445.262 231.319 451.045C230.692 462.608 229.286 477.013 227.688 491.093C226.09 505.169 224.302 518.904 222.913 529.122C222.219 534.23 221.624 538.459 221.203 541.41C220.993 542.885 220.826 544.041 220.711 544.828C220.686 545.002 220.663 545.158 220.643 545.295C220.618 545.468 220.597 545.612 220.58 545.726L220.547 545.955L220.538 546.013L220.536 546.028L220.535 546.031C220.535 546.032 220.535 546.032 221.525 546.179ZM221.525 546.179L220.535 546.032L220.532 546.056L220.529 546.08L221.525 546.179Z" fill="#919699" stroke="#3E4345" stroke-width="2"/>
<path d="M217.478 228.829C217.478 241.732 207.018 252.193 194.114 252.193C181.21 252.193 170.749 241.732 170.749 228.829C170.749 215.925 181.21 205.464 194.114 205.464C207.018 205.464 217.478 215.925 217.478 228.829Z" fill="white" stroke="#7A7A7A" stroke-width="2"/>
<path d="M131.842 445.154L124.216 433.172L137.287 424.458L151.449 440.797L131.842 445.154Z" fill="white" stroke="#7A7A7A" stroke-width="2"/>
<path d="M187.909 214.582L187.932 214.586C188.873 214.76 189.787 215.057 190.652 215.469C191.004 215.634 191.387 215.727 191.776 215.741C192.16 215.754 192.543 215.692 192.902 215.556C193.032 215.493 193.148 215.402 193.24 215.291C193.336 215.175 193.405 215.04 193.442 214.894C193.479 214.749 193.484 214.597 193.455 214.449C193.426 214.302 193.365 214.163 193.275 214.042L192.744 213.325L193.633 213.247C195.125 213.115 196.536 212.51 197.659 211.52C197.933 211.239 198.25 211.002 198.598 210.82L198.649 210.793L198.704 210.779C199.128 210.668 199.57 210.646 200.003 210.713C200.424 210.779 200.828 210.928 201.191 211.152L203.929 212.415C204.637 212.669 205.259 213.117 205.726 213.708L205.741 213.727L205.754 213.748C205.915 213.998 206.028 214.292 206.117 214.524C206.139 214.58 206.159 214.632 206.178 214.68C206.29 214.957 206.387 215.13 206.522 215.243C206.689 215.384 206.92 215.443 207.279 215.45C207.435 215.453 207.594 215.447 207.772 215.439C207.799 215.438 207.827 215.437 207.855 215.436C208.058 215.427 208.284 215.42 208.508 215.434L208.517 215.435L208.525 215.435C209.357 215.516 210.13 215.9 210.698 216.513C211.266 217.127 211.589 217.927 211.606 218.763L211.606 218.771L211.606 218.78C211.603 218.989 211.584 219.206 211.566 219.402C211.565 219.42 211.563 219.437 211.562 219.455C211.542 219.674 211.526 219.868 211.529 220.047C211.533 220.411 211.61 220.591 211.751 220.7C211.84 220.769 211.967 220.813 212.192 220.858C212.227 220.865 212.266 220.872 212.307 220.88C212.498 220.915 212.753 220.962 212.981 221.054C213.767 221.374 214.121 222.075 214.261 222.769C214.4 223.458 214.35 224.225 214.263 224.853C214.183 225.432 214.169 226.068 214.295 226.583C214.419 227.093 214.652 227.395 215.007 227.509C215.27 227.593 215.564 227.556 215.963 227.439C216.059 227.411 216.167 227.376 216.282 227.338C216.593 227.237 216.961 227.116 217.306 227.066C218.079 226.953 218.799 227.142 219.446 227.416C219.914 227.614 220.382 227.874 220.813 228.115C220.965 228.199 221.113 228.282 221.254 228.358C221.796 228.649 222.404 228.879 222.971 228.946C223.535 229.012 224.011 228.913 224.371 228.608C224.707 228.324 224.887 227.906 224.947 227.38C225.008 226.85 224.94 226.253 224.818 225.685M187.909 214.582L225.307 225.58M187.909 214.582L187.886 214.579M187.909 214.582L187.886 214.579M224.818 225.685L225.307 225.58M224.818 225.685C224.818 225.685 224.818 225.685 224.818 225.685L225.307 225.58M224.818 225.685C224.463 224.034 223.882 222.441 223.09 220.95M225.307 225.58C224.941 223.876 224.339 222.231 223.52 220.693M223.09 220.95C223.094 220.957 223.099 220.964 223.104 220.972L223.52 220.693M223.09 220.95C223.086 220.942 223.082 220.935 223.078 220.928L223.52 220.693M223.09 220.95L223.52 220.693M193.677 213.745C193.861 213.729 194.044 213.706 194.225 213.676C194.182 213.597 194.133 213.52 194.079 213.447L193.677 213.745ZM193.677 213.745L193.721 214.243C193.785 214.237 193.85 214.231 193.914 214.223C193.864 214.051 193.784 213.889 193.677 213.745ZM187.886 214.579C186.807 214.48 185.814 214.828 184.916 215.196C184.746 215.266 184.58 215.336 184.416 215.405C183.685 215.714 183.011 215.998 182.302 216.117C181.705 216.218 181.095 216.201 180.432 216.181C180.273 216.177 180.111 216.172 179.945 216.169C179.119 216.153 178.222 216.179 177.37 216.539C175.577 217.299 174.96 218.97 174.475 220.435C174.44 220.542 174.405 220.647 174.371 220.752C174.162 221.391 173.967 221.986 173.705 222.519C173.405 223.129 173.036 223.615 172.507 223.94L172.769 224.366L172.507 223.94C172.358 224.032 172.183 224.057 171.888 224.074C171.865 224.075 171.842 224.076 171.817 224.077C171.56 224.09 171.192 224.109 170.852 224.273C170.355 224.513 170.073 224.842 169.864 225.195C169.775 225.347 169.697 225.506 169.625 225.652C169.618 225.666 169.612 225.68 169.605 225.694C169.525 225.856 169.448 226.01 169.354 226.166L169.354 226.166L169.347 226.177C168.975 226.829 168.474 227.398 167.875 227.849C167.275 228.3 166.589 228.624 165.86 228.801L165.844 228.805L165.828 228.81C165.651 228.866 165.466 228.883 165.282 228.861C165.123 228.842 164.97 228.794 164.828 228.719C164.676 228.532 164.566 228.313 164.508 228.078C164.444 227.818 164.444 227.547 164.509 227.288L164.519 227.25L164.522 227.211C164.596 226.387 164.643 225.438 164.488 224.559C164.332 223.674 163.961 222.807 163.157 222.222C162.869 222.012 162.55 221.864 162.281 221.739C162.267 221.732 162.254 221.726 162.241 221.72C161.947 221.583 161.709 221.468 161.508 221.314C161.017 220.936 160.772 220.353 160.718 219.635C160.664 218.913 160.809 218.104 161.044 217.374C161.105 217.184 161.172 216.987 161.241 216.784C161.438 216.205 161.649 215.582 161.782 214.972C161.966 214.132 162.026 213.236 161.708 212.353C161.346 211.349 160.545 210.566 159.855 209.89C159.768 209.805 159.683 209.722 159.601 209.64C158.814 208.858 158.256 208.193 158.209 207.348C158.168 206.608 158.539 205.929 159.044 205.104C159.073 205.055 159.103 205.007 159.133 204.957C159.589 204.216 160.124 203.343 160.19 202.344L160.193 202.297L160.187 202.25C160.085 201.419 160.036 200.581 160.041 199.743C160.213 198.983 160.829 198.51 161.771 198.035C162.006 197.917 162.251 197.803 162.505 197.685L162.531 197.673C162.776 197.56 163.029 197.442 163.278 197.318C163.792 197.062 164.315 196.764 164.76 196.374L164.782 196.355L164.802 196.332C165.705 195.328 166.424 194.174 166.928 192.921C167.217 192.393 167.582 191.888 168.007 191.515C168.437 191.139 168.903 190.917 169.403 190.906C169.595 190.902 169.769 190.924 169.976 190.95C170.091 190.965 170.216 190.981 170.36 190.994C170.719 191.028 171.161 191.036 171.589 190.829C172.528 190.374 172.625 189.398 172.646 188.661C172.651 188.487 172.652 188.328 172.652 188.175C172.653 187.954 172.654 187.745 172.667 187.518C172.688 187.166 172.738 186.87 172.842 186.628C173.139 186.111 173.602 185.708 174.156 185.486L174.174 185.479M187.886 214.579L174.174 185.479M174.174 185.479L174.192 185.47L174.174 185.479ZM223.992 216.902C223.985 216.908 223.977 216.914 223.969 216.92L224.279 217.312L224.019 216.885C224.01 216.891 224.001 216.896 223.992 216.902ZM196.626 181.743C196.627 181.743 196.627 181.743 196.628 181.743L196.801 181.274L196.624 181.742C196.625 181.742 196.626 181.743 196.626 181.743ZM186.057 182.659C186.065 182.654 186.072 182.648 186.08 182.642L185.782 182.241L186.034 182.673C186.042 182.668 186.049 182.664 186.057 182.659ZM179.568 184.361L179.594 183.862L179.525 184.357C179.532 184.358 179.54 184.359 179.547 184.36C179.554 184.36 179.561 184.361 179.568 184.361Z" fill="#3E4345" stroke="#919699"/>
<mask id="path-35-inside-1" fill="white">
<path fill-rule="evenodd" clip-rule="evenodd" d="M188.632 270.858C188.632 270.858 173.404 258.066 172.186 253.193C172.186 253.193 164.267 261.112 164.267 262.33C164.267 262.671 161.592 263.204 157.552 264.007C147.167 266.073 127.768 269.933 121.629 276.949C113.101 286.695 105.792 307.405 105.792 307.405L105.792 307.405C105.746 307.542 83.8716 373.205 91.1733 387.808C93.0935 391.649 95.5181 397.002 98.138 402.787C105.491 419.023 114.382 438.654 117.974 437.756C122.847 436.538 139.903 425.573 139.903 424.355C139.903 424.068 138.751 421.952 136.992 418.886C146.46 422.3 159.627 425.761 171.577 424.355C180.666 423.286 189.756 421.982 197.61 420.855L197.61 420.855C207.65 419.415 215.67 418.264 219.088 418.264C221.5 418.264 223.722 418.646 225.525 418.957C228.275 419.43 230.052 419.735 230.052 418.264C230.052 417.046 229.138 415.218 228.225 413.391C227.311 411.564 226.397 409.736 226.397 408.518C226.397 407.423 226.151 405.589 225.88 403.571C225.548 401.098 225.179 398.348 225.179 396.336C225.179 394.64 224.654 392.419 224.092 390.038L224.092 390.038C223.442 387.29 222.743 384.328 222.743 381.717C222.743 381.392 222.862 380.796 223.084 379.967L228.834 387.808L234.925 441.41C234.925 441.41 232.489 464.557 232.489 468.212C232.489 471.344 248.599 470.897 255.504 470.705H255.504C256.655 470.673 257.55 470.648 258.072 470.648C261.726 470.648 256.854 452.375 256.854 452.375C256.854 452.375 259.29 432.883 261.726 407.3C264.163 381.717 249.544 311.059 249.544 311.059L249.544 311.059C249.535 310.909 248.255 290.314 228.834 280.604C209.342 270.858 206.905 267.203 206.905 267.203C206.905 267.203 206.526 259.894 205.497 259.894C205.238 259.894 204.81 260.593 204.159 261.659C202.234 264.811 198.352 271.165 191.068 272.076L188.632 270.858ZM124.397 397.641C125.085 391.241 126.03 384.121 126.737 378.798L126.737 378.798C127.306 374.509 127.72 371.388 127.72 370.753C127.72 368.915 127.027 355.983 126.686 349.743C124.539 358.796 121.629 371.203 121.629 371.971C121.629 372.32 121.629 372.569 121.572 372.805C121.429 373.39 120.931 373.888 119.193 375.626C117.784 377.035 117.19 376.814 117.175 376.849C117.164 376.874 117.461 377.035 117.974 378.062C118.627 379.367 118.93 379.624 118.884 379.768C118.843 379.893 118.54 379.933 117.974 380.499C116.756 381.717 119.193 389.026 119.193 389.026C119.193 389.026 121.412 392.681 124.397 397.641Z"/>
</mask>
<path fill-rule="evenodd" clip-rule="evenodd" d="M188.632 270.858C188.632 270.858 173.404 258.066 172.186 253.193C172.186 253.193 164.267 261.112 164.267 262.33C164.267 262.671 161.592 263.204 157.552 264.007C147.167 266.073 127.768 269.933 121.629 276.949C113.101 286.695 105.792 307.405 105.792 307.405L105.792 307.405C105.746 307.542 83.8716 373.205 91.1733 387.808C93.0935 391.649 95.5181 397.002 98.138 402.787C105.491 419.023 114.382 438.654 117.974 437.756C122.847 436.538 139.903 425.573 139.903 424.355C139.903 424.068 138.751 421.952 136.992 418.886C146.46 422.3 159.627 425.761 171.577 424.355C180.666 423.286 189.756 421.982 197.61 420.855L197.61 420.855C207.65 419.415 215.67 418.264 219.088 418.264C221.5 418.264 223.722 418.646 225.525 418.957C228.275 419.43 230.052 419.735 230.052 418.264C230.052 417.046 229.138 415.218 228.225 413.391C227.311 411.564 226.397 409.736 226.397 408.518C226.397 407.423 226.151 405.589 225.88 403.571C225.548 401.098 225.179 398.348 225.179 396.336C225.179 394.64 224.654 392.419 224.092 390.038L224.092 390.038C223.442 387.29 222.743 384.328 222.743 381.717C222.743 381.392 222.862 380.796 223.084 379.967L228.834 387.808L234.925 441.41C234.925 441.41 232.489 464.557 232.489 468.212C232.489 471.344 248.599 470.897 255.504 470.705H255.504C256.655 470.673 257.55 470.648 258.072 470.648C261.726 470.648 256.854 452.375 256.854 452.375C256.854 452.375 259.29 432.883 261.726 407.3C264.163 381.717 249.544 311.059 249.544 311.059L249.544 311.059C249.535 310.909 248.255 290.314 228.834 280.604C209.342 270.858 206.905 267.203 206.905 267.203C206.905 267.203 206.526 259.894 205.497 259.894C205.238 259.894 204.81 260.593 204.159 261.659C202.234 264.811 198.352 271.165 191.068 272.076L188.632 270.858ZM124.397 397.641C125.085 391.241 126.03 384.121 126.737 378.798L126.737 378.798C127.306 374.509 127.72 371.388 127.72 370.753C127.72 368.915 127.027 355.983 126.686 349.743C124.539 358.796 121.629 371.203 121.629 371.971C121.629 372.32 121.629 372.569 121.572 372.805C121.429 373.39 120.931 373.888 119.193 375.626C117.784 377.035 117.19 376.814 117.175 376.849C117.164 376.874 117.461 377.035 117.974 378.062C118.627 379.367 118.93 379.624 118.884 379.768C118.843 379.893 118.54 379.933 117.974 380.499C116.756 381.717 119.193 389.026 119.193 389.026C119.193 389.026 121.412 392.681 124.397 397.641Z" fill="#9ED9D9"/>
<path d="M172.186 253.193L174.126 252.708L173.269 249.281L170.772 251.779L172.186 253.193ZM188.632 270.858L187.346 272.389L187.526 272.541L187.738 272.647L188.632 270.858ZM157.552 264.007L157.942 265.969L157.552 264.007ZM121.629 276.949L123.134 278.266L121.629 276.949ZM105.792 307.405L103.906 306.739L103.612 307.573L104.03 308.352L105.792 307.405ZM105.792 307.405L107.689 308.037L107.962 307.218L107.554 306.458L105.792 307.405ZM91.1733 387.808L92.9622 386.914H92.9622L91.1733 387.808ZM98.138 402.787L96.3161 403.612L98.138 402.787ZM117.974 437.756L118.46 439.696H118.46L117.974 437.756ZM136.992 418.886L137.67 417.005L132.546 415.157L135.257 419.882L136.992 418.886ZM171.577 424.355L171.343 422.369L171.577 424.355ZM197.61 420.855L197.42 418.864L197.373 418.869L197.326 418.875L197.61 420.855ZM197.61 420.855L197.8 422.846L197.847 422.842L197.894 422.835L197.61 420.855ZM225.525 418.957L225.186 420.928H225.186L225.525 418.957ZM225.88 403.571L227.862 403.305V403.305L225.88 403.571ZM224.092 390.038L226.038 389.578L225.998 389.41L225.93 389.251L224.092 390.038ZM224.092 390.038L222.145 390.498L222.185 390.667L222.253 390.826L224.092 390.038ZM223.084 379.967L224.697 378.784L222.232 375.424L221.152 379.449L223.084 379.967ZM228.834 387.808L230.821 387.582L230.761 387.054L230.447 386.625L228.834 387.808ZM234.925 441.41L236.914 441.62L236.937 441.402L236.913 441.185L234.925 441.41ZM255.504 470.705V468.705H255.476L255.448 468.706L255.504 470.705ZM255.504 470.705V472.705H255.532L255.559 472.704L255.504 470.705ZM256.854 452.375L254.869 452.126L254.821 452.513L254.921 452.89L256.854 452.375ZM249.544 311.059L251.503 310.654L251.413 310.219L251.146 309.862L249.544 311.059ZM249.544 311.059L247.547 311.18L247.583 311.777L247.941 312.256L249.544 311.059ZM228.834 280.604L227.939 282.392L228.834 280.604ZM206.905 267.203L204.908 267.307L204.937 267.855L205.241 268.312L206.905 267.203ZM204.159 261.659L202.453 260.616L202.453 260.616L204.159 261.659ZM191.068 272.076L190.174 273.865L190.716 274.136L191.316 274.061L191.068 272.076ZM124.397 397.641L122.683 398.672L125.75 403.766L126.385 397.854L124.397 397.641ZM126.737 378.798L124.755 378.528L124.754 378.535L126.737 378.798ZM126.737 378.798L128.718 379.068L128.719 379.061L126.737 378.798ZM126.686 349.743L128.683 349.634L124.74 349.281L126.686 349.743ZM121.572 372.805L123.515 373.279V373.279L121.572 372.805ZM119.193 375.626L117.779 374.212H117.779L119.193 375.626ZM117.175 376.849L115.344 376.043L115.344 376.043L117.175 376.849ZM117.974 378.062L116.186 378.957H116.186L117.974 378.062ZM118.884 379.768L120.787 380.381L120.787 380.381L118.884 379.768ZM117.974 380.499L119.389 381.913H119.389L117.974 380.499ZM119.193 389.026L117.295 389.659L117.366 389.872L117.483 390.064L119.193 389.026ZM170.245 253.678C170.478 254.61 170.992 255.563 171.568 256.445C172.162 257.355 172.914 258.324 173.744 259.303C175.406 261.262 177.479 263.371 179.479 265.295C181.486 267.224 183.451 268.996 184.911 270.283C185.642 270.928 186.248 271.452 186.673 271.817C186.885 271.999 187.052 272.141 187.167 272.238C187.224 272.287 187.268 272.324 187.298 272.349C187.313 272.362 187.325 272.372 187.333 272.378C187.337 272.382 187.34 272.384 187.342 272.386C187.343 272.387 187.344 272.388 187.344 272.388C187.345 272.388 187.345 272.389 187.345 272.389C187.345 272.389 187.346 272.389 188.632 270.858C189.918 269.326 189.918 269.326 189.918 269.326C189.918 269.326 189.918 269.326 189.918 269.326C189.918 269.326 189.917 269.325 189.916 269.325C189.915 269.323 189.912 269.321 189.909 269.319C189.902 269.313 189.892 269.304 189.878 269.293C189.851 269.269 189.809 269.234 189.755 269.188C189.645 269.095 189.484 268.958 189.278 268.781C188.865 268.426 188.272 267.914 187.556 267.283C186.123 266.019 184.204 264.289 182.252 262.411C180.294 260.528 178.33 258.526 176.794 256.715C176.026 255.81 175.388 254.98 174.917 254.258C174.427 253.507 174.198 252.995 174.126 252.708L170.245 253.678ZM166.267 262.33C166.267 262.547 166.226 262.703 166.208 262.763C166.197 262.8 166.187 262.827 166.181 262.843C166.175 262.859 166.171 262.868 166.17 262.869C166.17 262.87 166.177 262.854 166.198 262.818C166.218 262.783 166.246 262.736 166.284 262.678C166.445 262.431 166.703 262.085 167.057 261.65C167.757 260.788 168.712 259.722 169.692 258.666C170.667 257.616 171.645 256.6 172.38 255.846C172.748 255.469 173.054 255.158 173.267 254.942C173.374 254.834 173.458 254.75 173.515 254.693C173.543 254.665 173.565 254.643 173.579 254.629C173.586 254.621 173.592 254.616 173.595 254.612C173.597 254.611 173.598 254.609 173.599 254.609C173.599 254.608 173.6 254.608 173.6 254.608C173.6 254.608 173.6 254.608 173.6 254.608C173.6 254.608 173.6 254.608 172.186 253.193C170.772 251.779 170.771 251.779 170.771 251.779C170.771 251.779 170.771 251.78 170.771 251.78C170.771 251.78 170.77 251.78 170.77 251.781C170.769 251.782 170.767 251.784 170.765 251.786C170.761 251.79 170.755 251.796 170.747 251.804C170.731 251.819 170.709 251.842 170.679 251.872C170.62 251.932 170.533 252.019 170.424 252.13C170.204 252.351 169.891 252.669 169.516 253.053C168.767 253.822 167.766 254.862 166.761 255.944C165.762 257.02 164.737 258.162 163.952 259.127C163.564 259.606 163.203 260.078 162.931 260.498C162.795 260.706 162.655 260.941 162.542 261.185C162.455 261.373 162.267 261.802 162.267 262.33H166.267ZM157.942 265.969C159.946 265.57 161.666 265.228 162.882 264.942C163.481 264.801 164.029 264.658 164.45 264.51C164.647 264.44 164.919 264.335 165.176 264.181C165.301 264.105 165.516 263.963 165.722 263.735C165.922 263.513 166.267 263.033 166.267 262.33H162.267C162.267 261.67 162.592 261.234 162.751 261.057C162.915 260.875 163.069 260.78 163.113 260.754C163.208 260.697 163.239 260.695 163.122 260.736C162.915 260.809 162.542 260.913 161.966 261.048C160.835 261.315 159.197 261.641 157.161 262.046L157.942 265.969ZM123.134 278.266C124.414 276.804 126.502 275.388 129.245 274.057C131.961 272.738 135.178 271.569 138.58 270.535C145.386 268.468 152.738 267.004 157.942 265.969L157.161 262.046C151.981 263.076 144.441 264.575 137.417 266.708C133.904 267.775 130.471 269.015 127.498 270.458C124.552 271.888 121.914 273.586 120.124 275.632L123.134 278.266ZM105.792 307.405C107.678 308.07 107.678 308.071 107.678 308.071C107.678 308.071 107.678 308.07 107.678 308.07C107.678 308.07 107.678 308.069 107.679 308.068C107.679 308.066 107.681 308.063 107.682 308.059C107.685 308.05 107.69 308.036 107.697 308.017C107.71 307.98 107.73 307.924 107.757 307.849C107.811 307.7 107.892 307.477 107.998 307.19C108.211 306.615 108.526 305.779 108.93 304.745C109.739 302.675 110.906 299.815 112.335 296.656C115.219 290.28 119.079 282.901 123.134 278.266L120.124 275.632C115.652 280.743 111.593 288.591 108.69 295.007C107.226 298.244 106.032 301.171 105.205 303.288C104.79 304.348 104.467 305.206 104.247 305.802C104.137 306.1 104.052 306.332 103.995 306.491C103.966 306.57 103.944 306.631 103.93 306.673C103.922 306.694 103.916 306.71 103.912 306.721C103.911 306.726 103.909 306.731 103.908 306.734C103.907 306.735 103.907 306.736 103.907 306.737C103.906 306.738 103.906 306.738 103.906 306.739C103.906 306.739 103.906 306.739 105.792 307.405ZM107.554 306.458L107.554 306.458L104.03 308.352L104.03 308.352L107.554 306.458ZM103.895 306.773C103.867 306.857 98.3675 323.364 93.7871 341.697C91.4983 350.858 89.4252 360.528 88.3861 368.856C87.8667 373.018 87.5992 376.894 87.7042 380.229C87.8078 383.519 88.2774 386.488 89.3845 388.703L92.9622 386.914C92.2438 385.477 91.7998 383.2 91.7022 380.103C91.6061 377.052 91.85 373.4 92.3553 369.351C93.3655 361.256 95.395 351.763 97.6678 342.666C102.211 324.483 107.672 308.09 107.689 308.037L103.895 306.773ZM89.3845 388.703C91.2834 392.501 93.6898 397.813 96.3161 403.612L99.9599 401.962C97.3465 396.191 94.9036 390.797 92.9622 386.914L89.3845 388.703ZM96.3161 403.612C99.9847 411.713 104.072 420.739 107.696 427.628C109.503 431.061 111.238 434.048 112.785 436.142C113.551 437.18 114.341 438.096 115.14 438.737C115.857 439.312 117.056 440.047 118.46 439.696L117.489 435.815C117.995 435.689 118.13 436.007 117.644 435.617C117.24 435.293 116.689 434.696 116.002 433.766C114.642 431.924 113.021 429.157 111.236 425.765C107.679 419.004 103.644 410.097 99.9599 401.962L96.3161 403.612ZM118.46 439.696C119.947 439.324 122.127 438.295 124.398 437.084C126.733 435.839 129.362 434.291 131.826 432.751C134.288 431.213 136.614 429.663 138.338 428.409C139.194 427.786 139.937 427.211 140.482 426.732C140.748 426.498 141.015 426.245 141.23 425.993C141.337 425.868 141.471 425.698 141.588 425.493C141.681 425.332 141.903 424.916 141.903 424.355H137.903C137.903 423.87 138.091 423.55 138.119 423.502C138.172 423.41 138.209 423.37 138.19 423.393C138.153 423.436 138.048 423.545 137.839 423.729C137.432 424.088 136.804 424.579 135.985 425.174C134.359 426.357 132.117 427.853 129.706 429.359C127.297 430.865 124.749 432.363 122.515 433.555C120.218 434.78 118.438 435.578 117.489 435.815L118.46 439.696ZM141.903 424.355C141.903 424.063 141.84 423.829 141.817 423.747C141.785 423.632 141.748 423.528 141.718 423.449C141.657 423.29 141.581 423.12 141.504 422.956C141.347 422.624 141.129 422.203 140.87 421.718C140.348 420.744 139.609 419.428 138.726 417.891L135.257 419.882C136.134 421.41 136.85 422.685 137.344 423.607C137.593 424.071 137.773 424.424 137.887 424.665C137.945 424.788 137.973 424.855 137.982 424.878C137.986 424.89 137.976 424.865 137.962 424.814C137.957 424.796 137.903 424.612 137.903 424.355H141.903ZM171.343 422.369C159.864 423.719 147.055 420.388 137.67 417.005L136.313 420.768C145.865 424.211 159.39 427.803 171.81 426.342L171.343 422.369ZM197.326 418.875C189.469 420.003 180.404 421.303 171.343 422.369L171.81 426.342C180.929 425.269 190.043 423.961 197.894 422.835L197.326 418.875ZM197.421 418.864L197.42 418.864L197.799 422.846L197.8 422.846L197.421 418.864ZM219.088 416.264C215.485 416.264 207.259 417.45 197.326 418.875L197.894 422.835C208.041 421.379 215.855 420.264 219.088 420.264V416.264ZM225.864 416.986C224.073 416.677 221.694 416.264 219.088 416.264V420.264C221.307 420.264 223.371 420.615 225.186 420.928L225.864 416.986ZM228.052 418.264C228.052 418.199 228.095 417.813 228.467 417.509C228.737 417.289 228.931 417.329 228.697 417.343C228.497 417.356 228.168 417.339 227.651 417.272C227.146 417.206 226.563 417.106 225.864 416.986L225.186 420.928C226.45 421.145 227.864 421.402 228.942 421.336C229.496 421.302 230.306 421.171 230.995 420.61C231.787 419.964 232.052 419.064 232.052 418.264H228.052ZM226.436 414.286C226.901 415.217 227.321 416.059 227.63 416.813C227.957 417.614 228.052 418.069 228.052 418.264H232.052C232.052 417.241 231.69 416.173 231.332 415.299C230.955 414.378 230.462 413.393 230.013 412.497L226.436 414.286ZM224.397 408.518C224.397 409.541 224.759 410.609 225.117 411.484C225.494 412.404 225.988 413.389 226.436 414.286L230.013 412.497C229.548 411.566 229.128 410.723 228.819 409.969C228.492 409.168 228.397 408.713 228.397 408.518H224.397ZM223.898 403.837C224.179 405.928 224.397 407.592 224.397 408.518H228.397C228.397 407.254 228.124 405.251 227.862 403.305L223.898 403.837ZM223.179 396.336C223.179 398.512 223.573 401.414 223.898 403.837L227.862 403.305C227.524 400.782 227.179 398.184 227.179 396.336H223.179ZM222.145 390.498C222.729 392.97 223.179 394.927 223.179 396.336H227.179C227.179 394.352 226.579 391.868 226.038 389.578L222.145 390.498ZM222.253 390.826L222.253 390.826L225.93 389.251L225.93 389.25L222.253 390.826ZM220.743 381.717C220.743 384.607 221.51 387.81 222.145 390.498L226.038 389.578C225.374 386.769 224.743 384.049 224.743 381.717H220.743ZM221.152 379.449C220.939 380.245 220.743 381.088 220.743 381.717H224.743C224.743 381.752 224.742 381.675 224.792 381.417C224.838 381.184 224.911 380.875 225.016 380.485L221.152 379.449ZM230.447 386.625L224.697 378.784L221.471 381.15L227.221 388.991L230.447 386.625ZM236.913 441.185L230.821 387.582L226.847 388.034L232.938 441.636L236.913 441.185ZM234.489 468.212C234.489 466.51 235.082 459.946 235.698 453.635C236.002 450.517 236.306 447.513 236.534 445.288C236.648 444.176 236.743 443.258 236.81 442.619C236.843 442.3 236.869 442.05 236.887 441.88C236.896 441.795 236.903 441.729 236.907 441.686C236.91 441.664 236.911 441.647 236.913 441.636C236.913 441.631 236.914 441.627 236.914 441.624C236.914 441.622 236.914 441.621 236.914 441.621C236.914 441.62 236.914 441.62 236.914 441.62C236.914 441.62 236.914 441.62 234.925 441.41C232.936 441.201 232.936 441.201 232.936 441.201C232.936 441.202 232.936 441.202 232.936 441.202C232.936 441.203 232.936 441.204 232.936 441.205C232.936 441.208 232.935 441.212 232.935 441.218C232.933 441.229 232.932 441.246 232.929 441.268C232.925 441.312 232.918 441.378 232.909 441.463C232.891 441.634 232.865 441.885 232.831 442.205C232.765 442.846 232.669 443.765 232.555 444.88C232.326 447.109 232.022 450.12 231.717 453.246C231.114 459.422 230.489 466.259 230.489 468.212H234.489ZM255.448 468.706C251.981 468.802 246.309 468.958 241.512 468.708C239.096 468.581 237.019 468.356 235.589 468.007C234.858 467.828 234.447 467.652 234.264 467.536C234.068 467.412 234.489 467.608 234.489 468.212H230.489C230.489 469.598 231.413 470.466 232.125 470.916C232.85 471.374 233.751 471.675 234.639 471.892C236.446 472.334 238.828 472.573 241.303 472.702C246.287 472.963 252.121 472.8 255.559 472.704L255.448 468.706ZM255.504 468.705H255.504V472.705H255.504V468.705ZM258.072 468.648C257.514 468.648 256.583 468.674 255.448 468.706L255.559 472.704C256.727 472.672 257.585 472.648 258.072 472.648V468.648ZM256.854 452.375C254.921 452.89 254.921 452.89 254.921 452.89C254.921 452.89 254.921 452.89 254.921 452.89C254.921 452.89 254.921 452.891 254.922 452.892C254.922 452.893 254.923 452.896 254.924 452.9C254.926 452.908 254.929 452.92 254.933 452.936C254.942 452.969 254.955 453.018 254.972 453.083C255.005 453.213 255.055 453.404 255.117 453.649C255.24 454.139 255.413 454.841 255.61 455.684C256.005 457.375 256.489 459.614 256.86 461.84C257.237 464.098 257.475 466.22 257.424 467.726C257.398 468.506 257.299 468.917 257.234 469.068C257.197 469.152 257.436 468.648 258.072 468.648V472.648C259.621 472.648 260.507 471.573 260.904 470.658C261.272 469.809 261.391 468.793 261.422 467.859C261.486 465.939 261.191 463.493 260.806 461.182C260.416 458.841 259.911 456.511 259.506 454.775C259.303 453.905 259.124 453.18 258.995 452.67C258.931 452.416 258.879 452.215 258.843 452.076C258.825 452.007 258.811 451.954 258.801 451.917C258.797 451.899 258.793 451.885 258.79 451.875C258.789 451.87 258.788 451.867 258.787 451.864C258.787 451.863 258.787 451.862 258.786 451.861C258.786 451.86 258.786 451.86 258.786 451.86C258.786 451.859 258.786 451.859 256.854 452.375ZM259.735 407.11C258.519 419.887 257.302 431.144 256.389 439.206C255.933 443.237 255.553 446.468 255.286 448.692C255.153 449.803 255.049 450.663 254.978 451.244C254.942 451.535 254.915 451.756 254.897 451.904C254.887 451.978 254.881 452.034 254.876 452.071C254.874 452.09 254.872 452.104 254.871 452.113C254.87 452.117 254.87 452.121 254.869 452.123C254.869 452.124 254.869 452.125 254.869 452.126C254.869 452.126 254.869 452.126 254.869 452.126C254.869 452.126 254.869 452.126 256.854 452.375C258.838 452.623 258.838 452.622 258.838 452.622C258.838 452.622 258.838 452.622 258.838 452.622C258.838 452.621 258.838 452.62 258.839 452.619C258.839 452.616 258.839 452.613 258.84 452.608C258.841 452.598 258.843 452.584 258.845 452.565C258.85 452.527 258.857 452.47 258.866 452.395C258.885 452.245 258.912 452.022 258.948 451.73C259.02 451.145 259.125 450.282 259.258 449.167C259.525 446.936 259.906 443.696 260.364 439.656C261.278 431.576 262.498 420.295 263.717 407.489L259.735 407.11ZM249.544 311.059C247.586 311.465 247.586 311.465 247.586 311.465C247.586 311.466 247.586 311.466 247.586 311.467C247.587 311.469 247.587 311.472 247.588 311.477C247.59 311.485 247.592 311.497 247.596 311.514C247.603 311.548 247.613 311.598 247.627 311.665C247.654 311.798 247.695 311.997 247.748 312.258C247.854 312.779 248.009 313.548 248.206 314.536C248.6 316.513 249.16 319.367 249.825 322.872C251.155 329.883 252.903 339.496 254.574 349.903C257.934 370.827 260.925 394.621 259.735 407.11L263.717 407.489C264.964 394.396 261.864 370.07 258.524 349.269C256.845 338.814 255.09 329.163 253.755 322.127C253.088 318.608 252.525 315.742 252.129 313.755C251.931 312.761 251.775 311.987 251.668 311.461C251.614 311.198 251.573 310.997 251.545 310.861C251.531 310.793 251.521 310.742 251.514 310.707C251.51 310.69 251.507 310.677 251.505 310.668C251.505 310.663 251.504 310.66 251.503 310.658C251.503 310.657 251.503 310.656 251.503 310.655C251.503 310.655 251.503 310.654 249.544 311.059ZM247.941 312.256L247.942 312.257L251.146 309.862L251.146 309.861L247.941 312.256ZM227.939 282.392C237.122 286.984 242.017 294.138 244.631 300.208C247.255 306.299 247.551 311.234 247.547 311.18L251.54 310.938C251.526 310.7 250.198 289.05 229.728 278.815L227.939 282.392ZM206.905 267.203C205.241 268.312 205.243 268.314 205.244 268.316C205.244 268.317 205.246 268.319 205.247 268.321C205.249 268.323 205.251 268.326 205.252 268.329C205.256 268.335 205.26 268.34 205.264 268.346C205.273 268.358 205.282 268.371 205.291 268.384C205.31 268.411 205.332 268.44 205.357 268.472C205.407 268.536 205.469 268.612 205.547 268.7C205.702 268.876 205.921 269.105 206.23 269.392C206.846 269.964 207.835 270.782 209.413 271.887C212.567 274.095 218.142 277.494 227.939 282.392L229.728 278.815C220.034 273.967 214.645 270.667 211.707 268.61C210.24 267.583 209.402 266.879 208.952 266.461C208.727 266.253 208.604 266.12 208.55 266.058C208.523 266.027 208.513 266.015 208.518 266.021C208.52 266.024 208.526 266.031 208.535 266.043C208.539 266.05 208.544 266.057 208.55 266.065C208.553 266.069 208.556 266.074 208.559 266.079C208.561 266.081 208.563 266.083 208.564 266.086C208.565 266.087 208.566 266.089 208.567 266.09C208.568 266.092 208.57 266.094 206.905 267.203ZM205.497 261.894C204.923 261.894 204.528 261.628 204.342 261.46C204.17 261.305 204.099 261.169 204.096 261.164C204.09 261.151 204.14 261.253 204.217 261.544C204.362 262.095 204.493 262.9 204.602 263.791C204.708 264.663 204.785 265.544 204.836 266.211C204.861 266.544 204.879 266.82 204.891 267.013C204.897 267.109 204.901 267.184 204.904 267.234C204.906 267.259 204.907 267.278 204.907 267.29C204.908 267.296 204.908 267.301 204.908 267.304C204.908 267.305 204.908 267.306 204.908 267.307C204.908 267.307 204.908 267.307 204.908 267.307C204.908 267.307 204.908 267.307 204.908 267.307C204.908 267.307 204.908 267.307 206.905 267.203C208.903 267.099 208.903 267.099 208.903 267.099C208.903 267.099 208.903 267.099 208.903 267.098C208.903 267.098 208.903 267.097 208.903 267.097C208.903 267.096 208.902 267.094 208.902 267.092C208.902 267.087 208.902 267.081 208.901 267.074C208.901 267.058 208.899 267.036 208.898 267.008C208.895 266.951 208.89 266.869 208.883 266.765C208.87 266.558 208.851 266.263 208.824 265.911C208.771 265.208 208.689 264.261 208.572 263.306C208.458 262.369 208.301 261.347 208.085 260.527C207.982 260.133 207.834 259.664 207.61 259.251C207.498 259.046 207.314 258.754 207.023 258.492C206.718 258.216 206.2 257.894 205.497 257.894V261.894ZM205.866 262.701C206.031 262.432 206.172 262.201 206.299 261.999C206.427 261.796 206.525 261.647 206.601 261.541C206.688 261.42 206.698 261.422 206.646 261.471C206.618 261.498 206.525 261.583 206.37 261.67C206.218 261.755 205.914 261.894 205.497 261.894V257.894C204.606 257.894 204.033 258.436 203.894 258.568C203.669 258.782 203.483 259.025 203.349 259.212C203.075 259.594 202.761 260.111 202.453 260.616L205.866 262.701ZM191.316 274.061C199.677 273.016 204.007 265.746 205.866 262.701L202.453 260.616C200.461 263.876 197.028 269.315 190.82 270.091L191.316 274.061ZM187.738 272.647L190.174 273.865L191.963 270.287L189.526 269.069L187.738 272.647ZM126.385 397.854C127.07 391.484 128.012 384.388 128.719 379.061L124.754 378.535C124.048 383.853 123.1 390.998 122.408 397.427L126.385 397.854ZM128.718 379.069L128.718 379.068L124.755 378.528L124.755 378.528L128.718 379.069ZM128.719 379.061C129.004 376.92 129.251 375.059 129.426 373.654C129.592 372.332 129.72 371.229 129.72 370.753H125.72C125.72 370.748 125.719 370.801 125.708 370.945C125.697 371.076 125.681 371.248 125.658 371.464C125.612 371.894 125.544 372.463 125.457 373.157C125.284 374.544 125.039 376.388 124.754 378.535L128.719 379.061ZM129.72 370.753C129.72 368.843 129.021 355.821 128.683 349.634L124.689 349.852C125.033 356.146 125.72 368.987 125.72 370.753H129.72ZM123.629 371.971C123.629 372.11 123.611 372.174 123.637 372.013C123.654 371.908 123.681 371.755 123.722 371.549C123.801 371.139 123.92 370.572 124.072 369.871C124.376 368.47 124.804 366.574 125.301 364.412C126.296 360.09 127.559 354.73 128.632 350.204L124.74 349.281C123.666 353.809 122.401 359.179 121.403 363.515C120.905 365.682 120.472 367.598 120.163 369.023C120.009 369.734 119.883 370.333 119.795 370.785C119.752 371.009 119.715 371.21 119.688 371.376C119.67 371.485 119.629 371.736 119.629 371.971H123.629ZM123.515 373.279C123.641 372.763 123.629 372.251 123.629 371.971H119.629C119.629 372.061 119.629 372.13 119.628 372.192C119.628 372.253 119.626 372.295 119.625 372.325C119.622 372.384 119.618 372.373 119.629 372.33L123.515 373.279ZM120.607 377.04C121.449 376.198 122.073 375.576 122.492 375.093C122.927 374.59 123.331 374.03 123.515 373.279L119.629 372.33C119.669 372.164 119.753 372.146 119.469 372.473C119.168 372.82 118.674 373.316 117.779 374.212L120.607 377.04ZM119.005 377.654C118.704 378.338 118.147 378.614 117.913 378.706C117.671 378.802 117.468 378.825 117.408 378.832C117.281 378.847 117.169 378.844 117.21 378.844C117.222 378.844 117.326 378.845 117.453 378.835C117.722 378.814 118.031 378.753 118.378 378.62C119.048 378.363 119.778 377.869 120.607 377.04L117.779 374.212C117.199 374.791 116.927 374.892 116.944 374.885C116.964 374.878 117.034 374.856 117.143 374.847C117.191 374.844 117.234 374.844 117.205 374.844C117.199 374.844 117.173 374.844 117.143 374.845C117.116 374.846 117.047 374.848 116.96 374.857C116.895 374.865 116.688 374.889 116.443 374.986C116.206 375.08 115.646 375.357 115.344 376.043L119.005 377.654ZM119.763 377.168C119.457 376.555 119.182 376.134 118.941 375.832C118.817 375.677 118.714 375.568 118.644 375.497C118.636 375.49 118.63 375.483 118.625 375.479C118.619 375.473 118.619 375.472 118.617 375.471C118.61 375.464 118.632 375.485 118.659 375.515C118.675 375.532 118.703 375.563 118.737 375.605C118.768 375.644 118.827 375.719 118.889 375.823C118.945 375.915 119.055 376.114 119.121 376.392C119.192 376.691 119.225 377.155 119.005 377.654L115.344 376.043C115.124 376.544 115.157 377.009 115.228 377.311C115.294 377.591 115.406 377.793 115.463 377.888C115.574 378.072 115.693 378.199 115.71 378.217C115.745 378.256 115.777 378.288 115.783 378.293C115.801 378.311 115.794 378.304 115.802 378.312C115.804 378.314 115.804 378.314 115.803 378.313C115.803 378.313 115.803 378.313 115.803 378.313C115.802 378.313 115.802 378.312 115.802 378.312C115.802 378.313 115.803 378.314 115.805 378.316C115.807 378.318 115.81 378.322 115.815 378.327C115.848 378.369 115.978 378.542 116.186 378.957L119.763 377.168ZM120.787 380.381C121.061 379.53 120.696 378.84 120.645 378.736C120.56 378.565 120.439 378.374 120.393 378.299C120.259 378.082 120.053 377.747 119.763 377.168L116.186 378.957C116.548 379.682 116.82 380.128 116.99 380.401C117.032 380.47 117.055 380.507 117.073 380.537C117.092 380.569 117.081 380.553 117.061 380.512C117.045 380.481 116.976 380.341 116.931 380.135C116.88 379.901 116.852 379.55 116.98 379.155L120.787 380.381ZM119.389 381.913C119.55 381.752 119.647 381.689 119.7 381.655C119.725 381.639 119.739 381.631 119.782 381.604C119.81 381.587 119.881 381.543 119.955 381.491C120.037 381.433 120.561 381.084 120.787 380.381L116.98 379.154C117.087 378.822 117.262 378.588 117.395 378.446C117.517 378.316 117.626 378.239 117.654 378.219C117.685 378.197 117.704 378.186 117.673 378.205C117.656 378.216 117.603 378.248 117.552 378.281C117.437 378.354 117.288 378.454 117.114 378.591C116.942 378.726 116.757 378.887 116.56 379.085L119.389 381.913ZM119.193 389.026C121.09 388.394 121.09 388.394 121.09 388.394C121.09 388.394 121.09 388.394 121.09 388.394C121.09 388.394 121.09 388.394 121.09 388.394C121.09 388.394 121.09 388.393 121.089 388.392C121.088 388.389 121.087 388.385 121.085 388.379C121.081 388.367 121.075 388.349 121.067 388.324C121.051 388.275 121.027 388.2 120.997 388.104C120.936 387.912 120.849 387.634 120.748 387.295C120.546 386.615 120.292 385.706 120.076 384.77C119.856 383.817 119.693 382.911 119.646 382.212C119.623 381.859 119.635 381.638 119.653 381.527C119.678 381.365 119.68 381.621 119.389 381.913L116.56 379.085C115.964 379.681 115.776 380.432 115.702 380.903C115.619 381.425 115.622 381.974 115.655 382.478C115.723 383.493 115.941 384.642 116.178 385.669C116.419 386.713 116.697 387.707 116.914 388.435C117.023 388.801 117.117 389.103 117.184 389.315C117.218 389.422 117.245 389.506 117.264 389.564C117.274 389.593 117.281 389.616 117.286 389.632C117.289 389.64 117.291 389.646 117.293 389.651C117.293 389.653 117.294 389.655 117.294 389.656C117.295 389.657 117.295 389.657 117.295 389.658C117.295 389.658 117.295 389.658 117.295 389.658C117.295 389.659 117.295 389.659 119.193 389.026ZM126.11 396.609C124.617 394.128 123.315 391.973 122.387 390.438C121.922 389.671 121.551 389.059 121.296 388.638C121.169 388.428 121.07 388.266 121.004 388.156C120.971 388.101 120.945 388.059 120.928 388.031C120.92 388.017 120.913 388.006 120.909 387.999C120.907 387.996 120.905 387.993 120.904 387.991C120.903 387.99 120.903 387.99 120.903 387.989C120.903 387.989 120.902 387.989 120.902 387.989C120.902 387.989 120.902 387.989 120.902 387.988C120.902 387.988 120.902 387.988 119.193 389.026C117.483 390.064 117.483 390.064 117.483 390.064C117.483 390.064 117.483 390.064 117.483 390.064C117.483 390.065 117.483 390.065 117.484 390.065C117.484 390.065 117.484 390.066 117.485 390.067C117.486 390.069 117.487 390.071 117.49 390.075C117.494 390.082 117.5 390.092 117.509 390.106C117.526 390.134 117.551 390.176 117.584 390.23C117.65 390.34 117.749 390.502 117.876 390.712C118.13 391.131 118.501 391.743 118.964 392.509C119.891 394.042 121.192 396.194 122.683 398.672L126.11 396.609Z" fill="#3E4345" mask="url(#path-35-inside-1)"/>
<path d="M128.329 446.892L155.131 438.365L158.785 446.892L129.548 452.983L128.329 446.892Z" fill="#2F2E41"/>
<path d="M129.939 452.391L128.907 447.233L154.85 438.979L158.085 446.527L129.939 452.391Z" fill="#7A7A7A" stroke="#5E6366"/>
<path opacity="0.1" d="M164.876 262.939L185.586 279.994L188.023 276.339L164.876 262.939Z" fill="black" fill-opacity="0.87"/>
<path opacity="0.1" d="M206.296 267.812L191.678 276.339L192.896 279.994L206.296 267.812Z" fill="black" fill-opacity="0.87"/>
</g>
<defs>
<clipPath id="clip0">
<rect width="991.14" height="770.178" fill="white"/>
</clipPath>
</defs>
</svg>
