<svg id="Layer_1" enable-background="new 0 0 512 512" height="512" viewBox="0 0 512 512" width="512" xmlns="http://www.w3.org/2000/svg"><g><g><path d="m467.975 122.206c-2.006 0-4.008-.788-5.504-2.352-2.905-3.039-2.796-7.857.244-10.762 17.023-16.271 21.668-41.499 11.558-62.778-12.908-27.128-45.477-38.714-72.591-25.822-22.168 10.529-34.603 34.733-30.242 58.86.747 4.137-2 8.096-6.137 8.844-4.139.749-8.097-2-8.845-6.137-5.58-30.876 10.329-61.847 38.689-75.318 34.692-16.493 76.358-1.675 92.874 33.035 12.935 27.227 6.991 59.503-14.79 80.32-1.472 1.41-3.366 2.11-5.256 2.11z" fill="#dddaec"/></g><g><path clip-rule="evenodd" d="m269.104 197.965 71.602 5.523 5.437-24.021-17.548-17.894h-59.491l-10.616 17.894z" fill="#f9f6f6" fill-rule="evenodd"/></g><g><path clip-rule="evenodd" d="m227.851 200.467c0 7.135 7.451 11.507 14.441 8.602l26.811-11.105v-36.392l-26.811-11.105c-6.991-2.877-14.441 1.525-14.441 8.631z" fill="#9dc6fb" fill-rule="evenodd"/></g><g><path clip-rule="evenodd" d="m242.292 192.585c-6.991 2.877-14.441-1.496-14.441-8.602v16.484c0 7.135 7.451 11.507 14.441 8.602l26.811-11.105v-16.484l-5.351 2.215z" fill="#80b4fb" fill-rule="evenodd"/></g><g><path clip-rule="evenodd" d="m310.989 184.645-41.886-3.165v16.484l71.603 5.524-12.111-41.915h-14.902l2.762 10.155c2.618 9.609 4.891 13.694-5.466 12.917z" fill="#dddaec" fill-rule="evenodd"/></g><g><path clip-rule="evenodd" d="m346.92 224.921c2.503 8.659 13.665 11.622 21.777 7.767l119.04-56.559c8.112-3.855 12.859-14.384 7.738-21.778l-27.502-39.758-22.698-32.796-70.509 24.309-52.357 34.062 6.185 21.404 12.111 41.915z" fill="#9dc6fb" fill-rule="evenodd"/></g><g><path clip-rule="evenodd" d="m322.41 140.169 57.852-27.474 65.015-30.897-11.248-16.254c-5.121-7.393-13.665-11.622-21.806-7.767l-48.273 22.928-39.297 18.671c-8.112 3.855-10.241 13.147-7.738 21.778z" fill="#f9f6f6" fill-rule="evenodd"/></g><g><path clip-rule="evenodd" d="m412.222 57.776-25.689 12.227c8.112-3.884 16.656.345 21.777 7.739l9.378 13.579 1.87 2.704 25.718-12.227-11.248-16.254c-5.121-7.394-13.664-11.622-21.806-7.768z" fill="#dddaec" fill-rule="evenodd"/></g><g><path clip-rule="evenodd" d="m445.276 81.798-25.718 12.227 22.698 32.796 1.467 2.1 26.063 37.658c5.121 7.393.374 17.923-7.767 21.778l25.718-12.227c8.112-3.855 12.859-14.384 7.738-21.778l-27.502-39.758z" fill="#80b4fb" fill-rule="evenodd"/></g><g><path clip-rule="evenodd" d="m15.891 512h480.189c6.588 0 11.996-5.322 12.111-11.881v-.23-46.202-.201c-.115-6.559-5.523-11.881-12.111-11.881h-58.139-181.955-181.927-58.168c-6.588 0-11.967 5.322-12.082 11.881v.201 46.202.23c.115 6.559 5.495 11.881 12.082 11.881z" fill="#d09080" fill-rule="evenodd"/></g><g><path d="m121.304 484.421c-1.941 0-3.878-.74-5.362-2.223l-.029-.029c-2.972-2.972-2.972-7.792 0-10.765 2.973-2.972 7.792-2.972 10.766 0 2.972 2.972 2.986 7.807.014 10.779-1.49 1.491-3.441 2.238-5.389 2.238z" fill="#ce775f"/></g><g><path d="m195.351 488.276c-1.941 0-3.878-.74-5.362-2.223l-.029-.029c-2.972-2.972-2.972-7.792 0-10.765 2.973-2.972 7.792-2.972 10.766 0 2.972 2.972 2.986 7.807.014 10.779-1.49 1.491-3.44 2.238-5.389 2.238z" fill="#ce775f"/></g><g><path d="m314.133 484.421c-1.941 0-3.878-.74-5.362-2.223l-.029-.029c-2.972-2.972-2.972-7.792 0-10.765 2.973-2.972 7.792-2.972 10.766 0 2.972 2.972 2.986 7.807.014 10.779-1.49 1.491-3.44 2.238-5.389 2.238z" fill="#ce775f"/></g><g><path d="m378.026 488.276c-1.941 0-3.878-.74-5.362-2.223l-.029-.029c-2.972-2.972-2.972-7.792 0-10.765 2.973-2.972 7.792-2.972 10.766 0 2.972 2.972 2.986 7.807.014 10.779-1.49 1.491-3.441 2.238-5.389 2.238z" fill="#ce775f"/></g><g><path d="m128.142 285.38c-4.204 0-7.612-3.408-7.612-7.612v-25.115c0-4.204 3.407-7.612 7.612-7.612 4.204 0 7.612 3.408 7.612 7.612v25.115c0 4.204-3.407 7.612-7.612 7.612zm0-58.803c-4.204 0-7.612-3.408-7.612-7.612v-16.945c0-21.139 17.197-38.336 38.336-38.336h15.621c4.204 0 7.612 3.408 7.612 7.612s-3.407 7.612-7.612 7.612h-15.621c-12.744 0-23.112 10.368-23.112 23.112v16.945c0 4.204-3.407 7.612-7.612 7.612z" fill="#9dc6fb"/></g><g><path d="m164.016 256.468c-4.204 0-7.612-3.408-7.612-7.612v-36.881c0-11.795 9.609-21.392 21.42-21.392h13.435c4.204 0 7.612 3.408 7.612 7.612s-3.407 7.612-7.612 7.612h-13.435c-3.359 0-6.196 2.825-6.196 6.168v36.881c0 4.204-3.408 7.612-7.612 7.612z" fill="#9dc6fb"/></g><g><path clip-rule="evenodd" d="m74.059 411.483 35.298-3.567c19.246-1.927 34.953-19.419 34.953-38.837v-29.171c0-3.366-2.733-5.869-6.07-5.524l-29.228 2.934c-19.217 1.956-34.953 19.419-34.953 38.837v9.033z" fill="#a7e9a6" fill-rule="evenodd"/></g><g><path clip-rule="evenodd" d="m109.357 407.916c19.246-1.927 34.953-19.419 34.953-38.837v-29.171c0-3.366-2.733-5.869-6.07-5.524l-9.206.921v23.475c.029 19.419-13.722 33.4-32.968 35.328l-10.241 1.036-11.766 1.208v15.132z" fill="#7fdbae" fill-rule="evenodd"/></g><g><path d="m75.812 417.139c-1.822 0-3.648-.649-5.104-1.967-3.118-2.82-3.359-7.634-.538-10.751l30.867-34.119c2.822-3.118 7.637-3.357 10.751-.538 3.118 2.82 3.359 7.634.538 10.751l-30.867 34.119c-1.503 1.66-3.571 2.505-5.647 2.505z" fill="#26bb9e"/></g><g><path clip-rule="evenodd" d="m476.345 453.687v46.202c0 6.646-5.437 12.112-12.111 12.112h31.846c6.588 0 11.996-5.322 12.111-11.881v-.23-46.202-.201c-.115-6.559-5.523-11.881-12.111-11.881h-31.846c6.674-.002 12.111 5.435 12.111 12.081z" fill="#ce775f" fill-rule="evenodd"/></g><g><path clip-rule="evenodd" d="m74.261 372.33-35.298-3.567c-19.217-1.957-34.953-19.419-34.953-38.838v-29.171c0-3.366 2.733-5.869 6.07-5.524l29.228 2.934c19.217 1.956 34.953 19.419 34.953 38.837v9.033z" fill="#a7e9a6" fill-rule="evenodd"/></g><g><path clip-rule="evenodd" d="m38.963 368.762c-19.217-1.956-34.953-19.418-34.953-38.837v-29.171c0-3.366 2.733-5.869 6.07-5.524l9.206.921v23.475c0 19.419 13.722 33.4 32.968 35.328l10.241 1.036 11.766 1.18v15.161z" fill="#7fdbae" fill-rule="evenodd"/></g><g><path d="m72.508 377.985c-2.077 0-4.146-.845-5.649-2.508l-30.839-34.118c-2.819-3.119-2.575-7.932.543-10.751s7.931-2.575 10.752.543l30.839 34.119c2.819 3.119 2.575 7.932-.543 10.751-1.457 1.315-3.284 1.964-5.103 1.964z" fill="#26bb9e"/></g><g><path d="m81.669 336.999v112.218h-15.223v-112.218c0-4.202 3.41-7.612 7.612-7.612 4.211.001 7.611 3.411 7.611 7.612z" fill="#4fc9af"/></g><g><path clip-rule="evenodd" d="m255.986 411.483 35.327-3.567c19.217-1.927 34.953-19.419 34.953-38.837v-29.171c0-3.366-2.762-5.869-6.099-5.524l-29.228 2.934c-19.217 1.956-34.953 19.419-34.953 38.837v9.033z" fill="#a7e9a6" fill-rule="evenodd"/></g><g><path clip-rule="evenodd" d="m291.312 407.916c19.217-1.927 34.953-19.419 34.953-38.837v-29.171c0-3.366-2.762-5.869-6.099-5.524l-9.177.921v23.475c0 19.419-13.751 33.4-32.968 35.328l-10.241 1.036-11.795 1.208v15.132z" fill="#7fdbae" fill-rule="evenodd"/></g><g><path d="m257.767 417.139c-1.821 0-3.645-.649-5.102-1.965-3.118-2.819-3.362-7.632-.543-10.751l30.839-34.119c2.821-3.119 7.634-3.359 10.752-.543 3.118 2.819 3.362 7.632.543 10.751l-30.839 34.119c-1.503 1.662-3.573 2.508-5.65 2.508z" fill="#26bb9e"/></g><g><path clip-rule="evenodd" d="m256.187 372.33-35.298-3.567c-19.217-1.956-34.953-19.419-34.953-38.837v-29.171c0-3.366 2.733-5.869 6.07-5.524l29.228 2.934c19.245 1.956 34.953 19.419 34.953 38.837v9.033z" fill="#a7e9a6" fill-rule="evenodd"/></g><g><path clip-rule="evenodd" d="m220.889 368.762c-19.217-1.956-34.953-19.419-34.953-38.837v-29.171c0-3.366 2.733-5.869 6.07-5.524l9.206.921v23.475c0 19.419 13.751 33.4 32.968 35.328l10.241 1.036 11.766 1.18v15.161z" fill="#7fdbae" fill-rule="evenodd"/></g><g><path d="m254.434 377.985c-2.077 0-4.146-.845-5.649-2.508l-30.839-34.119c-2.819-3.119-2.575-7.932.543-10.751s7.932-2.575 10.752.543l30.839 34.119c2.819 3.119 2.575 7.932-.543 10.751-1.457 1.316-3.283 1.965-5.103 1.965z" fill="#26bb9e"/></g><g><path d="m263.602 449.218v-15.224-96.995c0-4.202-3.41-7.612-7.612-7.612-4.212 0-7.612 3.41-7.612 7.612v96.995 15.224z" fill="#4fc9af"/></g><g><path clip-rule="evenodd" d="m437.941 411.483 35.298-3.567c19.217-1.927 34.953-19.419 34.953-38.837v-29.171c0-3.366-2.733-5.869-6.099-5.524l-29.228 2.934c-19.217 1.956-34.924 19.419-34.924 38.837v9.033z" fill="#a7e9a6" fill-rule="evenodd"/></g><g><path clip-rule="evenodd" d="m473.238 407.916c19.217-1.927 34.953-19.419 34.953-38.837v-29.171c0-3.366-2.733-5.869-6.099-5.524l-9.177.921v23.475c0 19.419-13.751 33.4-32.968 35.328l-10.241 1.036-11.766 1.208v15.132z" fill="#7fdbae" fill-rule="evenodd"/></g><g><path d="m439.693 417.139c-1.821 0-3.645-.649-5.102-1.965-3.118-2.819-3.362-7.632-.543-10.751l30.839-34.119c2.821-3.119 7.634-3.359 10.752-.543 3.118 2.819 3.362 7.632.543 10.751l-30.839 34.119c-1.503 1.662-3.573 2.508-5.65 2.508z" fill="#26bb9e"/></g><g><path clip-rule="evenodd" d="m438.142 372.33-35.327-3.567c-19.217-1.956-34.953-19.419-34.953-38.837v-29.171c0-3.366 2.733-5.869 6.099-5.524l29.228 2.934c19.217 1.956 34.953 19.419 34.953 38.837v9.033z" fill="#a7e9a6" fill-rule="evenodd"/></g><g><path clip-rule="evenodd" d="m402.815 368.762c-19.217-1.956-34.953-19.419-34.953-38.837v-29.171c0-3.366 2.733-5.869 6.099-5.524l9.177.921v23.475c0 19.419 13.751 33.4 32.968 35.328l10.241 1.036 11.795 1.18v15.161z" fill="#7fdbae" fill-rule="evenodd"/></g><g><path d="m436.36 377.985c-2.077 0-4.146-.845-5.649-2.508l-30.839-34.119c-2.819-3.119-2.575-7.932.543-10.751s7.931-2.575 10.752.543l30.839 34.119c2.819 3.119 2.575 7.932-.543 10.751-1.456 1.316-3.283 1.965-5.103 1.965z" fill="#26bb9e"/></g><g><path d="m445.554 336.999v112.218h-15.224v-112.218c0-4.202 3.4-7.612 7.612-7.612 4.202.001 7.612 3.411 7.612 7.612z" fill="#4fc9af"/></g></g></svg>