<svg width="58" height="85" viewBox="0 0 58 85" fill="none" xmlns="http://www.w3.org/2000/svg">
<path d="M27.8844 68.5179C25.3683 68.5179 23.2276 69.3107 21.4531 70.9001C19.6773 72.4896 18.79 74.4203 18.79 76.683C18.79 79.245 19.6878 81.2518 21.4807 82.714C23.2801 84.1748 25.3683 84.9058 27.7636 84.9058C30.1996 84.9058 32.3219 84.1853 34.1384 82.7402C35.9549 81.2991 36.8579 79.2818 36.8579 76.6843C36.8579 74.4203 35.9917 72.4909 34.2579 70.9014C32.5201 69.3107 30.3978 68.5179 27.8844 68.5179Z" fill="#A78EC3"/>
<path d="M53.5292 12.2589C51.2244 8.75452 47.9235 5.94445 43.7117 3.91795C39.5301 1.90064 34.6581 0.884766 29.2217 0.884766C23.3732 0.884766 18.1691 2.1067 13.7591 4.52039C9.33994 6.93277 5.934 10.0303 3.62138 13.7341C1.293 17.4498 0.119629 21.1852 0.119629 24.8392C0.119629 26.7948 0.928128 28.6153 2.52282 30.252C4.12538 31.8978 6.12038 32.7326 8.44875 32.7326C12.4125 32.7326 15.1294 30.3963 16.5088 25.8275C17.7649 22.0383 19.3123 19.1548 21.1026 17.2425C22.7878 15.4417 25.5204 14.5308 29.223 14.5308C32.4163 14.5308 34.935 15.426 36.9339 17.2687C38.9027 19.0905 39.8595 21.264 39.8595 23.9073C39.8714 25.1873 39.5488 26.4482 38.9237 27.5653C38.2593 28.758 37.4324 29.8526 36.4667 30.8176C35.4429 31.8414 33.7551 33.3862 31.4477 35.4022C28.7597 37.7581 26.5901 39.828 25.0059 41.5355C23.3308 43.3639 21.9852 45.4688 21.0291 47.7568C20.0303 50.1245 19.5249 52.9438 19.5249 56.1397C19.5249 58.871 20.2862 60.9855 21.7916 62.4266C23.2813 63.8572 25.1359 64.583 27.3081 64.583C31.4608 64.583 34.0688 62.3137 34.8431 58.0691C35.2448 56.3038 35.5374 55.07 35.7356 54.3652C35.9154 53.7273 36.1753 53.0737 36.51 52.4201C36.8342 51.7875 37.3487 51.0669 38.0378 50.2741C38.7583 49.446 39.7388 48.4681 40.9344 47.3775C45.4088 43.3796 48.564 40.4829 50.3149 38.7688C52.1209 36.9982 53.6959 34.8785 55.0018 32.4609C56.3353 29.9803 57.0139 27.0678 57.0139 23.801C57.0113 19.6614 55.8379 15.7816 53.5213 12.2628" fill="#A78EC3"/>
</svg>
