<svg width="84" height="85" viewBox="0 0 84 85" fill="none" xmlns="http://www.w3.org/2000/svg">
<g clip-path="url(#clip0)">
<path d="M40.8844 68.5179C38.3683 68.5179 36.2276 69.3107 34.4531 70.9001C32.6773 72.4896 31.79 74.4203 31.79 76.683C31.79 79.245 32.6878 81.2518 34.4807 82.714C36.2801 84.1748 38.3683 84.9058 40.7636 84.9058C43.1996 84.9058 45.3219 84.1853 47.1384 82.7402C48.9549 81.2991 49.8579 79.2818 49.8579 76.6843C49.8579 74.4203 48.9917 72.4909 47.2579 70.9014C45.5201 69.3107 43.3978 68.5179 40.8844 68.5179Z" fill="#F9D475"/>
<path d="M66.5292 12.2589C64.2244 8.75452 60.9235 5.94445 56.7117 3.91795C52.5301 1.90064 47.6581 0.884766 42.2217 0.884766C36.3732 0.884766 31.1691 2.1067 26.7591 4.52039C22.3399 6.93277 18.934 10.0303 16.6214 13.7341C14.293 17.4498 13.1196 21.1852 13.1196 24.8392C13.1196 26.7948 13.9281 28.6153 15.5228 30.252C17.1254 31.8978 19.1204 32.7326 21.4488 32.7326C25.4125 32.7326 28.1294 30.3963 29.5088 25.8275C30.7649 22.0383 32.3123 19.1548 34.1026 17.2425C35.7878 15.4417 38.5204 14.5308 42.223 14.5308C45.4163 14.5308 47.935 15.426 49.9339 17.2687C51.9027 19.0905 52.8595 21.264 52.8595 23.9073C52.8714 25.1873 52.5488 26.4482 51.9237 27.5653C51.2593 28.758 50.4324 29.8526 49.4667 30.8176C48.4429 31.8414 46.7551 33.3862 44.4477 35.4022C41.7597 37.7581 39.5901 39.828 38.0059 41.5355C36.3308 43.3639 34.9852 45.4688 34.0291 47.7568C33.0303 50.1245 32.5249 52.9438 32.5249 56.1397C32.5249 58.871 33.2862 60.9855 34.7916 62.4266C36.2813 63.8572 38.1359 64.583 40.3081 64.583C44.4608 64.583 47.0688 62.3137 47.8431 58.0691C48.2448 56.3038 48.5374 55.07 48.7356 54.3652C48.9154 53.7273 49.1753 53.0737 49.51 52.4201C49.8342 51.7875 50.3487 51.0669 51.0378 50.2741C51.7583 49.446 52.7388 48.4681 53.9344 47.3775C58.4088 43.3796 61.564 40.4829 63.3149 38.7688C65.1209 36.9982 66.6959 34.8785 68.0018 32.4609C69.3353 29.9803 70.0139 27.0678 70.0139 23.801C70.0113 19.6614 68.8379 15.7816 66.5213 12.2628" fill="#F9D475"/>
</g>
<defs>
<clipPath id="clip0">
<rect width="84" height="84" fill="white" transform="translate(0 0.884766)"/>
</clipPath>
</defs>
</svg>
